<svg width="40" height="40" viewBox="0 0 40 40" fill="none" xmlns="http://www.w3.org/2000/svg">
<path d="M9.06069 22.2939C10.2479 19.4451 13.0314 17.5895 16.1177 17.5895H22.1615C24.9712 17.5895 27.5417 19.1712 28.8081 21.6794L30.7615 25.5482C33.361 30.6969 27.9094 36.1907 22.7408 33.631C20.7431 32.6416 18.3769 32.6731 16.3996 33.6954C11.1771 36.3953 5.37103 31.1478 7.61676 25.7588L9.06069 22.2939Z" fill="white" stroke="#415656"/>
<mask id="path-2-inside-1_143_2513" fill="white">
<path fill-rule="evenodd" clip-rule="evenodd" d="M0.466403 16.9682L0.251493 15.3413L1.31439 15.9389C1.3684 15.9088 1.42437 15.882 1.48232 15.8586C3.10641 15.2024 5.67261 17.4603 6.66345 19.5817C7.65429 21.7032 7.14094 23.9549 5.51685 24.611C3.89276 25.2672 1.77294 24.0794 0.7821 21.958C0.0716144 20.4368 -0.0949815 18.2984 0.466403 16.9682Z"/>
</mask>
<path fill-rule="evenodd" clip-rule="evenodd" d="M0.466403 16.9682L0.251493 15.3413L1.31439 15.9389C1.3684 15.9088 1.42437 15.882 1.48232 15.8586C3.10641 15.2024 5.67261 17.4603 6.66345 19.5817C7.65429 21.7032 7.14094 23.9549 5.51685 24.611C3.89276 25.2672 1.77294 24.0794 0.7821 21.958C0.0716144 20.4368 -0.0949815 18.2984 0.466403 16.9682Z" fill="white"/>
<path d="M0.251493 15.3413L0.741559 14.4696L-1.00181 13.4895L-0.739895 15.4723L0.251493 15.3413ZM0.466403 16.9682L1.38772 17.3571L1.49338 17.1067L1.45779 16.8373L0.466403 16.9682ZM1.31439 15.9389L0.824322 16.8106L1.31166 17.0845L1.80029 16.8129L1.31439 15.9389ZM1.48232 15.8586L1.10771 14.9314L1.10771 14.9314L1.48232 15.8586ZM6.66345 19.5817L7.5695 19.1586L6.66345 19.5817ZM0.7821 21.958L-0.123947 22.3811L0.7821 21.958ZM-0.739895 15.4723L-0.524985 17.0992L1.45779 16.8373L1.24288 15.2103L-0.739895 15.4723ZM1.80445 15.0672L0.741559 14.4696L-0.238574 16.213L0.824322 16.8106L1.80445 15.0672ZM1.80029 16.8129C1.81871 16.8026 1.83753 16.7936 1.85693 16.7858L1.10771 14.9314C1.0112 14.9704 0.918082 15.015 0.828483 15.0649L1.80029 16.8129ZM1.85693 16.7858C1.98342 16.7347 2.19729 16.7119 2.53735 16.819C2.87756 16.9262 3.27749 17.1445 3.69927 17.4701C4.54827 18.1256 5.33309 19.0964 5.75741 20.0049L7.5695 19.1586C7.00297 17.9456 6.00928 16.7268 4.92144 15.887C4.3748 15.465 3.76674 15.1093 3.13805 14.9114C2.50921 14.7134 1.79327 14.6545 1.10771 14.9314L1.85693 16.7858ZM5.75741 20.0049C6.17075 20.8899 6.24786 21.7565 6.09577 22.4236C5.94505 23.0847 5.58989 23.503 5.14224 23.6839L5.89146 25.5382C7.0679 25.0629 7.78146 24.0273 8.04573 22.8681C8.30863 21.715 8.147 20.395 7.5695 19.1586L5.75741 20.0049ZM5.14224 23.6839C4.68137 23.8701 4.06672 23.8269 3.40084 23.4537C2.739 23.0829 2.10112 22.419 1.68815 21.5348L-0.123947 22.3811C0.453919 23.6184 1.37137 24.6091 2.42317 25.1985C3.47093 25.7856 4.72824 26.0082 5.89146 25.5382L5.14224 23.6839ZM1.68815 21.5348C1.39165 20.9 1.19807 20.1081 1.14502 19.324C1.09132 18.5303 1.18715 17.8323 1.38772 17.3571L-0.454911 16.5794C-0.815732 17.4344 -0.917292 18.4706 -0.850419 19.459C-0.782899 20.4569 -0.537938 21.4948 -0.123947 22.3811L1.68815 21.5348Z" fill="#415656" mask="url(#path-2-inside-1_143_2513)"/>
<mask id="path-4-inside-2_143_2513" fill="white">
<path fill-rule="evenodd" clip-rule="evenodd" d="M11.3225 5.20704L11.7151 3.5605L12.8576 5.29227C14.4127 6.07381 15.8984 8.69802 16.2828 10.8785C16.7624 13.598 15.6079 16.0746 13.7043 16.4103C11.8006 16.746 9.8687 14.8135 9.38919 12.094C8.94324 9.56494 9.68523 5.9682 11.3225 5.20704Z"/>
</mask>
<path fill-rule="evenodd" clip-rule="evenodd" d="M11.3225 5.20704L11.7151 3.5605L12.8576 5.29227C14.4127 6.07381 15.8984 8.69802 16.2828 10.8785C16.7624 13.598 15.6079 16.0746 13.7043 16.4103C11.8006 16.746 9.8687 14.8135 9.38919 12.094C8.94324 9.56494 9.68523 5.9682 11.3225 5.20704Z" fill="white"/>
<path d="M11.7151 3.5605L12.5499 3.00982L11.2781 1.08212L10.7424 3.32852L11.7151 3.5605ZM11.3225 5.20704L11.7441 6.11383L12.1829 5.9098L12.2952 5.43901L11.3225 5.20704ZM12.8576 5.29227L12.0229 5.84295L12.17 6.06586L12.4086 6.18578L12.8576 5.29227ZM10.7424 3.32852L10.3498 4.97507L12.2952 5.43901L12.6879 3.79247L10.7424 3.32852ZM13.6923 4.7416L12.5499 3.00982L10.8804 4.11117L12.0229 5.84295L13.6923 4.7416ZM12.4086 6.18578C12.939 6.45234 13.5778 7.1157 14.151 8.0741C14.7102 9.00901 15.1295 10.0961 15.298 11.0521L17.2676 10.7049C17.0517 9.48038 16.5359 8.16517 15.8674 7.04747C15.2129 5.95326 14.3314 4.91375 13.3067 4.39877L12.4086 6.18578ZM15.298 11.0521C15.5065 12.2346 15.3508 13.3223 14.9809 14.1158C14.6093 14.9129 14.0729 15.3299 13.5306 15.4255L13.8779 17.3951C15.2393 17.1551 16.2319 16.1659 16.7936 14.9608C17.357 13.7522 17.5387 12.2419 17.2676 10.7049L15.298 11.0521ZM13.5306 15.4255C12.9883 15.5211 12.3416 15.3127 11.7199 14.6908C11.1009 14.0717 10.5825 13.1028 10.374 11.9204L8.40438 12.2677C8.67539 13.8047 9.36271 15.1618 10.3055 16.1049C11.2455 17.0452 12.5165 17.6352 13.8779 17.3951L13.5306 15.4255ZM10.374 11.9204C10.1776 10.8066 10.2414 9.41892 10.5436 8.23482C10.6938 7.64607 10.8939 7.14394 11.1225 6.76644C11.3554 6.38157 11.5776 6.19121 11.7441 6.11383L10.9009 4.30025C10.2487 4.60345 9.76419 5.14812 9.41151 5.73074C9.05436 6.32075 8.78986 7.01859 8.60569 7.7403C8.23903 9.17714 8.15481 10.8523 8.40438 12.2677L10.374 11.9204Z" fill="#415656" mask="url(#path-4-inside-2_143_2513)"/>
<mask id="path-6-inside-3_143_2513" fill="white">
<path fill-rule="evenodd" clip-rule="evenodd" d="M25.7934 5.10754L26.7746 3.62017L27.2103 5.44698C28.5787 6.54634 29.1716 9.77066 28.7619 12.094C28.2824 14.8135 26.3505 16.7459 24.4468 16.4103C22.5432 16.0746 21.3887 13.5979 21.8683 10.8785C22.2938 8.46484 24.0687 5.50754 25.7934 5.10754Z"/>
</mask>
<path fill-rule="evenodd" clip-rule="evenodd" d="M25.7934 5.10754L26.7746 3.62017L27.2103 5.44698C28.5787 6.54634 29.1716 9.77066 28.7619 12.094C28.2824 14.8135 26.3505 16.7459 24.4468 16.4103C22.5432 16.0746 21.3887 13.5979 21.8683 10.8785C22.2938 8.46484 24.0687 5.50754 25.7934 5.10754Z" fill="white"/>
<path d="M26.7746 3.62017L27.7474 3.3882L27.2116 1.1418L25.9399 3.0695L26.7746 3.62017ZM25.7934 5.10754L26.0193 6.08168L26.4083 5.99148L26.6281 5.65821L25.7934 5.10754ZM27.2103 5.44698L26.2376 5.67895L26.317 6.01209L26.584 6.22657L27.2103 5.44698ZM25.9399 3.0695L24.9587 4.55687L26.6281 5.65821L27.6094 4.17085L25.9399 3.0695ZM28.183 5.21501L27.7474 3.3882L25.8019 3.85215L26.2376 5.67895L28.183 5.21501ZM26.584 6.22657C26.9965 6.55797 27.4226 7.35885 27.6757 8.52379C27.9192 9.64473 27.957 10.9 27.7771 11.9204L29.7467 12.2676C29.9765 10.9647 29.9227 9.44609 29.6301 8.0992C29.3471 6.7963 28.7925 5.43535 27.8366 4.66739L26.584 6.22657ZM27.7771 11.9204C27.5686 13.1028 27.0502 14.0716 26.4312 14.6908C25.8095 15.3127 25.1628 15.5211 24.6205 15.4255L24.2732 17.3951C25.6346 17.6351 26.9056 17.0451 27.8456 16.1048C28.7884 15.1618 29.4757 13.8047 29.7467 12.2676L27.7771 11.9204ZM24.6205 15.4255C24.0782 15.3298 23.5418 14.9128 23.1702 14.1158C22.8003 13.3223 22.6446 12.2346 22.8531 11.0521L20.8835 10.7048C20.6124 12.2418 20.7941 13.7522 21.3575 14.9608C21.9192 16.1659 22.9118 17.155 24.2732 17.3951L24.6205 15.4255ZM22.8531 11.0521C23.0402 9.99085 23.5351 8.77369 24.1809 7.78468C24.8595 6.74564 25.5498 6.19058 26.0193 6.08168L25.5675 4.1334C24.3123 4.4245 23.2528 5.54809 22.5064 6.69111C21.7273 7.88415 21.1219 9.35245 20.8835 10.7048L22.8531 11.0521Z" fill="#415656" mask="url(#path-6-inside-3_143_2513)"/>
<mask id="path-8-inside-4_143_2513" fill="white">
<path fill-rule="evenodd" clip-rule="evenodd" d="M37.2016 15.9938L38.4827 15.2735L38.2712 16.8757C39.0091 18.2059 38.8748 20.6801 38.1038 22.2749C37.1117 24.3268 34.9959 25.4604 33.3781 24.8068C31.7603 24.1531 31.2531 21.9598 32.2452 19.9079C33.1945 17.9444 35.5802 15.6182 37.2016 15.9938Z"/>
</mask>
<path fill-rule="evenodd" clip-rule="evenodd" d="M37.2016 15.9938L38.4827 15.2735L38.2712 16.8757C39.0091 18.2059 38.8748 20.6801 38.1038 22.2749C37.1117 24.3268 34.9959 25.4604 33.3781 24.8068C31.7603 24.1531 31.2531 21.9598 32.2452 19.9079C33.1945 17.9444 35.5802 15.6182 37.2016 15.9938Z" fill="white"/>
<path d="M38.4827 15.2735L39.4741 15.4043L39.7358 13.4215L37.9926 14.4018L38.4827 15.2735ZM37.2016 15.9938L36.9759 16.968L37.3537 17.0556L37.6917 16.8655L37.2016 15.9938ZM38.2712 16.8757L37.2798 16.7448L37.2366 17.0721L37.3967 17.3608L38.2712 16.8757ZM38.1038 22.2749L37.2035 21.8396L38.1038 22.2749ZM33.3781 24.8068L33.0035 25.734L33.0035 25.734L33.3781 24.8068ZM32.2452 19.9079L33.1455 20.3431L32.2452 19.9079ZM37.9926 14.4018L36.7114 15.1222L37.6917 16.8655L38.9728 16.1451L37.9926 14.4018ZM39.2626 17.0066L39.4741 15.4043L37.4913 15.1426L37.2798 16.7448L39.2626 17.0066ZM37.3967 17.3608C37.6423 17.8035 37.7882 18.5482 37.7541 19.4378C37.7206 20.3108 37.5184 21.1882 37.2035 21.8396L39.0041 22.7102C39.4602 21.7668 39.7106 20.6097 39.7526 19.5144C39.7939 18.4356 39.638 17.2781 39.1456 16.3906L37.3967 17.3608ZM37.2035 21.8396C36.7945 22.6855 36.1626 23.3208 35.5033 23.674C34.8401 24.0293 34.2209 24.0688 33.7527 23.8796L33.0035 25.734C34.1531 26.1984 35.4007 25.9979 36.4478 25.4369C37.499 24.8737 38.421 23.9162 39.0041 22.7102L37.2035 21.8396ZM33.7527 23.8796C33.2998 23.6966 32.9528 23.2859 32.8072 22.6564C32.6598 22.0187 32.7361 21.1898 33.1455 20.3431L31.3449 19.4726C30.7622 20.6778 30.5961 21.9717 30.8587 23.107C31.1231 24.2505 31.8387 25.2633 33.0035 25.734L33.7527 23.8796ZM33.1455 20.3431C33.556 19.4941 34.3008 18.531 35.119 17.8357C35.5255 17.4902 35.9186 17.2378 36.2638 17.0928C36.6148 16.9454 36.8448 16.9377 36.9759 16.968L37.4273 15.0196C36.7477 14.8622 36.0714 15.0044 35.4894 15.2489C34.9016 15.4957 34.335 15.8772 33.8237 16.3117C32.8064 17.1764 31.8837 18.3582 31.3449 19.4726L33.1455 20.3431Z" fill="#415656" mask="url(#path-8-inside-4_143_2513)"/>
</svg>
