<svg width="40" height="40" viewBox="0 0 40 40" fill="none" xmlns="http://www.w3.org/2000/svg">
<path d="M9.59916 22.6015C10.864 19.5664 13.8296 17.5895 17.1177 17.5895H23.1615C26.1599 17.5895 28.903 19.2774 30.2544 21.954L32.2078 25.8229C35.0239 31.4005 29.1181 37.3521 23.5189 34.5791C21.6653 33.661 19.4667 33.6896 17.6292 34.6395C12.0105 37.5443 5.72215 31.905 8.15523 26.0665L9.59916 22.6015Z" fill="#415656"/>
<path d="M27.7275 11.5C27.7275 14.2614 26.1605 16.5 24.2275 16.5C22.2945 16.5 20.7275 14.2614 20.7275 11.5C20.7275 8.73858 22.2945 5 24.2275 5C26.1605 5 27.7275 8.73858 27.7275 11.5Z" fill="#415656"/>
<path d="M18.7275 11.5C18.7275 14.2614 17.1605 16.5 15.2275 16.5C13.2945 16.5 11.7275 14.2614 11.7275 11.5C11.7275 8.73858 13.2945 5 15.2275 5C17.1605 5 18.7275 8.73858 18.7275 11.5Z" fill="#415656"/>
<path d="M9.04098 16.5825C9.44899 18.8881 8.37035 20.9302 6.63176 21.1437C4.89318 21.3572 3.15303 19.6612 2.74502 17.3556C2.33701 15.05 3.26142 11.8588 5.00001 11.6453C6.73859 11.4318 8.63298 14.2769 9.04098 16.5825Z" fill="#415656"/>
<path d="M37.0451 17.6879C36.6179 19.9267 34.8677 21.5692 33.1358 21.3566C31.404 21.144 30.3463 19.1567 30.7735 16.9178C31.2008 14.679 33.0407 11.6515 34.7726 11.8641C36.5044 12.0768 37.4723 15.4491 37.0451 17.6879Z" fill="#415656"/>
</svg>
