<svg width="25" height="24" viewBox="0 0 25 24" fill="none" xmlns="http://www.w3.org/2000/svg">
<path d="M3.5 3H5.5L5.9 5M7.5 13H17.5L21.5 5H5.9M7.5 13L5.9 5M7.5 13L5.20711 15.2929C4.57714 15.9229 5.02331 17 5.91421 17H17.5M17.5 17C16.3954 17 15.5 17.8954 15.5 19C15.5 20.1046 16.3954 21 17.5 21C18.6046 21 19.5 20.1046 19.5 19C19.5 17.8954 18.6046 17 17.5 17ZM9.5 19C9.5 20.1046 8.60457 21 7.5 21C6.39543 21 5.5 20.1046 5.5 19C5.5 17.8954 6.39543 17 7.5 17C8.60457 17 9.5 17.8954 9.5 19Z" stroke="#415656" stroke-width="2" stroke-linecap="round" stroke-linejoin="round"/>
</svg>
