<svg width="20" height="20" viewBox="0 0 20 20" fill="none" xmlns="http://www.w3.org/2000/svg">
<path d="M10 6V19M10 6C10 6 10 4.50722 10 4C10 2.89543 10.8954 2 12 2C13.1046 2 14 2.89543 14 4C14 5.10457 13.1046 6 12 6C11.4027 6 10 6 10 6ZM10 6C10 6 10 4.06291 10 3.5C10 2.11929 8.88071 1 7.5 1C6.11929 1 5 2.11929 5 3.5C5 4.88071 6.11929 6 7.5 6C8.3178 6 10 6 10 6ZM3 10H17M3 10C1.89543 10 1 9.10457 1 8C1 6.89543 1.89543 6 3 6H17C18.1046 6 19 6.89543 19 8C19 9.10457 18.1046 10 17 10M3 10L3 17C3 18.1046 3.89543 19 5 19H15C16.1046 19 17 18.1046 17 17V10" stroke="#415656" stroke-width="2" stroke-linecap="round" stroke-linejoin="round"/>
</svg>
