<svg width="1366" height="229" viewBox="0 0 1366 229" fill="none" xmlns="http://www.w3.org/2000/svg">
<path d="M363.938 120.15C357.969 123.24 352.803 133.57 349.163 138.36C345.524 143.15 342.448 147.77 341.137 148.78C337.476 151.59 333.479 154.01 329.353 155.8C326.136 157.19 322.55 156.49 320.677 152.67C318.705 148.67 320.644 145.33 323.363 142.85C326.385 140.09 329.591 137.56 332.851 135.18C342.145 128.39 353.106 113.15 355.272 107.15C355.272 107.15 356.355 105.15 356.355 101.15C356.355 98.1499 355.272 95.1499 355.272 95.1499C354.926 94.0799 345.957 78.7199 345.232 77.8699C342.35 74.4999 340.487 74.82 338.993 79.16C337.628 83.1199 336.512 87.2099 335.386 91.2799C331.421 105.75 326.341 119.55 317.048 130.74C314.882 133.35 312.185 137.57 308.903 134.82C305.577 132.03 307.668 127.45 309.455 124.16C313.3 117.04 317.405 110.12 321.543 103.21C327.132 93.8699 330.663 83.6599 331.876 72.4199C333.544 56.9799 319.106 41.6299 305.242 44.4399C305.242 51.5199 305.198 58.6699 305.242 65.8199C305.35 81.9999 302.393 97.3999 296.122 111.88C294.692 115.19 292.721 118.41 290.37 120.88C289.016 122.3 285.951 123.2 284.467 122.39C282.961 121.56 281.467 118.18 281.716 116.2C282.203 112.27 283.698 108.44 285.106 104.73C291.312 88.3999 297.725 79.7999 295.233 45.5099C294.876 40.5999 293.067 37.1099 289.016 35.2099C287.088 34.3099 285.268 33.0699 283.319 32.2399C277.632 29.8399 271.837 28.1799 265.501 29.0499C265.739 30.0299 265.761 30.5899 265.988 30.9699C275.022 46.2199 276.257 63.5399 275.563 81.1199C275.368 85.9899 273.018 90.7799 271.393 95.4899C271.068 96.4599 269.465 97.5499 268.62 97.3899C267.797 97.2299 266.682 95.6099 266.595 94.5299C266.238 90.4799 265.804 86.3399 266.205 82.3399C267.819 66.0099 266.562 50.1499 259.999 35.3899C258.558 32.1399 255.319 28.6999 252.362 27.8599C247.033 26.3499 241.293 26.7299 235.736 26.3199C235.693 27.3799 235.617 27.6199 235.682 27.6899C236.581 28.5799 237.491 29.4499 238.401 30.3099C245.983 37.4999 249.124 46.9099 248.756 57.9599C248.701 59.4299 247.857 61.6599 246.893 62.0899C245.994 62.4899 244.12 61.2799 243.253 60.1799C241.661 58.1799 240.285 55.8599 239.191 53.4599C236.234 46.9499 233.656 40.1999 230.569 33.7699C227.656 27.7099 217.745 27.1599 214.192 32.7699C211.484 37.0499 209.101 41.6099 206.567 46.0399C204.596 49.4599 204.942 52.0699 207.964 54.7399C214.116 60.1499 220.16 65.7499 225.923 71.6899C228.869 74.7299 231.241 78.5499 233.602 82.2499C234.231 83.2399 234.361 85.5499 233.776 86.41C233.169 87.2999 231.339 87.6199 230.19 87.3699C228.165 86.9199 226.129 86.11 224.331 84.9799C216.077 79.7799 209.177 72.8699 204.238 63.5799C202.895 61.0399 201.574 58.4799 200.241 55.9299C199.721 55.8499 199.202 55.7799 198.682 55.7099C195.909 62.9799 192.833 70.1199 190.461 77.5699C188.143 84.8399 188.922 88.2399 194.631 92.5599C201.931 98.0899 209.6 103.09 217.442 107.58C225.295 112.08 233.591 115.53 241.574 119.77C243.21 120.65 244.271 122.97 245.593 124.62C243.751 125.46 241.813 127.22 240.08 126.98C235.26 126.3 230.266 125.53 225.793 123.48C212.091 117.19 200.371 107.09 188.803 96.7999C187.482 95.63 185.955 94.78 184.287 93.6199C183.593 95.35 182.954 96.3699 182.781 97.4799C181.405 106.38 179.618 115.25 178.903 124.23C178.004 135.43 180.246 138.79 189.626 142.23C203.025 147.15 216.597 150.75 230.884 149.87C236.787 149.51 242.777 150.23 248.691 150.93C250.304 151.12 251.756 153.02 253.283 154.13C251.908 155.51 250.662 157.78 249.124 158.09C241.553 159.62 233.895 161.65 226.28 161.53C218.492 161.4 210.705 159.19 202.982 157.47C198.822 156.54 194.761 154.88 190.753 153.23C187.633 151.94 184.655 150.15 180.647 148.08C180.788 151.51 180.506 153.77 181.026 155.74C183.572 165.36 186.085 175.02 189.193 184.4C189.962 186.72 192.876 189.53 194.88 189.62C200.75 189.86 206.881 189.81 212.513 188.12C224.753 184.45 236.7 179.51 248.864 175.47C252.352 174.31 256.186 174.08 259.847 174.21C261.374 174.26 263.562 176.07 264.104 177.67C264.494 178.86 263.086 181.75 261.829 182.58C257.995 185.12 253.998 187.63 249.774 189.09C233.992 194.53 217.853 197.51 201.292 197.03C199.721 196.99 198.14 197.48 196.559 197.72C196.602 198.22 196.645 198.72 196.699 199.21C201.13 199.21 205.57 199.25 210.011 199.21C229.844 199 249.871 199.22 269.704 199.15C278.791 199.11 287.695 199.06 296.782 199.14C298.039 199.15 299.999 198.55 300.433 197.55C302.491 192.78 304.657 194.94 307.256 196.73C309.239 198.08 311.578 198.75 314.264 199.95C312.629 193.9 311.405 189.35 310.073 184.4C314.828 184.67 317.351 185.61 318.619 190.3C321.045 199.29 326.406 200.24 333.1 199.23C333.685 199.14 334.303 199.14 334.887 199.23C337.66 199.65 339.058 198.43 340.162 195.29C341.083 192.67 342.979 189.97 345.091 188.53C349.727 185.38 357.948 181.32 360.688 171.15" fill="#415656"/>
<path d="M1018.16 119.83C1024.13 122.92 1029.29 133.25 1032.93 138.04C1036.57 142.83 1039.65 147.45 1040.96 148.46C1044.62 151.27 1048.62 153.69 1052.74 155.48C1055.96 156.87 1059.55 156.17 1061.42 152.35C1063.39 148.35 1061.45 145.01 1058.73 142.53C1055.71 139.77 1052.51 137.24 1049.25 134.86C1039.95 128.07 1028.99 112.83 1026.82 106.83C1026.82 106.83 1025.74 104.83 1025.74 100.83C1025.74 97.83 1026.82 94.83 1026.82 94.83C1027.17 93.76 1036.14 78.4 1036.86 77.55C1039.75 74.18 1041.61 74.5 1043.1 78.84C1044.47 82.8 1045.58 86.89 1046.71 90.96C1050.68 105.43 1055.76 119.23 1065.05 130.42C1067.21 133.03 1069.91 137.25 1073.19 134.5C1076.52 131.71 1074.43 127.13 1072.64 123.84C1068.8 116.72 1064.69 109.8 1060.55 102.89C1054.96 93.55 1051.43 83.34 1050.22 72.1C1048.55 56.66 1062.99 41.31 1076.85 44.12C1076.85 51.2 1076.9 58.35 1076.85 65.5C1076.75 81.68 1079.7 97.08 1085.97 111.56C1087.4 114.87 1089.38 118.09 1091.73 120.56C1093.08 121.98 1096.15 122.88 1097.63 122.07C1099.14 121.24 1100.63 117.86 1100.38 115.88C1099.89 111.95 1098.4 108.12 1096.99 104.41C1090.78 88.08 1084.37 79.48 1086.86 45.19C1087.22 40.28 1089.03 36.79 1093.08 34.89C1095.01 33.99 1096.83 32.75 1098.78 31.92C1104.46 29.52 1110.26 27.86 1116.6 28.73C1116.36 29.71 1116.34 30.27 1116.11 30.65C1107.07 45.9 1105.84 63.22 1106.53 80.8C1106.73 85.67 1109.08 90.46 1110.7 95.17C1111.03 96.14 1112.63 97.23 1113.48 97.07C1114.3 96.91 1115.41 95.29 1115.5 94.21C1115.86 90.16 1116.29 86.02 1115.89 82.02C1114.28 65.69 1115.53 49.83 1122.1 35.07C1123.54 31.82 1126.78 28.38 1129.73 27.54C1135.06 26.03 1140.8 26.41 1146.36 26C1146.4 27.06 1146.48 27.3 1146.41 27.37C1145.52 28.26 1144.61 29.13 1143.7 29.99C1136.11 37.18 1132.97 46.59 1133.34 57.64C1133.4 59.11 1134.24 61.34 1135.2 61.77C1136.1 62.17 1137.98 60.96 1138.84 59.86C1140.44 57.86 1141.81 55.54 1142.91 53.14C1145.86 46.63 1148.44 39.88 1151.53 33.45C1154.44 27.39 1164.35 26.84 1167.9 32.45C1170.61 36.73 1172.99 41.29 1175.53 45.72C1177.5 49.14 1177.15 51.75 1174.13 54.42C1167.98 59.83 1161.94 65.43 1156.17 71.37C1153.23 74.41 1150.86 78.23 1148.49 81.93C1147.87 82.92 1147.74 85.23 1148.32 86.09C1148.93 86.98 1150.76 87.3 1151.91 87.05C1153.93 86.6 1155.97 85.79 1157.77 84.66C1166.02 79.46 1172.92 72.55 1177.86 63.26C1179.2 60.72 1180.52 58.16 1181.86 55.61C1182.38 55.53 1182.89 55.46 1183.41 55.39C1186.19 62.66 1189.26 69.8 1191.64 77.25C1193.95 84.52 1193.17 87.92 1187.47 92.24C1180.17 97.77 1172.5 102.77 1164.65 107.26C1156.8 111.76 1148.5 115.21 1140.52 119.45C1138.89 120.33 1137.83 122.65 1136.5 124.3C1138.35 125.14 1140.28 126.9 1142.02 126.66C1146.84 125.98 1151.83 125.21 1156.3 123.16C1170.01 116.87 1181.73 106.77 1193.29 96.48C1194.61 95.31 1196.14 94.46 1197.81 93.3C1198.5 95.03 1199.14 96.05 1199.32 97.16C1200.69 106.06 1202.48 114.93 1203.19 123.91C1204.09 135.11 1201.85 138.47 1192.47 141.91C1179.07 146.83 1165.5 150.43 1151.21 149.55C1145.31 149.19 1139.32 149.91 1133.41 150.61C1131.79 150.8 1130.34 152.7 1128.81 153.81C1130.19 155.19 1131.43 157.46 1132.97 157.77C1140.54 159.3 1148.2 161.33 1155.82 161.21C1163.6 161.08 1171.39 158.87 1179.11 157.15C1183.27 156.22 1187.34 154.56 1191.34 152.91C1194.46 151.62 1197.44 149.83 1201.45 147.76C1201.31 151.19 1201.59 153.45 1201.07 155.42C1198.52 165.04 1196.01 174.7 1192.9 184.08C1192.13 186.4 1189.22 189.21 1187.22 189.3C1181.35 189.54 1175.22 189.49 1169.58 187.8C1157.34 184.13 1145.4 179.19 1133.23 175.15C1129.74 173.99 1125.91 173.76 1122.25 173.89C1120.72 173.94 1118.53 175.75 1117.99 177.35C1117.6 178.54 1119.01 181.43 1120.27 182.26C1124.1 184.8 1128.1 187.31 1132.32 188.77C1148.1 194.21 1164.24 197.19 1180.8 196.71C1182.38 196.67 1183.96 197.16 1185.54 197.4C1185.49 197.9 1185.45 198.4 1185.4 198.89C1180.97 198.89 1176.53 198.93 1172.09 198.89C1152.25 198.68 1132.23 198.9 1112.39 198.83C1103.31 198.79 1094.4 198.74 1085.31 198.82C1084.06 198.83 1082.1 198.23 1081.66 197.23C1079.61 192.46 1077.44 194.62 1074.84 196.41C1072.86 197.76 1070.52 198.43 1067.83 199.63C1069.47 193.58 1070.69 189.03 1072.02 184.08C1067.27 184.35 1064.75 185.29 1063.48 189.98C1061.05 198.97 1055.69 199.92 1049 198.91C1048.41 198.82 1047.79 198.82 1047.21 198.91C1044.44 199.33 1043.04 198.11 1041.93 194.97C1041.01 192.35 1039.12 189.65 1037.01 188.21C1032.37 185.06 1024.15 181 1021.41 170.83" fill="#415656"/>
<path d="M1016.21 14.1246C1004.96 17.8924 994.745 23.1769 989.011 33.4375C984.884 40.8305 985.775 51.3485 991.427 54.2619C996.848 57.051 995.864 60.0171 994.511 64.0229C993.502 67.0176 993.173 70.2145 992.42 73.285C992.055 74.7358 991.379 76.1274 990.625 78.1456C987.657 75.3572 985.42 73.2652 983.193 71.1739C990.562 64.4314 991.097 61.2271 985.21 53.3082C982.806 50.0734 979.695 47.0056 976.205 44.8165C966.588 38.7827 955.706 34.3448 948.575 25.307C948.525 25.2438 948.248 25.327 947.494 25.3908C944.048 38.849 942.126 52.381 948.987 65.6115C956.03 79.1839 968.187 82.658 980.212 74.8691C989.552 81.5873 995.513 110.287 989.549 120.724C985.191 117.79 980.747 114.991 976.609 111.85C975.817 111.24 975.773 109.152 976.163 107.964C977.604 103.633 976.779 99.8736 974.064 96.1287C963.829 81.9689 948.521 77.0282 928.354 82.2616C923.996 83.3865 920.729 83.6766 918.565 81.1682C918.902 84.3259 919.246 87.5341 920.643 90.5866C922.975 95.7212 922.474 101.613 926.107 106.167C930.876 112.133 936.171 117.88 942.14 122.868C948.109 127.855 956.335 130.446 963.263 129.97C969.754 129.518 974.418 126.568 976.297 120.54C982.185 123.638 985.197 130.037 982.917 135.299C981.393 138.813 979.098 142.039 977.078 145.363C974.7 149.275 971.89 153.011 969.946 157.091C968.079 160.995 967.066 165.252 965.575 169.66C961.271 168.083 959.121 166.437 957.751 161.652C955.045 152.225 947.847 145.168 937.242 142C933.789 140.965 930.251 140.196 926.74 139.359C926.334 139.264 915.843 134.519 915.243 134.101C912.596 132.275 910.776 131.02 907.933 129.051C907.925 130.364 907.969 131.569 908.007 132.694C908.517 133.447 908.773 134.405 908.67 135.541C908.242 139.965 906.97 144.346 906.813 148.786C906.658 153.026 907.618 156.874 909.286 160.695C909.662 161.339 910.06 161.995 910.502 162.634C913.102 166.472 920.598 170.751 920.647 170.534C933.016 179.032 945.231 177.799 957.607 172.517C962.027 177.009 963.232 182.274 963.36 187.865C963.551 196.205 963.518 196.203 972.404 196.719C972.588 196.731 972.773 196.722 972.945 196.753C977.404 197.679 978.891 196.036 979.02 191.845C979.201 185.722 983.46 181.464 990.375 179.805C990.78 189.241 998.439 191.717 1006.46 193.132C1014.17 194.499 1021.6 193.041 1029.01 191.052C1036.88 188.941 1044.76 186.779 1052.37 183.971C1059.99 181.162 1066.36 177.124 1073.15 172.781C1072.86 172.814 1064.14 175.023 1064.05 175.038C1061.72 175.626 1056.89 173.795 1054.61 173.295C1050.29 172.357 1045.99 171.321 1041.76 170.089C1036.41 168.527 1031.17 166.62 1026.21 164.181C1021.25 161.741 1017.04 158.134 1011.97 155.828C1010.81 155.466 998.761 154.624 994.293 155.763C986.043 157.861 983.715 163.641 987.203 170.971C987.551 171.714 987.831 172.493 988.329 173.716C985.327 175.005 982.459 176.231 979.58 177.467C973.175 163.784 995.784 131.49 1015.78 125.976C1015.76 127.368 1014.28 124.44 1016.18 130.049C1017.19 133.048 1021.06 134.018 1023.84 135.041C1027.87 136.521 1031.95 137.845 1036.1 139.002C1039.11 139.839 1042.25 140.603 1045.37 140.214C1051.35 139.47 1056.2 134.917 1061.28 132.283C1066.74 129.462 1068.28 124.065 1070.69 119.182C1073.93 112.586 1077.33 105.6 1078.09 98.3199C1077.82 98.3338 1078.25 85.0407 1078.25 85.0407C1072.95 89.906 1067.52 94.7333 1060.35 97.1381C1055.33 98.8139 1050.25 98.8119 1045.14 98.5373C1044.2 98.5899 1043.31 98.5653 1042.47 98.3731C1038.41 98.1037 1034.35 97.8238 1030.29 98.215C1029.65 98.2762 1024.58 99.7277 1022.51 100.483C1010.76 104.831 1008.72 109.486 1014.37 121.399C1009.7 122.535 1005.43 123.575 1001.14 124.624C996.643 108.162 1002.38 95.3153 1015.42 84.7126C1024.39 93.8335 1025.76 94.3583 1044.03 86.3025C1044.14 86.0085 1050.43 79.5101 1053.9 76.9477C1053.99 76.6724 1055.4 74.5943 1056.03 73.8719C1059.91 65.7917 1063.81 57.6431 1067.65 49.5915C1058.34 50.5316 1049.36 50.9914 1040.57 52.445C1032.13 53.8401 1023.51 55.4241 1015.66 58.4688C1006.38 62.067 1005.34 69.3894 1011.76 76.4596C1012.09 76.8102 1012.16 77.3456 1012.46 78.096C1008.52 81.5218 1004.54 84.9848 999.336 89.5056L1001.56 58.634C1012.23 58.0877 1019.36 51.9918 1020.02 42.2607" fill="#638899"/>
<path d="M420.37 13C409.419 17.45 399.606 23.35 394.623 33.94C391.038 41.57 392.684 52.01 398.533 54.57C404.144 57.02 403.375 60.04 402.314 64.12C401.523 67.17 401.425 70.38 400.895 73.49C400.635 74.96 400.061 76.39 399.454 78.45C396.291 75.85 393.908 73.9 391.536 71.95C398.404 64.77 398.707 61.54 392.262 54C389.63 50.92 386.305 48.05 382.665 46.08C372.635 40.65 361.457 36.89 353.691 28.31C353.637 28.25 353.366 28.35 352.619 28.46C350.149 42.1 349.207 55.72 357.006 68.5C365.01 81.61 377.39 84.33 388.828 75.82C398.631 81.95 406.646 110.22 401.447 121C396.887 118.34 392.251 115.82 387.897 112.94C387.063 112.38 386.868 110.3 387.171 109.09C388.298 104.68 387.204 100.98 384.225 97.41C372.993 83.91 357.363 79.92 337.617 86.38C333.35 87.77 330.111 88.26 327.771 85.89C328.335 89.02 328.909 92.2 330.523 95.16C333.22 100.14 333.144 106.05 337.097 110.37C342.286 116.03 347.983 121.44 354.298 126.05C360.612 130.66 369.007 132.74 375.885 131.84C382.33 130.99 386.77 127.76 388.211 121.63C394.309 124.36 397.775 130.56 395.88 135.95C394.613 139.55 392.554 142.91 390.778 146.35C388.688 150.4 386.153 154.3 384.507 158.49C382.925 162.5 382.221 166.81 381.051 171.3C376.643 169.99 374.379 168.48 372.668 163.79C369.288 154.55 361.598 147.95 350.788 145.44C347.268 144.62 343.683 144.07 340.119 143.45C339.708 143.38 328.898 139.29 328.27 138.91C325.497 137.25 323.59 136.11 320.612 134.32C320.698 135.63 320.828 136.83 320.948 137.95C321.511 138.67 321.836 139.61 321.814 140.75C321.706 145.19 320.753 149.64 320.915 154.08C321.067 158.32 322.302 162.1 324.24 165.81C324.663 166.43 325.107 167.06 325.594 167.67C328.465 171.34 336.252 175.15 336.285 174.93C349.239 182.65 361.338 180.67 373.307 174.64C378.04 178.85 379.622 184.03 380.152 189.6C380.943 197.91 380.911 197.91 389.814 197.88C389.998 197.88 390.182 197.86 390.356 197.88C394.872 198.53 396.237 196.8 396.064 192.61C395.804 186.49 399.747 181.98 406.527 179.9C407.61 189.29 415.431 191.29 423.533 192.21C431.331 193.1 438.632 191.19 445.889 188.75C453.59 186.16 461.291 183.52 468.689 180.25C476.087 176.98 482.152 172.56 488.608 167.81C488.326 167.86 479.78 170.6 479.694 170.62C477.408 171.35 472.458 169.82 470.151 169.46C465.775 168.79 461.41 168.02 457.099 167.05C451.651 165.82 446.279 164.24 441.155 162.11C436.032 159.98 431.569 156.64 426.349 154.65C425.168 154.36 413.08 154.26 408.704 155.67C400.624 158.27 398.718 164.18 402.725 171.28C403.126 172 403.462 172.76 404.047 173.95C401.144 175.42 398.371 176.82 395.587 178.23C388.211 164.97 408.444 131.36 427.995 124.63C428.082 126.02 426.392 123.19 428.688 128.67C429.912 131.6 433.844 132.33 436.693 133.18C440.82 134.41 444.99 135.48 449.214 136.38C452.279 137.03 455.464 137.6 458.551 137.02C464.465 135.91 468.971 131.07 473.856 128.13C479.098 124.98 480.246 119.5 482.293 114.48C485.055 107.7 487.947 100.52 488.175 93.21C487.915 93.24 487.384 79.95 487.384 79.95C482.445 85.13 477.376 90.28 470.39 93.12C465.505 95.1 460.435 95.41 455.312 95.45C454.381 95.56 453.492 95.59 452.637 95.45C448.575 95.43 444.502 95.4 440.473 96.04C439.845 96.14 434.884 97.9 432.88 98.78C421.464 103.84 419.763 108.61 426.262 120.15C421.68 121.57 417.499 122.87 413.297 124.18C407.621 108.03 412.419 94.86 424.67 83.48C434.277 92.03 435.675 92.47 453.33 83.31C453.417 83.01 459.222 76.14 462.504 73.37C462.569 73.09 463.826 70.93 464.411 70.17C467.692 61.87 470.996 53.5 474.256 45.23C465.028 46.74 456.103 47.75 447.438 49.74C439.119 51.65 430.627 53.76 423.013 57.28C414.012 61.44 413.503 68.81 420.424 75.47C420.77 75.8 420.879 76.33 421.236 77.06C417.554 80.72 413.828 84.42 408.964 89.25V58.31C419.568 57.11 426.24 50.59 426.197 40.84" fill="#638899"/>
<mask id="path-5-inside-1_948_3482" fill="white">
<path d="M63.7672 33.7281C75.7201 34.2153 87.1815 36.4344 95.9793 44.6401C102.314 50.5538 104.874 60.8358 100.426 65.1774C96.1565 69.3368 98.0578 71.8947 100.647 75.343C102.581 77.9217 103.931 80.8813 105.645 83.6028C106.464 84.8862 107.56 86.0272 108.933 87.7447C110.862 84.2638 112.318 81.6495 113.764 79.0388C104.547 74.6418 102.998 71.7323 106.048 62.5495C107.293 58.7986 109.267 55.0117 111.887 51.9588C119.107 43.5443 128.052 36.3026 131.926 25.7086C131.953 25.6346 132.244 25.6372 132.984 25.4899C140.636 37.3788 146.856 49.7595 144.599 64.2794C142.279 79.1756 131.806 85.8498 117.806 81.741C111.073 90.732 114.689 119.763 123.764 128.074C126.971 124.07 130.304 120.171 133.233 116.031C133.791 115.23 133.157 113.226 132.4 112.199C129.62 108.465 129.189 104.651 130.565 100.327C135.74 83.9882 148.745 75.0439 169.684 74.4645C174.207 74.3335 177.418 73.7076 178.67 70.7163C179.372 73.8222 180.084 76.9783 179.741 80.277C179.18 85.8207 181.569 91.3043 179.578 96.6528C176.961 103.663 173.772 110.611 169.694 117.019C165.616 123.427 158.607 128.172 151.843 129.632C145.502 130.995 140.096 129.468 136.349 124.236C131.735 128.819 130.936 135.757 134.817 140.148C137.41 143.08 140.646 145.524 143.651 148.137C147.188 151.213 151.08 154.001 154.258 157.356C157.305 160.566 159.652 164.348 162.503 168.142C166.099 165.447 167.617 163.283 167.372 158.339C166.898 148.596 171.478 139.873 180.57 133.92C183.53 131.979 186.656 130.267 189.735 128.498C190.091 128.295 198.563 120.869 199 120.305C200.933 117.831 202.263 116.131 204.338 113.466C204.771 114.717 205.12 115.879 205.448 116.962C205.206 117.822 205.272 118.807 205.739 119.862C207.581 123.965 210.215 127.794 211.805 131.987C213.327 135.99 213.658 139.926 213.306 144.033C213.155 144.752 212.988 145.487 212.773 146.219C211.537 150.6 205.772 156.754 205.656 156.56C196.608 168.087 184.554 170.286 171.032 168.666C168.271 174.173 168.829 179.53 170.518 184.9C173.041 192.91 173.071 192.899 164.76 195.848C164.588 195.909 164.409 195.952 164.255 196.029C160.3 198.145 158.349 196.988 156.867 193.025C154.709 187.233 149.265 184.347 142.129 184.675C144.802 193.79 138.297 198.268 131.106 201.834C124.185 205.271 116.631 205.931 108.91 206.083C100.715 206.243 92.5012 206.357 84.3228 205.782C76.1444 205.207 68.7569 203.114 60.8764 200.845C61.1585 200.797 70.1993 200.494 70.2879 200.484C72.7046 200.401 76.7186 197.32 78.728 196.213C82.5442 194.125 86.311 191.948 89.949 189.603C94.5451 186.635 98.9333 183.366 102.873 179.668C106.814 175.97 109.664 171.365 113.75 167.765C114.736 167.1 125.965 162.965 130.597 162.817C139.148 162.539 143.243 167.411 142.292 175.369C142.201 176.174 142.186 176.995 142.108 178.299C145.39 178.699 148.524 179.077 151.672 179.461C153.347 164.635 121.305 140.07 100.441 140.332C100.905 141.657 101.37 138.454 101.379 144.33C101.388 147.47 98.0088 149.465 95.6868 151.21C92.3225 153.736 88.855 156.127 85.2703 158.378C82.668 160.009 79.9232 161.605 76.8182 162.096C70.8702 163.038 64.7718 160.033 59.0652 158.926C52.9431 157.742 49.7236 153.018 45.8465 149.023C40.6127 143.626 35.101 137.9 32.0219 131.162C32.276 131.103 27.5584 118.538 27.5584 118.538C34.194 121.715 40.939 124.821 48.5651 125.133C53.8951 125.345 58.7418 123.94 63.5332 122.264C64.4446 122.055 65.2843 121.787 66.027 121.37C69.8053 119.993 73.5898 118.604 77.5967 117.854C78.2215 117.737 83.536 117.719 85.749 117.869C98.3752 118.77 101.831 122.647 100.299 135.577C105.127 135.369 109.534 135.183 113.965 134.999C112.922 118.048 103.284 107.375 87.4014 100.863C81.7992 112.045 80.6693 112.922 60.6195 110.285C60.421 110.035 52.3149 105.572 48.1693 104.087C47.9989 103.848 45.9805 102.254 45.1372 101.741C38.8227 95.1018 32.4606 88.4042 26.178 81.7853C35.3724 80.1077 44.0881 78.0655 52.9457 77.0237C61.4489 76.0232 70.1921 75.1512 78.6704 75.8868C88.6922 76.7555 92.0573 83.4552 88.2177 91.9771C88.024 92.4005 88.1309 92.9308 88.084 93.7307C92.9523 95.9112 97.8766 98.1146 104.304 100.991L92.1695 72.1506C81.8144 74.5769 63.7672 64.3792 63.5237 33.3792"/>
</mask>
<path d="M63.7672 33.7281C75.7201 34.2153 87.1815 36.4344 95.9793 44.6401C102.314 50.5538 104.874 60.8358 100.426 65.1774C96.1565 69.3368 98.0578 71.8947 100.647 75.343C102.581 77.9217 103.931 80.8813 105.645 83.6028C106.464 84.8862 107.56 86.0272 108.933 87.7447C110.862 84.2638 112.318 81.6495 113.764 79.0388C104.547 74.6418 102.998 71.7323 106.048 62.5495C107.293 58.7986 109.267 55.0117 111.887 51.9588C119.107 43.5443 128.052 36.3026 131.926 25.7086C131.953 25.6346 132.244 25.6372 132.984 25.4899C140.636 37.3788 146.856 49.7595 144.599 64.2794C142.279 79.1756 131.806 85.8498 117.806 81.741C111.073 90.732 114.689 119.763 123.764 128.074C126.971 124.07 130.304 120.171 133.233 116.031C133.791 115.23 133.157 113.226 132.4 112.199C129.62 108.465 129.189 104.651 130.565 100.327C135.74 83.9882 148.745 75.0439 169.684 74.4645C174.207 74.3335 177.418 73.7076 178.67 70.7163C179.372 73.8222 180.084 76.9783 179.741 80.277C179.18 85.8207 181.569 91.3043 179.578 96.6528C176.961 103.663 173.772 110.611 169.694 117.019C165.616 123.427 158.607 128.172 151.843 129.632C145.502 130.995 140.096 129.468 136.349 124.236C131.735 128.819 130.936 135.757 134.817 140.148C137.41 143.08 140.646 145.524 143.651 148.137C147.188 151.213 151.08 154.001 154.258 157.356C157.305 160.566 159.652 164.348 162.503 168.142C166.099 165.447 167.617 163.283 167.372 158.339C166.898 148.596 171.478 139.873 180.57 133.92C183.53 131.979 186.656 130.267 189.735 128.498C190.091 128.295 198.563 120.869 199 120.305C200.933 117.831 202.263 116.131 204.338 113.466C204.771 114.717 205.12 115.879 205.448 116.962C205.206 117.822 205.272 118.807 205.739 119.862C207.581 123.965 210.215 127.794 211.805 131.987C213.327 135.99 213.658 139.926 213.306 144.033C213.155 144.752 212.988 145.487 212.773 146.219C211.537 150.6 205.772 156.754 205.656 156.56C196.608 168.087 184.554 170.286 171.032 168.666C168.271 174.173 168.829 179.53 170.518 184.9C173.041 192.91 173.071 192.899 164.76 195.848C164.588 195.909 164.409 195.952 164.255 196.029C160.3 198.145 158.349 196.988 156.867 193.025C154.709 187.233 149.265 184.347 142.129 184.675C144.802 193.79 138.297 198.268 131.106 201.834C124.185 205.271 116.631 205.931 108.91 206.083C100.715 206.243 92.5012 206.357 84.3228 205.782C76.1444 205.207 68.7569 203.114 60.8764 200.845C61.1585 200.797 70.1993 200.494 70.2879 200.484C72.7046 200.401 76.7186 197.32 78.728 196.213C82.5442 194.125 86.311 191.948 89.949 189.603C94.5451 186.635 98.9333 183.366 102.873 179.668C106.814 175.97 109.664 171.365 113.75 167.765C114.736 167.1 125.965 162.965 130.597 162.817C139.148 162.539 143.243 167.411 142.292 175.369C142.201 176.174 142.186 176.995 142.108 178.299C145.39 178.699 148.524 179.077 151.672 179.461C153.347 164.635 121.305 140.07 100.441 140.332C100.905 141.657 101.37 138.454 101.379 144.33C101.388 147.47 98.0088 149.465 95.6868 151.21C92.3225 153.736 88.855 156.127 85.2703 158.378C82.668 160.009 79.9232 161.605 76.8182 162.096C70.8702 163.038 64.7718 160.033 59.0652 158.926C52.9431 157.742 49.7236 153.018 45.8465 149.023C40.6127 143.626 35.101 137.9 32.0219 131.162C32.276 131.103 27.5584 118.538 27.5584 118.538C34.194 121.715 40.939 124.821 48.5651 125.133C53.8951 125.345 58.7418 123.94 63.5332 122.264C64.4446 122.055 65.2843 121.787 66.027 121.37C69.8053 119.993 73.5898 118.604 77.5967 117.854C78.2215 117.737 83.536 117.719 85.749 117.869C98.3752 118.77 101.831 122.647 100.299 135.577C105.127 135.369 109.534 135.183 113.965 134.999C112.922 118.048 103.284 107.375 87.4014 100.863C81.7992 112.045 80.6693 112.922 60.6195 110.285C60.421 110.035 52.3149 105.572 48.1693 104.087C47.9989 103.848 45.9805 102.254 45.1372 101.741C38.8227 95.1018 32.4606 88.4042 26.178 81.7853C35.3724 80.1077 44.0881 78.0655 52.9457 77.0237C61.4489 76.0232 70.1921 75.1512 78.6704 75.8868C88.6922 76.7555 92.0573 83.4552 88.2177 91.9771C88.024 92.4005 88.1309 92.9308 88.084 93.7307C92.9523 95.9112 97.8766 98.1146 104.304 100.991L92.1695 72.1506C81.8144 74.5769 63.7672 64.3792 63.5237 33.3792" fill="white"/>
<path d="M95.9793 44.6401L96.6719 43.9478L96.6723 43.9482L95.9793 44.6401ZM100.426 65.1774L101.164 65.8811L101.163 65.8817L100.426 65.1774ZM100.647 75.343L101.464 74.7883L101.464 74.789L100.647 75.343ZM105.645 83.6028L104.784 84.0928L104.781 84.0877L105.645 83.6028ZM108.933 87.7447L109.835 88.2336L109.11 89.5425L108.136 88.3244L108.933 87.7447ZM113.764 79.0388L114.186 78.1624L115.165 78.629L114.667 79.5277L113.764 79.0388ZM106.048 62.5495L107.019 62.8821L107.019 62.8822L106.048 62.5495ZM111.887 51.9588L112.682 52.6021L112.682 52.6022L111.887 51.9588ZM131.926 25.7086L132.888 26.0661L132.887 26.0673L131.926 25.7086ZM132.984 25.4899L132.74 24.5283L133.451 24.3868L133.843 24.9966L132.984 25.4899ZM144.599 64.2794L145.606 64.4624L145.606 64.4626L144.599 64.2794ZM117.806 81.741L116.973 81.1459L117.381 80.6014L118.067 80.8028L117.806 81.741ZM123.764 128.074L124.579 128.693L123.907 129.531L123.078 128.772L123.764 128.074ZM133.233 116.031L134.085 116.6L134.081 116.606L133.233 116.031ZM132.4 112.199L133.219 111.648L133.221 111.652L132.4 112.199ZM130.565 100.327L131.54 100.647L131.539 100.649L130.565 100.327ZM169.684 74.4645L169.755 75.4457L169.754 75.4457L169.684 74.4645ZM178.67 70.7163L177.723 70.3184L178.95 67.3866L179.664 70.5438L178.67 70.7163ZM179.741 80.277L178.728 80.1434L178.728 80.1407L179.741 80.277ZM179.578 96.6528L180.538 97.0165L180.537 97.0173L179.578 96.6528ZM151.843 129.632L152.103 130.591L152.102 130.591L151.843 129.632ZM136.349 124.236L135.605 123.538L136.457 122.692L137.179 123.7L136.349 124.236ZM134.817 140.148L134.053 140.767L134.053 140.767L134.817 140.148ZM143.651 148.137L144.316 147.419L144.316 147.42L143.651 148.137ZM154.258 157.356L153.52 158.003L153.519 158.002L154.258 157.356ZM162.503 168.142L163.148 168.926L162.323 169.544L161.687 168.697L162.503 168.142ZM167.372 158.339L166.355 158.347L166.355 158.346L167.372 158.339ZM180.57 133.92L181.165 134.738L181.165 134.739L180.57 133.92ZM189.735 128.498L189.188 127.65L189.192 127.648L189.735 128.498ZM199 120.305L198.175 119.698L198.178 119.695L199 120.305ZM204.338 113.466L203.515 112.857L204.672 111.371L205.302 113.189L204.338 113.466ZM205.448 116.962L206.425 116.722L206.506 116.991L206.432 117.255L205.448 116.962ZM205.739 119.862L204.807 120.222L204.805 120.217L205.739 119.862ZM211.805 131.987L210.851 132.292L210.85 132.291L211.805 131.987ZM213.306 144.033L214.321 144.152L214.316 144.208L214.304 144.263L213.306 144.033ZM212.773 146.219L211.79 145.927L211.793 145.917L212.773 146.219ZM205.656 156.56L204.835 155.948L205.747 154.787L206.532 156.094L205.656 156.56ZM171.032 168.666L170.112 168.211L170.414 167.608L171.118 167.692L171.032 168.666ZM170.518 184.9L169.545 185.15L169.545 185.15L170.518 184.9ZM164.76 195.848L164.372 194.926L164.375 194.925L164.76 195.848ZM164.255 196.029L163.734 195.166L163.747 195.159L163.76 195.153L164.255 196.029ZM156.867 193.025L155.911 193.325L155.911 193.324L156.867 193.025ZM142.129 184.675L141.15 184.907L140.811 183.751L142.04 183.694L142.129 184.675ZM131.106 201.834L130.612 200.958L130.612 200.958L131.106 201.834ZM108.91 206.083L108.971 207.064L108.971 207.064L108.91 206.083ZM60.8764 200.845L60.621 201.785L60.6628 199.878L60.8764 200.845ZM70.2879 200.484L70.1264 199.51L70.1685 199.505L70.2111 199.503L70.2879 200.484ZM78.728 196.213L78.1968 195.356L78.1994 195.354L78.728 196.213ZM89.949 189.603L90.5384 190.425L90.5378 190.426L89.949 189.603ZM113.75 167.765L113.047 167.028L113.093 166.987L113.144 166.953L113.75 167.765ZM130.597 162.817L130.671 163.798L130.671 163.798L130.597 162.817ZM142.292 175.369L141.28 175.224L141.281 175.218L142.292 175.369ZM142.108 178.299L142.02 179.273L141.034 179.153L141.091 178.204L142.108 178.299ZM151.672 179.461L152.684 179.605L152.576 180.556L151.584 180.435L151.672 179.461ZM100.441 140.332L99.4777 140.613L99.0411 139.368L100.387 139.351L100.441 140.332ZM101.379 144.33L100.361 144.293L100.361 144.292L101.379 144.33ZM95.6868 151.21L96.3321 151.993L96.3319 151.993L95.6868 151.21ZM85.2703 158.378L85.8494 159.207L85.8486 159.208L85.2703 158.378ZM76.8182 162.096L76.6145 161.127L76.6147 161.127L76.8182 162.096ZM59.0652 158.926L59.2269 157.964L59.2277 157.964L59.0652 158.926ZM45.8465 149.023L45.1161 149.678L45.1159 149.678L45.8465 149.023ZM32.0219 131.162L31.0929 131.528L30.61 130.471L31.747 130.207L32.0219 131.162ZM27.5584 118.538L26.6027 118.839L25.7616 116.599L27.9817 117.662L27.5584 118.538ZM48.5651 125.133L48.5634 126.114L48.5623 126.114L48.5651 125.133ZM63.5332 122.264L63.1528 121.34L63.2058 121.321L63.2608 121.309L63.5332 122.264ZM66.027 121.37L65.4893 120.516L65.5589 120.477L65.6344 120.45L66.027 121.37ZM77.5967 117.854L77.3646 116.89L77.365 116.89L77.5967 117.854ZM85.749 117.869L85.7803 116.89L85.7838 116.89L85.749 117.869ZM100.299 135.577L100.385 136.557L99.1475 136.611L99.2877 135.427L100.299 135.577ZM113.965 134.999L114.982 134.98L115.041 135.939L114.049 135.98L113.965 134.999ZM87.4014 100.863L86.4813 100.408L86.8859 99.6002L87.7679 99.9619L87.4014 100.863ZM60.6195 110.285L60.5215 111.258L60.0883 111.201L59.8193 110.861L60.6195 110.285ZM48.1693 104.087L47.8485 105.006L47.5305 104.892L47.3373 104.62L48.1693 104.087ZM45.1372 101.741L44.6189 102.566L44.4971 102.492L44.3995 102.389L45.1372 101.741ZM26.178 81.7853L25.4396 82.4321L24.2111 81.1379L25.9506 80.8205L26.178 81.7853ZM52.9457 77.0237L53.1084 77.9982L53.1084 77.9982L52.9457 77.0237ZM78.6704 75.8868L78.6194 76.8645L78.6193 76.8645L78.6704 75.8868ZM88.2177 91.9771L89.1541 92.3979L89.1519 92.4026L88.2177 91.9771ZM88.084 93.7307L87.6857 94.6181L87.0274 94.3232L87.0676 93.6366L88.084 93.7307ZM104.304 100.991L105.246 100.653L106.191 102.901L103.906 101.879L104.304 100.991ZM92.1695 72.1506L91.8923 71.1962L92.7652 70.9916L93.1108 71.813L92.1695 72.1506ZM63.7698 32.7474C75.797 33.2376 87.5861 35.4734 96.6719 43.9478L95.2866 45.3324C86.7769 37.3954 75.6431 35.193 63.7646 34.7088L63.7698 32.7474ZM96.6723 43.9482C99.9997 47.0546 102.322 51.2878 103.24 55.3248C104.149 59.325 103.723 63.3828 101.164 65.8811L99.6874 64.4736C101.576 62.6303 102.094 59.3764 101.252 55.6718C100.418 52.0039 98.2932 48.1394 95.2862 45.3321L96.6723 43.9482ZM101.163 65.8817C99.145 67.848 98.7748 69.2418 98.9695 70.4087C99.187 71.7118 100.123 73.0022 101.464 74.7883L99.8311 75.8977C98.5828 74.2356 97.2729 72.5228 96.9595 70.645C96.6235 68.631 97.4371 66.6661 99.688 64.473L101.163 65.8817ZM101.464 74.789C102.473 76.1341 103.32 77.5664 104.118 78.9761C104.925 80.4026 105.67 81.7845 106.51 83.118L104.781 84.0877C103.906 82.6997 103.119 81.2409 102.339 79.8627C101.55 78.4675 100.755 77.1307 99.8305 75.897L101.464 74.789ZM106.506 83.1129C107.288 84.3379 108.276 85.3468 109.73 87.1649L108.136 88.3244C106.843 86.7076 105.64 85.4345 104.784 84.0927L106.506 83.1129ZM108.031 87.2558C108.995 85.5149 109.842 83.9907 110.628 82.5756C111.414 81.1605 112.139 79.8547 112.862 78.5499L114.667 79.5277C113.943 80.8336 113.217 82.1403 112.431 83.5552C111.645 84.9702 110.799 86.4936 109.835 88.2336L108.031 87.2558ZM113.342 79.9153C108.749 77.7238 105.718 75.7615 104.384 72.9698C103.043 70.1631 103.552 66.8079 105.077 62.2168L107.019 62.8822C105.493 67.4739 105.252 70.1648 106.228 72.2078C107.211 74.2658 109.563 75.9568 114.186 78.1624L113.342 79.9153ZM105.077 62.2169C106.353 58.3738 108.38 54.4758 111.092 51.3154L112.682 52.6022C110.154 55.5477 108.234 59.2235 107.019 62.8821L105.077 62.2169ZM111.092 51.3155C112.914 49.1924 114.842 47.1464 116.754 45.1207C118.672 43.0897 120.573 41.0798 122.369 39.0047C125.959 34.8561 129.082 30.4959 130.964 25.3498L132.887 26.0673C130.895 31.5153 127.609 36.0729 123.953 40.2973C122.126 42.4087 120.196 44.449 118.284 46.4735C116.368 48.5032 114.47 50.5179 112.682 52.6021L111.092 51.3155ZM130.964 25.3511C131.064 25.0762 131.259 24.9224 131.381 24.8479C131.499 24.776 131.611 24.7403 131.668 24.7234C131.782 24.6901 131.908 24.6701 131.982 24.6582C132.167 24.6287 132.396 24.597 132.74 24.5283L133.228 26.4516C132.833 26.5302 132.546 26.5708 132.393 26.5953C132.354 26.6015 132.33 26.6057 132.315 26.6086C132.297 26.612 132.306 26.6109 132.328 26.6044C132.344 26.6 132.422 26.5773 132.516 26.5201C132.614 26.4602 132.795 26.3225 132.888 26.0661L130.964 25.3511ZM133.843 24.9966C141.519 36.9237 147.92 49.5738 145.606 64.4624L143.592 64.0963C145.792 49.9452 139.752 37.8338 132.125 25.9832L133.843 24.9966ZM145.606 64.4626C144.418 72.0933 141.117 77.7568 136.173 80.9587C131.218 84.1681 124.772 84.8001 117.546 82.6791L118.067 80.8028C124.84 82.7907 130.631 82.1399 134.992 79.3154C139.365 76.4834 142.461 71.3616 143.592 64.0961L145.606 64.4626ZM118.64 82.3361C117.102 84.389 116.092 87.695 115.633 91.7496C115.177 95.7772 115.277 100.432 115.868 105.081C116.458 109.731 117.535 114.345 119.014 118.292C120.501 122.261 122.358 125.459 124.449 127.375L123.078 128.772C120.632 126.533 118.635 122.985 117.102 118.893C115.561 114.779 114.453 110.014 113.847 105.243C113.241 100.473 113.132 95.6643 113.608 91.4602C114.081 87.283 115.144 83.5885 116.973 81.1459L118.64 82.3361ZM122.949 127.454C126.181 123.419 129.477 119.566 132.385 115.456L134.081 116.606C131.131 120.776 127.761 124.72 124.579 128.693L122.949 127.454ZM132.381 115.461C132.376 115.468 132.422 115.398 132.427 115.178C132.432 114.971 132.398 114.702 132.321 114.395C132.164 113.771 131.866 113.137 131.578 112.747L133.221 111.652C133.691 112.288 134.089 113.17 134.298 114.004C134.405 114.427 134.472 114.873 134.463 115.299C134.453 115.712 134.369 116.192 134.085 116.6L132.381 115.461ZM131.581 112.75C128.582 108.723 128.136 104.576 129.591 100.005L131.539 100.649C130.242 104.725 130.658 108.208 133.219 111.648L131.581 112.75ZM129.59 100.007C132.233 91.6625 136.895 85.1565 143.611 80.6718C150.319 76.1926 159.004 73.7769 169.615 73.4833L169.754 75.4457C159.425 75.7315 151.138 78.0776 144.815 82.3001C138.5 86.5171 134.072 92.6527 131.54 100.647L129.59 100.007ZM169.613 73.4834C171.859 73.4183 173.653 73.2302 175.016 72.7413C176.329 72.2703 177.216 71.5318 177.723 70.3184L179.616 71.1142C178.872 72.8921 177.527 73.9623 175.792 74.5848C174.106 75.1894 172.032 75.3797 169.755 75.4457L169.613 73.4834ZM179.664 70.5438C180.362 73.6278 181.116 76.9358 180.754 80.4133L178.728 80.1407C179.053 77.0209 178.383 74.0166 177.675 70.8888L179.664 70.5438ZM180.754 80.4106C180.486 83.0579 180.922 85.6663 181.209 88.4808C181.49 91.24 181.612 94.1312 180.538 97.0165L178.618 96.289C179.535 93.8259 179.458 91.301 179.182 88.5954C178.913 85.945 178.434 83.0398 178.728 80.1434L180.754 80.4106ZM180.537 97.0173C177.906 104.069 174.69 111.078 170.568 117.556L168.821 116.482C172.855 110.143 176.017 103.258 178.618 96.2883L180.537 97.0173ZM170.568 117.556C166.359 124.169 159.135 129.073 152.103 130.591L151.583 128.674C158.079 127.272 164.873 122.685 168.821 116.482L170.568 117.556ZM152.102 130.591C148.8 131.3 145.664 131.274 142.827 130.334C139.977 129.39 137.508 127.551 135.518 124.772L137.179 123.7C138.936 126.154 141.045 127.694 143.419 128.48C145.807 129.271 148.545 129.327 151.584 128.674L152.102 130.591ZM137.093 124.934C132.728 129.27 132.142 135.639 135.58 139.529L134.053 140.767C129.729 135.876 130.742 128.369 135.605 123.538L137.093 124.934ZM135.58 139.528C138.112 142.391 141.235 144.74 144.316 147.419L142.986 148.854C140.058 146.308 136.708 143.769 134.053 140.767L135.58 139.528ZM144.316 147.42C147.743 150.4 151.778 153.312 154.997 156.71L153.519 158.002C150.382 154.691 146.633 152.026 142.986 148.854L144.316 147.42ZM154.997 156.709C158.097 159.975 160.544 163.894 163.319 167.587L161.687 168.697C158.759 164.801 156.513 161.156 153.52 158.003L154.997 156.709ZM161.859 167.358C163.621 166.037 164.767 164.922 165.468 163.608C166.162 162.307 166.472 160.714 166.355 158.347L168.389 158.331C168.517 160.908 168.19 162.868 167.287 164.56C166.392 166.237 164.981 167.552 163.148 168.926L161.859 167.358ZM166.355 158.346C165.864 148.244 170.628 139.222 179.976 133.101L181.165 134.739C172.329 140.525 167.933 148.949 168.389 158.332L166.355 158.346ZM179.975 133.101C182.966 131.139 186.134 129.405 189.188 127.65L190.281 129.347C187.179 131.13 184.094 132.818 181.165 134.738L179.975 133.101ZM189.192 127.648C189.131 127.683 189.115 127.701 189.223 127.615C189.297 127.555 189.401 127.47 189.532 127.359C189.794 127.14 190.152 126.834 190.576 126.469C191.424 125.738 192.528 124.775 193.635 123.8C194.741 122.826 195.849 121.841 196.706 121.066C197.135 120.678 197.498 120.346 197.766 120.094C198.066 119.812 198.177 119.695 198.175 119.698L199.824 120.912C199.713 121.056 199.464 121.294 199.216 121.527C198.935 121.79 198.562 122.132 198.13 122.523C197.264 123.306 196.15 124.296 195.04 125.274C193.929 126.252 192.821 127.219 191.966 127.955C191.54 128.323 191.174 128.635 190.903 128.863C190.767 128.976 190.652 129.071 190.563 129.143C190.507 129.188 190.383 129.289 190.278 129.349L189.192 127.648ZM198.178 119.695C200.112 117.22 201.441 115.521 203.515 112.857L205.161 114.075C203.086 116.741 201.755 118.441 199.822 120.915L198.178 119.695ZM205.302 113.189C205.743 114.461 206.098 115.642 206.425 116.722L204.472 117.203C204.143 116.115 203.799 114.972 203.373 113.744L205.302 113.189ZM206.432 117.255C206.254 117.883 206.288 118.639 206.673 119.507L204.805 120.217C204.255 118.974 204.157 117.761 204.465 116.67L206.432 117.255ZM206.671 119.503C207.572 121.509 208.665 123.447 209.764 125.461C210.852 127.458 211.938 129.516 212.76 131.683L210.85 132.291C210.082 130.265 209.056 128.312 207.97 126.32C206.893 124.345 205.749 122.318 204.807 120.222L206.671 119.503ZM212.759 131.682C214.345 135.853 214.682 139.94 214.321 144.152L212.291 143.913C212.634 139.913 212.308 136.127 210.851 132.292L212.759 131.682ZM214.304 144.263C214.152 144.991 213.979 145.755 213.754 146.521L211.793 145.917C211.998 145.22 212.159 144.513 212.308 143.802L214.304 144.263ZM213.756 146.511C213.086 148.888 211.235 151.643 209.617 153.715C208.795 154.767 208.007 155.676 207.412 156.314C207.116 156.632 206.859 156.892 206.664 157.073C206.571 157.159 206.469 157.248 206.373 157.317C206.335 157.345 206.243 157.41 206.123 157.461C206.073 157.483 205.921 157.545 205.714 157.546C205.459 157.548 205.03 157.444 204.779 157.026L206.532 156.094C206.285 155.683 205.863 155.581 205.617 155.583C205.419 155.585 205.278 155.644 205.243 155.659C205.188 155.682 205.151 155.704 205.137 155.713C205.12 155.723 205.11 155.73 205.109 155.731C205.106 155.733 205.115 155.727 205.138 155.707C205.16 155.689 205.189 155.663 205.225 155.63C205.372 155.494 205.594 155.271 205.874 154.97C206.431 154.373 207.184 153.505 207.973 152.495C209.575 150.443 211.225 147.93 211.79 145.927L213.756 146.511ZM206.476 157.172C201.838 163.082 196.399 166.631 190.365 168.48C184.347 170.324 177.795 170.461 170.946 169.64L171.118 167.692C177.791 168.492 184.027 168.339 189.679 166.607C195.314 164.88 200.426 161.565 204.835 155.948L206.476 157.172ZM171.952 169.122C169.342 174.328 169.842 179.406 171.492 184.649L169.545 185.15C167.816 179.654 167.2 174.018 170.112 168.211L171.952 169.122ZM171.492 184.649C172.115 186.627 172.611 188.192 172.852 189.432C173.093 190.674 173.12 191.776 172.614 192.742C172.113 193.699 171.183 194.337 170.002 194.902C168.817 195.469 167.201 196.041 165.144 196.771L164.375 194.925C166.475 194.18 167.971 193.648 169.039 193.137C170.111 192.624 170.575 192.212 170.789 191.802C170.999 191.4 171.065 190.819 170.851 189.719C170.637 188.615 170.183 187.177 169.545 185.15L171.492 184.649ZM165.148 196.769C165.046 196.806 164.911 196.847 164.862 196.863C164.788 196.887 164.761 196.899 164.75 196.905L163.76 195.153C163.903 195.082 164.042 195.034 164.14 195.002C164.262 194.962 164.302 194.951 164.372 194.926L165.148 196.769ZM164.776 196.892C162.73 197.986 160.873 198.423 159.237 197.695C157.647 196.986 156.664 195.339 155.911 193.325L157.823 192.725C158.552 194.674 159.286 195.587 160.03 195.918C160.729 196.23 161.825 196.187 163.734 195.166L164.776 196.892ZM155.911 193.324C154.914 190.648 153.177 188.677 150.883 187.4C148.574 186.115 145.638 185.498 142.218 185.655L142.04 183.694C145.757 183.524 149.111 184.186 151.847 185.71C154.599 187.241 156.663 189.609 157.824 192.726L155.911 193.324ZM143.108 184.443C144.533 189.302 143.511 193.017 141.128 195.959C138.798 198.835 135.207 200.922 131.599 202.711L130.612 200.958C134.196 199.181 137.453 197.246 139.505 194.712C141.504 192.244 142.398 189.162 141.15 184.907L143.108 184.443ZM131.6 202.711C124.47 206.252 116.722 206.912 108.971 207.064L108.849 205.101C116.54 204.95 123.901 204.291 130.612 200.958L131.6 202.711ZM108.971 207.064C100.778 207.224 92.5207 207.34 84.289 206.761L84.3566 204.803C92.4817 205.374 100.652 205.262 108.849 205.101L108.971 207.064ZM84.289 206.761C75.9823 206.177 68.4911 204.051 60.621 201.785L61.1318 199.905C69.0227 202.178 76.3066 204.237 84.3566 204.803L84.289 206.761ZM60.6628 199.878C60.7496 199.863 60.8717 199.856 60.9252 199.853C61.0133 199.848 61.1299 199.842 61.2686 199.836C61.5468 199.823 61.9264 199.807 62.3714 199.789C63.2621 199.754 64.423 199.711 65.5765 199.67C66.7302 199.628 67.8779 199.588 68.742 199.557C69.1743 199.542 69.5352 199.529 69.7908 199.52C69.9187 199.515 70.0193 199.511 70.089 199.509C70.1996 199.504 70.1733 199.504 70.1264 199.51L70.4494 201.459C70.3915 201.465 70.2842 201.469 70.2525 201.47C70.1798 201.473 70.0768 201.477 69.9485 201.482C69.6916 201.491 69.3295 201.504 68.8973 201.519C68.0325 201.55 66.8859 201.59 65.733 201.631C64.5799 201.673 63.4222 201.716 62.5357 201.751C62.092 201.768 61.7184 201.784 61.4478 201.797C61.3121 201.803 61.2055 201.808 61.1301 201.813C61.0202 201.819 61.0385 201.821 61.0901 201.812L60.6628 199.878ZM70.2111 199.503C70.6278 199.489 71.1967 199.336 71.9022 199.036C72.593 198.743 73.3424 198.339 74.1043 197.889C74.8649 197.44 75.6153 196.959 76.3153 196.511C77.0032 196.071 77.6605 195.651 78.1968 195.356L79.2591 197.07C78.7908 197.328 78.1928 197.709 77.4874 198.16C76.7941 198.604 76.0132 199.105 75.217 199.575C74.4222 200.044 73.5894 200.496 72.785 200.838C71.9954 201.174 71.1564 201.438 70.3647 201.465L70.2111 199.503ZM78.1994 195.354C82.0028 193.274 85.7481 191.109 89.3602 188.78L90.5378 190.426C86.874 192.788 83.0855 194.977 79.2565 197.071L78.1994 195.354ZM89.3596 188.781C93.9206 185.836 98.2602 182.601 102.149 178.952L103.598 180.385C99.6063 184.132 95.1695 187.435 90.5384 190.425L89.3596 188.781ZM102.149 178.952C104.068 177.151 105.726 175.124 107.453 173.047C109.166 170.987 110.942 168.883 113.047 167.028L114.452 168.501C112.471 170.247 110.78 172.245 109.061 174.312C107.356 176.362 105.62 178.488 103.598 180.385L102.149 178.952ZM113.144 166.953C113.356 166.81 113.726 166.639 114.121 166.468C114.548 166.284 115.099 166.062 115.739 165.817C117.02 165.328 118.677 164.738 120.448 164.165C123.94 163.036 128.038 161.916 130.523 161.836L130.671 163.798C128.523 163.867 124.691 164.888 121.164 166.029C119.425 166.591 117.801 167.169 116.554 167.646C115.93 167.885 115.406 168.096 115.013 168.266C114.815 168.351 114.657 168.423 114.537 168.481C114.477 168.51 114.431 168.534 114.398 168.552C114.361 168.572 114.35 168.58 114.355 168.577L113.144 166.953ZM130.522 161.836C134.993 161.691 138.51 162.89 140.763 165.375C143.004 167.848 143.798 171.381 143.304 175.519L141.281 175.218C141.737 171.399 140.96 168.517 139.253 166.634C137.558 164.763 134.752 163.665 130.671 163.798L130.522 161.836ZM143.304 175.514C143.217 176.287 143.206 177.039 143.124 178.395L141.091 178.204C141.167 176.95 141.185 176.061 141.28 175.224L143.304 175.514ZM142.196 177.326C145.472 177.725 148.616 178.104 151.76 178.487L151.584 180.435C148.431 180.051 145.308 179.674 142.02 179.273L142.196 177.326ZM150.66 179.317C151.04 175.953 149.509 171.886 146.473 167.585C143.455 163.309 139.038 158.931 133.895 154.998C123.571 147.101 110.581 141.187 100.495 141.314L100.387 139.351C111.164 139.215 124.627 145.452 135.121 153.479C140.388 157.507 144.972 162.034 148.142 166.526C151.295 170.992 153.141 175.556 152.684 179.605L150.66 179.317ZM101.404 140.051C101.445 140.169 101.433 140.062 101.287 139.933C101.197 139.853 101.067 139.775 100.902 139.736C100.744 139.699 100.613 139.713 100.534 139.728C100.463 139.743 100.418 139.763 100.426 139.76C100.429 139.759 100.431 139.758 100.45 139.75C100.464 139.743 100.492 139.731 100.523 139.719C100.592 139.692 101.062 139.495 101.57 139.783C102.003 140.028 102.136 140.449 102.18 140.601C102.242 140.813 102.28 141.07 102.308 141.361C102.365 141.956 102.395 142.896 102.397 144.367L100.361 144.292C100.359 142.826 100.328 141.962 100.28 141.464C100.256 141.209 100.232 141.096 100.222 141.063C100.194 140.97 100.246 141.27 100.592 141.466C100.793 141.58 100.996 141.601 101.143 141.588C101.268 141.577 101.351 141.543 101.356 141.541C101.363 141.538 101.365 141.537 101.353 141.542C101.347 141.545 101.322 141.556 101.3 141.565C101.254 141.584 101.156 141.625 101.03 141.65C100.897 141.677 100.71 141.693 100.496 141.643C100.276 141.591 100.089 141.484 99.9416 141.354C99.6814 141.123 99.5526 140.826 99.4777 140.613L101.404 140.051ZM102.397 144.366C102.402 146.302 101.358 147.81 100.146 148.996C98.9532 150.163 97.4234 151.173 96.3321 151.993L95.0414 150.426C96.2722 149.502 97.5927 148.642 98.6679 147.59C99.7235 146.557 100.364 145.498 100.361 144.293L102.397 144.366ZM96.3319 151.993C92.947 154.535 89.4575 156.941 85.8494 159.207L84.6913 157.549C88.2525 155.313 91.6979 152.937 95.0417 150.426L96.3319 151.993ZM85.8486 159.208C83.2528 160.834 80.3535 162.538 77.0217 163.065L76.6147 161.127C79.4928 160.672 82.0832 159.184 84.6921 157.549L85.8486 159.208ZM77.0219 163.065C73.8316 163.57 70.6481 163.01 67.6239 162.227C66.1143 161.836 64.6022 161.378 63.1546 160.96C61.6928 160.539 60.2799 160.155 58.9027 159.888L59.2277 157.964C60.7037 158.25 62.1931 158.657 63.6657 159.081C65.1524 159.51 66.6066 159.951 68.0784 160.332C71.017 161.093 73.8567 161.564 76.6145 161.127L77.0219 163.065ZM58.9035 159.888C55.5932 159.248 53.0866 157.648 50.9397 155.738C48.8558 153.883 46.9587 151.577 45.1161 149.678L46.5768 148.367C48.6113 150.464 50.2625 152.517 52.2882 154.319C54.2509 156.066 56.4151 157.42 59.2269 157.964L58.9035 159.888ZM45.1159 149.678C39.9052 144.305 34.2577 138.453 31.0929 131.528L32.951 130.797C35.9442 137.347 41.3203 142.947 46.5771 148.368L45.1159 149.678ZM31.747 130.207C31.1617 130.343 31.047 130.853 31.0355 130.904C31.0078 131.025 31.0141 131.12 31.015 131.137C31.018 131.188 31.0251 131.21 31.0174 131.174C31.0051 131.118 30.9766 131.01 30.9259 130.841C30.8269 130.51 30.6686 130.03 30.4662 129.439C30.0629 128.262 29.4997 126.693 28.9264 125.12C28.3536 123.549 27.7726 121.978 27.3347 120.8C27.1158 120.212 26.9327 119.721 26.8044 119.378C26.7402 119.206 26.6898 119.071 26.6554 118.98C26.6381 118.934 26.6249 118.899 26.6161 118.875C26.6116 118.863 26.6083 118.854 26.606 118.848C26.6049 118.845 26.604 118.843 26.6035 118.841C26.6032 118.841 26.603 118.84 26.6029 118.84C26.6028 118.839 26.6027 118.839 26.6027 118.839C26.6027 118.839 26.6027 118.839 27.5584 118.538C28.5141 118.236 28.5141 118.237 28.5142 118.237C28.5142 118.237 28.5143 118.237 28.5144 118.237C28.5145 118.237 28.5147 118.238 28.515 118.239C28.5156 118.24 28.5164 118.243 28.5176 118.246C28.5199 118.252 28.5233 118.261 28.5278 118.273C28.5367 118.297 28.55 118.332 28.5673 118.378C28.6018 118.47 28.6525 118.606 28.7168 118.778C28.8455 119.122 29.029 119.614 29.2484 120.204C29.6871 121.384 30.2697 122.959 30.8445 124.536C31.4188 126.111 31.9874 127.695 32.3972 128.891C32.6014 129.486 32.7699 129.997 32.8803 130.365C32.9343 130.545 32.981 130.713 33.01 130.847C33.0229 130.907 33.0421 131.003 33.048 131.105C33.0504 131.147 33.0559 131.262 33.025 131.397C33.0104 131.462 32.8901 131.98 32.2969 132.117L31.747 130.207ZM27.9817 117.662C34.6345 120.848 41.191 123.851 48.5678 124.152L48.5623 126.114C40.687 125.792 33.7534 122.583 27.135 119.414L27.9817 117.662ZM48.5667 124.152C53.6891 124.356 58.3819 123.008 63.1528 121.34L63.9135 123.189C59.1017 124.871 54.1012 126.334 48.5634 126.114L48.5667 124.152ZM63.2608 121.309C64.1247 121.111 64.8616 120.869 65.4893 120.516L66.5646 122.223C65.7069 122.704 64.7645 123 63.8055 123.22L63.2608 121.309ZM65.6344 120.45C69.3973 119.079 73.2608 117.658 77.3646 116.89L77.8288 118.817C73.9188 119.55 70.2133 120.908 66.4195 122.29L65.6344 120.45ZM77.365 116.89C77.6224 116.842 78.1727 116.819 78.7558 116.804C79.3878 116.788 80.1892 116.78 81.0367 116.78C82.7234 116.779 84.6356 116.812 85.7803 116.89L85.7177 118.849C84.6494 118.776 82.7978 118.743 81.1179 118.743C80.2821 118.743 79.4993 118.751 78.8901 118.767C78.5849 118.775 78.3284 118.784 78.1331 118.795C78.0352 118.8 77.9576 118.805 77.8995 118.81C77.8344 118.816 77.8172 118.82 77.8285 118.818L77.365 116.89ZM85.7838 116.89C92.1106 117.341 96.5567 118.547 99.1167 121.616C101.664 124.669 102.078 129.255 101.311 135.726L99.2877 135.427C100.053 128.969 99.5043 125.151 97.5501 122.809C95.6086 120.481 92.0136 119.297 85.7142 118.848L85.7838 116.89ZM100.214 134.596C105.042 134.388 109.45 134.202 113.881 134.018L114.049 135.98C109.619 136.164 105.212 136.349 100.385 136.557L100.214 134.596ZM112.949 135.018C112.438 126.719 109.831 120.017 105.454 114.6C101.07 109.174 94.8579 104.972 87.0349 101.764L87.7679 99.9619C95.8273 103.267 102.375 107.657 107.042 113.433C111.716 119.218 114.449 126.327 114.982 134.98L112.949 135.018ZM88.3215 101.318C85.5651 106.819 83.737 110.231 79.8247 111.674C77.8959 112.386 75.5408 112.594 72.4754 112.479C69.4068 112.363 65.5312 111.917 60.5215 111.258L60.7175 109.313C65.7327 109.972 69.517 110.405 72.4743 110.517C75.4349 110.629 77.4717 110.413 79.0318 109.837C82.0976 108.706 83.6354 106.088 86.4813 100.408L88.3215 101.318ZM59.8193 110.861C59.8788 110.936 59.9343 110.983 59.9439 110.992C59.9625 111.008 59.9751 111.017 59.9763 111.018C59.979 111.02 59.9699 111.013 59.9425 110.995C59.8895 110.96 59.8048 110.908 59.6857 110.836C59.4498 110.695 59.1109 110.5 58.6892 110.264C57.8474 109.793 56.696 109.171 55.4203 108.509C52.8518 107.177 49.846 105.721 47.8485 105.006L48.4901 103.168C50.6382 103.938 53.7583 105.455 56.3288 106.789C57.6227 107.46 58.7942 108.093 59.6576 108.576C60.0885 108.817 60.4479 109.023 60.7095 109.18C60.8391 109.257 60.953 109.328 61.0425 109.387C61.0863 109.415 61.1346 109.448 61.1798 109.482C61.1911 109.49 61.3156 109.578 61.4197 109.71L59.8193 110.861ZM47.3373 104.62C47.3892 104.693 47.4217 104.714 47.3363 104.635C47.2793 104.582 47.1963 104.509 47.0891 104.419C46.8762 104.239 46.5929 104.011 46.2846 103.77C45.6544 103.279 44.9821 102.787 44.6189 102.566L45.6556 100.917C46.1357 101.209 46.8942 101.77 47.5266 102.263C47.8496 102.515 48.1555 102.762 48.3953 102.964C48.5145 103.065 48.6238 103.16 48.713 103.242C48.7739 103.298 48.9068 103.421 49.0012 103.553L47.3373 104.62ZM44.3995 102.389C38.0847 95.7491 31.7223 89.0512 25.4396 82.4321L26.9165 81.1384C33.1989 87.7571 39.5608 94.4545 45.875 101.094L44.3995 102.389ZM25.9506 80.8205C35.0763 79.1555 43.8837 77.096 52.7831 76.0493L53.1084 77.9982C44.2924 79.0351 35.6686 81.06 26.4054 82.75L25.9506 80.8205ZM52.783 76.0493C61.2838 75.0491 70.1236 74.1632 78.7216 74.9092L78.6193 76.8645C70.2606 76.1392 61.6141 76.9974 53.1084 77.9982L52.783 76.0493ZM78.7215 74.9092C83.9436 75.3618 87.6877 77.3647 89.5311 80.6181C91.3578 83.8422 91.1405 87.9891 89.1541 92.3979L87.2813 91.5562C89.1345 87.4432 89.1544 83.9793 87.753 81.5059C86.3683 79.0618 83.419 77.2805 78.6194 76.8645L78.7215 74.9092ZM89.1519 92.4026C89.1405 92.4275 89.1169 92.4986 89.1138 92.7628C89.1113 92.978 89.1253 93.4009 89.1005 93.8248L87.0676 93.6366C87.0896 93.2606 87.0737 93.0184 87.0778 92.6627C87.0814 92.3558 87.1012 91.9501 87.2834 91.5515L89.1519 92.4026ZM88.4824 92.8433C93.3504 95.0238 98.2745 97.227 104.702 100.103L103.906 101.879C97.4787 99.0021 92.5542 96.7987 87.6857 94.6181L88.4824 92.8433ZM103.363 101.329L91.2282 72.4881L93.1108 71.813L105.246 100.653L103.363 101.329ZM92.4467 73.1049C86.8399 74.4187 79.3641 72.2892 73.318 65.9484C67.2569 59.5918 62.6289 49.0249 62.5057 33.3476L64.5418 33.4107C64.6621 48.7334 69.1794 58.7654 74.7916 64.6511C80.4188 70.5526 87.1441 72.3087 91.8923 71.1962L92.4467 73.1049Z" fill="#638899" mask="url(#path-5-inside-1_948_3482)"/>
<mask id="path-7-inside-2_948_3482" fill="white">
<path d="M461.421 114.83C467.389 117.92 472.556 128.25 476.195 133.04C479.834 137.83 482.911 142.45 484.221 143.46C487.882 146.27 491.879 148.69 496.006 150.48C499.223 151.87 502.808 151.17 504.682 147.35C506.653 143.35 504.714 140.01 501.996 137.53C498.974 134.77 495.768 132.24 492.507 129.86C483.214 123.07 472.252 107.83 470.086 101.83C470.086 101.83 469.003 99.83 469.003 95.83C469.003 92.83 470.086 89.83 470.086 89.83C470.433 88.76 479.401 73.4 480.127 72.55C483.008 69.18 484.871 69.5 486.366 73.84C487.731 77.8 488.846 81.89 489.973 85.96C493.937 100.43 499.017 114.23 508.31 125.42C510.477 128.03 513.174 132.25 516.456 129.5C519.781 126.71 517.69 122.13 515.903 118.84C512.058 111.72 507.953 104.8 503.815 97.89C498.226 88.55 494.695 78.34 493.482 67.1C491.814 51.66 506.252 36.31 520.117 39.12C520.117 46.2 520.16 53.35 520.117 60.5C520.008 76.68 522.965 92.08 529.237 106.56C530.667 109.87 532.638 113.09 534.988 115.56C536.342 116.98 539.408 117.88 540.891 117.07C542.397 116.24 543.892 112.86 543.643 110.88C543.155 106.95 541.661 103.12 540.252 99.41C534.046 83.08 527.634 74.48 530.125 40.19C530.482 35.28 532.291 31.79 536.342 29.89C538.27 28.99 540.09 27.75 542.04 26.92C547.726 24.52 553.521 22.86 559.857 23.73C559.619 24.71 559.597 25.27 559.37 25.65C550.337 40.9 549.102 58.22 549.795 75.8C549.99 80.67 552.34 85.46 553.965 90.17C554.29 91.14 555.893 92.23 556.738 92.07C557.561 91.91 558.677 90.29 558.763 89.21C559.121 85.16 559.554 81.02 559.153 77.02C557.539 60.69 558.796 44.83 565.36 30.07C566.8 26.82 570.039 23.38 572.996 22.54C578.325 21.03 584.066 21.41 589.622 21C589.666 22.06 589.741 22.3 589.676 22.37C588.777 23.26 587.868 24.13 586.958 24.99C579.376 32.18 576.235 41.59 576.603 52.64C576.657 54.11 577.502 56.34 578.466 56.77C579.365 57.17 581.239 55.96 582.105 54.86C583.697 52.86 585.073 50.54 586.167 48.14C589.124 41.63 591.702 34.88 594.789 28.45C597.703 22.39 607.613 21.84 611.166 27.45C613.874 31.73 616.257 36.29 618.791 40.72C620.763 44.14 620.416 46.75 617.394 49.42C611.242 54.83 605.198 60.43 599.436 66.37C596.489 69.41 594.117 73.23 591.756 76.93C591.128 77.92 590.998 80.23 591.583 81.09C592.189 81.98 594.02 82.3 595.168 82.05C597.194 81.6 599.23 80.79 601.028 79.66C609.281 74.46 616.181 67.55 621.12 58.26C622.463 55.72 623.785 53.16 625.117 50.61C625.637 50.53 626.157 50.46 626.677 50.39C629.45 57.66 632.526 64.8 634.898 72.25C637.216 79.52 636.436 82.92 630.728 87.24C623.427 92.77 615.759 97.77 607.917 102.26C600.064 106.76 591.767 110.21 583.784 114.45C582.149 115.33 581.087 117.65 579.766 119.3C581.607 120.14 583.546 121.9 585.279 121.66C590.099 120.98 595.092 120.21 599.566 118.16C613.267 111.87 624.987 101.77 636.555 91.48C637.877 90.31 639.404 89.46 641.072 88.3C641.765 90.03 642.404 91.05 642.577 92.16C643.953 101.06 645.74 109.93 646.455 118.91C647.354 130.11 645.112 133.47 635.732 136.91C622.333 141.83 608.762 145.43 594.475 144.55C588.572 144.19 582.582 144.91 576.668 145.61C575.054 145.8 573.603 147.7 572.075 148.81C573.451 150.19 574.697 152.46 576.235 152.77C583.806 154.3 591.464 156.33 599.078 156.21C606.866 156.08 614.654 153.87 622.377 152.15C626.536 151.22 630.598 149.56 634.605 147.91C637.725 146.62 640.704 144.83 644.711 142.76C644.57 146.19 644.852 148.45 644.332 150.42C641.787 160.04 639.274 169.7 636.165 179.08C635.396 181.4 632.482 184.21 630.479 184.3C624.608 184.54 618.477 184.49 612.845 182.8C600.605 179.13 588.658 174.19 576.495 170.15C573.007 168.99 569.172 168.76 565.511 168.89C563.984 168.94 561.796 170.75 561.255 172.35C560.865 173.54 562.273 176.43 563.529 177.26C567.364 179.8 571.36 182.31 575.585 183.77C591.366 189.21 607.505 192.19 624.066 191.71C625.637 191.67 627.218 192.16 628.8 192.4C628.756 192.9 628.713 193.4 628.659 193.89C624.229 193.89 619.788 193.93 615.347 193.89C595.515 193.68 575.487 193.9 555.655 193.83C546.567 193.79 537.664 193.74 528.576 193.82C527.32 193.83 525.359 193.23 524.926 192.23C522.868 187.46 520.702 189.62 518.102 191.41C516.12 192.76 513.78 193.43 511.094 194.63C512.73 188.58 513.954 184.03 515.286 179.08C510.531 179.35 508.007 180.29 506.74 184.98C504.314 193.97 498.952 194.92 492.258 193.91C491.673 193.82 491.056 193.82 490.471 193.91C487.698 194.33 486.301 193.11 485.196 189.97C484.275 187.35 482.38 184.65 480.268 183.21C475.632 180.06 455.464 152.77 461.421 114.83Z"/>
</mask>
<path d="M461.421 114.83C467.389 117.92 472.556 128.25 476.195 133.04C479.834 137.83 482.911 142.45 484.221 143.46C487.882 146.27 491.879 148.69 496.006 150.48C499.223 151.87 502.808 151.17 504.682 147.35C506.653 143.35 504.714 140.01 501.996 137.53C498.974 134.77 495.768 132.24 492.507 129.86C483.214 123.07 472.252 107.83 470.086 101.83C470.086 101.83 469.003 99.83 469.003 95.83C469.003 92.83 470.086 89.83 470.086 89.83C470.433 88.76 479.401 73.4 480.127 72.55C483.008 69.18 484.871 69.5 486.366 73.84C487.731 77.8 488.846 81.89 489.973 85.96C493.937 100.43 499.017 114.23 508.31 125.42C510.477 128.03 513.174 132.25 516.456 129.5C519.781 126.71 517.69 122.13 515.903 118.84C512.058 111.72 507.953 104.8 503.815 97.89C498.226 88.55 494.695 78.34 493.482 67.1C491.814 51.66 506.252 36.31 520.117 39.12C520.117 46.2 520.16 53.35 520.117 60.5C520.008 76.68 522.965 92.08 529.237 106.56C530.667 109.87 532.638 113.09 534.988 115.56C536.342 116.98 539.408 117.88 540.891 117.07C542.397 116.24 543.892 112.86 543.643 110.88C543.155 106.95 541.661 103.12 540.252 99.41C534.046 83.08 527.634 74.48 530.125 40.19C530.482 35.28 532.291 31.79 536.342 29.89C538.27 28.99 540.09 27.75 542.04 26.92C547.726 24.52 553.521 22.86 559.857 23.73C559.619 24.71 559.597 25.27 559.37 25.65C550.337 40.9 549.102 58.22 549.795 75.8C549.99 80.67 552.34 85.46 553.965 90.17C554.29 91.14 555.893 92.23 556.738 92.07C557.561 91.91 558.677 90.29 558.763 89.21C559.121 85.16 559.554 81.02 559.153 77.02C557.539 60.69 558.796 44.83 565.36 30.07C566.8 26.82 570.039 23.38 572.996 22.54C578.325 21.03 584.066 21.41 589.622 21C589.666 22.06 589.741 22.3 589.676 22.37C588.777 23.26 587.868 24.13 586.958 24.99C579.376 32.18 576.235 41.59 576.603 52.64C576.657 54.11 577.502 56.34 578.466 56.77C579.365 57.17 581.239 55.96 582.105 54.86C583.697 52.86 585.073 50.54 586.167 48.14C589.124 41.63 591.702 34.88 594.789 28.45C597.703 22.39 607.613 21.84 611.166 27.45C613.874 31.73 616.257 36.29 618.791 40.72C620.763 44.14 620.416 46.75 617.394 49.42C611.242 54.83 605.198 60.43 599.436 66.37C596.489 69.41 594.117 73.23 591.756 76.93C591.128 77.92 590.998 80.23 591.583 81.09C592.189 81.98 594.02 82.3 595.168 82.05C597.194 81.6 599.23 80.79 601.028 79.66C609.281 74.46 616.181 67.55 621.12 58.26C622.463 55.72 623.785 53.16 625.117 50.61C625.637 50.53 626.157 50.46 626.677 50.39C629.45 57.66 632.526 64.8 634.898 72.25C637.216 79.52 636.436 82.92 630.728 87.24C623.427 92.77 615.759 97.77 607.917 102.26C600.064 106.76 591.767 110.21 583.784 114.45C582.149 115.33 581.087 117.65 579.766 119.3C581.607 120.14 583.546 121.9 585.279 121.66C590.099 120.98 595.092 120.21 599.566 118.16C613.267 111.87 624.987 101.77 636.555 91.48C637.877 90.31 639.404 89.46 641.072 88.3C641.765 90.03 642.404 91.05 642.577 92.16C643.953 101.06 645.74 109.93 646.455 118.91C647.354 130.11 645.112 133.47 635.732 136.91C622.333 141.83 608.762 145.43 594.475 144.55C588.572 144.19 582.582 144.91 576.668 145.61C575.054 145.8 573.603 147.7 572.075 148.81C573.451 150.19 574.697 152.46 576.235 152.77C583.806 154.3 591.464 156.33 599.078 156.21C606.866 156.08 614.654 153.87 622.377 152.15C626.536 151.22 630.598 149.56 634.605 147.91C637.725 146.62 640.704 144.83 644.711 142.76C644.57 146.19 644.852 148.45 644.332 150.42C641.787 160.04 639.274 169.7 636.165 179.08C635.396 181.4 632.482 184.21 630.479 184.3C624.608 184.54 618.477 184.49 612.845 182.8C600.605 179.13 588.658 174.19 576.495 170.15C573.007 168.99 569.172 168.76 565.511 168.89C563.984 168.94 561.796 170.75 561.255 172.35C560.865 173.54 562.273 176.43 563.529 177.26C567.364 179.8 571.36 182.31 575.585 183.77C591.366 189.21 607.505 192.19 624.066 191.71C625.637 191.67 627.218 192.16 628.8 192.4C628.756 192.9 628.713 193.4 628.659 193.89C624.229 193.89 619.788 193.93 615.347 193.89C595.515 193.68 575.487 193.9 555.655 193.83C546.567 193.79 537.664 193.74 528.576 193.82C527.32 193.83 525.359 193.23 524.926 192.23C522.868 187.46 520.702 189.62 518.102 191.41C516.12 192.76 513.78 193.43 511.094 194.63C512.73 188.58 513.954 184.03 515.286 179.08C510.531 179.35 508.007 180.29 506.74 184.98C504.314 193.97 498.952 194.92 492.258 193.91C491.673 193.82 491.056 193.82 490.471 193.91C487.698 194.33 486.301 193.11 485.196 189.97C484.275 187.35 482.38 184.65 480.268 183.21C475.632 180.06 455.464 152.77 461.421 114.83Z" fill="white" stroke="#638899" stroke-width="2" mask="url(#path-7-inside-2_948_3482)"/>
<path d="M711.68 10.1111C700.897 14.8974 691.304 21.0976 686.709 31.8358C683.402 39.5725 685.427 49.9557 691.365 52.3333C697.062 54.6083 696.403 57.6504 695.49 61.761C694.81 64.8337 694.829 68.0449 694.412 71.1696C694.205 72.6468 693.684 74.0938 693.152 76.1714C689.897 73.6707 687.444 71.7955 685.003 69.92C691.606 62.5316 691.791 59.294 685.077 51.9576C682.334 48.9608 678.907 46.1953 675.198 44.339C664.976 39.2223 653.668 35.8102 645.595 27.4753C645.539 27.417 645.272 27.5253 644.529 27.6584C642.556 41.3671 642.108 55.0086 650.366 67.5402C658.842 80.3952 671.314 82.7307 682.437 73.8716C692.456 79.6949 701.493 107.701 696.688 118.636C692.034 116.118 687.31 113.743 682.853 111C681.999 110.466 681.729 108.393 681.988 107.174C682.954 102.732 681.726 99.0677 678.62 95.5919C666.904 82.447 651.138 78.9427 631.638 86.01C627.423 87.5312 624.204 88.1211 621.78 85.8248C622.456 88.9357 623.145 92.0961 624.866 95.0045C627.742 99.8983 627.881 105.807 631.989 110.003C637.38 115.499 643.27 120.73 649.749 125.142C656.227 129.554 664.692 131.373 671.534 130.261C677.944 129.212 682.265 125.846 683.483 119.675C689.676 122.215 693.366 128.304 691.667 133.75C690.531 137.387 688.596 140.809 686.945 144.302C685.003 148.414 682.612 152.39 681.118 156.629C679.683 160.686 679.136 165.015 678.13 169.539C673.676 168.366 671.359 166.927 669.478 162.292C665.765 153.162 657.84 146.804 646.945 144.629C643.397 143.919 639.794 143.48 636.21 142.971C635.796 142.913 624.844 139.16 624.202 138.8C621.37 137.226 619.424 136.146 616.382 134.449C616.516 135.756 616.689 136.951 616.849 138.067C617.438 138.769 617.797 139.698 617.817 140.838C617.87 145.279 617.079 149.756 617.402 154.189C617.708 158.422 619.079 162.161 621.151 165.809C621.596 166.416 622.063 167.032 622.572 167.626C625.574 171.205 633.496 174.772 633.52 174.551C646.748 181.866 658.768 179.513 670.511 173.116C675.394 177.177 677.163 182.306 677.895 187.856C678.987 196.137 678.955 196.138 687.852 195.833C688.036 195.827 688.22 195.801 688.394 195.816C692.931 196.326 694.233 194.554 693.907 190.372C693.425 184.264 697.202 179.634 703.903 177.346C705.327 186.697 713.215 188.454 721.346 189.123C729.173 189.771 736.4 187.636 743.564 184.973C751.167 182.146 758.768 179.269 766.043 175.772C773.318 172.275 779.22 167.67 785.499 162.723C785.22 162.782 776.778 165.785 776.692 165.807C774.434 166.608 769.432 165.232 767.113 164.943C762.715 164.409 758.324 163.774 753.981 162.938C748.491 161.878 743.064 160.465 737.866 158.494C732.669 156.524 728.087 153.324 722.797 151.497C721.607 151.243 709.522 151.517 705.2 153.062C697.218 155.91 695.528 161.876 699.791 168.848C700.217 169.555 700.581 170.304 701.208 171.476C698.36 173.035 695.64 174.52 692.909 176.015C685.056 162.991 704.058 128.774 723.353 121.442C723.49 122.829 721.699 120.053 724.193 125.459C725.522 128.349 729.478 128.957 732.356 129.719C736.525 130.82 740.732 131.761 744.987 132.529C748.074 133.084 751.277 133.555 754.341 132.88C760.212 131.588 764.539 126.611 769.315 123.522C774.44 120.211 775.389 114.699 777.252 109.618C779.767 102.757 782.397 95.4913 782.359 88.1784C782.1 88.2164 781.087 74.9503 781.087 74.9503C776.339 80.2802 771.459 85.5841 764.58 88.6387C759.77 90.7687 754.715 91.2353 749.596 91.4338C748.669 91.5725 747.782 91.63 746.922 91.5165C742.862 91.6222 738.79 91.7182 734.786 92.4825C734.162 92.6019 729.268 94.5144 727.297 95.4559C716.071 100.866 714.544 105.686 721.458 117.019C716.931 118.58 712.799 120.008 708.647 121.447C702.388 105.482 706.706 92.1711 718.536 80.4185C728.449 88.6665 729.861 89.063 747.174 79.3619C747.25 79.0594 752.803 72.0137 755.982 69.1437C756.037 68.8618 757.215 66.6642 757.772 65.8865C760.75 57.4896 763.748 49.0221 766.707 40.6559C757.538 42.4506 748.655 43.7361 740.067 45.9931C731.822 48.1593 723.411 50.5309 715.929 54.2845C707.084 58.7206 706.843 66.1022 714.002 72.5443C714.36 72.8634 714.488 73.3898 714.872 74.1083C711.324 77.8802 707.734 81.6934 703.049 86.6711L701.926 55.7485C712.48 54.2211 718.912 47.4984 718.515 37.7552" fill="#415656"/>
<mask id="path-9-inside-3_948_3482" fill="white">
<path d="M930.423 114.83C924.454 117.92 919.288 128.25 915.648 133.04C912.009 137.83 908.933 142.45 907.622 143.46C903.961 146.27 899.964 148.69 895.838 150.48C892.621 151.87 889.036 151.17 887.162 147.35C885.19 143.35 887.129 140.01 889.848 137.53C892.87 134.77 896.076 132.24 899.336 129.86C908.63 123.07 919.591 107.83 921.757 101.83C921.757 101.83 922.841 99.83 922.841 95.83C922.841 92.83 921.757 89.83 921.757 89.83C921.411 88.76 912.442 73.4 911.717 72.55C908.835 69.18 906.972 69.5 905.478 73.84C904.113 77.8 902.997 81.89 901.871 85.96C897.906 100.43 892.827 114.23 883.533 125.42C881.367 128.03 878.67 132.25 875.388 129.5C872.063 126.71 874.153 122.13 875.94 118.84C879.785 111.72 883.891 104.8 888.028 97.89C893.617 88.55 897.148 78.34 898.361 67.1C900.029 51.66 885.591 36.31 871.727 39.12C871.727 46.2 871.683 53.35 871.727 60.5C871.835 76.68 868.878 92.08 862.607 106.56C861.177 109.87 859.206 113.09 856.855 115.56C855.501 116.98 852.436 117.88 850.952 117.07C849.446 116.24 847.952 112.86 848.201 110.88C848.688 106.95 850.183 103.12 851.591 99.41C857.798 83.08 864.21 74.48 861.719 40.19C861.361 35.28 859.552 31.79 855.501 29.89C853.573 28.99 851.754 27.75 849.804 26.92C844.117 24.52 838.323 22.86 831.986 23.73C832.224 24.71 832.246 25.27 832.474 25.65C841.507 40.9 842.742 58.22 842.049 75.8C841.854 80.67 839.503 85.46 837.878 90.17C837.553 91.14 835.95 92.23 835.106 92.07C834.282 91.91 833.167 90.29 833.08 89.21C832.723 85.16 832.289 81.02 832.69 77.02C834.304 60.69 833.048 44.83 826.484 30.07C825.043 26.82 821.805 23.38 818.848 22.54C813.518 21.03 807.778 21.41 802.221 21C802.178 22.06 802.102 22.3 802.167 22.37C803.066 23.26 803.976 24.13 804.886 24.99C812.468 32.18 815.609 41.59 815.241 52.64C815.186 54.11 814.342 56.34 813.378 56.77C812.479 57.17 810.605 55.96 809.738 54.86C808.146 52.86 806.77 50.54 805.676 48.14C802.719 41.63 800.142 34.88 797.055 28.45C794.141 22.39 784.23 21.84 780.677 27.45C777.97 31.73 775.587 36.29 773.052 40.72C771.081 44.14 771.427 46.75 774.449 49.42C780.602 54.83 786.646 60.43 792.408 66.37C795.354 69.41 797.726 73.23 800.087 76.93C800.716 77.92 800.846 80.23 800.261 81.09C799.654 81.98 797.824 82.3 796.675 82.05C794.65 81.6 792.614 80.79 790.816 79.66C782.562 74.46 775.662 67.55 770.723 58.26C769.38 55.72 768.059 53.16 766.726 50.61C766.207 50.53 765.687 50.46 765.167 50.39C762.394 57.66 759.318 64.8 756.946 72.25C754.628 79.52 755.408 82.92 761.116 87.24C768.416 92.77 776.085 97.77 783.927 102.26C791.78 106.76 800.077 110.21 808.059 114.45C809.695 115.33 810.756 117.65 812.078 119.3C810.236 120.14 808.298 121.9 806.565 121.66C801.745 120.98 796.751 120.21 792.278 118.16C778.576 111.87 766.856 101.77 755.288 91.48C753.967 90.31 752.44 89.46 750.772 88.3C750.078 90.03 749.439 91.05 749.266 92.16C747.891 101.06 746.103 109.93 745.388 118.91C744.489 130.11 746.732 133.47 756.112 136.91C769.51 141.83 783.082 145.43 797.369 144.55C803.272 144.19 809.262 144.91 815.176 145.61C816.79 145.8 818.241 147.7 819.768 148.81C818.393 150.19 817.147 152.46 815.609 152.77C808.038 154.3 800.38 156.33 792.765 156.21C784.977 156.08 777.19 153.87 769.467 152.15C765.308 151.22 761.246 149.56 757.238 147.91C754.119 146.62 751.14 144.83 747.132 142.76C747.273 146.19 746.991 148.45 747.511 150.42C750.057 160.04 752.57 169.7 755.678 179.08C756.447 181.4 759.361 184.21 761.365 184.3C767.236 184.54 773.366 184.49 778.999 182.8C791.238 179.13 803.185 174.19 815.349 170.15C818.837 168.99 822.671 168.76 826.332 168.89C827.859 168.94 830.047 170.75 830.589 172.35C830.979 173.54 829.571 176.43 828.314 177.26C824.48 179.8 820.483 182.31 816.259 183.77C800.477 189.21 784.338 192.19 767.777 191.71C766.207 191.67 764.625 192.16 763.044 192.4C763.087 192.9 763.13 193.4 763.185 193.89C767.615 193.89 772.056 193.93 776.496 193.89C796.329 193.68 816.356 193.9 836.189 193.83C845.276 193.79 854.18 193.74 863.267 193.82C864.524 193.83 866.484 193.23 866.918 192.23C868.976 187.46 871.142 189.62 873.741 191.41C875.724 192.76 878.063 193.43 880.749 194.63C879.114 188.58 877.89 184.03 876.558 179.08C881.313 179.35 883.836 180.29 885.104 184.98C887.53 193.97 892.892 194.92 899.585 193.91C900.17 193.82 900.788 193.82 901.373 193.91C904.145 194.33 905.543 193.11 906.648 189.97C907.568 187.35 909.464 184.65 911.576 183.21C916.212 180.06 940.714 152.77 930.423 114.83Z"/>
</mask>
<path d="M930.423 114.83C924.454 117.92 919.288 128.25 915.648 133.04C912.009 137.83 908.933 142.45 907.622 143.46C903.961 146.27 899.964 148.69 895.838 150.48C892.621 151.87 889.036 151.17 887.162 147.35C885.19 143.35 887.129 140.01 889.848 137.53C892.87 134.77 896.076 132.24 899.336 129.86C908.63 123.07 919.591 107.83 921.757 101.83C921.757 101.83 922.841 99.83 922.841 95.83C922.841 92.83 921.757 89.83 921.757 89.83C921.411 88.76 912.442 73.4 911.717 72.55C908.835 69.18 906.972 69.5 905.478 73.84C904.113 77.8 902.997 81.89 901.871 85.96C897.906 100.43 892.827 114.23 883.533 125.42C881.367 128.03 878.67 132.25 875.388 129.5C872.063 126.71 874.153 122.13 875.94 118.84C879.785 111.72 883.891 104.8 888.028 97.89C893.617 88.55 897.148 78.34 898.361 67.1C900.029 51.66 885.591 36.31 871.727 39.12C871.727 46.2 871.683 53.35 871.727 60.5C871.835 76.68 868.878 92.08 862.607 106.56C861.177 109.87 859.206 113.09 856.855 115.56C855.501 116.98 852.436 117.88 850.952 117.07C849.446 116.24 847.952 112.86 848.201 110.88C848.688 106.95 850.183 103.12 851.591 99.41C857.798 83.08 864.21 74.48 861.719 40.19C861.361 35.28 859.552 31.79 855.501 29.89C853.573 28.99 851.754 27.75 849.804 26.92C844.117 24.52 838.323 22.86 831.986 23.73C832.224 24.71 832.246 25.27 832.474 25.65C841.507 40.9 842.742 58.22 842.049 75.8C841.854 80.67 839.503 85.46 837.878 90.17C837.553 91.14 835.95 92.23 835.106 92.07C834.282 91.91 833.167 90.29 833.08 89.21C832.723 85.16 832.289 81.02 832.69 77.02C834.304 60.69 833.048 44.83 826.484 30.07C825.043 26.82 821.805 23.38 818.848 22.54C813.518 21.03 807.778 21.41 802.221 21C802.178 22.06 802.102 22.3 802.167 22.37C803.066 23.26 803.976 24.13 804.886 24.99C812.468 32.18 815.609 41.59 815.241 52.64C815.186 54.11 814.342 56.34 813.378 56.77C812.479 57.17 810.605 55.96 809.738 54.86C808.146 52.86 806.77 50.54 805.676 48.14C802.719 41.63 800.142 34.88 797.055 28.45C794.141 22.39 784.23 21.84 780.677 27.45C777.97 31.73 775.587 36.29 773.052 40.72C771.081 44.14 771.427 46.75 774.449 49.42C780.602 54.83 786.646 60.43 792.408 66.37C795.354 69.41 797.726 73.23 800.087 76.93C800.716 77.92 800.846 80.23 800.261 81.09C799.654 81.98 797.824 82.3 796.675 82.05C794.65 81.6 792.614 80.79 790.816 79.66C782.562 74.46 775.662 67.55 770.723 58.26C769.38 55.72 768.059 53.16 766.726 50.61C766.207 50.53 765.687 50.46 765.167 50.39C762.394 57.66 759.318 64.8 756.946 72.25C754.628 79.52 755.408 82.92 761.116 87.24C768.416 92.77 776.085 97.77 783.927 102.26C791.78 106.76 800.077 110.21 808.059 114.45C809.695 115.33 810.756 117.65 812.078 119.3C810.236 120.14 808.298 121.9 806.565 121.66C801.745 120.98 796.751 120.21 792.278 118.16C778.576 111.87 766.856 101.77 755.288 91.48C753.967 90.31 752.44 89.46 750.772 88.3C750.078 90.03 749.439 91.05 749.266 92.16C747.891 101.06 746.103 109.93 745.388 118.91C744.489 130.11 746.732 133.47 756.112 136.91C769.51 141.83 783.082 145.43 797.369 144.55C803.272 144.19 809.262 144.91 815.176 145.61C816.79 145.8 818.241 147.7 819.768 148.81C818.393 150.19 817.147 152.46 815.609 152.77C808.038 154.3 800.38 156.33 792.765 156.21C784.977 156.08 777.19 153.87 769.467 152.15C765.308 151.22 761.246 149.56 757.238 147.91C754.119 146.62 751.14 144.83 747.132 142.76C747.273 146.19 746.991 148.45 747.511 150.42C750.057 160.04 752.57 169.7 755.678 179.08C756.447 181.4 759.361 184.21 761.365 184.3C767.236 184.54 773.366 184.49 778.999 182.8C791.238 179.13 803.185 174.19 815.349 170.15C818.837 168.99 822.671 168.76 826.332 168.89C827.859 168.94 830.047 170.75 830.589 172.35C830.979 173.54 829.571 176.43 828.314 177.26C824.48 179.8 820.483 182.31 816.259 183.77C800.477 189.21 784.338 192.19 767.777 191.71C766.207 191.67 764.625 192.16 763.044 192.4C763.087 192.9 763.13 193.4 763.185 193.89C767.615 193.89 772.056 193.93 776.496 193.89C796.329 193.68 816.356 193.9 836.189 193.83C845.276 193.79 854.18 193.74 863.267 193.82C864.524 193.83 866.484 193.23 866.918 192.23C868.976 187.46 871.142 189.62 873.741 191.41C875.724 192.76 878.063 193.43 880.749 194.63C879.114 188.58 877.89 184.03 876.558 179.08C881.313 179.35 883.836 180.29 885.104 184.98C887.53 193.97 892.892 194.92 899.585 193.91C900.17 193.82 900.788 193.82 901.373 193.91C904.145 194.33 905.543 193.11 906.648 189.97C907.568 187.35 909.464 184.65 911.576 183.21C916.212 180.06 940.714 152.77 930.423 114.83Z" fill="white" stroke="#638899" stroke-width="2" mask="url(#path-9-inside-3_948_3482)"/>
<path d="M1282.48 84.4225L1282.91 84.1612C1283.09 84.4513 1283.14 84.77 1283.18 85.0645C1283.2 85.1708 1283.21 85.2735 1283.22 85.3774C1283.24 85.5853 1283.26 85.798 1283.31 86.0537L1283.37 86.3975L1283.05 86.5779C1279.11 88.8469 1275.13 91.1366 1270.24 93.9459L1267.75 95.3754L1266.68 95.9908L1267.02 94.8293L1275.8 64.9691L1275.92 64.5412L1276.37 64.6002C1286.46 65.942 1306.08 54.4735 1299.74 24.6737C1288.12 26.3373 1277.32 29.6631 1269.74 38.4164C1267 41.5817 1265.29 45.7264 1264.87 49.5471C1264.44 53.3859 1265.33 56.773 1267.6 58.5697C1270.03 60.4798 1270.93 62.2233 1270.84 64.0472C1270.75 65.7857 1269.74 67.4884 1268.68 69.2769L1268.65 69.3267C1267.86 70.6728 1267.21 72.1041 1266.58 73.572C1266.44 73.9067 1266.3 74.2439 1266.15 74.5824C1265.67 75.7195 1265.19 76.8712 1264.64 77.9895L1264.64 77.9921C1264.29 78.7002 1263.87 79.3715 1263.4 80.0858C1263.25 80.3136 1263.09 80.545 1262.93 80.7837C1262.59 81.3007 1262.22 81.8525 1261.82 82.4792L1261.41 83.1298L1260.97 82.5196C1259.82 80.8829 1258.8 79.45 1257.86 78.1194L1257.64 77.8181C1256.78 76.6022 1255.98 75.4669 1255.18 74.3321L1254.87 73.9055L1255.34 73.6229C1259.68 70.9837 1261.98 68.9901 1262.79 66.6597C1263.6 64.3374 1262.97 61.5281 1260.93 57.1097L1261.39 56.8928L1260.93 57.1097C1259.28 53.5453 1256.92 50.024 1254.01 47.2914L1254.01 47.2914C1251.99 45.3838 1249.86 43.5578 1247.73 41.7266L1247.57 41.5942C1245.49 39.8092 1243.4 38.0173 1241.4 36.1499C1237.36 32.3733 1233.66 28.2663 1231.1 23.2097C1231.08 23.2085 1231.05 23.2072 1231.03 23.2059C1230.93 23.2005 1230.81 23.1937 1230.67 23.1828C1224.5 35.6264 1219.92 48.3007 1223.74 62.2185C1225.71 69.4218 1229.44 74.3446 1234.27 76.8146C1239.09 79.2818 1245.09 79.3445 1251.7 76.6647L1252.03 76.5326L1252.26 76.7806C1254.28 78.9416 1255.73 82.417 1256.67 86.4953C1257.61 90.5868 1258.05 95.3411 1257.99 100.114C1257.94 104.887 1257.38 109.695 1256.33 113.894C1255.28 118.081 1253.72 121.714 1251.62 124.091L1251.26 124.507L1250.88 124.127C1249.94 123.178 1248.98 122.234 1248.03 121.29C1245.31 118.598 1242.58 115.899 1240.07 113.052L1240.07 113.049C1239.82 112.768 1239.7 112.399 1239.65 112.036C1239.6 111.667 1239.62 111.261 1239.67 110.86C1239.78 110.062 1240.05 109.21 1240.41 108.596L1240.41 108.594C1242.66 104.77 1242.66 101.102 1240.85 97.0562L1240.85 97.0556C1237.38 89.2678 1232.21 83.5098 1225.34 79.8729C1218.47 76.2337 1209.86 74.6989 1199.48 75.4242L1199.48 75.4242C1197.22 75.5796 1195.2 75.5856 1193.54 75.1696C1192.31 74.8616 1191.27 74.3205 1190.46 73.445C1190.18 76.1601 1190.02 78.8535 1190.62 81.5681L1190.62 81.5694C1191.11 83.829 1191.11 86.1348 1191.11 88.3651C1191.12 88.8897 1191.12 89.4101 1191.12 89.9247C1191.16 92.655 1191.37 95.2646 1192.61 97.7254C1196 104.423 1199.95 110.992 1204.71 116.935C1209.42 122.816 1216.82 126.786 1223.58 127.565C1226.74 127.926 1229.56 127.602 1231.95 126.535C1234.34 125.471 1236.34 123.652 1237.85 120.956L1238.15 120.42L1238.62 120.796C1243.87 125.014 1245.6 132.111 1242.04 137.13L1242.04 137.13C1240.36 139.507 1238.28 141.659 1236.24 143.777C1235.52 144.515 1234.81 145.249 1234.13 145.987C1233.04 147.153 1231.93 148.277 1230.82 149.392C1228.64 151.585 1226.49 153.748 1224.66 156.148L1224.66 156.148C1222.85 158.527 1221.4 161.122 1219.88 163.847C1219.19 165.083 1218.49 166.345 1217.73 167.626L1217.46 168.078L1217.02 167.813C1215.06 166.636 1213.58 165.51 1212.56 164.015C1211.53 162.513 1210.99 160.685 1210.83 158.162C1210.2 148.61 1204.76 140.519 1195.17 135.553L1195.17 135.553C1192.68 134.259 1190.1 133.12 1187.51 131.974C1186.83 131.673 1186.15 131.371 1185.47 131.066L1282.48 84.4225ZM1282.48 84.4225C1282.63 84.6871 1282.67 85.0102 1282.71 85.4255C1282.74 85.6416 1282.76 85.8827 1282.81 86.1534L1282.48 84.4225ZM1282.48 84.4225L1282.91 84.1634C1280.56 80.1827 1280.08 76.5769 1281.27 73.7872C1282.46 71.0127 1285.38 68.8796 1290.21 67.9793L1290.13 67.4932L1290.21 67.9793C1298.5 66.4341 1307.25 66.4487 1315.82 66.6167L1315.84 66.1219L1315.82 66.6167C1321.97 66.7369 1328.09 67.3364 1334.38 67.9516C1336.91 68.1994 1339.47 68.4498 1342.07 68.6725M1282.48 84.4225L1342.07 68.6725M1342.07 68.6725C1336.76 75.6172 1331.4 82.6374 1326.07 89.5999C1325.65 89.9271 1325.02 90.5095 1324.47 91.0362C1324.18 91.3149 1323.91 91.5849 1323.7 91.8033C1323.6 91.9121 1323.5 92.0111 1323.43 92.0936C1323.41 92.1202 1323.38 92.1512 1323.35 92.1842C1321.35 93.1544 1318.51 94.9091 1316.16 96.4534C1314.95 97.2437 1313.86 97.9842 1313.06 98.5448C1312.66 98.8249 1312.34 99.0618 1312.1 99.2386C1311.98 99.3265 1311.88 99.4025 1311.81 99.4628C1311.8 99.474 1311.78 99.4851 1311.77 99.4961C1306.93 100.622 1303.23 101.415 1300.31 101.813C1297.35 102.216 1295.22 102.209 1293.5 101.763C1290.1 100.879 1288.18 98.2327 1284.73 92.9042L1284.49 92.5262L1284.07 92.7467C1276.49 96.7869 1270.56 101.735 1266.64 107.84C1262.71 113.95 1260.82 121.183 1261.28 129.752L1261.3 130.231L1261.79 130.203C1266.22 129.955 1270.62 129.711 1275.45 129.449L1276.07 129.415L1275.93 128.827C1274.43 122.476 1274.48 118.441 1276.29 115.733C1278.08 113.032 1281.73 111.479 1287.95 110.418C1289.03 110.239 1290.88 110.024 1292.55 109.861C1293.38 109.78 1294.17 109.712 1294.78 109.667C1295.42 109.621 1295.82 109.606 1295.93 109.615C1299.9 109.963 1303.73 110.943 1307.6 111.933L1307.72 111.963C1308.54 112.317 1309.44 112.507 1310.37 112.628C1315.33 113.827 1320.38 114.77 1325.74 114.027L1325.74 114.027C1332.99 113.017 1339.14 109.565 1345.05 105.982C1344.99 106.241 1344.91 106.536 1344.83 106.86C1344.53 108.075 1344.13 109.697 1343.74 111.32C1343.35 112.942 1342.97 114.568 1342.7 115.792C1342.56 116.403 1342.45 116.92 1342.39 117.287C1342.35 117.469 1342.33 117.625 1342.32 117.742C1342.31 117.79 1342.31 117.849 1342.31 117.906C1340.03 124.759 1335.3 130.883 1330.72 136.738M1342.07 68.6725L1320.67 190.59C1313.62 193.393 1306.9 195.933 1299.33 197.215C1291.27 198.582 1283.09 199.268 1274.92 199.906C1267.22 200.506 1259.63 200.584 1252.36 197.84C1244.94 195.044 1238.07 191.309 1239.36 182.347C1239.39 182.345 1239.42 182.343 1239.45 182.342L1239.44 181.848L1238.94 181.781C1238.94 181.814 1238.93 181.847 1238.93 181.88C1232.06 182.382 1227.19 185.76 1225.74 191.584M1330.72 136.738C1330.72 136.738 1330.72 136.738 1330.72 136.738L1331.12 137.03L1330.72 136.738ZM1330.72 136.738C1330.1 137.539 1329.51 138.344 1328.92 139.141C1327.88 140.564 1326.87 141.957 1325.7 143.241C1323.9 145.213 1321.83 146.84 1318.97 147.69L1318.97 147.69C1317.56 148.112 1316.15 148.653 1314.73 149.218C1314.37 149.362 1314.01 149.509 1313.65 149.655C1312.59 150.08 1311.54 150.505 1310.47 150.896C1307.62 151.946 1304.76 152.722 1301.86 152.549L1301.81 153.043M1301.81 153.043L1301.86 152.549C1298.83 152.369 1296 151.094 1293.22 149.724M1301.81 153.043C1305.95 153.289 1309.94 151.679 1313.83 150.109C1315.61 149.392 1317.36 148.683 1319.1 148.163L1275.36 137.764C1275.67 140.497 1278.45 142.106 1280.82 143.476C1281.16 143.672 1281.49 143.863 1281.81 144.052M1301.81 153.043C1298.67 152.856 1295.76 151.536 1292.98 150.168C1289.16 148.278 1285.44 146.237 1281.81 144.052M1293.22 149.724C1289.41 147.84 1285.7 145.806 1282.08 143.628M1293.22 149.724L1292.98 150.164L1293.22 149.724C1293.22 149.724 1293.22 149.724 1293.22 149.724ZM1282.08 143.628C1281.75 143.429 1281.41 143.232 1281.07 143.033C1280.06 142.45 1279.01 141.845 1278.1 141.124C1276.89 140.165 1276.02 139.072 1275.86 137.693L1275.86 137.693C1275.7 136.233 1275.63 135.353 1275.62 134.828C1275.62 134.73 1275.62 134.647 1275.62 134.578C1275.67 134.573 1275.72 134.563 1275.77 134.544C1275.89 134.504 1275.99 134.433 1276.07 134.346C1276.21 134.19 1276.29 133.984 1276.33 133.789L1276.48 133.148L1275.81 133.204C1265.25 134.103 1252.68 141.522 1243.2 150.489C1238.45 154.981 1234.45 159.888 1231.84 164.606C1229.24 169.311 1227.99 173.9 1228.86 177.716L1228.97 178.181L1229.45 178.073C1231.04 177.72 1232.62 177.369 1234.22 177.014C1235.73 176.678 1237.26 176.337 1238.83 175.988L1239.32 175.88L1239.23 175.405C1239.16 174.984 1239.1 174.609 1239.04 174.266C1238.93 173.58 1238.83 173.023 1238.71 172.485L1238.71 172.482C1237.8 168.65 1238.23 165.549 1239.83 163.353C1241.42 161.163 1244.26 159.755 1248.43 159.484L1248.43 159.484C1250.66 159.338 1254.66 159.999 1258.29 160.788C1260.09 161.18 1261.78 161.599 1263.08 161.955C1263.73 162.133 1264.28 162.294 1264.7 162.427C1265.11 162.555 1265.35 162.647 1265.46 162.696C1267.65 164.259 1269.57 166.098 1271.51 167.977C1271.62 168.088 1271.74 168.199 1271.85 168.31C1273.67 170.082 1275.52 171.876 1277.59 173.446C1281.96 176.762 1286.72 179.601 1291.65 182.114L1291.65 182.115C1295.55 184.1 1299.55 185.903 1303.59 187.61C1304.1 187.829 1304.76 188.158 1305.51 188.536L1305.59 188.578C1306.31 188.942 1307.11 189.343 1307.91 189.714C1308.75 190.099 1309.6 190.457 1310.41 190.71C1311.21 190.96 1312 191.119 1312.7 191.076C1312.73 191.075 1312.77 191.073 1312.8 191.071L1312.82 191.07C1312.89 191.066 1312.99 191.059 1313.12 191.052C1313.37 191.036 1313.74 191.014 1314.17 190.987L1314.78 190.949C1315.54 190.901 1316.43 190.846 1317.33 190.791C1317.93 190.754 1318.54 190.717 1319.1 190.682C1312.56 193.262 1306.27 195.54 1299.26 196.728C1291.22 198.09 1283.06 198.775 1274.9 199.413C1267.21 200.012 1259.72 200.081 1252.56 197.377L1252.56 197.377C1248.78 195.956 1245.24 194.318 1242.83 191.92C1240.45 189.551 1239.16 186.419 1239.94 181.914L1240.04 181.322L1239.43 181.354C1235.79 181.541 1232.64 182.504 1230.19 184.216C1227.73 185.933 1226.02 188.383 1225.25 191.483L1225.74 191.584M1282.08 143.628C1282.08 143.628 1282.08 143.628 1282.08 143.628L1281.81 144.052M1282.08 143.628L1281.81 144.052M1225.74 191.584C1224.72 195.67 1222.91 197.01 1218.73 195.29C1218.63 195.25 1218.51 195.225 1218.39 195.2C1218.33 195.187 1218.27 195.174 1218.21 195.159C1213.84 194.079 1211.69 193.55 1210.86 192.211C1210.05 190.918 1210.45 188.867 1211.24 184.832C1212.3 179.328 1212.25 173.947 1208.87 168.739C1195.76 171.632 1183.65 170.673 1173.41 160.419C1173.45 160.376 1173.49 160.324 1173.52 160.258L1173.06 160.068L1173.06 160.072C1173.04 160.079 1173 160.058 1172.92 160.012C1172.85 159.967 1172.76 159.897 1172.64 159.806C1172.75 159.644 1172.92 159.59 1173.02 159.581C1173.12 159.572 1173.19 159.593 1173.2 159.598L1173.2 159.598C1173.24 159.611 1173.26 159.623 1173.24 159.612C1173.21 159.596 1173.15 159.558 1173.06 159.491C1173 159.446 1172.93 159.391 1172.85 159.327M1225.74 191.584L1225.25 191.483C1224.74 193.508 1224.08 194.673 1223.17 195.189C1222.29 195.694 1221 195.678 1218.94 194.833L1218.94 194.83L1218.93 194.828C1218.81 194.784 1218.7 194.757 1218.61 194.736C1218.5 194.712 1218.43 194.7 1218.35 194.68L1218.35 194.679C1216.19 194.146 1214.61 193.755 1213.46 193.339C1212.3 192.923 1211.67 192.513 1211.32 191.996C1210.98 191.485 1210.86 190.782 1210.95 189.632C1211.04 188.49 1211.32 187.002 1211.72 184.966L1211.73 184.908C1212.81 179.338 1212.77 173.814 1209.3 168.464L1209.12 168.182L1208.78 168.257C1195.62 171.159 1183.59 170.14 1173.43 159.72L1172.92 159.191L1172.85 159.327M1172.85 159.327C1172.7 159.207 1172.52 159.056 1172.32 158.876C1171.68 158.326 1170.83 157.527 1169.92 156.59C1168.08 154.7 1166.1 152.307 1165.27 150.279L1165.27 150.274C1164.98 149.594 1164.74 148.901 1164.51 148.214M1172.85 159.327L1164.51 148.214M1164.51 148.214C1163.71 144.227 1163.6 140.365 1164.63 136.334L1164.63 136.334C1165.17 134.208 1165.98 132.139 1166.84 130.051C1166.95 129.764 1167.07 129.477 1167.19 129.189C1167.93 127.391 1168.68 125.571 1169.27 123.715L1169.27 123.713C1169.63 122.575 1169.61 121.52 1169.27 120.606C1169.41 119.815 1169.56 118.989 1169.74 118.118C1171.44 119.872 1172.73 121.196 1174.29 122.808L1175.17 123.713C1175.17 123.713 1175.17 123.714 1175.17 123.714C1175.26 123.812 1175.5 123.998 1175.79 124.216C1176.09 124.448 1176.5 124.749 1176.97 125.095C1177.92 125.787 1179.14 126.663 1180.36 127.526C1181.57 128.39 1182.78 129.243 1183.71 129.891C1184.18 130.215 1184.58 130.488 1184.87 130.686C1185.02 130.785 1185.14 130.867 1185.23 130.927C1185.31 130.974 1185.4 131.035 1185.47 131.065L1164.51 148.214ZM1230.99 23.0031C1230.99 23.0039 1230.99 23.0047 1230.99 23.0056L1230.99 23.0025L1230.99 23.0031ZM1320.57 190.101C1318.99 190.192 1316.51 190.346 1314.75 190.456C1313.57 190.529 1312.71 190.583 1312.69 190.582C1310.9 190.695 1308.05 189.257 1305.83 188.136C1305.06 187.743 1304.36 187.39 1303.81 187.155C1299.77 185.451 1295.78 183.652 1291.89 181.674C1286.98 179.169 1282.25 176.346 1277.91 173.051C1275.86 171.5 1274.04 169.724 1272.21 167.948C1270.15 165.952 1268.1 163.955 1265.73 162.272C1264.68 161.706 1253.04 158.687 1248.42 158.99C1239.88 159.545 1236.36 164.788 1238.22 172.609C1238.34 173.133 1238.43 173.667 1238.54 174.342C1238.59 174.687 1238.66 175.069 1238.73 175.506C1237.17 175.854 1235.64 176.194 1234.12 176.531C1232.52 176.886 1230.94 177.238 1229.36 177.591L1320.57 190.101ZM1275.22 134.518C1275.22 134.518 1275.22 134.519 1275.23 134.519C1275.21 134.517 1275.21 134.515 1275.22 134.518Z" fill="white" stroke="#638899"/>
</svg>
