<svg width="101" height="59" viewBox="0 0 101 59" fill="none" xmlns="http://www.w3.org/2000/svg">
<path fill-rule="evenodd" clip-rule="evenodd" d="M53.3573 3.53293C53.3573 5.48412 51.7583 7.06587 49.7858 7.06587C47.8134 7.06587 46.2144 5.48412 46.2144 3.53293C46.2144 1.58175 47.8134 0 49.7858 0C51.7583 0 53.3573 1.58175 53.3573 3.53293ZM67.2858 39.2156L49.4287 8.47906L32.2858 39.2156L6.92862 26.1162L15.8572 59H49.4287H84.4859L93.3572 26.1162L67.2858 39.2156ZM4.07143 26.8503C6.04387 26.8503 7.64286 25.2686 7.64286 23.3174C7.64286 21.3662 6.04387 19.7844 4.07143 19.7844C2.09898 19.7844 0.5 21.3662 0.5 23.3174C0.5 25.2686 2.09898 26.8503 4.07143 26.8503ZM96.9285 26.8503C98.9009 26.8503 100.5 25.2685 100.5 23.3174C100.5 21.3662 98.9009 19.7844 96.9285 19.7844C94.956 19.7844 93.3571 21.3662 93.3571 23.3174C93.3571 25.2685 94.956 26.8503 96.9285 26.8503Z" fill="#F6BE2C"/>
</svg>
