<svg width="1762" height="890" viewBox="0 0 1762 890" fill="none" xmlns="http://www.w3.org/2000/svg">
<path d="M117.711 127.071C137.003 95.2069 173.54 70.1486 223.078 51.0333C272.606 31.9212 335.07 18.7734 406.127 10.6903C548.241 -5.47572 724.65 -1.37474 900.521 15.7241C1076.39 32.8226 1251.7 62.9163 1391.61 98.7253C1461.56 116.63 1522.66 135.961 1570.54 155.806C1618.45 175.661 1653.06 196.002 1670.13 215.893C1738.7 295.798 1765.67 360.722 1759.74 424.746C1753.8 488.802 1714.92 552.082 1651.45 628.679C1619.82 666.85 1574.66 684.808 1521.08 693.244C1473.55 700.728 1419.45 700.709 1362.37 700.69C1355.09 700.687 1347.76 700.685 1340.38 700.698C1210.13 700.928 1067.13 706.012 953.276 802.214C839.753 898.134 670.309 907.084 509.445 865.845C348.587 824.607 196.47 733.222 117.682 628.697C38.7866 524.031 0.15969 462.619 0.502258 395.429C0.673537 361.834 10.5887 326.755 30.1635 284.057C49.7396 241.356 78.9596 191.072 117.711 127.071Z" fill="#F9EFDB" stroke="#F9EFDB"/>
</svg>
