<svg width="576" height="339" viewBox="0 0 576 339" fill="none" xmlns="http://www.w3.org/2000/svg">
<path d="M38.8047 48.5517C45.071 36.4946 56.9504 26.9891 73.1106 19.7244C89.2681 12.4608 109.662 7.45729 132.884 4.37986C179.327 -1.77485 236.994 -0.214867 294.503 6.2988C352.008 12.8121 409.328 24.2754 455.066 37.9135C477.937 44.7328 497.9 52.0926 513.54 59.6438C529.199 67.2041 540.457 74.9254 545.99 82.4378C568.391 112.852 577.174 137.522 575.24 161.826C573.306 186.153 560.63 210.211 539.877 239.388C529.597 253.842 514.92 260.651 497.451 263.855C481.939 266.7 464.28 266.693 445.603 266.686C443.223 266.685 440.825 266.684 438.414 266.689C395.812 266.777 348.901 268.706 311.553 305.47C274.547 341.897 219.282 345.327 166.732 329.633C114.186 313.94 64.5033 279.161 38.7808 239.406C12.9696 199.514 0.389111 176.184 0.500736 150.678C0.612475 125.146 13.4391 97.3582 38.8047 48.5517Z" fill="#F9EFDB" stroke="#F9EFDB"/>
</svg>
