<svg xmlns:xlink="http://www.w3.org/1999/xlink" xmlns="http://www.w3.org/2000/svg" viewBox="0 0 799.99 799.99" width="799.99"  height="799.99" ><defs><style>.a9590{fill:#e8d575;}.a9591{fill:#d1d3d4;}.a9592{fill:#231f20;}</style></defs><g id="uuid-9a1e7ef6-c2a5-422c-a246-b02e02f5e3a0"><g><polygon class="a9590" points="167.5 240.67 166.03 239.12 169.46 262.25 180.08 253.91 167.49 240.58 167.5 240.67" style="" fill="#E8D575"></polygon><polygon class="a9590" points="244.38 241.37 232.73 253.71 240.9 259.79 243.27 261.38 246.63 239.12 244.38 241.37" style="" fill="#E8D575"></polygon></g><path class="a9590" d="M209.74,302.78c-1.92,.26-3.85,.51-5.77,.76-1.81,.24-3.38,1.38-3.38,3.38,0,1.64,1.56,3.62,3.38,3.38,1.92-.25,3.85-.51,5.77-.76,1.81-.24,3.38-1.38,3.38-3.38,0-1.64-1.55-3.62-3.38-3.38Z" style="" fill="#E8D575"></path><circle class="a9590" cx="311.12" cy="330.23" r="6.42" style="" fill="#E8D575"></circle><circle class="a9590" cx="326.75" cy="366.54" r="5.73" style="" fill="#E8D575"></circle><path class="a9590" d="M299.03,457.08c-1.26,.7-11.92,17.23-11.92,17.23,0,0-1.88,7.74,5.96,6.8,7.84-.94,54.02,0,54.02,0,0,0,7.99-1.99,4.95-8.28-3.04-6.29-11.3-17.06-11.3-17.06,0,0-3.04,6.04-15.37,3.77s-18.82-6.63-26.35-2.46Z" style="" fill="#E8D575"></path><path class="a9590" d="M651.51,184.65h-86.91s-11.88,.93-11.88,11.87v63.26c0,5.92,4.55,10.87,10.46,11.3,.46,.03,.93,.05,1.42,.05h91.74s6.72,.68,6.72-9.08v-65.73c0-6.31-5.01-11.58-11.32-11.67-.08,0-.16,0-.24,0Zm-69.67,72.35s.09-48.27,1.21-49.35l51.5,23.48-52.71,25.87Z" style="" fill="#E8D575"></path><path class="a9591" d="M231.47,590.91l37.26,53.77h154.21l-178.33-70.36c-10.17-4.01-19.38,7.6-13.15,16.59Z" fill="#D1D3D4"></path><path class="a9590" d="M372.94,200.71c-1.37,0-11.24-12.61-4.78-16.06,6.46-3.45,15.57,2.63,15.57,5.67s17.73,4.77,19.31-.76c1.58-5.52,6.13,7.21-5.45,13.22-11.58,6.01-24.64-2.06-24.64-2.06Z" style="" fill="#E8D575"></path><path class="a9590" d="M409.92,136.63s-3.41,15.44,10.2,22.22c13.61,6.78,20.55,8.12,20.55,8.12,0,0,18.33-1.72,22.46-9.7,4.12-7.97,1.84-7.59,1.84-7.59,0,0-23.54,9.11-47.85-10.63,0,0-3.42-6.21-7.21-2.42Z" style="" fill="#E8D575"></path><path class="a9590" d="M422.83,392.5s-10.21,1.8-15.17-11.2c-4.95-13,2.63-20.58,5.57-23.52,2.94-2.94,12.69,3.03,12.69,3.03,0,0-10.21,14.41-3.1,31.69Z" style="" fill="#E8D575"></path><path class="a9590" d="M414.69,343.55s5.99,.64,5.05,7.31c0,0,7.12-3.59,9.9,1.05,0,0,5.88-7.43,12.38-3.4,6.5,4.02,3.15,8.47,11.01,8.47s20.18-.11,28.88,4.84c8.7,4.95,10.79,13.62,13.61,19.19s4.73,1.55,4.73,1.55c0,0,.49-12.38-4.73-30.33-5.22-17.95-20.19-27.24-32.36-29.4-12.17-2.17-38.66,2.17-48.47,20.74Z" style="" fill="#E8D575"></path><path class="a9590" d="M465.04,307.03c-.92-.99-5.38-8.98,6.07-12.07,11.45-3.1,21.67,1.22,25.69,9.9,4.02,8.67,2.11,11.48-1.28,14.86s-8.23,3.8-8.23,3.8l-6.14-5.34s1.93-4.03-3.59-6.81-7.8,.75-12.52-4.33Z" style="" fill="#E8D575"></path></g><g id="uuid-b697320b-6cc3-436b-940b-0ac570133107"><path class="a9592" d="M438.22,434.51c8.23,9.7,22.19,17.18,35.16,14.04,13.01-3.15,22.68-14.94,25.4-27.69,.9-4.24-5.6-6.05-6.51-1.79-2.24,10.5-9.83,20.43-20.68,22.97-10.68,2.5-21.95-4.48-28.6-12.3-2.81-3.32-7.57,1.48-4.77,4.77h0Z" fill="#231F20"></path><path class="a9592" d="M446.63,394.89c2.33,3.26,4.66,6.52,6.98,9.78,1.06,1.48,2.94,2.19,4.62,1.21,1.46-.86,2.28-3.13,1.21-4.62-2.33-3.26-4.66-6.52-6.98-9.78-1.06-1.48-2.94-2.19-4.62-1.21-1.46,.86-2.28,3.13-1.21,4.62h0Z" fill="#231F20"></path><path class="a9592" d="M542.3,551.41c-27.01,21.4-56.44,39.6-87.74,54.04-3.94,1.82-.52,7.64,3.41,5.83,31.85-14.69,61.62-33.31,89.1-55.09,3.4-2.7-1.4-7.44-4.77-4.77h0Z" fill="#231F20"></path><path class="a9592" d="M580.83,540.15c2.58,12.56-9.25,23.45-17.25,31.48-8.49,8.52-17.73,16.29-27.61,23.15-18.18,12.62-39.38,23.33-61.81,24.77-4.31,.28-4.34,7.03,0,6.75,25.28-1.62,49.12-13.83,69.25-28.56,10.76-7.87,20.84-16.7,29.9-26.49,8.41-9.09,16.72-19.75,14.02-32.88-.87-4.25-7.38-2.45-6.51,1.79h0Z" fill="#231F20"></path><g><path class="a9592" d="M258.33,647.96c-22.67-33.64-46.37-66.57-69.04-100.22-.97,1.69-1.94,3.39-2.91,5.08h196.76c-.97-.56-1.94-1.11-2.91-1.67,20.52,31.56,40.17,63.68,60.69,95.24,2.36,3.63,8.21,.25,5.83-3.41-10.57-16.25-20.89-32.66-31.25-49.05-5.32-8.42-10.63-16.83-15.98-25.23-2.37-3.73-4.76-7.46-7.15-11.18-1.96-3.05-4.2-8.67-7.19-10.73-2.25-1.54-6.7-.72-9.24-.72H186.38c-2.43,0-4.37,2.91-2.91,5.08,22.67,33.64,46.37,66.57,69.04,100.22,2.41,3.58,8.26,.21,5.83-3.41h0Z" fill="#231F20"></path><path class="a9592" d="M275.39,661.2c66.89,2.2,133.78-1.94,200.67-.29,5.8,.14,11.82,1.92,15.38-3.56,2.29-3.53,3.07-9,6.08-11.93,3.12-3.03-1.66-7.8-4.77-4.77-3.53,3.43-3.46,9.71-6.91,12.93-1.46,1.37-1.31,.98-3.82,.74s-5.32-.15-7.95-.21c-4.64-.11-9.27-.19-13.91-.24-20.53-.25-41.06-.03-61.59,.28-41.06,.63-82.13,1.64-123.18,.29-4.34-.14-4.34,6.61,0,6.75h0Z" fill="#231F20"></path><path class="a9592" d="M443.82,648.05h30.21c4.34,0,4.35-6.75,0-6.75h-30.21c-4.34,0-4.35,6.75,0,6.75h0Z" fill="#231F20"></path></g><path class="a9592" d="M461.84,618.39c-5.1-9.62-14.58-15.61-25.36-16.56-4.33-.38-4.3,6.37,0,6.75,8.44,.74,15.6,5.79,19.53,13.22,2.03,3.84,7.86,.43,5.83-3.41h0Z" fill="#231F20"></path><path class="a9592" d="M474.19,412.8c-.44,5.89-4.13,10.71-9.39,13.19-3.93,1.85-.5,7.67,3.41,5.83,7.48-3.53,12.13-10.86,12.73-19.02,.32-4.33-6.43-4.31-6.75,0h0Z" fill="#231F20"></path><path class="a9592" d="M105.63,393.98c37.53,41.06,71.05,85.58,108.58,126.64,2.94,3.21,7.7-1.57,4.77-4.77-37.53-41.06-71.05-85.58-108.58-126.64-2.94-3.21-7.7,1.57-4.77,4.77h0Z" fill="#231F20"></path><path class="a9592" d="M489.61,561.3c48.98-45.74,100.89-88.29,151.17-132.57,13.03-11.48,25.99-23.05,38.68-34.9,3.18-2.97-1.6-7.74-4.77-4.77-48.98,45.74-100.89,88.29-151.17,132.57-13.03,11.48-25.99,23.05-38.68,34.9-3.18,2.97,1.6,7.74,4.77,4.77h0Z" fill="#231F20"></path><g><g><path class="a9592" d="M180.45,286.19v4.98c0,1.77,1.55,3.46,3.38,3.38s3.38-1.48,3.38-3.38v-4.98c0-1.77-1.55-3.46-3.38-3.38s-3.38,1.48-3.38,3.38h0Z" fill="#231F20"></path><path class="a9592" d="M174.32,307.45c-11.77-.67-23.15,1.61-33.86,6.51-3.94,1.81-.52,7.63,3.41,5.83,9.61-4.4,19.92-6.19,30.45-5.59,4.34,.25,4.33-6.51,0-6.75h0Z" fill="#231F20"></path><path class="a9592" d="M179.05,316.81c-7.97,3.44-15.17,8.14-21.62,13.94-3.23,2.91,1.55,7.68,4.77,4.77,6.02-5.43,12.82-9.68,20.25-12.89,3.98-1.72,.54-7.53-3.41-5.83h0Z" fill="#231F20"></path><path class="a9592" d="M171.16,265.16c3.36-2.16,7.15-4.09,10.26-6.58,1.84-1.47,2.99-3.24,1.99-5.61-1.14-2.71-4.24-5.08-6.23-7.2-2.88-3.06-5.81-6.07-8.78-9.04-3.08-3.08-7.85,1.7-4.77,4.77,2.38,2.38,4.73,4.77,7.05,7.21,1.36,1.43,6.15,5.09,6.5,7.08,.29-1.09,.58-2.19,.87-3.28-2.57,2.76-7.13,4.8-10.3,6.83-3.64,2.34-.26,8.18,3.41,5.83h0Z" fill="#231F20"></path></g><g><path class="a9592" d="M225.46,286.19c0,1.66,0,3.32,0,4.98s1.55,3.46,3.38,3.38,3.37-1.48,3.38-3.38c0-1.66,0-3.32,0-4.98s-1.55-3.46-3.38-3.38c-1.83,.08-3.37,1.48-3.38,3.38h0Z" fill="#231F20"></path><path class="a9592" d="M225.84,243.46c4.32-4,8.81-7.78,13.59-11.21,2.15-1.55,4.34-3.03,6.58-4.46,1.74-1.11,6.39-4.95,8.46-4.81l.87-.28c.4,1.07,.69,2.16,.86,3.29,.28,1.42,.42,2.9,.52,4.34,.21,2.92,.12,5.87-.11,8.78-.48,6.25-1.75,12.41-2.75,18.59-.81,5-1.55,10.05-1.7,15.13-.18,6.15,1.07,12.13,1.43,18.24,.65,11.03-4.64,20.29-12.92,27.27-7.96,6.72-19.42,10.32-29.36,12.92-6.05,1.59-11.26-.35-16.95-2.24-5.38-1.79-10.81-3.63-15.83-6.3-8.69-4.64-16.37-12.92-18.8-22.63-1.36-5.42-.5-10.93,.14-16.39,.71-6.05,.78-11.93,.08-17.99-1.51-13-6.03-26.59-3.48-39.72,0,.01,.48-3.1,.86-3.29,.96-.49,3.87,1.77,4.81,2.32,3.05,1.79,6.03,3.69,8.94,5.7,5.57,3.85,10.79,8.14,15.75,12.74,3.18,2.95,7.97-1.81,4.77-4.77-4.95-4.59-10.17-8.87-15.67-12.78-2.88-2.05-5.84-3.98-8.86-5.81-2.76-1.67-6.01-4.13-9.36-4.28-12.35-.56-8.44,24.48-7.46,31.26,1.08,7.4,2.74,14.73,3.32,22.2,.62,8.03-1.18,15.67-1.31,23.64-.19,11.92,6.02,22.64,14.98,30.2,4.35,3.67,9.17,6.27,14.42,8.43,6.44,2.66,13.54,5.6,20.42,6.79,6.38,1.11,12.07-.82,18.04-2.81,6.37-2.12,12.9-4.34,18.74-7.7,9.57-5.5,17.88-15.11,20.6-25.95,1.68-6.7,.6-13.29-.12-20.03-.87-8.16,0-16.08,1.35-24.14,1.32-7.89,2.93-15.84,2.92-23.88,0-5.08,.17-14.72-5.35-17.37-5.87-2.82-14.09,4.41-18.58,7.44-6.58,4.43-12.76,9.4-18.58,14.79-3.19,2.96,1.59,7.72,4.77,4.77h0Z" fill="#231F20"></path><path class="a9592" d="M238.33,314.2c10.53-.6,20.84,1.19,30.45,5.59,3.92,1.8,7.36-4.02,3.41-5.83-10.7-4.91-22.08-7.18-33.86-6.51-4.32,.24-4.35,7,0,6.75h0Z" fill="#231F20"></path><path class="a9592" d="M230.2,322.64c7.44,3.21,14.23,7.46,20.25,12.89,3.22,2.9,8.01-1.86,4.77-4.77-6.45-5.81-13.65-10.5-21.62-13.94-3.95-1.7-7.39,4.11-3.41,5.83h0Z" fill="#231F20"></path><path class="a9592" d="M244.9,259.34c-3.17-2.03-7.73-4.07-10.3-6.83l.87,3.28c.14-.81,2.56-2.87,3.05-3.4,1.14-1.23,2.29-2.46,3.45-3.67,2.32-2.43,4.67-4.83,7.05-7.21,3.08-3.08-1.7-7.85-4.77-4.77-2.77,2.77-5.51,5.57-8.2,8.43-2.15,2.28-5.57,4.88-6.8,7.81-.91,2.17-.04,3.92,1.65,5.35,3.13,2.64,7.15,4.63,10.61,6.85,3.67,2.35,7.06-3.49,3.41-5.83h0Z" fill="#231F20"></path></g></g><g><path class="a9592" d="M209.41,303.41c-.83,.91-1.77,2.18-2.96,2.62s-1.47-.19-2.12-1.12c-2.45-3.55-8.31-.18-5.83,3.41,1.87,2.71,4.14,4.84,7.66,4.63,3.36-.21,5.86-2.38,8.02-4.76,2.92-3.21-1.84-8-4.77-4.77h0Z" fill="#231F20"></path><path class="a9592" d="M203.46,318.37c1.87,1.92,3.74,3.85,5.62,5.77,1.27,1.31,3.5,1.28,4.77,0,1.31-1.31,1.27-3.46,0-4.77-1.87-1.92-3.74-3.85-5.62-5.77-1.27-1.31-3.5-1.28-4.77,0s-1.27,3.46,0,4.77h0Z" fill="#231F20"></path><path class="a9592" d="M203.17,313.74c-1.61,1.67-3.22,3.33-4.83,5-1.23,1.27-1.36,3.52,0,4.77s3.46,1.36,4.77,0l4.83-5c1.23-1.27,1.36-3.52,0-4.77-1.33-1.22-3.46-1.36-4.77,0h0Z" fill="#231F20"></path></g><path class="a9592" d="M339.77,389.13h-10.6c-1.82,0-3.37,1.55-3.38,3.37,0,8.92,0,17.84,0,26.76,0,2.43-.43,5.24,.56,7.5,1.04,2.38,2.79,4.65,4.12,6.88,5.77,9.62,11.54,19.24,17.3,28.86,2.32,3.87,4.64,7.75,6.97,11.62,.58,.97,1.19,1.92,1.74,2.9,.76,1.34,.13-.94,.22,.6,.29,5.35-4.25,6.47-9.42,6.51-8.81,.08-17.62,0-26.43,0-4.45,0-8.9,0-13.34,0-5.05,0-10.11,.03-15.16,0-3.12-.02-8.04,.33-9.87-2.91-.6-1.06-.55-2.68-.55-3.44,0-1.61-.39,.37,.18-.66,1.6-2.85,3.36-5.61,5.04-8.41,5.77-9.63,11.54-19.25,17.31-28.88,3.1-5.17,8.4-11.01,8.4-17.26v-30.08c0-1.82-1.55-3.38-3.38-3.38h-10.6c-4.34,0-4.35,6.75,0,6.75h10.6l-3.38-3.38v28.9c0,.81-.39,2.73,0,3.46-.5-.94,.94-2.45-.59,.09l-6.66,11.12c-6.11,10.18-12.21,20.37-18.32,30.55-3.07,5.12-6.74,9.41-4.88,15.74,1.74,5.88,7.63,8.15,13.25,8.51,9.45,.59,19.09,.04,28.57,.04,5.09,0,10.17,0,15.26,0,7.97,0,19.76,2.26,26.55-3.14,5.39-4.29,4.97-10.9,1.81-16.17-5.58-9.31-11.16-18.62-16.75-27.94-3.13-5.23-6.27-10.46-9.4-15.69-.76-1.27-1.44-2.88-2.41-4.01-1.21-1.42-.44,1.89,0,0,.5-2.14,0-4.97,0-7.16,0-3.52,0-7.04,0-10.56,0-4.58,0-9.15,0-13.73l-3.38,3.38h10.6c4.34,0,4.35-6.75,0-6.75h0Z" fill="#231F20"></path><path class="a9592" d="M292.94,460.36c8.07-8.41,20.77-2.1,30.29-.44,7.97,1.39,16.47,.5,22.28-5.65,2.98-3.16-1.78-7.94-4.77-4.77-8.02,8.5-20.73,2.22-30.25,.54-7.97-1.41-16.46-.56-22.31,5.54-3.01,3.13,1.76,7.91,4.77,4.77h0Z" fill="#231F20"></path><path class="a9592" d="M324.85,371.82c-2.19-2.34-1.64-6.25,1.55-7.36,2.96-1.03,6.31,1.41,5.87,4.68-.24,1.82,.44,3.6,2.36,4.15,1.57,.45,3.91-.55,4.15-2.36,1.09-8.13-5.76-15.54-14.17-12.98-8.19,2.5-10.16,12.64-4.53,18.64,2.98,3.18,7.74-1.6,4.77-4.77h0Z" fill="#231F20"></path><path class="a9592" d="M309.12,341.03c-8.89-2.94-6.69-16.78,2.99-15.56,9.63,1.21,8.4,15.23-.98,15.81-4.32,.27-4.35,7.02,0,6.75,7.46-.46,14.35-6.15,14.67-13.99,.3-7.37-5.46-14.31-12.79-15.28-7.32-.96-14.69,4.29-16.28,11.48-1.69,7.65,3.48,14.94,10.59,17.29,4.13,1.36,5.91-5.15,1.79-6.51h0Z" fill="#231F20"></path><path class="a9592" d="M419.86,139.47c12.94,11.72,30.23,17.51,47.62,15.49-.97-1.69-1.94-3.39-2.91-5.08-6.56,10.78-20.43,16.6-32.68,12.81-12.76-3.95-21.24-17.79-19.44-30.94-2.21-.3-4.42-.6-6.63-.9-1.11,13.15-2.23,26.29-3.34,39.44-.51,5.98-.87,11.99-1.54,17.95-.63,5.61-2.22,11.43-8.36,13.03-8.95,2.33-24.53-3.6-26.9-13.22-1.57-6.33,3.53-10.36,9.48-9.92,6.12,.45,11.15,5.17,15.5,9.03,.8-1.92,1.59-3.84,2.39-5.76-1.31,0-2.62,0-3.93,0-4.34,0-4.35,6.76,0,6.75,1.31,0,2.62,0,3.93,0,2.79,0,4.62-3.77,2.39-5.76-5.46-4.85-11.41-10-18.95-10.88-5.8-.68-12.32,1.21-15.63,6.35-8.89,13.83,7.46,25.97,19.08,29.27,6.12,1.74,13.3,2.19,18.95-1.21s7.84-9.82,8.64-16.21c2.42-19.49,3.39-39.27,5.05-58.84,.32-3.74-6.11-4.68-6.63-.9-2.23,16.35,6.95,33.22,22.86,38.82,15.42,5.43,33.24-1.76,41.6-15.49,1.22-2.01-.32-5.38-2.91-5.08-15.64,1.82-31.14-2.9-42.85-13.51-3.21-2.91-8,1.85-4.77,4.77h0Z" fill="#231F20"></path><g><path class="a9592" d="M584.76,260.19c0-18.9,0-37.8,0-56.7-1.69,.97-3.39,1.94-5.08,2.91,19.08,9.45,38.16,18.9,57.24,28.35v-5.83c-19.08,9.45-38.16,18.9-57.24,28.35-3.89,1.93-.48,7.75,3.41,5.83,19.08-9.45,38.16-18.9,57.24-28.35,2.2-1.09,2.2-4.74,0-5.83-19.08-9.45-38.16-18.9-57.24-28.35-2.25-1.11-5.08,.22-5.08,2.91,0,18.9,0,37.8,0,56.7,0,4.34,6.75,4.35,6.75,0Z" fill="#231F20"></path><path class="a9592" d="M666.07,180.52h-113.95c-7.56,0-14.04,3.73-14.48,12.07-.76,14.16,0,28.55,0,42.72v27.85c0,5.68-.9,12.16,3.55,16.55,4.04,3.98,9.12,3.55,14.25,3.55h104.9c5.14,0,10.21,.43,14.25-3.55,4.41-4.35,3.55-10.69,3.55-16.31v-57.39c0-4.83,.45-9.9-.09-14.71-.72-6.35-5.85-10.33-11.97-10.78-4.33-.32-4.31,6.43,0,6.75,6.91,.51,5.32,9.29,5.32,14.08v54.03c0,5.07,.51,10.43,0,15.48-.59,5.89-5.14,5.65-9.53,5.65h-74.99c-12.14,0-24.5,.67-36.63,0-6.33-.35-5.86-5.77-5.86-10.4v-68.94c0-2.83-.55-6.12,1.61-8.28,1.58-1.58,3.29-1.56,5.27-1.61,5.1-.14,10.22,0,15.32,0h99.48c4.34,0,4.35-6.75,0-6.75Z" fill="#231F20"></path></g><path class="a9592" d="M552.7,444.11c14.94,17.57,25.83,39.18,35.88,59.79,4.31,8.84,13.96,23.48,.7,29.51-13.48,6.13-30.72,5.59-44.78,2.33-4.23-.98-6.03,5.53-1.79,6.51,15.93,3.69,34.34,3.86,49.59-2.83,4.92-2.16,8.67-6.39,10.12-11.59,1.65-5.94-.39-11.05-2.83-16.39-11.38-24.94-24.24-51.09-42.1-72.1-2.82-3.31-7.57,1.48-4.77,4.77h0Z" fill="#231F20"></path><path class="a9592" d="M446.39,403.26l5.07-1.43c1.7-.48,2.92-2.41,2.36-4.15s-2.33-2.87-4.15-2.36l-5.07,1.43c-1.7,.48-2.92,2.41-2.36,4.15s2.33,2.87,4.15,2.36h0Z" fill="#231F20"></path><path class="a9592" d="M433.14,437.29c5.13,.9,8.52-3.13,12.56-5.47,3.76-2.17,.36-8.01-3.41-5.83-1.48,.86-2.81,1.95-4.21,2.93-.72,.5-1.45,1.02-2.24,1.41-.25,.12-.45,.24-.72,.32-.21,.07-.62,.06-.2,.14-1.79-.31-3.64,.48-4.15,2.36-.45,1.63,.55,3.83,2.36,4.15h0Z" fill="#231F20"></path><path class="a9592" d="M479.53,459.11c5.56,5.09,7.59,14.27,16.15,15.52,6.63,.97,13.45-4.21,18.37-8.06,10.48-8.19,20.96-18.91,27.25-30.76,2.03-3.84-3.79-7.25-5.83-3.41-5.05,9.53-13.04,17.88-21,25.04-3.89,3.5-8.08,6.96-12.84,9.21-5.32,2.52-8.32,.08-11.28-4.38-1.88-2.84-3.5-5.61-6.04-7.94-3.2-2.93-7.99,1.83-4.77,4.77h0Z" fill="#231F20"></path><path class="a9592" d="M465.86,454.9c-25.7,37.91,9.22,84.54-11.21,123.37-2.02,3.84,3.8,7.26,5.83,3.41,9.83-18.69,7.79-39.74,4.92-59.9-3.02-21.21-6.5-44.61,6.29-63.47,2.44-3.61-3.4-6.99-5.83-3.41h0Z" fill="#231F20"></path><path class="a9592" d="M492.67,391.28c2.81-6.32,10.89-5.95,13.8,.24,2.73,5.82-.86,11.81-5.77,14.98-3.64,2.34-.26,8.19,3.41,5.83,8.77-5.65,13.83-17.65,6.64-26.74-6.42-8.11-19.53-7.53-23.9,2.3-1.75,3.93,4.07,7.37,5.83,3.41h0Z" fill="#231F20"></path><path class="a9592" d="M417.08,399.84c-7.29-6-14.15-13.35-16.1-22.91-1.91-9.36,1.82-19.76,11.53-22.83,4.13-1.3,2.36-7.82-1.79-6.51-10.94,3.46-17.5,14.06-17,25.38,.57,13.08,8.87,23.64,18.59,31.64,3.33,2.74,8.13-2.01,4.77-4.77h0Z" fill="#231F20"></path><path class="a9592" d="M427.07,392.02c-5.11-9.24-4.16-21.59,2.94-29.56-1.92-.8-3.84-1.59-5.76-2.39,.55,6.61,3.1,12.55,8.36,16.75,1.94,1.55,6.19,.87,5.76-2.39-.77-5.88,.19-11.28,3.37-16.33-2.06-.27-4.11-.54-6.17-.81,2.81,8.15,10.8,9.77,18.51,10.38,11.03,.87,23.73,.7,30.3,11.28,2.29,3.68,8.13,.3,5.83-3.41-4.61-7.42-12.15-11.65-20.63-13.18-4.81-.87-9.71-1.03-14.58-1.38-4.38-.32-11.19-.48-12.92-5.49-.95-2.74-4.57-3.35-6.17-.81-3.74,5.95-5.21,12.76-4.29,19.74,1.92-.8,3.84-1.59,5.76-2.39-3.84-3.07-5.98-7.07-6.38-11.98-.22-2.68-3.66-4.74-5.76-2.39-9.16,10.28-10.63,25.73-4,37.74,2.1,3.8,7.93,.4,5.83-3.41h0Z" fill="#231F20"></path><path class="a9592" d="M408.86,342.88c11.05-19.59,33.48-29.09,55.28-23.36,4.21,1.1,6-5.4,1.79-6.51-24.66-6.48-50.37,4.24-62.91,26.46-2.14,3.79,3.69,7.19,5.83,3.41h0Z" fill="#231F20"></path><path class="a9592" d="M457.88,303.92c-2.33-7.06,4.34-11.94,10.38-13.58,5.44-1.48,11.41-.79,16.28,2.1,8.35,4.96,16.86,23.24,3.48,27.82-4.09,1.4-2.33,7.92,1.79,6.51,19.09-6.54,11.89-31.98-1.87-40.16-7.58-4.5-17.15-4.92-25.19-1.45-8.11,3.5-14.38,11.48-11.38,20.56,1.36,4.1,7.88,2.35,6.51-1.79h0Z" fill="#231F20"></path><path class="a9592" d="M476.76,321.09c15.32,8.77,24.84,25.2,24.8,42.86-.01,4.34,6.74,4.35,6.75,0,.05-19.99-10.79-38.76-28.14-48.69-3.78-2.16-7.18,3.67-3.41,5.83h0Z" fill="#231F20"></path><path class="a9592" d="M501.76,412.57c5.56,7.51,10.32,15.56,15.88,23.07,2.56,3.45,8.42,.09,5.83-3.41-5.56-7.51-10.32-15.56-15.88-23.07-2.56-3.45-8.42-.09-5.83,3.41h0Z" fill="#231F20"></path><path class="a9592" d="M422.01,586.06c12.45-5.58,21.18-17.48,30.16-27.31,2.93-3.2-1.84-7.99-4.77-4.77-8.58,9.39-16.91,20.93-28.79,26.25-3.96,1.77-.53,7.59,3.41,5.83h0Z" fill="#231F20"></path></g></svg>