<svg width="346" height="482" viewBox="0 0 346 482" fill="none" xmlns="http://www.w3.org/2000/svg">
<mask id="path-1-inside-1_934_2969" fill="white">
<path fill-rule="evenodd" clip-rule="evenodd" d="M120.76 6.12118C120.361 4.264 119.962 2.4071 119.631 0.541983L119.576 0.509949C118.687 0.640252 117.779 0.759878 116.872 0.879505L116.871 0.879549C116.517 18.8599 116.153 36.8346 115.792 54.6166C115.656 61.3262 115.521 68.0084 115.387 74.653C115.01 74.0296 114.627 73.4049 114.242 72.7769C110.022 65.899 105.565 58.6341 107.081 48.3773C108.148 41.1898 108.141 33.8116 107.896 26.5905C107.741 22.273 107.109 18.0111 106.477 13.747C106.191 11.817 105.904 9.88657 105.662 7.95034C105.351 7.99851 105.042 8.04163 104.734 8.08476C104.425 8.12788 104.117 8.171 103.806 8.21917C101.528 17.1472 101.67 26.0783 101.813 35.0774C101.885 39.5779 101.957 44.0955 101.727 48.6383C100.081 45.3029 98.563 41.8851 97.0483 38.4736C91.8696 26.8108 86.724 15.2225 76.5934 7.25734C76.3547 7.41451 76.1085 7.57403 75.8622 7.73355C75.616 7.89307 75.3698 8.05261 75.1311 8.20978C78.8756 15.451 82.6231 22.6868 86.4176 30.0131C89.9553 36.8436 93.5337 43.7527 97.1883 50.8182C94.3619 50.0564 91.6243 49.0855 88.9111 48.1234C81.5047 45.4969 74.2802 42.9349 65.9286 44.8646C75.1658 49.581 84.5777 53.7814 94.2802 57.2646C103.351 60.5174 111.613 69.2295 112.77 78.0761C109.883 76.3275 107.042 74.4811 104.2 72.6344C92.2356 64.8599 80.2606 57.0786 64.9012 56.5535C75.217 67.1754 86.7427 75.7874 100.545 81.1818C106.038 83.3188 111.355 85.8426 116.244 88.1628C118.327 89.1516 120.333 90.1034 122.241 90.9725C122.367 88.9669 122.541 86.8467 122.721 84.6498C123.127 79.7038 123.564 74.3687 123.563 69.0762C123.543 52.1969 123.329 35.3126 122.679 18.4989C122.518 14.3107 121.639 10.2152 120.76 6.12118ZM167.134 196.189L167.138 196.19L167.133 196.241L167.134 196.189ZM167.134 196.189C146.155 187.32 65.651 129.659 54.8101 115.677C76.3967 123.179 95.9125 132.73 113.011 146.169C124.889 155.489 136.179 165.599 147.301 175.558C152.166 179.915 156.999 184.242 161.834 188.462C161.879 189.025 161.983 188.119 161.727 187.408C160.696 184.603 159.692 181.783 158.689 178.962C155.978 171.343 153.266 163.722 149.993 156.392C148.115 152.17 144.721 148.011 140.867 145.759C127.047 137.616 113.084 129.722 99.1212 121.827C90.2356 116.802 81.35 111.778 72.5013 106.69C67.4891 103.797 62.9065 100.159 58.5072 96.3316C92.3178 100.942 119.592 117.386 143.798 140.854C143.451 139.983 143.085 139.119 142.719 138.255L142.719 138.254C141.843 136.185 140.967 134.117 140.357 131.949C136.376 117.744 126.874 110.327 113.916 104.965C101.693 99.8918 90.0119 93.5656 78.3359 87.2422C73.9161 84.8485 69.4971 82.4552 65.0496 80.1305C62.8091 78.971 60.9449 77.117 59.19 75.0312C83.7588 79.5888 106.717 87.5342 126.346 105.517C126.18 103.265 126.055 101.624 125.928 99.9576C125.867 99.158 125.806 98.3525 125.739 97.4707L125.74 97.4711L125.743 97.474C127.109 98.6911 128.134 99.605 129.831 101.147C130.063 72.4265 130.284 44.4505 130.487 16.4639C130.717 16.4086 130.944 16.3455 131.172 16.2825L131.172 16.2824C131.399 16.2193 131.627 16.1563 131.856 16.1009C132.271 17.9572 132.731 19.8026 133.19 21.6482L133.19 21.6484L133.191 21.6489L133.191 21.6501C134.203 25.7125 135.215 29.7757 135.751 33.957C138.872 58.3652 140.187 82.9108 134.907 107.859C134.482 109.92 134.311 112.395 135.02 114.199C137.212 119.701 139.61 125.095 141.921 130.294L141.922 130.295L141.924 130.3L141.936 130.326C142.794 132.257 143.64 134.161 144.46 136.034C144.762 126.414 145.064 116.78 145.367 107.116L145.373 106.931C146.277 78.1328 147.188 49.0684 148.132 19.3034C148.386 20.0878 148.617 20.7447 148.821 21.3248C149.166 22.3046 149.434 23.0653 149.6 23.8516C156.609 59.1661 156.434 95.348 151.1 131.581C148.806 147.223 154.167 158.817 159.737 170.859C160.365 172.217 160.995 173.58 161.618 174.956C155.712 129.56 161.598 84.0332 167.485 38.4927L167.485 38.4905L167.486 38.4882L167.486 38.4859L167.486 38.4837C168.416 31.2925 169.346 24.101 170.229 16.9096C174.206 56.2439 171.98 95.9218 169.738 135.888L169.738 135.888L169.738 135.888L169.738 135.889L169.738 135.889C168.615 155.919 167.487 176.021 167.134 196.189ZM211.737 427.604C212.307 433.082 212.876 438.56 213.459 444.037L213.561 443.988L211.811 445.097C183.189 406.555 149.5 373.16 115.237 340.373C80.8503 307.46 42.7632 279.973 0.213222 258.678C1.19143 261.469 2.56618 263.871 4.4652 265.665C25.4976 285.531 46.5766 305.317 67.7088 325.053C75.4764 332.308 83.1937 339.624 90.9113 346.942L90.9114 346.942C125.186 379.438 159.466 411.939 198.172 438.992C209.306 446.788 216.503 455.85 215.378 470.996C215.048 475.284 217.516 477.674 222.261 477.356C222.162 475.886 222.04 474.443 221.919 473.019L221.919 473.016L221.919 473.015C221.65 469.846 221.389 466.767 221.408 463.67C221.43 461.273 221.346 458.844 221.263 456.411C221.047 450.125 220.83 443.808 222.417 437.919C228.376 415.7 234.659 393.545 240.942 371.391L240.942 371.39L240.942 371.389L240.942 371.388L240.943 371.387C250.675 337.07 260.406 302.755 268.933 268.209C281.152 218.66 292.04 168.838 302.925 119.026C306.995 100.403 311.064 81.7805 315.203 63.1744C316.188 58.7068 316.662 54.1553 317.136 49.6036C317.359 47.4663 317.582 45.3289 317.857 43.2001C317.609 43.1735 317.358 43.1453 317.106 43.1167L316.906 43.094C316.672 43.0673 316.437 43.0406 316.204 43.015L316.073 43.0007L315.957 42.9882C269.316 169.263 241.419 299.334 219.184 430.662C217.068 417.882 215.373 405.185 214.155 392.388C213.817 388.787 214.473 384.875 215.318 381.233C224.128 343.763 232.978 306.298 241.827 268.833C254.319 215.949 266.811 163.067 279.19 110.174C283.56 91.49 287.478 72.7135 291.395 53.9421L291.395 53.9404L291.395 53.9387L291.396 53.937L291.396 53.9353C292.882 46.8129 294.368 39.6912 295.879 32.5756C296.141 31.3107 296.152 30.0114 296.164 28.7061L296.164 28.7059C296.169 28.0838 296.174 27.4604 296.207 26.8387C295.888 26.8152 295.576 26.7894 295.264 26.7635C294.952 26.7376 294.64 26.7118 294.321 26.6883C293.769 28.4294 293.216 30.1704 292.664 31.9115C275.256 86.767 257.839 141.655 245.837 197.756C237.19 238.188 229.312 278.738 221.465 319.127L221.464 319.128C218.04 336.751 214.622 354.343 211.149 371.881C210.756 369.652 210.294 367.412 209.828 365.152L209.826 365.146L209.826 365.144C207.863 355.629 205.827 345.76 208.546 334.873C226.518 262.868 242.47 190.69 245.125 116.895C245.684 101.345 248.003 85.7359 250.322 70.1258L250.322 70.1253C251.42 62.7384 252.517 55.3512 253.428 47.9698C253.676 46.0072 253.738 44.0351 253.8 42.0615L253.8 42.061L253.8 42.0603C253.829 41.1191 253.858 40.1776 253.908 39.2366C253.581 39.2079 253.252 39.1715 252.923 39.1352L252.919 39.1347C252.79 39.1205 252.662 39.1064 252.534 39.0926C252.332 39.071 252.13 39.0505 251.93 39.0329C251.074 41.8799 250.182 44.7197 249.29 47.5592L249.29 47.5596C247.39 53.6084 245.49 59.6559 243.941 65.7691C235.08 100.637 230.454 135.858 226.824 171.359C223.553 203.391 219.032 235.367 214.511 267.345L214.511 267.345L214.511 267.345L214.511 267.346L214.511 267.346C212.484 281.682 210.458 296.018 208.543 310.361C207.844 315.52 207.253 320.692 206.663 325.857L206.662 325.861C206.391 328.238 206.119 330.614 205.837 332.987C200.624 317.883 196.372 302.824 199.011 286.166C200.386 277.547 201.433 268.9 202.383 260.25C206.261 224.488 210.076 188.733 213.893 152.964L213.897 152.924L215.29 139.868C219.539 100.004 220.848 60.3206 217.132 20.9267C216.944 18.9673 216.608 17.0322 216.271 15.0999L216.271 15.0996C216.111 14.1769 215.95 13.2548 215.806 12.3309C215.543 12.3803 215.276 12.4271 215.008 12.4738C214.907 12.4915 214.806 12.5092 214.705 12.527C214.605 12.5447 214.504 12.5626 214.405 12.5808L214.353 12.5903C214.305 12.599 214.258 12.6078 214.211 12.6166C212.02 43.3224 208.705 74.0161 205.389 104.714C199.038 163.52 192.685 222.34 194.232 281.288C190.22 273.073 187.397 264.765 187.92 255.359L188.214 250.036C189.206 232.118 190.196 214.22 191.116 196.304C193.731 144.663 194.618 93.1517 188.989 42.2488C188.853 40.9493 188.625 39.6694 188.396 38.3873L188.396 38.3871L188.396 38.3845C188.313 37.9211 188.231 37.4573 188.153 36.9923C187.871 37.031 187.587 37.0748 187.303 37.1185C187.019 37.1623 186.735 37.206 186.453 37.2448C178.074 103.953 175.456 170.422 181.138 236.695L168.374 198.192L168.197 198.269L167.932 198.386C167.662 198.505 167.395 198.623 167.126 198.741L166.716 198.922L166.424 199.05C169.063 208.297 171.705 217.538 174.347 226.78C176.988 236.022 179.63 245.264 182.269 254.511C182.008 254.681 181.749 254.864 181.487 255.048L181.486 255.048L181.486 255.048C181.312 255.171 181.136 255.294 180.958 255.416C180.536 254.949 180.108 254.49 179.68 254.032C178.823 253.114 177.967 252.196 177.168 251.216C153.279 222.032 128.001 194.27 98.2671 171.365C84.2184 160.545 69.8286 150.146 55.0138 140.439C50.3458 137.395 45.0501 135.337 39.7524 133.279L39.7516 133.278C37.3238 132.335 34.8956 131.392 32.5273 130.353C32.3935 130.57 32.2576 130.787 32.1217 131.003L32.1216 131.003L32.1215 131.003L32.1214 131.004C31.8496 131.436 31.5777 131.869 31.3222 132.312C33.1185 134.056 34.8847 135.839 36.6511 137.622L36.6514 137.623C40.4482 141.456 44.2463 145.291 48.348 148.739C89.5688 183.398 130.889 217.928 172.221 252.437C181.173 259.911 187.368 268.958 189.005 281.542C189.877 288.349 191.339 295.033 192.8 301.716L192.8 301.716L192.8 301.716L192.8 301.716L192.8 301.716C193.477 304.813 194.154 307.91 194.773 311.018C196.593 320.168 198.382 329.326 200.172 338.485C199.651 338.747 199.148 339.02 198.645 339.293C198.078 338.793 197.492 338.31 196.908 337.828C195.673 336.81 194.44 335.794 193.38 334.617C167.005 305.552 137.692 280.208 105.265 258.509C85.2779 245.131 65.783 231 46.3047 216.881L46.2734 216.858L46.1901 216.798L46.1558 216.773L46.1218 216.748C43.5081 214.854 40.8948 212.959 38.2806 211.067C33.2403 207.433 28.4972 203.366 23.7583 199.302L23.7582 199.302L23.7575 199.301L23.7569 199.301L23.7562 199.3L23.7556 199.3C21.6526 197.496 19.5503 195.694 17.4233 193.93C16.7769 194.281 16.149 194.642 15.521 195.004C15.6882 195.706 15.7895 196.47 15.8908 197.235C16.1081 198.875 16.3255 200.516 17.1932 201.547C17.9639 202.453 18.7341 203.36 19.5044 204.268C32.8431 219.977 46.2204 235.732 63.0021 247.651C106.751 278.72 150.686 309.551 194.603 340.37L194.604 340.371L195.423 340.945C199.319 343.678 201.706 346.933 202.361 351.95C203.063 357.37 203.865 362.761 204.666 368.15C205.664 374.867 206.662 381.58 207.467 388.339C209.015 401.408 210.376 414.503 211.737 427.6L211.737 427.604ZM226.887 481.046L226.888 481.037C227.289 481.057 227.687 481.082 228.085 481.108L228.085 481.108C228.489 481.133 228.894 481.159 229.301 481.18C278.317 337.209 319.169 191.448 345.017 42.4155C342.011 48.3492 339.946 54.5315 337.929 60.7151C309.438 147.778 284.834 235.797 261.921 324.177C252.877 359.084 245.011 394.256 237.147 429.421L237.147 429.422L237.147 429.422L237.147 429.423C233.891 443.982 230.635 458.539 227.296 473.077C226.906 474.814 226.914 476.611 226.922 478.41L226.922 478.411C226.926 479.288 226.93 480.166 226.888 481.037L226.869 481.036L226.887 481.046ZM185.08 366.055C130.427 316.245 75.771 266.432 5.3447 238.471C5.73937 238.958 6.10723 239.483 6.47501 240.008C7.2476 241.11 8.01979 242.212 9.03913 242.964C13.0387 245.951 17.0834 248.875 21.1277 251.799C26.527 255.702 31.9256 259.606 37.2149 263.656C42.9057 268.011 48.6505 272.301 54.3954 276.592C69.5427 287.906 84.6918 299.22 98.8604 311.717C129.417 338.664 161.406 363.301 197.423 382.244C198.657 382.902 199.953 383.433 201.252 383.966C201.858 384.215 202.466 384.464 203.067 384.726L203.95 383.197C197.644 377.505 191.362 371.78 185.08 366.055ZM184.78 291.251C136.193 263.628 95.1315 226.3 54.0749 188.977L54.0743 188.977C43.7666 179.606 33.4592 170.236 23.0332 161.02L24.8361 158.709C84.8582 194.248 138.915 237.471 184.78 291.251Z"/>
</mask>
<path d="M119.631 0.541983L120.616 0.366994L120.534 -0.0913017L120.131 -0.324042L119.631 0.541983ZM120.76 6.12118L121.738 5.91126L121.738 5.91126L120.76 6.12118ZM119.576 0.509949L120.076 -0.356076L119.774 -0.5299L119.43 -0.479464L119.576 0.509949ZM116.872 0.879505L116.963 1.87535L116.983 1.87354L117.003 1.87093L116.872 0.879505ZM116.871 0.879549L116.78 -0.116297L115.889 -0.0349236L115.872 0.859826L116.871 0.879549ZM115.792 54.6166L116.792 54.6369L115.792 54.6166ZM115.387 74.653L114.531 75.17L116.317 78.1272L116.387 74.6732L115.387 74.653ZM114.242 72.7769L115.094 72.254L114.242 72.7769ZM107.081 48.3773L106.092 48.2305L106.091 48.2312L107.081 48.3773ZM107.896 26.5905L108.896 26.5566L108.896 26.5545L107.896 26.5905ZM106.477 13.747L107.466 13.6004L107.466 13.6004L106.477 13.747ZM105.662 7.95034L106.655 7.82625L106.527 6.80471L105.509 6.96209L105.662 7.95034ZM103.806 8.21917L103.653 7.23092L103 7.3319L102.837 7.97195L103.806 8.21917ZM101.813 35.0774L100.813 35.0933L101.813 35.0774ZM101.727 48.6383L100.83 49.0808L102.531 52.5273L102.725 48.6889L101.727 48.6383ZM97.0483 38.4736L96.1343 38.8795L97.0483 38.4736ZM76.5934 7.25734L77.2115 6.47122L76.6451 6.02596L76.0435 6.42212L76.5934 7.25734ZM75.8622 7.73355L76.406 8.57281L76.406 8.57281L75.8622 7.73355ZM75.1311 8.20978L74.5811 7.37456L73.8293 7.86957L74.2428 8.66911L75.1311 8.20978ZM86.4176 30.0131L87.3056 29.5532L87.3056 29.5532L86.4176 30.0131ZM97.1883 50.8182L96.9281 51.7837L99.1191 52.3743L98.0765 50.3588L97.1883 50.8182ZM88.9111 48.1234L89.2453 47.1809L89.2453 47.1809L88.9111 48.1234ZM65.9286 44.8646L65.7035 43.8903L63.0308 44.5079L65.4739 45.7553L65.9286 44.8646ZM94.2802 57.2646L93.9424 58.2058L93.9427 58.206L94.2802 57.2646ZM112.77 78.0761L112.251 78.9314L114.031 80.0095L113.761 77.9465L112.77 78.0761ZM104.2 72.6344L103.655 73.4729L104.2 72.6344ZM64.9012 56.5535L64.9354 55.5541L62.4542 55.4693L64.1839 57.2502L64.9012 56.5535ZM100.545 81.1818L100.181 82.1132L100.183 82.1138L100.545 81.1818ZM116.244 88.1628L116.673 87.2594L116.673 87.2593L116.244 88.1628ZM122.241 90.9725L121.826 91.8825L123.147 92.4844L123.239 91.0354L122.241 90.9725ZM122.721 84.6498L123.718 84.7315L122.721 84.6498ZM123.563 69.0762L124.563 69.076L124.563 69.075L123.563 69.0762ZM122.679 18.4989L121.68 18.5372L121.68 18.5375L122.679 18.4989ZM167.138 196.19L168.134 196.283L168.201 195.555L167.528 195.27L167.138 196.19ZM167.133 196.241L166.133 196.224L168.129 196.334L167.133 196.241ZM54.8101 115.677L55.1383 114.733L51.9543 113.626L54.0198 116.29L54.8101 115.677ZM113.011 146.169L112.393 146.955L112.394 146.956L113.011 146.169ZM147.301 175.558L146.634 176.303L147.301 175.558ZM161.834 188.462L162.831 188.382L162.798 187.976L162.492 187.709L161.834 188.462ZM161.727 187.408L162.669 187.07L162.666 187.063L161.727 187.408ZM158.689 178.962L157.746 179.297L158.689 178.962ZM149.993 156.392L149.08 156.798L149.08 156.799L149.993 156.392ZM140.867 145.759L140.36 146.621L140.363 146.623L140.867 145.759ZM99.1212 121.827L99.6133 120.956L99.1212 121.827ZM72.5013 106.69L72.0013 107.556L72.0028 107.557L72.5013 106.69ZM58.5072 96.3316L58.6423 95.3407L55.3245 94.8883L57.8508 97.086L58.5072 96.3316ZM143.798 140.854L143.102 141.572L144.727 140.485L143.798 140.854ZM142.719 138.255L143.64 137.865L143.637 137.857L143.633 137.849L142.719 138.255ZM142.719 138.254L141.798 138.644L141.802 138.653L141.805 138.661L142.719 138.254ZM140.357 131.949L139.394 132.219L139.395 132.22L140.357 131.949ZM113.916 104.965L113.533 105.888L113.533 105.889L113.916 104.965ZM78.3359 87.2422L77.8597 88.1215L77.8597 88.1215L78.3359 87.2422ZM65.0496 80.1305L65.5128 79.2443L65.5092 79.2424L65.0496 80.1305ZM59.19 75.0312L59.3723 74.0479L56.6275 73.5387L58.4248 75.675L59.19 75.0312ZM126.346 105.517L125.671 106.255L127.529 107.957L127.343 105.444L126.346 105.517ZM125.928 99.9576L126.925 99.8816L126.925 99.8816L125.928 99.9576ZM125.739 97.4707L126.357 96.6841L124.571 95.2826L124.742 97.546L125.739 97.4707ZM125.74 97.4711L126.409 96.7281L126.384 96.7054L126.357 96.6845L125.74 97.4711ZM125.743 97.474L125.074 98.2171L125.078 98.2207L125.743 97.474ZM129.831 101.147L129.158 101.887L130.813 103.391L130.831 101.155L129.831 101.147ZM130.487 16.4639L130.253 15.4918L129.493 15.6752L129.487 16.4567L130.487 16.4639ZM131.172 16.2825L131.439 17.2461L131.45 17.243L131.461 17.2395L131.172 16.2825ZM131.172 16.2824L130.905 15.3187L130.893 15.3219L130.882 15.3253L131.172 16.2824ZM131.856 16.1009L132.832 15.8828L132.61 14.8901L131.621 15.1289L131.856 16.1009ZM133.19 21.6482L134.178 21.4901L134.171 21.4479L134.161 21.4065L133.19 21.6482ZM133.19 21.6484L132.203 21.8065L132.212 21.865L132.229 21.9221L133.19 21.6484ZM133.191 21.6489L134.164 21.4214L134.159 21.3982L134.152 21.3753L133.191 21.6489ZM133.191 21.6501L132.217 21.8777L132.219 21.8848L132.221 21.8919L133.191 21.6501ZM135.751 33.957L136.743 33.8302L136.743 33.8299L135.751 33.957ZM134.907 107.859L133.929 107.652L133.928 107.657L134.907 107.859ZM135.02 114.199L134.089 114.565L134.091 114.569L135.02 114.199ZM141.921 130.294L142.839 129.898L142.835 129.888L141.921 130.294ZM141.922 130.295L141.003 130.691L141.009 130.704L141.922 130.295ZM141.924 130.3L142.838 129.894L142.836 129.891L141.924 130.3ZM141.936 130.326L141.022 130.732L141.022 130.733L141.936 130.326ZM144.46 136.034L143.544 136.435L145.459 136.066L144.46 136.034ZM145.367 107.116L144.368 107.085L144.368 107.085L145.367 107.116ZM145.373 106.931L146.373 106.962L146.373 106.962L145.373 106.931ZM148.132 19.3034L149.084 18.9962L147.133 19.2717L148.132 19.3034ZM148.821 21.3248L147.878 21.657L148.821 21.3248ZM149.6 23.8516L150.581 23.6569L150.579 23.6454L149.6 23.8516ZM151.1 131.581L150.11 131.436L150.11 131.436L151.1 131.581ZM159.737 170.859L158.829 171.279L158.829 171.279L159.737 170.859ZM161.618 174.956L160.707 175.368L162.609 174.827L161.618 174.956ZM167.485 38.4927L166.494 38.3612L166.493 38.3645L167.485 38.4927ZM167.486 38.4837L168.478 38.6152L168.478 38.6119L167.486 38.4837ZM170.229 16.9096L171.224 16.8091L169.236 16.7877L170.229 16.9096ZM169.738 135.888L170.736 135.948L170.737 135.944L169.738 135.888ZM169.738 135.889L168.74 135.829L168.74 135.833L169.738 135.889ZM213.459 444.037L212.465 444.143L212.614 445.545L213.888 444.94L213.459 444.037ZM211.737 427.604L210.742 427.703L210.743 427.708L211.737 427.604ZM213.561 443.988L214.096 444.833L213.132 443.085L213.561 443.988ZM211.811 445.097L211.009 445.693L211.562 446.438L212.347 445.942L211.811 445.097ZM115.237 340.373L114.546 341.095L114.546 341.095L115.237 340.373ZM0.213222 258.678L0.660763 257.784L-1.54728 256.679L-0.730478 259.009L0.213222 258.678ZM4.4652 265.665L5.15187 264.938L5.15185 264.938L4.4652 265.665ZM67.7088 325.053L68.3913 324.322L67.7088 325.053ZM90.9113 346.942L91.6065 346.223L91.5994 346.216L90.9113 346.942ZM90.9114 346.942L90.2163 347.661L90.2234 347.667L90.9114 346.942ZM198.172 438.992L198.746 438.173L198.745 438.173L198.172 438.992ZM215.378 470.996L216.375 471.073L216.376 471.07L215.378 470.996ZM222.261 477.356L222.328 478.354L223.326 478.287L223.259 477.289L222.261 477.356ZM221.919 473.019L220.922 473.096L220.923 473.103L221.919 473.019ZM221.919 473.016L222.916 472.938L222.914 472.916L222.911 472.894L221.919 473.016ZM221.919 473.015L220.922 473.099L220.924 473.118L220.926 473.136L221.919 473.015ZM221.408 463.67L220.408 463.661L220.408 463.664L221.408 463.67ZM221.263 456.411L220.263 456.445L221.263 456.411ZM222.417 437.919L223.382 438.179L223.383 438.178L222.417 437.919ZM240.942 371.391L241.904 371.664L241.91 371.643L241.915 371.621L240.942 371.391ZM240.943 371.387L239.981 371.115L239.975 371.136L239.969 371.157L240.943 371.387ZM268.933 268.209L269.903 268.449L269.903 268.449L268.933 268.209ZM302.925 119.026L303.902 119.24L302.925 119.026ZM315.203 63.1744L316.179 63.3915L316.179 63.3898L315.203 63.1744ZM317.136 49.6036L318.131 49.7072L317.136 49.6036ZM317.857 43.2001L318.849 43.3285L318.98 42.3145L317.964 42.2058L317.857 43.2001ZM317.106 43.1167L316.993 44.1103L316.993 44.1103L317.106 43.1167ZM316.906 43.094L317.019 42.1004L317.019 42.1004L316.906 43.094ZM316.204 43.015L316.314 42.021L316.313 42.0209L316.204 43.015ZM316.073 43.0007L316.182 42.0066L316.181 42.0064L316.073 43.0007ZM315.957 42.9882L316.065 41.9939L315.29 41.9103L315.019 42.6417L315.957 42.9882ZM219.184 430.662L218.197 430.825L220.17 430.829L219.184 430.662ZM214.155 392.388L213.159 392.481L213.16 392.482L214.155 392.388ZM215.318 381.233L214.344 381.004L214.344 381.007L215.318 381.233ZM241.827 268.833L242.801 269.063L241.827 268.833ZM279.19 110.174L280.163 110.402L280.163 110.402L279.19 110.174ZM291.395 53.9421L292.373 54.1464L292.374 54.1426L291.395 53.9421ZM291.396 53.9353L290.417 53.731L290.416 53.7348L291.396 53.9353ZM295.879 32.5756L296.857 32.7832L296.858 32.7789L295.879 32.5756ZM296.164 28.7061L297.164 28.7147L297.164 28.6504L297.157 28.5865L296.164 28.7061ZM296.164 28.7059L295.164 28.6973L295.163 28.7616L295.171 28.8255L296.164 28.7059ZM296.207 26.8387L297.206 26.891L297.257 25.9132L296.28 25.8414L296.207 26.8387ZM294.321 26.6883L294.394 25.691L293.607 25.6331L293.368 26.386L294.321 26.6883ZM292.664 31.9115L293.617 32.214L292.664 31.9115ZM245.837 197.756L244.86 197.547L244.859 197.547L245.837 197.756ZM221.465 319.127L220.483 318.936L220.481 318.947L221.465 319.127ZM221.464 319.128L222.446 319.319L222.448 319.308L221.464 319.128ZM211.149 371.881L210.165 372.054L212.13 372.075L211.149 371.881ZM209.828 365.152L208.848 365.352L208.848 365.354L209.828 365.152ZM209.826 365.146L210.806 364.945L210.805 364.937L210.803 364.929L209.826 365.146ZM209.826 365.144L208.847 365.346L208.848 365.354L208.85 365.361L209.826 365.144ZM208.546 334.873L209.516 335.115L209.516 335.115L208.546 334.873ZM245.125 116.895L246.125 116.931L246.125 116.931L245.125 116.895ZM250.322 70.1258L249.342 69.9254L249.337 69.952L249.333 69.9789L250.322 70.1258ZM250.322 70.1253L251.302 70.3258L251.307 70.2991L251.311 70.2722L250.322 70.1253ZM253.428 47.9698L252.436 47.8443L252.436 47.8474L253.428 47.9698ZM253.8 42.0615L252.801 42.0016L252.801 42.0159L252.8 42.0303L253.8 42.0615ZM253.8 42.061L254.798 42.1209L254.8 42.0887L254.8 42.0565L253.8 42.061ZM253.8 42.0603L252.8 42.0291L252.8 42.047L252.8 42.0648L253.8 42.0603ZM253.908 39.2366L254.907 39.2893L254.958 38.3248L253.995 38.2404L253.908 39.2366ZM252.923 39.1352L252.807 40.1285L252.813 40.1291L252.923 39.1352ZM252.919 39.1347L253.034 38.1414L253.029 38.1408L252.919 39.1347ZM252.534 39.0926L252.64 38.0983L252.64 38.0983L252.534 39.0926ZM251.93 39.0329L252.017 38.0367L251.206 37.9656L250.972 38.745L251.93 39.0329ZM249.29 47.5592L250.237 47.8797L250.241 47.8693L250.244 47.8589L249.29 47.5592ZM249.29 47.5596L248.342 47.2392L248.339 47.2495L248.336 47.26L249.29 47.5596ZM243.941 65.7691L244.91 66.0154L244.91 66.0148L243.941 65.7691ZM226.824 171.359L225.83 171.257L225.83 171.258L226.824 171.359ZM214.511 267.345L215.491 267.545L215.497 267.515L215.501 267.485L214.511 267.345ZM214.511 267.345L213.532 267.145L213.524 267.18L213.52 267.217L214.511 267.345ZM214.511 267.346L215.501 267.486L215.503 267.475L214.511 267.346ZM208.543 310.361L209.534 310.495L209.534 310.493L208.543 310.361ZM206.663 325.857L205.669 325.744L205.668 325.755L206.663 325.857ZM206.662 325.861L207.656 325.974L207.657 325.963L206.662 325.861ZM205.837 332.987L204.892 333.313L206.83 333.105L205.837 332.987ZM199.011 286.166L198.023 286.008L198.023 286.009L199.011 286.166ZM202.383 260.25L203.377 260.359L203.377 260.358L202.383 260.25ZM213.893 152.964L212.898 152.857L212.898 152.858L213.893 152.964ZM213.897 152.924L214.891 153.03L214.891 153.03L213.897 152.924ZM215.29 139.868L216.285 139.974L216.285 139.974L215.29 139.868ZM217.132 20.9267L218.127 20.8327L218.127 20.8315L217.132 20.9267ZM216.271 15.0999L217.256 14.9284L217.254 14.9171L217.252 14.9059L216.271 15.0999ZM216.271 15.0996L215.286 15.2711L215.288 15.2824L215.29 15.2936L216.271 15.0996ZM215.806 12.3309L216.794 12.1769L216.635 11.1575L215.621 11.3482L215.806 12.3309ZM215.008 12.4738L215.18 13.4589L215.18 13.4589L215.008 12.4738ZM214.705 12.527L214.531 11.5422L214.531 11.5422L214.705 12.527ZM214.405 12.5808L214.225 11.597L214.224 11.5972L214.405 12.5808ZM214.353 12.5903L214.173 11.6066L214.172 11.6067L214.353 12.5903ZM214.211 12.6166L214.026 11.6338L213.268 11.7761L213.213 12.5455L214.211 12.6166ZM205.389 104.714L206.384 104.821L205.389 104.714ZM194.232 281.288L193.333 281.727L195.231 281.262L194.232 281.288ZM187.92 255.359L188.918 255.415L188.918 255.415L187.92 255.359ZM188.214 250.036L187.216 249.981L187.216 249.981L188.214 250.036ZM191.116 196.304L192.115 196.355L192.115 196.355L191.116 196.304ZM188.989 42.2488L187.995 42.3535L187.995 42.3587L188.989 42.2488ZM188.396 38.3873L189.381 38.2121L189.379 38.2027L189.378 38.1934L188.396 38.3873ZM188.396 38.3871L187.413 38.5683L187.415 38.5811L188.396 38.3871ZM188.396 38.3845L187.411 38.5598L187.413 38.5657L188.396 38.3845ZM188.153 36.9923L189.139 36.8262L188.978 35.8693L188.016 36.0016L188.153 36.9923ZM186.453 37.2448L186.317 36.2541L185.557 36.3587L185.461 37.1201L186.453 37.2448ZM181.138 236.695L180.188 237.009L182.134 236.609L181.138 236.695ZM168.374 198.192L169.324 197.877L168.978 196.835L167.973 197.276L168.374 198.192ZM168.197 198.269L167.795 197.354L167.795 197.354L168.197 198.269ZM167.932 198.386L167.53 197.47L167.529 197.471L167.932 198.386ZM167.126 198.741L167.529 199.656L167.53 199.656L167.126 198.741ZM166.716 198.922L167.118 199.837L167.119 199.837L166.716 198.922ZM166.424 199.05L166.022 198.134L165.223 198.485L165.462 199.324L166.424 199.05ZM174.347 226.78L175.308 226.505L175.308 226.505L174.347 226.78ZM182.269 254.511L182.816 255.348L183.433 254.945L183.231 254.236L182.269 254.511ZM181.487 255.048L180.912 254.23L180.905 254.234L180.898 254.239L181.487 255.048ZM181.486 255.048L182.037 255.882L182.056 255.87L182.075 255.857L181.486 255.048ZM181.486 255.048L180.935 254.214L180.923 254.222L180.911 254.23L181.486 255.048ZM180.958 255.416L180.215 256.086L180.8 256.734L181.521 256.242L180.958 255.416ZM179.68 254.032L180.411 253.349L179.68 254.032ZM177.168 251.216L177.943 250.585L177.941 250.583L177.168 251.216ZM98.2671 171.365L98.8774 170.573L98.8773 170.573L98.2671 171.365ZM55.0138 140.439L55.5619 139.603L55.5601 139.602L55.0138 140.439ZM39.7524 133.279L40.1146 132.347L40.1068 132.344L40.0989 132.341L39.7524 133.279ZM39.7516 133.278L39.3895 134.211L39.3973 134.214L39.4052 134.216L39.7516 133.278ZM32.5273 130.353L32.9289 129.437L32.1316 129.087L31.6755 129.829L32.5273 130.353ZM32.1217 131.003L31.2749 130.471L31.2718 130.476L32.1217 131.003ZM32.1214 131.004L32.9683 131.535L32.9714 131.53L32.1214 131.004ZM31.3222 132.312L30.4562 131.812L30.0666 132.487L30.6257 133.029L31.3222 132.312ZM36.6511 137.622L35.9406 138.326L35.9507 138.336L35.9611 138.346L36.6511 137.622ZM36.6514 137.623L37.3619 136.919L37.3517 136.909L37.3413 136.899L36.6514 137.623ZM48.348 148.739L48.9916 147.973L48.9915 147.973L48.348 148.739ZM172.221 252.437L172.862 251.669L172.862 251.669L172.221 252.437ZM189.005 281.542L189.997 281.415L189.997 281.413L189.005 281.542ZM192.8 301.716L193.798 301.651L193.793 301.576L193.777 301.502L192.8 301.716ZM192.8 301.716L191.802 301.781L191.807 301.856L191.823 301.93L192.8 301.716ZM194.773 311.018L195.754 310.823L195.754 310.823L194.773 311.018ZM200.172 338.485L200.621 339.378L201.299 339.038L201.154 338.293L200.172 338.485ZM198.645 339.293L197.984 340.043L198.508 340.505L199.122 340.172L198.645 339.293ZM196.908 337.828L196.271 338.599L196.908 337.828ZM193.38 334.617L194.122 333.947L194.12 333.945L193.38 334.617ZM105.265 258.509L104.708 259.34L104.709 259.341L105.265 258.509ZM46.3047 216.881L45.7173 217.69L45.7178 217.69L46.3047 216.881ZM46.2734 216.858L46.8607 216.049L46.8601 216.048L46.2734 216.858ZM46.1901 216.798L46.7768 215.988L46.7765 215.988L46.1901 216.798ZM46.1558 216.773L45.569 217.583L45.5693 217.583L46.1558 216.773ZM46.1218 216.748L45.5349 217.558L45.535 217.558L46.1218 216.748ZM38.2806 211.067L38.8669 210.257L38.8655 210.256L38.2806 211.067ZM23.7583 199.302L23.0906 200.047L23.0989 200.054L23.1074 200.061L23.7583 199.302ZM23.7582 199.302L24.4258 198.558L24.4109 198.544L24.3955 198.531L23.7582 199.302ZM23.7556 199.3L23.1047 200.059L23.1114 200.065L23.1183 200.07L23.7556 199.3ZM17.4233 193.93L18.0616 193.16L17.5409 192.728L16.9463 193.051L17.4233 193.93ZM15.521 195.004L15.0221 194.137L14.3753 194.51L14.5482 195.236L15.521 195.004ZM15.8908 197.235L16.8822 197.104L16.8822 197.104L15.8908 197.235ZM17.1932 201.547L16.428 202.191L16.4314 202.195L17.1932 201.547ZM19.5044 204.268L18.7421 204.915L18.7421 204.915L19.5044 204.268ZM63.0021 247.651L62.423 248.467L62.4231 248.467L63.0021 247.651ZM194.603 340.37L194.029 341.189L194.033 341.192L194.603 340.37ZM194.604 340.371L195.179 339.552L195.174 339.549L194.604 340.371ZM195.423 340.945L194.848 341.764L194.848 341.764L195.423 340.945ZM202.361 351.95L203.352 351.822L203.352 351.821L202.361 351.95ZM204.666 368.15L205.655 368.003L204.666 368.15ZM207.467 388.339L208.46 388.221L208.46 388.22L207.467 388.339ZM211.737 427.6L212.732 427.501L212.732 427.497L211.737 427.6ZM226.887 481.046L226.387 481.912L227.807 482.732L227.886 481.094L226.887 481.046ZM228.085 481.108L228.213 480.116L228.181 480.112L228.148 480.11L228.085 481.108ZM228.085 481.108L227.956 482.099L227.989 482.104L228.022 482.106L228.085 481.108ZM229.301 481.18L229.25 482.178L230.004 482.217L230.248 481.502L229.301 481.18ZM345.017 42.4155L346.003 42.5864L344.125 41.9635L345.017 42.4155ZM337.929 60.7151L338.88 61.0261L338.88 61.0251L337.929 60.7151ZM261.921 324.177L260.953 323.926L260.953 323.926L261.921 324.177ZM237.147 429.421L238.122 429.645L238.123 429.64L237.147 429.421ZM237.147 429.422L238.117 429.665L238.119 429.655L238.122 429.645L237.147 429.422ZM237.147 429.422L236.177 429.179L236.174 429.189L236.172 429.199L237.147 429.422ZM237.147 429.423L236.172 429.2L236.171 429.205L237.147 429.423ZM227.296 473.077L226.322 472.853L226.321 472.857L227.296 473.077ZM226.922 478.41L225.922 478.415L225.922 478.44L225.924 478.465L226.922 478.41ZM226.922 478.411L227.922 478.407L227.922 478.381L227.921 478.356L226.922 478.411ZM226.869 481.036L226.919 480.037L226.369 481.902L226.869 481.036ZM5.3447 238.471L5.71371 237.542L2.16367 236.132L4.56759 239.1L5.3447 238.471ZM185.08 366.055L185.754 365.315L185.08 366.055ZM6.47501 240.008L5.65613 240.582L6.47501 240.008ZM9.03913 242.964L9.63748 242.163L9.63281 242.159L9.03913 242.964ZM21.1277 251.799L20.5418 252.609L21.1277 251.799ZM37.2149 263.656L36.6069 264.45L36.6071 264.45L37.2149 263.656ZM54.3954 276.592L53.797 277.393L54.3954 276.592ZM98.8604 311.717L98.199 312.467L98.199 312.467L98.8604 311.717ZM197.423 382.244L197.893 381.362L197.888 381.359L197.423 382.244ZM201.252 383.966L200.873 384.891L201.252 383.966ZM203.067 384.726L202.668 385.643L203.487 385.999L203.933 385.226L203.067 384.726ZM203.95 383.197L204.816 383.697L205.22 382.997L204.62 382.455L203.95 383.197ZM54.0749 188.977L53.3944 189.71L53.4022 189.717L54.0749 188.977ZM184.78 291.251L184.286 292.12L185.541 290.602L184.78 291.251ZM54.0743 188.977L54.7547 188.244L54.7469 188.237L54.0743 188.977ZM23.0332 161.02L22.2447 160.405L21.6663 161.147L22.3709 161.769L23.0332 161.02ZM24.8361 158.709L25.3456 157.849L24.5887 157.4L24.0476 158.094L24.8361 158.709ZM118.646 0.716972C118.982 2.60255 119.384 4.47685 119.782 6.3311L121.738 5.91126C121.338 4.05114 120.943 2.21165 120.616 0.366994L118.646 0.716972ZM119.076 1.37597L119.131 1.40801L120.131 -0.324042L120.076 -0.356076L119.076 1.37597ZM117.003 1.87093C117.909 1.75147 118.823 1.63091 119.721 1.49936L119.43 -0.479464C118.55 -0.350409 117.65 -0.231714 116.741 -0.111918L117.003 1.87093ZM116.962 1.87539L116.963 1.87535L116.781 -0.116341L116.78 -0.116297L116.962 1.87539ZM116.792 54.6369C117.153 36.855 117.517 18.88 117.871 0.899272L115.872 0.859826C115.517 18.8399 115.153 36.8143 114.793 54.5964L116.792 54.6369ZM116.387 74.6732C116.521 68.0286 116.656 61.3465 116.792 54.6369L114.793 54.5964C114.657 61.306 114.521 67.9882 114.387 74.6329L116.387 74.6732ZM113.39 73.2998C113.775 73.9283 114.157 74.55 114.531 75.17L116.243 74.136C115.864 73.5091 115.479 72.8814 115.094 72.254L113.39 73.2998ZM106.091 48.2312C104.517 58.8863 109.181 66.4397 113.39 73.2998L115.094 72.254C110.864 65.3583 106.614 58.3818 108.07 48.5235L106.091 48.2312ZM106.897 26.6244C107.141 33.83 107.145 41.135 106.092 48.2305L108.07 48.5242C109.151 41.2446 109.141 33.7931 108.896 26.5566L106.897 26.6244ZM105.488 13.8936C106.121 18.1669 106.744 22.3739 106.897 26.6265L108.896 26.5545C108.738 22.1722 108.097 17.8553 107.466 13.6004L105.488 13.8936ZM104.67 8.07444C104.914 10.0238 105.202 11.9655 105.488 13.8936L107.466 13.6004C107.18 11.6685 106.895 9.7493 106.655 7.82625L104.67 8.07444ZM104.872 9.07514C105.18 9.03217 105.495 8.98806 105.815 8.9386L105.509 6.96209C105.206 7.00897 104.905 7.0511 104.595 7.09437L104.872 9.07514ZM103.958 9.20742C104.261 9.16054 104.563 9.11841 104.872 9.07514L104.595 7.09437C104.288 7.13734 103.972 7.18146 103.653 7.23092L103.958 9.20742ZM102.813 35.0614C102.67 26.0418 102.535 17.2442 104.774 8.46638L102.837 7.97195C100.52 17.0502 100.67 26.1147 100.813 35.0933L102.813 35.0614ZM102.725 48.6889C102.958 44.1074 102.885 39.5566 102.813 35.0614L100.813 35.0933C100.885 39.5992 100.956 44.0836 100.728 48.5876L102.725 48.6889ZM96.1343 38.8795C97.6477 42.2877 99.1734 45.7242 100.83 49.0808L102.623 48.1957C100.988 44.8816 99.4784 41.4824 97.9622 38.0678L96.1343 38.8795ZM75.9753 8.04345C85.8786 15.8299 90.9371 27.1748 96.1343 38.8795L97.9622 38.0678C92.8021 26.4467 87.5694 14.6152 77.2115 6.47122L75.9753 8.04345ZM76.406 8.57281C76.6516 8.41366 76.901 8.25211 77.1433 8.09256L76.0435 6.42212C75.8084 6.5769 75.5653 6.7344 75.3185 6.89429L76.406 8.57281ZM75.681 9.045C75.9161 8.89019 76.1592 8.73268 76.406 8.57281L75.3185 6.89429C75.0728 7.05345 74.8234 7.21503 74.5811 7.37456L75.681 9.045ZM87.3056 29.5532C83.5111 22.2268 79.7636 14.9913 76.0193 7.75045L74.2428 8.66911C77.9875 15.9106 81.7352 23.1467 85.5296 30.473L87.3056 29.5532ZM98.0765 50.3588C94.4218 43.293 90.8432 36.3836 87.3056 29.5532L85.5296 30.473C89.0673 37.3035 92.6456 44.2124 96.3001 51.2776L98.0765 50.3588ZM88.5769 49.0658C91.2843 50.026 94.0581 51.0102 96.9281 51.7837L97.4486 49.8526C94.6658 49.1025 91.9644 48.1451 89.2453 47.1809L88.5769 49.0658ZM66.1537 45.839C74.1808 43.9842 81.1359 46.4271 88.5769 49.0659L89.2453 47.1809C81.8735 44.5667 74.3796 41.8856 65.7035 43.8903L66.1537 45.839ZM94.6181 56.3235C84.9625 52.857 75.5899 48.6747 66.3833 43.974L65.4739 45.7553C74.7418 50.4872 84.1929 54.7057 93.9424 58.2058L94.6181 56.3235ZM113.761 77.9465C113.15 73.2703 110.676 68.6994 107.234 64.9013C103.789 61.0991 99.3203 58.0096 94.6178 56.3233L93.9427 58.206C98.3114 59.7725 102.509 62.6654 105.752 66.2442C108.998 69.8269 111.233 74.0353 111.778 78.2057L113.761 77.9465ZM103.655 73.4729C106.495 75.3182 109.35 77.1732 112.251 78.9314L113.288 77.2208C110.417 75.4818 107.589 73.6441 104.745 71.7959L103.655 73.4729ZM64.8671 57.5529C79.9071 58.0671 91.6569 65.6765 103.655 73.4729L104.745 71.7959C92.8143 64.0434 80.614 56.0901 64.9354 55.5541L64.8671 57.5529ZM100.909 80.2504C87.2727 74.9209 75.8626 66.4048 65.6186 55.8568L64.1839 57.2502C74.5715 67.946 86.2126 76.6539 100.181 82.1132L100.909 80.2504ZM116.673 87.2593C111.789 84.9414 106.439 82.402 100.908 80.2499L100.183 82.1138C105.636 84.2356 110.922 86.7437 115.815 89.0662L116.673 87.2593ZM122.655 90.0624C120.756 89.1972 118.758 88.2489 116.673 87.2594L115.815 89.0662C117.897 90.0542 119.91 91.0096 121.826 91.8825L122.655 90.0624ZM121.724 84.568C121.544 86.763 121.37 88.8929 121.243 90.9096L123.239 91.0354C123.364 89.041 123.537 86.9305 123.718 84.7315L121.724 84.568ZM122.563 69.0763C122.564 74.3211 122.131 79.6156 121.724 84.568L123.718 84.7315C124.123 79.792 124.564 74.4163 124.563 69.076L122.563 69.0763ZM121.68 18.5375C122.329 35.3344 122.543 52.2053 122.563 69.0774L124.563 69.075C124.543 52.1885 124.329 35.2908 123.678 18.4602L121.68 18.5375ZM119.782 6.3311C120.664 10.4395 121.523 14.4502 121.68 18.5372L123.678 18.4606C123.514 14.1712 122.614 9.9909 121.738 5.91126L119.782 6.3311ZM167.528 195.27L167.524 195.268L166.744 197.109L166.747 197.111L167.528 195.27ZM168.129 196.334L168.134 196.283L166.142 196.098L166.137 196.149L168.129 196.334ZM166.134 196.171L166.133 196.224L168.133 196.259L168.134 196.206L166.134 196.171ZM54.0198 116.29C56.8167 119.897 63.9823 126.197 73.3598 133.69C82.7767 141.214 94.5263 150.02 106.588 158.663C118.65 167.306 131.032 175.792 141.716 182.674C152.377 189.542 161.41 194.854 166.745 197.11L167.523 195.268C162.369 193.089 153.472 187.868 142.799 180.993C132.149 174.132 119.794 165.666 107.753 157.037C95.7108 148.409 83.9905 139.624 74.6083 132.127C65.1867 124.599 58.2239 118.448 55.6003 115.064L54.0198 116.29ZM113.629 145.383C96.4192 131.857 76.796 122.259 55.1383 114.733L54.4818 116.622C75.9974 124.099 95.4059 133.604 112.393 146.955L113.629 145.383ZM147.968 174.813C136.85 164.858 125.536 154.726 113.629 145.382L112.394 146.956C124.242 156.252 135.508 166.34 146.634 176.303L147.968 174.813ZM162.492 187.709C157.662 183.494 152.834 179.17 147.968 174.813L146.634 176.303C151.498 180.659 156.335 184.991 161.177 189.216L162.492 187.709ZM160.786 187.747C160.863 187.96 160.893 188.241 160.894 188.414C160.894 188.454 160.892 188.47 160.893 188.465C160.893 188.464 160.895 188.44 160.903 188.402C160.907 188.384 160.915 188.348 160.931 188.302C160.942 188.269 160.978 188.167 161.059 188.054C161.119 187.969 161.376 187.641 161.863 187.638C162.345 187.636 162.605 187.957 162.665 188.037C162.747 188.147 162.784 188.246 162.796 188.278C162.812 188.322 162.821 188.357 162.825 188.374C162.838 188.426 162.836 188.443 162.831 188.382L160.837 188.542C160.844 188.622 160.855 188.734 160.881 188.842C160.883 188.852 160.923 189.046 161.061 189.232C161.124 189.317 161.387 189.641 161.873 189.638C162.363 189.635 162.623 189.305 162.686 189.216C162.823 189.025 162.857 188.827 162.859 188.818C162.872 188.757 162.879 188.701 162.883 188.662C162.891 188.581 162.894 188.494 162.894 188.411C162.893 188.095 162.847 187.568 162.668 187.07L160.786 187.747ZM157.746 179.297C158.75 182.117 159.755 184.942 160.789 187.754L162.666 187.063C161.636 184.264 160.634 181.448 159.631 178.627L157.746 179.297ZM149.08 156.799C152.335 164.088 155.033 171.671 157.746 179.297L159.631 178.627C156.922 171.014 154.198 163.356 150.907 155.984L149.08 156.799ZM140.363 146.623C144.004 148.75 147.27 152.731 149.08 156.798L150.907 155.985C148.96 151.609 145.439 147.272 141.372 144.896L140.363 146.623ZM98.629 122.697C112.593 130.593 126.549 138.483 140.36 146.621L141.375 144.898C127.546 136.75 113.575 128.85 99.6133 120.956L98.629 122.697ZM72.0028 107.557C80.8552 112.647 89.7439 117.673 98.629 122.697L99.6133 120.956C90.7272 115.932 81.8448 110.909 72.9997 105.824L72.0028 107.557ZM57.8508 97.086C62.2688 100.929 66.9075 104.616 72.0013 107.556L73.0013 105.824C68.0707 102.978 63.5442 99.388 59.1635 95.5771L57.8508 97.086ZM144.494 140.136C120.182 116.565 92.7208 99.9878 58.6423 95.3407L58.372 97.3224C91.9147 101.896 119.002 118.207 143.102 141.572L144.494 140.136ZM141.799 138.645C142.165 139.511 142.527 140.364 142.869 141.224L144.727 140.485C144.376 139.601 144.005 138.727 143.64 137.865L141.799 138.645ZM141.805 138.661L141.806 138.661L143.633 137.849L143.633 137.848L141.805 138.661ZM139.395 132.22C140.024 134.459 140.926 136.585 141.798 138.644L143.64 137.864C142.76 135.786 141.91 133.776 141.32 131.679L139.395 132.22ZM113.533 105.889C126.328 111.184 135.526 118.416 139.394 132.219L141.32 131.679C137.227 117.072 127.419 109.471 114.298 104.041L113.533 105.889ZM77.8597 88.1215C89.5279 94.4408 101.254 100.792 113.533 105.888L114.299 104.041C102.132 98.9913 90.4958 92.6905 78.8121 86.3628L77.8597 88.1215ZM64.5863 81.0167C69.0262 83.3375 73.4388 85.7272 77.8597 88.1215L78.8121 86.3628C74.3934 83.9698 69.9679 81.573 65.5128 79.2443L64.5863 81.0167ZM58.4248 75.675C60.2058 77.7919 62.1723 79.7674 64.59 81.0186L65.5092 79.2424C63.4459 78.1746 61.684 76.4422 59.9552 74.3874L58.4248 75.675ZM127.022 104.78C107.2 86.6204 84.036 78.6232 59.3723 74.0479L59.0076 76.0144C83.4817 80.5545 106.234 88.4479 125.671 106.255L127.022 104.78ZM124.931 100.034C125.058 101.7 125.183 103.34 125.349 105.591L127.343 105.444C127.177 103.19 127.052 101.548 126.925 99.8816L124.931 100.034ZM124.742 97.546C124.809 98.4282 124.87 99.234 124.931 100.034L126.925 99.8816C126.864 99.082 126.803 98.2768 126.736 97.3954L124.742 97.546ZM126.357 96.6845L126.357 96.6841L125.122 98.2573L125.122 98.2577L126.357 96.6845ZM126.412 96.731L126.409 96.7281L125.07 98.2141L125.074 98.2171L126.412 96.731ZM130.504 100.407C128.803 98.8616 127.775 97.945 126.408 96.7274L125.078 98.2207C126.443 99.4372 127.466 100.348 129.158 101.887L130.504 100.407ZM129.487 16.4567C129.285 44.4429 129.063 72.4185 128.831 101.139L130.831 101.155C131.063 72.4345 131.284 44.4582 131.487 16.4711L129.487 16.4567ZM130.905 15.3188C130.674 15.3826 130.463 15.4411 130.253 15.4918L130.722 17.436C130.97 17.3761 131.214 17.3084 131.439 17.2461L130.905 15.3188ZM130.882 15.3253L130.882 15.3254L131.461 17.2395L131.462 17.2395L130.882 15.3253ZM131.621 15.1289C131.373 15.1888 131.13 15.2564 130.905 15.3187L131.439 17.2461C131.669 17.1822 131.881 17.1238 132.091 17.073L131.621 15.1289ZM134.161 21.4065C133.7 19.5589 133.244 17.7252 132.832 15.8828L130.88 16.3191C131.298 18.1891 131.761 20.0462 132.22 21.8899L134.161 21.4065ZM134.178 21.4904L134.178 21.4901L132.203 21.8062L132.203 21.8065L134.178 21.4904ZM134.152 21.3753L134.152 21.3748L132.229 21.9221L132.229 21.9226L134.152 21.3753ZM134.165 21.4226L134.164 21.4214L132.217 21.8765L132.217 21.8777L134.165 21.4226ZM136.743 33.8299C136.198 29.5811 135.171 25.4615 134.161 21.4084L132.221 21.8919C133.235 25.9635 134.232 29.9704 134.759 34.0842L136.743 33.8299ZM135.886 108.066C141.2 82.9561 139.869 58.2805 136.743 33.8302L134.759 34.0839C137.875 58.4499 139.175 82.8656 133.929 107.652L135.886 108.066ZM135.951 113.833C135.352 112.311 135.471 110.077 135.887 108.061L133.928 107.657C133.494 109.763 133.269 112.48 134.089 114.565L135.951 113.833ZM142.835 129.888C140.522 124.686 138.132 119.31 135.949 113.829L134.091 114.569C136.291 120.092 138.697 125.504 141.007 130.7L142.835 129.888ZM142.84 129.899L142.839 129.898L141.003 130.69L141.003 130.691L142.84 129.899ZM142.836 129.891L142.834 129.886L141.009 130.704L141.011 130.708L142.836 129.891ZM142.85 129.921L142.838 129.894L141.01 130.705L141.022 130.732L142.85 129.921ZM145.376 135.633C144.555 133.757 143.708 131.851 142.849 129.92L141.022 130.733C141.88 132.664 142.726 134.565 143.544 136.435L145.376 135.633ZM144.368 107.085C144.065 116.748 143.763 126.382 143.46 136.003L145.459 136.066C145.762 126.445 146.064 116.811 146.367 107.147L144.368 107.085ZM144.374 106.899L144.368 107.085L146.367 107.147L146.373 106.962L144.374 106.899ZM147.133 19.2717C146.189 49.0369 145.277 78.1015 144.374 106.899L146.373 106.962C147.276 78.1641 148.188 49.0999 149.132 19.3351L147.133 19.2717ZM149.764 20.9925C149.56 20.4124 149.333 19.7667 149.084 18.9962L147.181 19.6107C147.438 20.409 147.674 21.077 147.878 21.657L149.764 20.9925ZM150.579 23.6454C150.397 22.7828 150.104 21.9575 149.764 20.9925L147.878 21.657C148.228 22.6517 148.472 23.3478 148.622 24.0577L150.579 23.6454ZM152.089 131.727C157.437 95.4024 157.616 59.1034 150.581 23.6569L148.619 24.0462C155.602 59.2288 155.431 95.2935 150.11 131.436L152.089 131.727ZM160.644 170.439C155.069 158.383 149.843 147.041 152.089 131.727L150.11 131.436C147.769 147.406 153.266 159.25 158.829 171.279L160.644 170.439ZM162.529 174.543C161.904 173.164 161.272 171.797 160.644 170.439L158.829 171.279C159.457 172.637 160.086 173.997 160.707 175.368L162.529 174.543ZM166.493 38.3645C160.609 83.8822 154.701 129.539 160.626 175.085L162.609 174.827C156.723 129.582 162.587 84.1841 168.477 38.6209L166.493 38.3645ZM166.494 38.359L166.494 38.3612L168.477 38.6242L168.477 38.622L166.494 38.359ZM166.494 38.3567L166.494 38.359L168.477 38.622L168.477 38.6197L166.494 38.3567ZM166.495 38.3544L166.494 38.3567L168.477 38.6197L168.477 38.6174L166.495 38.3544ZM166.495 38.3522L166.495 38.3544L168.477 38.6174L168.478 38.6152L166.495 38.3522ZM169.236 16.7877C168.354 23.9754 167.424 31.1638 166.495 38.3555L168.478 38.6119C169.408 31.4213 170.338 24.2266 171.222 17.0316L169.236 16.7877ZM170.737 135.944C172.978 95.9916 175.21 56.2347 171.224 16.8091L169.234 17.0102C173.202 56.2532 170.982 95.8521 168.74 135.832L170.737 135.944ZM170.736 135.948L170.736 135.948L168.74 135.828L168.74 135.828L170.736 135.948ZM170.736 135.948L170.736 135.948L168.74 135.828L168.74 135.828L170.736 135.948ZM170.736 135.948L170.736 135.948L168.74 135.828L168.74 135.829L170.736 135.948ZM170.736 135.949L170.736 135.948L168.74 135.829L168.74 135.829L170.736 135.949ZM168.134 196.206C168.486 176.061 169.613 155.978 170.737 135.945L168.74 135.833C167.616 155.86 166.487 175.981 166.134 196.171L168.134 196.206ZM214.454 443.931C213.871 438.456 213.301 432.979 212.732 427.501L210.743 427.708C211.312 433.185 211.882 438.665 212.465 444.143L214.454 443.931ZM213.132 443.085L213.03 443.133L213.888 444.94L213.99 444.892L213.132 443.085ZM212.347 445.942L214.096 444.833L213.026 443.144L211.276 444.252L212.347 445.942ZM114.546 341.095C148.806 373.88 182.441 407.225 211.009 445.693L212.614 444.501C183.937 405.885 150.194 372.44 115.929 339.65L114.546 341.095ZM-0.23432 259.572C42.2195 280.819 80.2254 308.246 114.546 341.095L115.929 339.65C81.4751 306.673 43.3069 279.126 0.660763 257.784L-0.23432 259.572ZM5.15185 264.938C3.40188 263.285 2.09968 261.037 1.15692 258.347L-0.730478 259.009C0.283179 261.9 1.73048 264.457 3.77856 266.392L5.15185 264.938ZM68.3913 324.322C47.2603 304.587 26.1828 284.803 5.15187 264.938L3.77854 266.392C24.8125 286.26 45.8928 306.047 67.0262 325.784L68.3913 324.322ZM91.5994 346.216C83.8822 338.899 76.1621 331.58 68.3913 324.322L67.0262 325.784C74.7906 333.035 82.5052 340.35 90.2233 347.667L91.5994 346.216ZM91.6066 346.223L91.6065 346.223L90.2162 347.66L90.2163 347.661L91.6066 346.223ZM198.745 438.173C160.11 411.169 125.883 378.721 91.5995 346.216L90.2234 347.667C124.489 380.155 158.822 412.709 197.6 439.812L198.745 438.173ZM216.376 471.07C216.952 463.31 215.395 457.051 212.232 451.727C209.08 446.423 204.372 442.112 198.746 438.173L197.599 439.811C203.107 443.668 207.564 447.786 210.513 452.749C213.45 457.692 214.929 463.537 214.381 470.922L216.376 471.07ZM222.194 476.359C219.982 476.507 218.495 476.011 217.6 475.173C216.719 474.348 216.226 473.017 216.375 471.073L214.381 470.919C214.201 473.263 214.777 475.27 216.233 476.633C217.675 477.983 219.794 478.524 222.328 478.354L222.194 476.359ZM220.923 473.103C221.043 474.529 221.165 475.963 221.263 477.424L223.259 477.289C223.159 475.809 223.036 474.357 222.915 472.934L220.923 473.103ZM220.922 473.093L220.922 473.096L222.916 472.941L222.916 472.938L220.922 473.093ZM220.926 473.136L220.926 473.137L222.911 472.894L222.911 472.893L220.926 473.136ZM220.408 463.664C220.389 466.814 220.654 469.938 220.922 473.099L222.915 472.931C222.646 469.754 222.39 466.72 222.408 463.676L220.408 463.664ZM220.263 456.445C220.347 458.882 220.429 461.289 220.408 463.661L222.408 463.679C222.43 461.256 222.346 458.806 222.262 456.376L220.263 456.445ZM221.451 437.659C219.819 443.718 220.049 450.189 220.263 456.445L222.262 456.376C222.045 450.06 221.842 443.898 223.382 438.179L221.451 437.659ZM239.98 371.118C233.697 393.271 227.412 415.433 221.451 437.66L223.383 438.178C229.339 415.968 235.621 393.819 241.904 371.664L239.98 371.118ZM239.969 371.16L239.969 371.161L241.915 371.621L241.915 371.62L239.969 371.16ZM239.969 371.159L239.969 371.16L241.915 371.62L241.915 371.619L239.969 371.159ZM239.969 371.158L239.969 371.159L241.915 371.619L241.916 371.618L239.969 371.158ZM239.969 371.157L239.969 371.158L241.916 371.618L241.916 371.618L239.969 371.157ZM267.962 267.97C259.44 302.496 249.714 336.795 239.981 371.115L241.905 371.66C251.636 337.346 261.373 303.014 269.903 268.449L267.962 267.97ZM301.948 118.813C291.062 168.627 280.178 218.435 267.962 267.97L269.903 268.449C282.127 218.884 293.017 169.049 303.902 119.24L301.948 118.813ZM314.227 62.9573C310.088 81.5655 306.018 100.19 301.948 118.813L303.902 119.24C307.972 100.616 312.041 81.9955 316.179 63.3915L314.227 62.9573ZM316.142 49.5C315.667 54.0612 315.197 58.556 314.226 62.959L316.179 63.3898C317.179 58.8576 317.658 54.2494 318.131 49.7072L316.142 49.5ZM316.866 43.0717C316.588 45.2149 316.364 47.3647 316.142 49.5L318.131 49.7072C318.354 47.5678 318.575 45.4428 318.849 43.3285L316.866 43.0717ZM316.993 44.1103C317.245 44.139 317.499 44.1675 317.751 44.1944L317.964 42.2058C317.719 42.1796 317.47 42.1516 317.219 42.1231L316.993 44.1103ZM316.793 44.0876L316.993 44.1103L317.219 42.1232L317.019 42.1004L316.793 44.0876ZM316.095 44.009C316.326 44.0344 316.558 44.0609 316.793 44.0876L317.019 42.1004C316.785 42.0737 316.549 42.0469 316.314 42.021L316.095 44.009ZM315.965 43.9948L316.096 44.0091L316.313 42.0209L316.182 42.0066L315.965 43.9948ZM315.85 43.9824L315.966 43.9949L316.181 42.0064L316.065 41.9939L315.85 43.9824ZM220.17 430.829C242.401 299.525 270.285 169.524 316.896 43.3346L315.019 42.6417C268.347 169.001 240.437 299.142 218.198 430.495L220.17 430.829ZM213.16 392.482C214.38 405.305 216.078 418.025 218.197 430.825L220.17 430.499C218.058 417.74 216.366 405.065 215.151 392.293L213.16 392.482ZM214.344 381.007C213.493 384.672 212.806 388.714 213.159 392.481L215.151 392.294C214.829 388.86 215.453 385.077 216.292 381.459L214.344 381.007ZM240.854 268.603C232.005 306.068 223.155 343.534 214.344 381.004L216.291 381.462C225.101 343.992 233.951 306.528 242.801 269.063L240.854 268.603ZM278.216 109.947C265.837 162.838 253.346 215.719 240.854 268.603L242.801 269.063C255.292 216.179 267.784 163.296 280.163 110.402L278.216 109.947ZM290.416 53.7378C286.498 72.5112 282.583 91.2759 278.216 109.947L280.163 110.402C284.537 91.7041 288.457 72.9158 292.373 54.1463L290.416 53.7378ZM290.415 53.7399L290.415 53.7416L292.374 54.1426L292.375 54.1409L290.415 53.7399ZM290.416 53.7382L290.415 53.7399L292.375 54.1409L292.375 54.1392L290.416 53.7382ZM290.416 53.7365L290.416 53.7382L292.375 54.1392L292.375 54.1375L290.416 53.7365ZM290.416 53.7348L290.416 53.7365L292.375 54.1375L292.376 54.1358L290.416 53.7348ZM294.9 32.3679C293.389 39.4855 291.903 46.6089 290.417 53.731L292.375 54.1395C293.861 47.0169 295.347 39.8969 296.857 32.7832L294.9 32.3679ZM295.164 28.6975C295.152 30.0202 295.139 31.22 294.9 32.3722L296.858 32.7789C297.144 31.4014 297.153 30.0025 297.164 28.7147L295.164 28.6975ZM295.171 28.8255L295.171 28.8257L297.157 28.5865L297.156 28.5863L295.171 28.8255ZM295.208 26.7863C295.174 27.4335 295.169 28.0789 295.164 28.6973L297.164 28.7145C297.169 28.0887 297.174 27.4872 297.206 26.891L295.208 26.7863ZM295.181 27.7601C295.492 27.7859 295.809 27.8121 296.134 27.836L296.28 25.8414C295.966 25.8183 295.659 25.7929 295.347 25.7669L295.181 27.7601ZM294.248 27.6856C294.562 27.7087 294.869 27.7342 295.181 27.7601L295.347 25.7669C295.035 25.7411 294.719 25.7149 294.394 25.691L294.248 27.6856ZM293.617 32.214C294.169 30.4729 294.722 28.7318 295.274 26.9907L293.368 26.386C292.815 28.127 292.263 29.8679 291.71 31.609L293.617 32.214ZM246.815 197.965C258.805 141.92 276.207 87.0773 293.617 32.214L291.71 31.609C274.306 86.4567 256.873 141.391 244.86 197.547L246.815 197.965ZM222.446 319.318C230.294 278.927 238.171 238.386 246.815 197.965L244.859 197.547C236.21 237.989 228.33 278.549 220.483 318.936L222.446 319.318ZM222.448 319.308L222.448 319.306L220.481 318.947L220.481 318.949L222.448 319.308ZM212.13 372.075C215.604 354.535 219.022 336.941 222.446 319.319L220.483 318.937C217.059 336.56 213.641 354.151 210.168 371.686L212.13 372.075ZM208.848 365.354C209.315 367.616 209.774 369.842 210.165 372.054L212.134 371.707C211.738 369.462 211.273 367.207 210.807 364.95L208.848 365.354ZM208.847 365.346L208.848 365.352L210.807 364.951L210.806 364.945L208.847 365.346ZM208.85 365.361L208.85 365.362L210.803 364.929L210.802 364.928L208.85 365.361ZM207.576 334.63C204.794 345.769 206.888 355.854 208.847 365.346L210.806 364.942C208.838 355.405 206.86 345.751 209.516 335.115L207.576 334.63ZM244.126 116.859C241.474 190.542 225.546 262.634 207.576 334.63L209.516 335.115C227.49 263.103 243.465 190.837 246.125 116.931L244.126 116.859ZM249.333 69.9789C247.015 85.5791 244.687 101.243 244.126 116.859L246.125 116.931C246.681 101.446 248.99 85.8927 251.311 70.2728L249.333 69.9789ZM249.342 69.9248L249.342 69.9254L251.302 70.3263L251.302 70.3258L249.342 69.9248ZM252.436 47.8474C251.526 55.2144 250.431 62.5894 249.333 69.9783L251.311 70.2722C252.408 62.8874 253.508 55.488 254.421 48.0923L252.436 47.8474ZM252.8 42.0303C252.738 44.0117 252.677 45.9365 252.436 47.8443L254.42 48.0953C254.675 46.0779 254.738 44.0585 254.799 42.0927L252.8 42.0303ZM252.801 42.001L252.801 42.0016L254.798 42.1214L254.798 42.1209L252.801 42.001ZM252.8 42.0648L252.8 42.0654L254.8 42.0565L254.8 42.0559L252.8 42.0648ZM252.91 39.1839C252.859 40.1374 252.829 41.0897 252.8 42.0291L254.799 42.0916C254.829 41.1486 254.858 40.2178 254.907 39.2893L252.91 39.1839ZM252.813 40.1291C253.14 40.1653 253.48 40.2029 253.821 40.2328L253.995 38.2404C253.681 38.2129 253.363 38.1778 253.032 38.1412L252.813 40.1291ZM252.804 40.1281L252.807 40.1285L253.038 38.1418L253.034 38.1414L252.804 40.1281ZM252.427 40.0869C252.554 40.1005 252.68 40.1145 252.809 40.1287L253.029 38.1408C252.901 38.1266 252.771 38.1123 252.64 38.0983L252.427 40.0869ZM251.842 40.0291C252.034 40.0459 252.229 40.0657 252.427 40.0869L252.64 38.0983C252.435 38.0764 252.227 38.0551 252.017 38.0367L251.842 40.0291ZM250.244 47.8589C251.135 45.0203 252.029 42.1746 252.887 39.3208L250.972 38.745C250.118 41.5851 249.228 44.419 248.336 47.2595L250.244 47.8589ZM250.237 47.8801L250.237 47.8797L248.343 47.2387L248.342 47.2392L250.237 47.8801ZM244.91 66.0148C246.451 59.9334 248.342 53.9126 250.244 47.8593L248.336 47.26C246.437 53.3041 244.529 59.3784 242.971 65.5235L244.91 66.0148ZM227.819 171.461C231.447 135.974 236.067 100.811 244.91 66.0154L242.972 65.5228C234.092 100.462 229.46 135.741 225.83 171.257L227.819 171.461ZM215.501 267.485C220.022 235.51 224.545 203.515 227.819 171.461L225.83 171.258C222.56 203.267 218.043 235.223 213.521 267.205L215.501 267.485ZM215.491 267.545L215.491 267.545L213.532 267.144L213.532 267.145L215.491 267.545ZM215.491 267.546L215.491 267.545L213.532 267.145L213.532 267.145L215.491 267.546ZM215.503 267.474L215.503 267.474L213.52 267.217L213.519 267.217L215.503 267.474ZM215.503 267.475L215.503 267.474L213.519 267.217L213.519 267.218L215.503 267.475ZM209.534 310.493C211.448 296.155 213.474 281.823 215.501 267.486L213.521 267.206C211.494 281.541 209.467 295.882 207.552 310.228L209.534 310.493ZM207.656 325.971C208.246 320.804 208.836 315.642 209.534 310.495L207.552 310.226C206.851 315.398 206.259 320.58 205.669 325.744L207.656 325.971ZM207.657 325.963L207.657 325.96L205.668 325.755L205.667 325.758L207.657 325.963ZM206.83 333.105C207.112 330.729 207.384 328.351 207.656 325.974L205.669 325.747C205.397 328.125 205.126 330.499 204.844 332.869L206.83 333.105ZM198.023 286.009C195.343 302.929 199.673 318.191 204.892 333.313L206.782 332.661C201.576 317.575 197.401 302.719 199.998 286.322L198.023 286.009ZM201.389 260.141C200.44 268.785 199.395 277.413 198.023 286.008L199.998 286.323C201.378 277.681 202.426 269.015 203.377 260.359L201.389 260.141ZM212.898 152.858C209.082 188.627 205.266 224.381 201.389 260.142L203.377 260.358C207.255 224.595 211.07 188.839 214.887 153.07L212.898 152.858ZM212.903 152.817L212.898 152.857L214.887 153.07L214.891 153.03L212.903 152.817ZM214.296 139.762L212.903 152.818L214.891 153.03L216.285 139.974L214.296 139.762ZM216.136 21.0206C219.845 60.3308 218.54 99.945 214.296 139.762L216.285 139.974C220.538 100.063 221.851 60.3103 218.127 20.8327L216.136 21.0206ZM215.286 15.2713C215.623 17.21 215.953 19.1072 216.136 21.0218L218.127 20.8315C217.936 18.8275 217.592 16.8545 217.256 14.9284L215.286 15.2713ZM215.29 15.2936L215.29 15.2939L217.252 14.9059L217.252 14.9056L215.29 15.2936ZM214.818 12.485C214.964 13.419 215.126 14.3498 215.286 15.2711L217.256 14.9281C217.096 14.0039 216.937 13.0905 216.794 12.1769L214.818 12.485ZM215.18 13.4589C215.447 13.4124 215.721 13.3645 215.991 13.3137L215.621 11.3482C215.366 11.3962 215.105 11.4418 214.836 11.4888L215.18 13.4589ZM214.879 13.5118C214.979 13.4941 215.079 13.4766 215.18 13.4589L214.836 11.4887C214.735 11.5064 214.633 11.5242 214.531 11.5422L214.879 13.5118ZM214.584 13.5646C214.681 13.5468 214.78 13.5293 214.879 13.5117L214.531 11.5422C214.429 11.5602 214.327 11.5784 214.225 11.597L214.584 13.5646ZM214.533 13.574L214.585 13.5645L214.224 11.5972L214.173 11.6066L214.533 13.574ZM214.395 13.5995C214.441 13.5909 214.487 13.5824 214.533 13.5739L214.172 11.6067C214.124 11.6156 214.075 11.6247 214.026 11.6338L214.395 13.5995ZM206.384 104.821C209.699 74.1266 213.016 43.4147 215.208 12.6878L213.213 12.5455C211.024 43.23 207.711 73.9057 204.395 104.607L206.384 104.821ZM195.231 281.262C193.687 222.392 200.031 163.638 206.384 104.821L204.395 104.607C198.045 163.401 191.683 222.288 193.232 281.314L195.231 281.262ZM186.921 255.304C186.385 264.955 189.288 273.443 193.333 281.727L195.13 280.849C191.152 272.702 188.409 264.575 188.918 255.415L186.921 255.304ZM187.216 249.981L186.921 255.304L188.918 255.415L189.213 250.092L187.216 249.981ZM190.117 196.253C189.198 214.167 188.207 232.062 187.216 249.981L189.213 250.092C190.204 232.173 191.195 214.274 192.115 196.355L190.117 196.253ZM187.995 42.3587C193.615 93.1814 192.731 144.63 190.117 196.254L192.115 196.355C194.73 144.697 195.621 93.122 189.983 42.1389L187.995 42.3587ZM187.412 38.5626C187.641 39.8505 187.862 41.0953 187.995 42.3535L189.984 42.1441C189.843 40.8032 189.608 39.4884 189.381 38.2121L187.412 38.5626ZM187.415 38.5811L187.415 38.5813L189.378 38.1934L189.377 38.1931L187.415 38.5811ZM187.413 38.5657L187.413 38.5683L189.38 38.2059L189.379 38.2033L187.413 38.5657ZM187.167 37.1584C187.246 37.6288 187.329 38.097 187.411 38.5598L189.38 38.2092C189.298 37.7451 189.216 37.2859 189.139 36.8262L187.167 37.1584ZM187.455 38.1069C187.741 38.0629 188.017 38.0204 188.289 37.9829L188.016 36.0016C187.726 36.0416 187.434 36.0866 187.151 36.1302L187.455 38.1069ZM186.59 38.2354C186.88 38.1954 187.172 38.1504 187.455 38.1069L187.151 36.1302C186.865 36.1742 186.589 36.2167 186.317 36.2541L186.59 38.2354ZM182.134 236.609C176.459 170.419 179.073 104.023 187.445 37.3694L185.461 37.1201C177.075 103.884 174.452 170.425 180.141 236.78L182.134 236.609ZM167.425 198.506L180.188 237.009L182.087 236.38L169.324 197.877L167.425 198.506ZM168.599 199.185L168.776 199.107L167.973 197.276L167.795 197.354L168.599 199.185ZM168.335 199.301L168.6 199.185L167.795 197.354L167.53 197.47L168.335 199.301ZM167.53 199.656C167.799 199.537 168.065 199.42 168.335 199.301L167.529 197.471C167.259 197.59 166.991 197.708 166.723 197.826L167.53 199.656ZM167.119 199.837L167.529 199.656L166.723 197.826L166.313 198.006L167.119 199.837ZM166.826 199.966L167.118 199.837L166.314 198.006L166.022 198.134L166.826 199.966ZM175.308 226.505C172.666 217.263 170.024 208.022 167.386 198.776L165.462 199.324C168.101 208.571 170.743 217.813 173.385 227.055L175.308 226.505ZM183.231 254.236C180.592 244.989 177.95 235.747 175.308 226.505L173.385 227.055C176.027 236.297 178.669 245.538 181.308 254.785L183.231 254.236ZM182.062 255.866C182.326 255.68 182.571 255.508 182.816 255.348L181.722 253.674C181.444 253.855 181.171 254.047 180.912 254.23L182.062 255.866ZM182.075 255.857L182.075 255.856L180.898 254.239L180.898 254.239L182.075 255.857ZM182.037 255.883L182.037 255.882L180.935 254.213L180.935 254.214L182.037 255.883ZM181.521 256.242C181.706 256.116 181.888 255.988 182.061 255.866L180.911 254.23C180.736 254.353 180.566 254.472 180.394 254.589L181.521 256.242ZM178.949 254.714C179.378 255.174 179.801 255.626 180.215 256.086L181.7 254.746C181.272 254.272 180.838 253.807 180.411 253.349L178.949 254.714ZM176.393 251.848C177.216 252.858 178.096 253.8 178.949 254.714L180.411 253.349C179.551 252.428 178.717 251.534 177.943 250.585L176.393 251.848ZM97.6568 172.157C127.302 194.994 152.523 222.687 176.394 251.85L177.941 250.583C154.034 221.376 128.7 193.547 98.8774 170.573L97.6568 172.157ZM54.4658 141.276C69.2552 150.966 83.6241 161.35 97.657 172.157L98.8773 170.573C84.8127 159.741 70.4019 149.326 55.5619 139.603L54.4658 141.276ZM39.3902 134.211C44.7059 136.276 49.9016 138.299 54.4676 141.277L55.5601 139.602C50.79 136.491 45.3942 134.398 40.1146 132.347L39.3902 134.211ZM39.4052 134.216L39.4059 134.217L40.0989 132.341L40.0981 132.34L39.4052 134.216ZM32.1256 131.269C34.5168 132.317 36.9651 133.269 39.3895 134.211L40.1138 132.346C37.6826 131.402 35.2744 130.466 32.9289 129.437L32.1256 131.269ZM32.9686 131.535C33.104 131.319 33.2424 131.099 33.379 130.877L31.6755 129.829C31.5445 130.042 31.4112 130.254 31.2749 130.471L32.9686 131.535ZM32.9716 131.53L32.9717 131.53L31.2718 130.476L31.2717 130.476L32.9716 131.53ZM32.9715 131.53L32.9716 131.53L31.2717 130.476L31.2716 130.477L32.9715 131.53ZM32.9714 131.53L32.9715 131.53L31.2716 130.477L31.2715 130.477L32.9714 131.53ZM32.1882 132.812C32.4328 132.388 32.6948 131.971 32.9683 131.535L31.2746 130.472C31.0043 130.902 30.7225 131.351 30.4562 131.812L32.1882 132.812ZM37.3616 136.919C35.5963 135.136 33.8233 133.346 32.0187 131.594L30.6257 133.029C32.4138 134.765 34.173 136.541 35.9406 138.326L37.3616 136.919ZM37.3413 136.899L37.341 136.898L35.9611 138.346L35.9614 138.346L37.3413 136.899ZM48.9915 147.973C44.9305 144.56 41.1642 140.758 37.3619 136.919L35.9409 138.326C39.7321 142.154 43.562 146.022 47.7046 149.504L48.9915 147.973ZM172.862 251.669C131.53 217.16 90.2109 182.632 48.9916 147.973L47.7045 149.504C88.9266 184.165 130.248 218.695 171.581 253.205L172.862 251.669ZM189.997 281.413C188.32 268.526 181.961 259.267 172.862 251.669L171.581 253.205C180.385 260.556 186.416 269.39 188.013 281.671L189.997 281.413ZM193.777 301.502C192.314 294.812 190.863 288.171 189.997 281.415L188.013 281.669C188.892 288.527 190.363 295.254 191.823 301.929L193.777 301.502ZM193.798 301.651L193.798 301.651L191.802 301.78L191.802 301.78L193.798 301.651ZM193.798 301.651L193.798 301.651L191.802 301.78L191.802 301.78L193.798 301.651ZM193.798 301.652L193.798 301.651L191.802 301.78L191.802 301.78L193.798 301.652ZM193.798 301.652L193.798 301.652L191.802 301.78L191.802 301.781L193.798 301.652ZM195.754 310.823C195.133 307.704 194.454 304.598 193.777 301.503L191.823 301.93C192.501 305.028 193.176 308.116 193.792 311.213L195.754 310.823ZM201.154 338.293C199.364 329.135 197.574 319.974 195.754 310.823L193.792 311.213C195.612 320.361 197.401 329.518 199.191 338.677L201.154 338.293ZM199.122 340.172C199.627 339.898 200.116 339.632 200.621 339.378L199.723 337.592C199.185 337.862 198.669 338.142 198.168 338.414L199.122 340.172ZM196.271 338.599C196.858 339.084 197.431 339.556 197.984 340.043L199.306 338.543C198.725 338.03 198.127 337.537 197.544 337.056L196.271 338.599ZM192.637 335.287C193.756 336.527 195.047 337.59 196.271 338.599L197.544 337.056C196.299 336.03 195.125 335.06 194.122 333.947L192.637 335.287ZM104.709 259.341C137.068 280.994 166.318 306.284 192.639 335.289L194.12 333.945C167.691 304.821 138.317 279.423 105.821 257.678L104.709 259.341ZM45.7178 217.69C65.1935 231.808 84.7036 245.95 104.708 259.34L105.821 257.678C85.8523 244.312 66.3724 230.192 46.8916 216.071L45.7178 217.69ZM45.686 217.667L45.7173 217.69L46.8921 216.071L46.8607 216.049L45.686 217.667ZM45.6033 217.607L45.6866 217.668L46.8601 216.048L46.7768 215.988L45.6033 217.607ZM45.5693 217.583L45.6036 217.608L46.7765 215.988L46.7423 215.963L45.5693 217.583ZM45.535 217.558L45.569 217.583L46.7426 215.963L46.7086 215.938L45.535 217.558ZM37.6943 211.877C40.3082 213.769 42.9212 215.663 45.5349 217.558L46.7087 215.938C44.0951 214.044 41.4815 212.149 38.8669 210.257L37.6943 211.877ZM23.1074 200.061C27.8407 204.12 32.6155 208.215 37.6957 211.878L38.8655 210.256C33.865 206.65 29.1536 202.611 24.4093 198.543L23.1074 200.061ZM23.0905 200.046L23.0906 200.047L24.426 198.558L24.4258 198.558L23.0905 200.046ZM23.1202 200.072L23.1208 200.073L24.3955 198.531L24.3949 198.531L23.1202 200.072ZM23.1196 200.072L23.1202 200.072L24.3949 198.531L24.3942 198.53L23.1196 200.072ZM23.1189 200.071L23.1196 200.072L24.3942 198.53L24.3936 198.53L23.1189 200.071ZM23.1183 200.07L23.1189 200.071L24.3936 198.53L24.3929 198.529L23.1183 200.07ZM16.785 194.7C18.9046 196.457 21.0006 198.255 23.1047 200.059L24.4066 198.541C22.3046 196.738 20.1961 194.93 18.0616 193.16L16.785 194.7ZM16.0199 195.871C16.6496 195.508 17.2667 195.153 17.9003 194.809L16.9463 193.051C16.2871 193.409 15.6483 193.777 15.0221 194.137L16.0199 195.871ZM16.8822 197.104C16.7823 196.35 16.675 195.533 16.4938 194.772L14.5482 195.236C14.7014 195.879 14.7967 196.591 14.8995 197.367L16.8822 197.104ZM17.9584 200.903C17.6623 200.551 17.4396 200.048 17.267 199.372C17.0944 198.696 16.9925 197.937 16.8822 197.104L14.8995 197.367C15.0064 198.173 15.1219 199.055 15.3292 199.867C15.5366 200.679 15.8564 201.512 16.428 202.191L17.9584 200.903ZM20.2666 203.62C19.4964 202.713 18.7259 201.806 17.9549 200.899L16.4314 202.195C17.2018 203.101 17.9717 204.008 18.7421 204.915L20.2666 203.62ZM63.5811 246.836C46.9188 235.001 33.6196 219.346 20.2667 203.62L18.7421 204.915C32.0665 220.607 45.5221 236.462 62.423 248.467L63.5811 246.836ZM195.178 339.552C151.26 308.732 107.327 277.903 63.5811 246.836L62.4231 248.467C106.175 279.537 150.112 310.37 194.029 341.189L195.178 339.552ZM195.174 339.549L195.173 339.549L194.033 341.192L194.034 341.192L195.174 339.549ZM195.997 340.127L195.179 339.552L194.03 341.19L194.848 341.764L195.997 340.127ZM203.352 351.821C202.655 346.477 200.08 342.99 195.997 340.127L194.848 341.764C198.559 344.366 200.757 347.389 201.369 352.08L203.352 351.821ZM205.655 368.003C204.854 362.613 204.053 357.23 203.352 351.822L201.369 352.079C202.073 357.509 202.876 362.91 203.677 368.297L205.655 368.003ZM208.46 388.22C207.653 381.445 206.653 374.718 205.655 368.003L203.677 368.297C204.676 375.017 205.671 381.715 206.474 388.457L208.46 388.22ZM212.732 427.497C211.37 414.401 210.009 401.299 208.46 388.221L206.474 388.456C208.021 401.517 209.381 414.605 210.742 427.703L212.732 427.497ZM212.732 427.505L212.732 427.501L210.742 427.699L210.742 427.703L212.732 427.505ZM225.889 480.989L225.888 480.998L227.886 481.094L227.887 481.085L225.889 480.989ZM228.148 480.11C227.751 480.084 227.347 480.059 226.939 480.038L226.837 482.035C227.23 482.055 227.622 482.08 228.021 482.106L228.148 480.11ZM228.213 480.116L228.213 480.116L227.956 482.099L227.956 482.099L228.213 480.116ZM229.352 480.181C228.952 480.161 228.554 480.135 228.148 480.11L228.022 482.106C228.425 482.131 228.836 482.157 229.25 482.178L229.352 480.181ZM344.032 42.2446C318.195 191.212 277.359 336.92 228.354 480.857L230.248 481.502C279.275 337.498 320.143 191.685 346.003 42.5864L344.032 42.2446ZM338.88 61.0251C340.898 54.837 342.942 48.7237 345.909 42.8675L344.125 41.9635C341.079 47.9748 338.993 54.2261 336.978 60.4051L338.88 61.0251ZM262.889 324.428C285.799 236.06 310.398 148.062 338.88 61.0261L336.979 60.4041C308.479 147.494 283.869 235.535 260.953 323.926L262.889 324.428ZM238.123 429.64C245.987 394.472 253.85 359.316 262.889 324.427L260.953 323.926C251.904 358.852 244.034 394.041 236.171 429.203L238.123 429.64ZM238.122 429.645L238.122 429.645L236.172 429.198L236.172 429.199L238.122 429.645ZM238.117 429.665L238.117 429.665L236.177 429.179L236.177 429.179L238.117 429.665ZM238.121 429.646L238.121 429.645L236.172 429.199L236.172 429.2L238.121 429.646ZM228.271 473.301C231.611 458.76 234.867 444.2 238.122 429.641L236.171 429.205C232.915 443.764 229.66 458.319 226.322 472.853L228.271 473.301ZM227.922 478.406C227.914 476.587 227.911 474.904 228.272 473.296L226.321 472.857C225.901 474.724 225.914 476.636 225.922 478.415L227.922 478.406ZM227.921 478.356L227.921 478.356L225.924 478.465L225.924 478.466L227.921 478.356ZM227.887 481.085C227.93 480.183 227.926 479.279 227.922 478.407L225.922 478.415C225.926 479.297 225.93 480.148 225.889 480.988L227.887 481.085ZM226.818 482.034L226.837 482.035L226.938 480.038L226.919 480.037L226.818 482.034ZM227.387 480.18L227.369 480.17L226.369 481.902L226.387 481.912L227.387 480.18ZM4.9757 239.4C75.2049 267.283 129.731 316.964 184.406 366.794L185.754 365.315C131.123 315.526 76.337 265.581 5.71371 237.542L4.9757 239.4ZM7.29389 239.434C6.92977 238.914 6.54208 238.361 6.12181 237.842L4.56759 239.1C4.93665 239.556 5.2847 240.052 5.65613 240.582L7.29389 239.434ZM9.63281 242.159C8.76885 241.522 8.08749 240.566 7.29389 239.434L5.65613 240.582C6.40772 241.654 7.27073 242.902 8.44545 243.769L9.63281 242.159ZM21.7136 250.988C17.6683 248.064 13.6298 245.144 9.63747 242.163L8.44079 243.765C12.4476 246.757 16.4986 249.686 20.5418 252.609L21.7136 250.988ZM37.8228 262.862C32.5208 258.802 27.111 254.891 21.7136 250.988L20.5418 252.609C25.943 256.514 31.3303 260.409 36.6069 264.45L37.8228 262.862ZM54.9938 275.791C49.2481 271.5 43.508 267.212 37.8226 262.862L36.6071 264.45C42.3034 268.809 48.0528 273.103 53.797 277.393L54.9938 275.791ZM99.5219 310.967C85.3177 298.439 70.1357 287.1 54.9938 275.791L53.797 277.393C68.9498 288.711 84.0659 300.002 98.199 312.467L99.5219 310.967ZM197.888 381.359C161.97 362.467 130.048 337.887 99.5219 310.967L98.199 312.467C128.786 339.441 160.843 364.134 196.957 383.129L197.888 381.359ZM201.632 383.041C200.324 382.505 199.075 381.992 197.893 381.362L196.952 383.127C198.238 383.812 199.581 384.362 200.873 384.891L201.632 383.041ZM203.467 383.809C202.853 383.542 202.236 383.289 201.632 383.041L200.873 384.891C201.481 385.141 202.078 385.385 202.668 385.643L203.467 383.809ZM203.084 382.697L202.201 384.226L203.933 385.226L204.816 383.697L203.084 382.697ZM184.406 366.794C190.688 372.519 196.972 378.246 203.28 383.939L204.62 382.455C198.316 376.765 192.036 371.041 185.754 365.315L184.406 366.794ZM53.4022 189.717C94.4451 227.028 135.587 264.433 184.286 292.12L185.275 290.382C136.8 262.822 95.8179 225.573 54.7475 188.237L53.4022 189.717ZM53.3939 189.709L53.3945 189.71L54.7553 188.244L54.7547 188.244L53.3939 189.709ZM22.3709 161.769C32.7909 170.98 43.0931 180.345 53.4016 189.717L54.7469 188.237C44.4401 178.867 34.1276 169.492 23.6955 160.271L22.3709 161.769ZM24.0476 158.094L22.2447 160.405L23.8217 161.635L25.6246 159.324L24.0476 158.094ZM185.541 290.602C139.594 236.726 85.4482 193.435 25.3456 157.849L24.3266 159.57C84.2683 195.061 138.236 238.216 184.02 291.9L185.541 290.602Z" fill="#638899" mask="url(#path-1-inside-1_934_2969)"/>
</svg>
