<svg width="440" height="370" viewBox="0 0 440 370" fill="none" xmlns="http://www.w3.org/2000/svg">
<mask id="path-1-inside-1_898_3149" fill="white">
<path fill-rule="evenodd" clip-rule="evenodd" d="M358.885 38.4714C360.294 37.1975 361.703 35.9238 363.153 34.7042V34.6401C362.595 33.9355 362.038 33.2095 361.481 32.4835L361.481 32.4831C345.732 41.1663 329.983 49.8383 314.403 58.4172C308.525 61.6543 302.67 64.8781 296.849 68.0843C297.2 67.4464 297.55 66.8022 297.901 66.1546C301.747 59.0613 305.811 51.5691 315.451 47.753C322.209 45.0834 328.596 41.3887 334.727 37.5659C338.388 35.2724 341.763 32.5943 345.14 29.9148C346.668 28.702 348.197 27.4889 349.752 26.3111C349.555 26.0655 349.363 25.8199 349.172 25.5743C348.98 25.3287 348.789 25.0831 348.591 24.8375C339.72 27.3289 332.057 31.9177 324.335 36.5414C320.474 38.8537 316.597 41.1749 312.548 43.2467C314.613 40.1535 316.815 37.1303 319.012 34.1128C326.522 23.7965 333.985 13.5462 335.818 0.790188C335.563 0.662049 335.301 0.528572 335.04 0.395094C334.779 0.261617 334.518 0.128139 334.262 0C329.863 6.86342 325.471 13.7268 321.023 20.6761C316.877 27.155 312.682 33.7086 308.391 40.4063C307.637 37.5777 307.109 34.7215 306.586 31.8907C305.157 24.1633 303.764 16.6257 297.917 10.3579C298.451 20.7157 299.519 30.9668 301.354 41.1111C303.073 50.5934 299.659 62.1045 292.575 67.529C292.647 64.1553 292.825 60.7714 293.003 57.3868C293.754 43.138 294.505 28.8767 287.28 15.3126C283.239 29.5573 281.544 43.8447 283.774 58.4952C284.669 64.3204 285.142 70.1876 285.577 75.5814C285.763 77.88 285.941 80.0927 286.142 82.1795C287.942 81.2862 289.866 80.3767 291.858 79.4342C296.344 77.3125 301.184 75.0239 305.767 72.3769C320.374 63.9198 334.889 55.2918 349.125 46.3221C352.672 44.0889 355.779 41.2797 358.885 38.4714ZM217.469 173.666L217.47 173.671L217.423 173.692L217.469 173.666ZM217.469 173.666C214.661 151.064 224.344 52.5145 231.032 36.1352C235.329 58.5808 236.815 80.2575 233.726 101.785C231.594 116.731 228.483 131.564 225.419 146.175C224.079 152.566 222.747 158.916 221.51 165.213C221.046 165.534 221.882 165.171 222.37 164.594C224.283 162.298 226.224 160.018 228.165 157.739C233.408 151.582 238.652 145.423 243.364 138.924C246.081 135.186 247.986 130.167 248.009 125.704C248.151 109.664 248.007 93.6243 247.862 77.5844C247.77 67.3772 247.679 57.17 247.661 46.9629C247.661 41.1753 248.52 35.3877 249.635 29.6642C262.547 61.2503 261.943 93.0927 253.722 125.789C254.303 125.053 254.869 124.305 255.434 123.556L255.434 123.555C256.788 121.762 258.141 119.969 259.714 118.357C270.025 107.807 271.697 95.8691 269.862 81.966C268.144 68.8442 267.782 55.5651 267.421 42.2917C267.284 37.2672 267.147 32.2435 266.936 27.2295C266.82 24.7095 267.494 22.1681 268.423 19.6053C276.76 43.1614 281.358 67.0165 275.599 93.0073C277.466 91.7373 278.825 90.8086 280.205 89.8653C280.867 89.4128 281.534 88.9569 282.264 88.4584L282.264 88.459L282.263 88.4633C281.892 90.2548 281.613 91.5999 281.126 93.8402C306.115 79.6809 330.453 65.8847 354.792 52.067C354.955 52.2379 355.123 52.4034 355.291 52.5689L355.292 52.5691C355.46 52.7345 355.628 52.9 355.791 53.0708C354.391 54.3583 353.022 55.6791 351.654 57.0001L351.654 57.0002L351.653 57.0006L351.652 57.0014C348.64 59.909 345.627 62.8172 342.274 65.3721C322.697 80.2789 302.097 93.6907 277.852 101.593C275.854 102.255 273.625 103.344 272.417 104.86C268.748 109.509 265.276 114.283 261.929 118.884L261.928 118.885L261.926 118.889L261.908 118.913C260.665 120.622 259.44 122.307 258.227 123.953C266.71 119.404 275.204 114.849 283.725 110.28L283.888 110.192C309.28 96.5753 334.906 82.8326 361.155 68.7678C360.603 69.3793 360.15 69.9081 359.749 70.3751C359.073 71.1639 358.549 71.7763 357.95 72.3129C330.871 96.0399 299.45 113.979 265.404 127.477C250.71 133.311 243.351 143.751 235.706 154.595C234.845 155.818 233.979 157.046 233.099 158.273C269.46 130.461 311.831 112.794 354.213 95.1225L354.216 95.1216L354.218 95.1208L354.22 95.1199L354.222 95.119C360.914 92.3285 367.607 89.5379 374.277 86.7072C342.201 109.818 306.726 127.73 270.993 145.771L270.993 145.771L270.993 145.771L270.993 145.771L270.992 145.772C253.084 154.814 235.111 163.888 217.469 173.666ZM39.359 328.002C34.8998 331.234 30.4403 334.466 25.9889 337.709L26.0818 337.773L24.2471 336.812C43.3139 292.754 55.3903 246.88 66.6539 200.814C77.9639 154.578 82.7247 107.85 79.8914 60.3533C77.9639 62.5957 76.5704 64.9877 75.9666 67.5291C69.2781 95.6768 62.6826 123.825 56.1567 151.994C53.7579 162.348 51.28 172.69 48.8019 183.032L48.8019 183.032C37.7966 228.963 26.7898 274.901 22.7144 321.948C21.5299 335.488 17.28 346.252 3.60114 352.851C-0.277243 354.709 -1.1133 358.04 1.53422 361.991C2.75822 361.17 3.94651 360.343 5.11985 359.526L5.12238 359.525L5.12287 359.524C7.73309 357.707 10.2694 355.942 12.9603 354.41C15.0474 353.23 17.1091 351.943 19.1747 350.654C24.5106 347.324 29.8728 343.978 35.7661 342.408C57.9872 336.459 80.3156 330.823 102.643 325.187L102.644 325.187L102.645 325.186L102.646 325.186L102.647 325.186C137.232 316.456 171.816 307.726 205.997 297.837C255.018 283.645 303.608 268.162 352.189 252.684C370.352 246.896 388.515 241.109 406.697 235.391C411.059 234.01 415.238 232.145 419.417 230.28C421.379 229.404 423.341 228.528 425.323 227.702C425.222 227.474 425.12 227.242 425.019 227.01L424.939 226.826C424.845 226.609 424.751 226.393 424.657 226.178L424.604 226.058L424.556 225.951C291.879 248.696 165.285 289.572 40.4341 335.979C50.4436 327.757 60.5924 319.941 71.0664 312.487C74.0158 310.394 77.7316 309.006 81.3081 307.917C118.163 296.812 155.034 285.743 191.904 274.675C243.949 259.051 295.992 243.428 347.987 227.702C366.354 222.145 384.574 216.149 402.789 210.156L402.79 210.155L402.792 210.155L402.793 210.154L402.795 210.154C409.706 207.879 416.617 205.606 423.535 203.356C424.761 202.951 425.892 202.311 427.028 201.668L427.028 201.668C427.57 201.361 428.112 201.054 428.667 200.772C428.528 200.483 428.394 200.201 428.261 199.918C428.127 199.635 427.994 199.352 427.854 199.063C426.07 199.455 424.286 199.848 422.502 200.24C366.292 212.592 310.049 224.952 255.464 242.609C216.125 255.337 177.068 268.789 138.167 282.187L138.166 282.188C121.192 288.034 104.248 293.87 87.3231 299.631C89.0567 298.176 90.7655 296.656 92.4895 295.122L92.4944 295.118L92.4955 295.117C99.7538 288.659 107.283 281.961 118.071 278.872C189.415 258.434 259.899 236.159 325.135 201.562C338.881 194.27 353.558 188.474 368.237 182.678L368.237 182.678C375.183 179.935 382.129 177.192 388.977 174.29C390.801 173.524 392.54 172.591 394.28 171.657L394.28 171.657L394.281 171.657C395.111 171.212 395.941 170.766 396.781 170.339C396.642 170.041 396.509 169.738 396.376 169.435L396.374 169.431C396.322 169.313 396.27 169.195 396.218 169.077C396.136 168.891 396.053 168.706 395.968 168.524C393.074 169.206 390.169 169.853 387.264 170.501L387.263 170.501C381.075 171.88 374.888 173.258 368.819 174.973C334.192 184.733 301.377 198.337 268.817 212.945C239.441 226.128 209.489 238.201 179.535 250.274L179.535 250.274L179.534 250.274L179.534 250.275L179.533 250.275C166.105 255.688 152.676 261.1 139.298 266.614C134.48 268.588 129.705 270.662 124.937 272.733L124.934 272.735C122.739 273.688 120.546 274.641 118.35 275.583C128.824 263.517 139.739 252.305 155.485 246.261C163.637 243.143 171.649 239.726 179.615 236.223C212.524 221.701 245.397 207.127 278.282 192.548L278.319 192.532L290.323 187.21C326.97 170.958 361.991 152.25 394.249 129.335C395.853 128.193 397.36 126.933 398.865 125.676L398.865 125.676C399.584 125.075 400.303 124.475 401.031 123.889C400.856 123.686 400.682 123.477 400.508 123.269C400.442 123.19 400.376 123.112 400.31 123.033C400.245 122.955 400.179 122.877 400.113 122.8L400.079 122.76C400.048 122.723 400.017 122.686 399.986 122.65C372.298 136.106 344.059 148.582 315.816 161.059C261.713 184.961 207.597 208.87 157.32 239.683C162.429 232.102 168.212 225.503 176.619 221.253L181.376 218.846C197.39 210.746 213.385 202.655 229.36 194.493C275.39 170.937 320.444 145.95 361.713 115.624C362.77 114.856 363.764 114.018 364.76 113.18L364.761 113.179L364.763 113.178C365.123 112.874 365.483 112.571 365.847 112.271C365.672 112.047 365.492 111.822 365.312 111.598C365.132 111.374 364.952 111.15 364.778 110.925C302.817 137.023 243.945 167.99 189.392 206.047L216.355 175.742L216.199 175.627L215.965 175.456C215.727 175.282 215.492 175.109 215.255 174.936L214.894 174.671L214.636 174.482C207.948 181.391 201.265 188.299 194.583 195.208C187.9 202.117 181.217 209.026 174.529 215.935C174.25 215.794 173.963 215.661 173.672 215.526L173.672 215.525L173.671 215.525C173.478 215.436 173.283 215.345 173.089 215.251C173.282 214.653 173.465 214.053 173.649 213.453C174.015 212.252 174.382 211.051 174.83 209.87C188.161 174.589 199.564 138.817 204.534 101.614C206.879 84.0376 208.691 66.3758 209.689 48.6927C209.992 43.1278 209.126 37.5127 208.26 31.8956L208.26 31.8948C207.863 29.3206 207.466 26.746 207.181 24.1755C206.926 24.1684 206.671 24.1589 206.415 24.1495L206.415 24.1495L206.415 24.1494L206.415 24.1494C205.904 24.1305 205.393 24.1115 204.882 24.1115C204.27 26.539 203.609 28.9601 202.948 31.3816L202.948 31.382C201.526 36.5868 200.104 41.7934 199.169 47.0696C189.763 100.098 180.52 153.147 171.3 206.196C169.303 217.686 164.566 227.574 154.486 235.284C149.027 239.443 143.97 244.051 138.913 248.657L138.913 248.657L138.913 248.657L138.913 248.658L138.913 248.658C136.569 250.793 134.226 252.927 131.843 255.017C124.83 261.168 117.793 267.297 110.756 273.426C110.268 273.106 109.781 272.807 109.293 272.508C109.442 271.766 109.567 271.018 109.693 270.271C109.957 268.693 110.221 267.117 110.709 265.61C122.693 228.236 129.985 190.179 132.563 151.246C134.156 127.248 136.646 103.299 139.135 79.3711L139.139 79.3326L139.149 79.2302L139.154 79.1882L139.158 79.1463C139.492 75.9356 139.826 72.7253 140.157 69.5152C140.785 63.333 141.935 57.1918 143.085 51.0561L143.085 51.0558L143.085 51.055L143.085 51.0542L143.085 51.0534L143.086 51.0526C143.596 48.3296 144.106 45.6077 144.57 42.8838C143.943 42.4994 143.316 42.1363 142.689 41.7732C142.164 42.2691 141.553 42.7391 140.941 43.2092C139.63 44.2171 138.317 45.226 137.858 46.493C137.459 47.6135 137.058 48.734 136.658 49.8548C129.723 69.261 122.767 88.7235 120.835 109.217C115.804 162.639 111.07 216.103 106.339 269.546L106.339 269.547L106.25 270.543C105.832 275.284 104.207 278.979 100.189 282.054C95.8469 285.372 91.5784 288.762 87.3119 292.151C81.9942 296.374 76.6795 300.595 71.2289 304.671C60.6843 312.546 50.0242 320.272 39.3626 327.999L39.359 328.002ZM0.651739 367.843L0.66039 367.839C0.84308 368.196 1.02023 368.553 1.19738 368.911L1.1975 368.911C1.37748 369.274 1.55747 369.637 1.74326 370C150.933 340.464 297.592 302.962 439.582 250.831C432.94 251.194 426.554 252.497 420.19 253.842C330.546 272.7 242.017 295.402 154.022 319.748C119.269 329.369 84.8762 340.143 50.4902 350.916L50.4896 350.916L50.4893 350.916L50.4887 350.916C36.2524 355.376 22.0172 359.835 7.75823 364.212C6.0588 364.743 4.5059 365.649 2.95198 366.555L2.95156 366.556C2.19379 366.998 1.43577 367.44 0.66039 367.839L0.651739 367.822V367.843ZM79.334 274.141C95.144 201.905 110.955 129.665 99.9569 54.6939C99.7322 55.2793 99.4616 55.8603 99.1911 56.4412C98.6228 57.6614 98.0548 58.881 97.9132 60.1397C97.3264 65.0968 96.8163 70.0618 96.3062 75.0262C95.6252 81.654 94.9443 88.2808 94.0812 94.8866C93.1553 101.993 92.3118 109.113 91.4683 116.234C89.2444 135.008 87.0201 153.785 83.2822 172.304C75.2235 212.24 69.882 252.262 71.4845 292.925C71.532 294.323 71.7198 295.711 71.9082 297.102C71.9961 297.752 72.0841 298.402 72.158 299.054H73.923C75.6995 290.747 77.5167 282.444 79.334 274.141ZM143.966 236.48C143.595 180.591 155.391 126.366 167.185 72.1485L167.185 72.1477C170.146 58.5358 173.107 44.9244 175.876 31.2871L178.779 31.6929C178.012 101.443 167.608 169.869 143.966 236.48Z"/>
</mask>
<path d="M363.153 34.7042L363.796 35.4693L364.153 35.1697V34.7042H363.153ZM358.885 38.4714L359.556 39.2132V39.2132L358.885 38.4714ZM363.153 34.6401H364.153V34.2925L363.937 34.0198L363.153 34.6401ZM361.481 32.4835L360.664 33.0602L360.675 33.0765L360.688 33.0924L361.481 32.4835ZM361.481 32.4831L362.297 31.9064L361.781 31.1753L360.998 31.6074L361.481 32.4831ZM314.403 58.4172L314.886 59.2932L314.403 58.4172ZM296.849 68.0843L295.973 67.6015L294.305 70.6268L297.331 68.9602L296.849 68.0843ZM297.901 66.1546L298.78 66.6313L297.901 66.1546ZM315.451 47.753L315.083 46.8229L315.083 46.8232L315.451 47.753ZM334.727 37.5659L335.256 38.4145L335.258 38.4134L334.727 37.5659ZM345.14 29.9148L345.761 30.6981V30.6981L345.14 29.9148ZM349.752 26.3111L350.356 27.1084L351.177 26.487L350.532 25.6846L349.752 26.3111ZM348.591 24.8375L349.371 24.211L348.957 23.6962L348.321 23.8748L348.591 24.8375ZM324.335 36.5414L323.822 35.6834L324.335 36.5414ZM312.548 43.2467L311.716 42.6914L309.582 45.8876L313.003 44.137L312.548 43.2467ZM319.012 34.1128L318.203 33.5242L319.012 34.1128ZM335.818 0.790188L336.808 0.932406L336.91 0.219325L336.267 -0.103669L335.818 0.790188ZM335.04 0.395094L334.585 1.28561V1.28561L335.04 0.395094ZM334.262 0L334.711 -0.893856L333.906 -1.29743L333.42 -0.539595L334.262 0ZM321.023 20.6761L321.866 21.2151V21.2151L321.023 20.6761ZM308.391 40.4063L307.425 40.6637L308.009 42.8565L309.233 40.9459L308.391 40.4063ZM306.586 31.8907L307.569 31.7089V31.7089L306.586 31.8907ZM297.917 10.3579L298.648 9.67573L296.777 7.66989L296.918 10.4094L297.917 10.3579ZM301.354 41.1111L300.37 41.2891L300.37 41.2894L301.354 41.1111ZM292.575 67.529L291.576 67.5079L291.532 69.5879L293.183 68.3229L292.575 67.529ZM293.003 57.3868L292.005 57.3341L293.003 57.3868ZM287.28 15.3126L288.163 14.8424L286.996 12.6513L286.318 15.0396L287.28 15.3126ZM283.774 58.4952L282.785 58.6457L282.785 58.6472L283.774 58.4952ZM285.577 75.5814L286.574 75.501V75.501L285.577 75.5814ZM286.142 82.1795L285.147 82.2755L285.286 83.7207L286.587 83.0753L286.142 82.1795ZM291.858 79.4342L292.286 80.3382L291.858 79.4342ZM305.767 72.3769L306.267 73.2429L306.268 73.2423L305.767 72.3769ZM349.125 46.3221L348.593 45.4758L348.592 45.476L349.125 46.3221ZM217.47 173.671L217.887 174.579L218.551 174.274L218.462 173.548L217.47 173.671ZM217.423 173.692L216.938 172.817L217.841 174.6L217.423 173.692ZM231.032 36.1352L232.014 35.9472L231.381 32.6364L230.106 35.7571L231.032 36.1352ZM233.726 101.785L232.736 101.643L232.736 101.644L233.726 101.785ZM225.419 146.175L224.44 145.97L225.419 146.175ZM221.51 165.213L222.078 166.037L222.413 165.805L222.492 165.406L221.51 165.213ZM222.37 164.594L223.133 165.24L223.138 165.234L222.37 164.594ZM228.165 157.739L227.404 157.091L228.165 157.739ZM243.364 138.924L242.555 138.336L242.554 138.337L243.364 138.924ZM248.009 125.704L247.009 125.695L247.009 125.699L248.009 125.704ZM247.862 77.5844L248.862 77.5754L247.862 77.5844ZM247.661 46.9629H246.661V46.9646L247.661 46.9629ZM249.635 29.6642L250.56 29.2858L249.293 26.1863L248.653 29.473L249.635 29.6642ZM253.722 125.789L252.752 125.546L254.507 126.409L253.722 125.789ZM255.434 123.556L256.232 124.158L256.237 124.151L256.243 124.144L255.434 123.556ZM255.434 123.555L254.636 122.953L254.631 122.96L254.625 122.967L255.434 123.555ZM259.714 118.357L258.999 117.658L258.998 117.659L259.714 118.357ZM269.862 81.966L268.871 82.0959L268.871 82.0969L269.862 81.966ZM267.421 42.2917L266.421 42.3189V42.3189L267.421 42.2917ZM266.936 27.2295L267.935 27.1876L267.935 27.1835L266.936 27.2295ZM268.423 19.6053L269.365 19.2716L268.434 16.6399L267.482 19.2645L268.423 19.6053ZM275.599 93.0073L274.622 92.791L274.077 95.2513L276.161 93.8342L275.599 93.0073ZM280.205 89.8653L280.769 90.6909V90.6909L280.205 89.8653ZM282.264 88.4584L283.254 88.5998L283.575 86.3528L281.7 87.6324L282.264 88.4584ZM282.264 88.459L283.242 88.6671L283.249 88.634L283.254 88.6004L282.264 88.459ZM282.263 88.4633L281.285 88.2552L281.284 88.2605L282.263 88.4633ZM281.126 93.8402L280.149 93.6277L279.674 95.8125L281.619 94.7103L281.126 93.8402ZM354.792 52.067L355.517 51.3778L354.978 50.8116L354.298 51.1974L354.792 52.067ZM355.291 52.5689L354.59 53.282L354.599 53.2904L354.607 53.2985L355.291 52.5689ZM355.292 52.5691L355.992 51.8559L355.984 51.8476L355.975 51.8396L355.292 52.5691ZM355.791 53.0708L356.468 53.8069L357.216 53.1184L356.515 52.3815L355.791 53.0708ZM351.654 57.0001L352.284 57.7762L352.318 57.7492L352.348 57.7195L351.654 57.0001ZM351.654 57.0002L351.023 56.2241L350.977 56.2615L350.936 56.3041L351.654 57.0002ZM351.653 57.0006L352.337 57.7301L352.355 57.7138L352.371 57.6967L351.653 57.0006ZM351.652 57.0014L350.968 56.2719L350.963 56.2769L350.958 56.282L351.652 57.0014ZM342.274 65.3721L342.88 66.1677L342.88 66.1675L342.274 65.3721ZM277.852 101.593L277.542 100.642L277.537 100.643L277.852 101.593ZM272.417 104.86L271.635 104.237L271.632 104.241L272.417 104.86ZM261.929 118.884L262.731 119.481L262.738 119.472L261.929 118.884ZM261.928 118.885L261.126 118.288L261.118 118.299L261.928 118.885ZM261.926 118.889L262.734 119.478L262.736 119.475L261.926 118.889ZM261.908 118.913L261.1 118.324L261.1 118.324L261.908 118.913ZM258.227 123.953L257.422 123.36L258.7 124.834L258.227 123.953ZM283.725 110.28L283.252 109.398L283.252 109.398L283.725 110.28ZM283.888 110.192L284.361 111.073L284.361 111.073L283.888 110.192ZM361.155 68.7678L361.897 69.4383L360.683 67.8863L361.155 68.7678ZM359.749 70.3751L358.99 69.7244L359.749 70.3751ZM357.95 72.3129L358.61 73.0651L358.618 73.0573L357.95 72.3129ZM265.404 127.477L265.035 126.547L265.034 126.547L265.404 127.477ZM235.706 154.595L234.889 154.019V154.019L235.706 154.595ZM233.099 158.273L232.287 157.69L233.707 159.067L233.099 158.273ZM354.213 95.1225L353.832 94.1982L353.829 94.1995L354.213 95.1225ZM354.222 95.119L354.604 96.0433L354.607 96.042L354.222 95.119ZM374.277 86.7072L374.861 87.5185L373.886 85.7866L374.277 86.7072ZM270.993 145.771L271.441 146.666L271.444 146.664L270.993 145.771ZM270.992 145.772L270.545 144.877L270.542 144.879L270.992 145.772ZM25.9889 337.709L25.4 336.901L24.2602 337.731L25.4211 338.532L25.9889 337.709ZM39.359 328.002L38.7758 327.189L38.7722 327.192L39.359 328.002ZM26.0818 337.773L25.6178 338.659L26.6497 336.95L26.0818 337.773ZM24.2471 336.812L23.3294 336.415L22.9606 337.267L23.7831 337.698L24.2471 336.812ZM66.6539 200.814L65.6825 200.577L65.6825 200.577L66.6539 200.814ZM79.8914 60.3533L80.8897 60.2938L80.7426 57.829L79.1331 59.7015L79.8914 60.3533ZM75.9666 67.5291L76.9395 67.7603L76.9395 67.7602L75.9666 67.5291ZM56.1567 151.994L57.1309 152.219L56.1567 151.994ZM48.8019 183.032L49.7721 183.275L49.7744 183.265L48.8019 183.032ZM48.8019 183.032L47.8317 182.79L47.8294 182.799L48.8019 183.032ZM22.7144 321.948L23.7106 322.035L23.7106 322.034L22.7144 321.948ZM3.60114 352.851L4.03319 353.753L4.03565 353.752L3.60114 352.851ZM1.53422 361.991L0.703482 362.548L1.26041 363.379L2.09127 362.822L1.53422 361.991ZM5.11985 359.526L4.55423 358.702L4.5485 358.706L5.11985 359.526ZM5.12238 359.525L5.68798 360.349L5.70622 360.337L5.72389 360.324L5.12238 359.525ZM5.12287 359.524L4.55155 358.704L4.53625 358.714L4.52137 358.725L5.12287 359.524ZM12.9603 354.41L12.4681 353.539L12.4656 353.541L12.9603 354.41ZM19.1747 350.654L18.6453 349.806L19.1747 350.654ZM35.7661 342.408L36.0236 343.374L36.0247 343.374L35.7661 342.408ZM102.643 325.187L102.888 326.157L102.909 326.151L102.93 326.145L102.643 325.187ZM102.647 325.186L102.402 324.216L102.381 324.222L102.359 324.228L102.647 325.186ZM205.997 297.837L206.275 298.797L206.275 298.797L205.997 297.837ZM352.189 252.684L352.493 253.636L352.189 252.684ZM406.697 235.391L406.997 236.344L406.999 236.344L406.697 235.391ZM419.417 230.28L419.824 231.193L419.417 230.28ZM425.323 227.702L425.707 228.625L426.651 228.232L426.237 227.297L425.323 227.702ZM425.019 227.01L424.102 227.409L424.102 227.409L425.019 227.01ZM424.939 226.826L425.856 226.427L425.856 226.427L424.939 226.826ZM424.657 226.178L425.572 225.776L425.572 225.775L424.657 226.178ZM424.604 226.058L425.519 225.655L425.518 225.653L424.604 226.058ZM424.556 225.951L425.471 225.547L425.156 224.834L424.387 224.965L424.556 225.951ZM40.4341 335.979L39.7994 335.207L40.7826 336.917L40.4341 335.979ZM71.0664 312.487L70.4877 311.672L70.4866 311.672L71.0664 312.487ZM81.3081 307.917L81.0196 306.959L81.0168 306.96L81.3081 307.917ZM191.904 274.675L192.192 275.633L191.904 274.675ZM347.987 227.702L348.277 228.659L348.277 228.659L347.987 227.702ZM402.789 210.156L403.101 211.106L403.105 211.104L402.789 210.156ZM402.795 210.154L402.483 209.204L402.479 209.205L402.795 210.154ZM423.535 203.356L423.844 204.307L423.848 204.306L423.535 203.356ZM427.028 201.668L427.521 202.538L427.577 202.507L427.628 202.468L427.028 201.668ZM427.028 201.668L426.536 200.798L426.48 200.829L426.428 200.868L427.028 201.668ZM428.667 200.772L429.121 201.663L429.993 201.218L429.567 200.337L428.667 200.772ZM427.854 199.063L428.755 198.628L428.411 197.917L427.639 198.087L427.854 199.063ZM422.502 200.24L422.717 201.216L422.502 200.24ZM255.464 242.609L255.156 241.658L255.156 241.658L255.464 242.609ZM138.167 282.187L137.841 281.242L137.831 281.245L138.167 282.187ZM138.166 282.188L138.491 283.133L138.502 283.129L138.166 282.188ZM87.3231 299.631L86.6802 298.865L87.6453 300.577L87.3231 299.631ZM92.4895 295.122L91.826 294.374L91.8248 294.375L92.4895 295.122ZM92.4944 295.118L93.1579 295.866L93.164 295.86L93.1701 295.855L92.4944 295.118ZM92.4955 295.117L91.8308 294.369L91.8252 294.374L91.8197 294.379L92.4955 295.117ZM118.071 278.872L118.347 279.834L118.347 279.834L118.071 278.872ZM325.135 201.562L325.604 202.445L325.604 202.445L325.135 201.562ZM368.237 182.678L367.92 181.729L367.895 181.738L367.869 181.748L368.237 182.678ZM368.237 182.678L368.553 183.626L368.579 183.618L368.605 183.608L368.237 182.678ZM388.977 174.29L388.59 173.368L388.587 173.369L388.977 174.29ZM394.28 171.657L393.833 170.763L393.82 170.769L393.807 170.776L394.28 171.657ZM394.28 171.657L394.728 172.552L394.757 172.537L394.784 172.521L394.28 171.657ZM394.281 171.657L393.808 170.776L393.793 170.784L393.777 170.793L394.281 171.657ZM396.781 170.339L397.234 171.23L398.095 170.792L397.687 169.916L396.781 170.339ZM396.376 169.435L395.458 169.832L395.46 169.836L396.376 169.435ZM396.374 169.431L397.292 169.034L397.29 169.029L396.374 169.431ZM396.218 169.077L397.133 168.672L397.133 168.672L396.218 169.077ZM395.968 168.524L396.874 168.101L396.53 167.363L395.738 167.55L395.968 168.524ZM387.264 170.501L387.46 171.481L387.471 171.479L387.481 171.477L387.264 170.501ZM387.263 170.501L387.067 169.52L387.057 169.522L387.046 169.525L387.263 170.501ZM368.819 174.973L369.09 175.936L369.091 175.936L368.819 174.973ZM268.817 212.945L268.408 212.033L268.408 212.033L268.817 212.945ZM179.535 250.274L179.851 251.223L179.88 251.213L179.909 251.202L179.535 250.274ZM179.534 250.274L179.218 249.326L179.184 249.337L179.15 249.351L179.534 250.274ZM179.533 250.275L179.907 251.202L179.918 251.198L179.533 250.275ZM139.298 266.614L139.677 267.539L139.679 267.538L139.298 266.614ZM124.937 272.733L124.539 271.816L124.528 271.821L124.937 272.733ZM124.934 272.735L125.333 273.652L125.343 273.647L124.934 272.735ZM118.35 275.583L117.595 274.928L118.744 276.502L118.35 275.583ZM155.485 246.261L155.128 245.327L155.127 245.327L155.485 246.261ZM179.615 236.223L180.017 237.139L180.018 237.138L179.615 236.223ZM278.282 192.548L277.878 191.634L277.877 191.634L278.282 192.548ZM278.319 192.532L278.724 193.446L278.725 193.446L278.319 192.532ZM290.323 187.21L290.728 188.125L290.728 188.125L290.323 187.21ZM394.249 129.335L394.828 130.15L394.829 130.149L394.249 129.335ZM398.865 125.676L399.506 126.444L399.515 126.436L399.524 126.429L398.865 125.676ZM398.865 125.676L398.224 124.908L398.216 124.916L398.207 124.923L398.865 125.676ZM401.031 123.889L401.658 124.667L402.461 124.02L401.789 123.237L401.031 123.889ZM400.508 123.269L399.741 123.911L399.741 123.911L400.508 123.269ZM400.31 123.033L401.076 122.39L401.076 122.39L400.31 123.033ZM400.113 122.8L400.876 122.153L400.875 122.152L400.113 122.8ZM400.079 122.76L400.841 122.112L400.841 122.112L400.079 122.76ZM399.986 122.65L400.744 121.999L400.242 121.413L399.548 121.751L399.986 122.65ZM315.816 161.059L316.22 161.974L315.816 161.059ZM157.32 239.683L156.49 239.124L157.842 240.536L157.32 239.683ZM176.619 221.253L177.07 222.145L177.07 222.145L176.619 221.253ZM181.376 218.846L180.924 217.954L180.924 217.954L181.376 218.846ZM229.36 194.493L229.815 195.384L229.816 195.383L229.36 194.493ZM361.713 115.624L361.125 114.815L361.121 114.818L361.713 115.624ZM364.76 113.18L365.404 113.945L365.412 113.938L365.419 113.932L364.76 113.18ZM364.761 113.179L364.112 112.418L364.102 112.427L364.761 113.179ZM364.763 113.178L364.118 112.413L364.114 112.417L364.763 113.178ZM365.847 112.271L366.483 113.042L367.232 112.424L366.636 111.657L365.847 112.271ZM364.778 110.925L365.568 110.312L365.097 109.706L364.39 110.004L364.778 110.925ZM189.392 206.047L188.645 205.382L189.964 206.867L189.392 206.047ZM216.355 175.742L217.102 176.407L217.832 175.587L216.947 174.936L216.355 175.742ZM216.199 175.627L216.791 174.822L216.79 174.821L216.199 175.627ZM215.965 175.456L216.557 174.65L216.557 174.65L215.965 175.456ZM215.255 174.936L214.664 175.742L214.664 175.743L215.255 174.936ZM214.894 174.671L214.302 175.477L214.302 175.478L214.894 174.671ZM214.636 174.482L215.228 173.676L214.525 173.159L213.918 173.786L214.636 174.482ZM194.583 195.208L195.301 195.903H195.301L194.583 195.208ZM174.529 215.935L174.077 216.827L174.735 217.16L175.247 216.63L174.529 215.935ZM173.672 215.526L174.093 214.619L174.086 214.615L174.078 214.612L173.672 215.526ZM173.672 215.525L173.224 216.42L173.245 216.43L173.266 216.439L173.672 215.525ZM173.671 215.525L174.119 214.631L174.106 214.624L174.092 214.618L173.671 215.525ZM173.089 215.251L172.137 214.944L171.869 215.774L172.655 216.152L173.089 215.251ZM173.649 213.453L174.605 213.745L173.649 213.453ZM174.83 209.87L175.765 210.225L175.766 210.223L174.83 209.87ZM204.534 101.614L205.525 101.746L205.525 101.746L204.534 101.614ZM209.689 48.6927L210.688 48.7491L210.688 48.747L209.689 48.6927ZM208.26 31.8956L209.248 31.7432L209.247 31.7349L209.246 31.7267L208.26 31.8956ZM208.26 31.8948L207.272 32.0472L207.273 32.0555L207.274 32.0638L208.26 31.8948ZM207.181 24.1755L208.175 24.0655L208.079 23.2002L207.209 23.1759L207.181 24.1755ZM206.415 24.1495L206.453 23.1501L206.447 23.1499L206.415 24.1495ZM206.415 24.1494L206.378 25.1488L206.384 25.149L206.415 24.1494ZM204.882 24.1115V23.1115H204.103L203.912 23.867L204.882 24.1115ZM202.948 31.3816L201.983 31.1182L201.979 31.1321L201.976 31.146L202.948 31.3816ZM202.948 31.382L203.912 31.6455L203.916 31.6316L203.919 31.6176L202.948 31.382ZM199.169 47.0696L200.154 47.2443L200.154 47.2441L199.169 47.0696ZM171.3 206.196L172.286 206.368V206.368L171.3 206.196ZM154.486 235.284L155.092 236.079L155.094 236.078L154.486 235.284ZM138.913 248.657L139.468 249.489L139.531 249.447L139.587 249.396L138.913 248.657ZM138.913 248.658L138.358 247.826L138.295 247.867L138.239 247.918L138.913 248.658ZM131.843 255.017L132.503 255.769L132.503 255.769L131.843 255.017ZM110.756 273.426L110.207 274.262L110.841 274.679L111.413 274.18L110.756 273.426ZM109.293 272.508L108.312 272.311L108.175 272.995L108.77 273.361L109.293 272.508ZM109.693 270.271L108.706 270.105L109.693 270.271ZM110.709 265.61L111.661 265.918L111.662 265.915L110.709 265.61ZM132.563 151.246L131.565 151.18L131.565 151.18L132.563 151.246ZM139.135 79.3711L138.14 79.2671L138.14 79.2677L139.135 79.3711ZM139.139 79.3326L140.133 79.4366L140.133 79.4358L139.139 79.3326ZM139.149 79.2302L140.144 79.3335L140.144 79.3332L139.149 79.2302ZM139.154 79.1882L138.159 79.0849L138.159 79.0853L139.154 79.1882ZM139.158 79.1463L138.163 79.0429V79.043L139.158 79.1463ZM140.157 69.5152L141.152 69.618L141.152 69.6162L140.157 69.5152ZM143.085 51.0561L142.106 50.85L142.104 50.8609L142.102 50.8719L143.085 51.0561ZM143.085 51.0558L144.064 51.2618L144.068 51.2422L144.071 51.2225L143.085 51.0558ZM143.086 51.0526L142.103 50.8684L142.101 50.8772L142.1 50.8859L143.086 51.0526ZM144.57 42.8838L145.556 43.0517L145.669 42.3848L145.092 42.0312L144.57 42.8838ZM142.689 41.7732L143.19 40.9078L142.544 40.5339L142.002 41.0466L142.689 41.7732ZM140.941 43.2092L141.551 44.002V44.002L140.941 43.2092ZM137.858 46.493L136.918 46.1522L136.916 46.1573L137.858 46.493ZM136.658 49.8548L135.716 49.5182H135.716L136.658 49.8548ZM120.835 109.217L119.839 109.123L119.839 109.123L120.835 109.217ZM106.339 269.546L105.343 269.458L105.342 269.463L106.339 269.546ZM106.339 269.547L107.335 269.635L107.335 269.63L106.339 269.547ZM106.25 270.543L105.254 270.455L105.254 270.455L106.25 270.543ZM100.189 282.054L100.796 282.849L100.797 282.848L100.189 282.054ZM87.3119 292.151L87.9338 292.934L87.3119 292.151ZM71.2289 304.671L71.8273 305.472L71.8278 305.472L71.2289 304.671ZM39.3626 327.999L39.9458 328.812L39.9494 328.809L39.3626 327.999ZM0.651739 367.843H-0.348261V369.483L1.1096 368.732L0.651739 367.843ZM1.19738 368.911L2.12046 368.526L2.10787 368.496L2.09332 368.466L1.19738 368.911ZM1.1975 368.911L0.274421 369.295L0.287009 369.326L0.301547 369.355L1.1975 368.911ZM1.74326 370L0.853047 370.456L1.19694 371.128L1.93747 370.981L1.74326 370ZM439.582 250.831L439.927 251.77L439.528 249.833L439.582 250.831ZM420.19 253.842L420.396 254.821L420.397 254.821L420.19 253.842ZM154.022 319.748L153.755 318.785L153.755 318.785L154.022 319.748ZM50.4902 350.916L50.7843 351.871L50.7891 351.87L50.4902 350.916ZM50.4896 350.916L50.7643 351.877L50.774 351.875L50.7837 351.872L50.4896 350.916ZM50.4893 350.916L50.2145 349.954L50.2048 349.957L50.1952 349.96L50.4893 350.916ZM50.4887 350.916L50.1946 349.96L50.1897 349.962L50.4887 350.916ZM7.75823 364.212L7.46478 363.256L7.46027 363.258L7.75823 364.212ZM2.95198 366.555L2.44809 365.692L2.42631 365.704L2.40519 365.718L2.95198 366.555ZM2.95156 366.556L3.45542 367.419L3.47722 367.407L3.49835 367.393L2.95156 366.556ZM0.651739 367.822L1.54196 367.366L-0.348261 367.822H0.651739ZM99.9569 54.6939L100.946 54.5487L100.392 50.7696L99.0233 54.3355L99.9569 54.6939ZM79.334 274.141L80.3109 274.355L79.334 274.141ZM99.1911 56.4412L98.2846 56.019L99.1911 56.4412ZM97.9132 60.1397L98.9063 60.2573L98.9069 60.2515L97.9132 60.1397ZM96.3062 75.0262L95.3114 74.924L96.3062 75.0262ZM94.0812 94.8866L93.0897 94.7571L93.0896 94.7574L94.0812 94.8866ZM91.4683 116.234L90.4753 116.116L91.4683 116.234ZM83.2822 172.304L82.3019 172.106L82.3019 172.106L83.2822 172.304ZM71.4845 292.925L72.4839 292.891L72.4837 292.885L71.4845 292.925ZM71.9082 297.102L70.9172 297.236L71.9082 297.102ZM72.158 299.054L71.1643 299.167L71.2648 300.054H72.158V299.054ZM73.923 299.054V300.054H74.7317L74.9008 299.263L73.923 299.054ZM167.185 72.1485L166.21 71.9256L166.208 71.9359L167.185 72.1485ZM143.966 236.48L142.966 236.486L144.908 236.814L143.966 236.48ZM167.185 72.1477L168.16 72.3705L168.162 72.3602L167.185 72.1477ZM175.876 31.2871L176.014 30.2968L175.083 30.1666L174.896 31.0882L175.876 31.2871ZM178.779 31.6929L179.778 31.7039L179.788 30.8243L178.917 30.7025L178.779 31.6929ZM362.509 33.939C361.043 35.172 359.621 36.4578 358.215 37.7297L359.556 39.2132C360.967 37.9373 362.363 36.6756 363.796 35.4693L362.509 33.939ZM362.153 34.6401V34.7042H364.153V34.6401H362.153ZM360.688 33.0924C361.244 33.8174 361.806 34.5492 362.368 35.2604L363.937 34.0198C363.385 33.3218 362.832 32.6016 362.274 31.8746L360.688 33.0924ZM360.664 33.0598L360.664 33.0602L362.298 31.9068L362.297 31.9064L360.664 33.0598ZM314.886 59.2932C330.465 50.7143 346.214 42.0422 361.963 33.3588L360.998 31.6074C345.249 40.2905 329.501 48.9623 313.921 57.5412L314.886 59.2932ZM297.331 68.9602C303.152 65.7541 309.007 62.5303 314.886 59.2932L313.921 57.5412C308.042 60.7783 302.188 64.0021 296.366 67.2083L297.331 68.9602ZM297.022 65.6778C296.67 66.326 296.323 66.9672 295.973 67.6015L297.724 68.5671C298.078 67.9257 298.429 67.2784 298.78 66.6313L297.022 65.6778ZM315.083 46.8232C305.068 50.7875 300.858 58.6029 297.022 65.6778L298.78 66.6313C302.637 59.5197 306.553 52.3506 315.819 48.6828L315.083 46.8232ZM334.198 36.7174C328.08 40.532 321.755 44.1875 315.083 46.8229L315.818 48.683C322.663 45.9793 329.112 42.2455 335.256 38.4145L334.198 36.7174ZM344.518 29.1314C341.134 31.8167 337.802 34.4594 334.196 36.7185L335.258 38.4134C338.974 36.0854 342.392 33.3719 345.761 30.6981L344.518 29.1314ZM349.149 25.5138C347.583 26.6997 346.045 27.9198 344.518 29.1314L345.761 30.6981C347.291 29.4841 348.811 28.2782 350.356 27.1084L349.149 25.5138ZM348.383 26.1894C348.574 26.4341 348.77 26.6854 348.973 26.9376L350.532 25.6846C350.34 25.4456 350.153 25.2057 349.96 24.9592L348.383 26.1894ZM347.812 25.464C348.004 25.703 348.191 25.9429 348.383 26.1894L349.96 24.9592C349.769 24.7145 349.573 24.4632 349.371 24.211L347.812 25.464ZM324.849 37.3993C332.588 32.7651 340.14 28.2497 348.862 25.8003L348.321 23.8748C339.301 26.4081 331.526 31.0702 323.822 35.6834L324.849 37.3993ZM313.003 44.137C317.087 42.0474 320.992 39.7089 324.849 37.3993L323.822 35.6834C319.955 37.9985 316.107 40.3023 312.092 42.3565L313.003 44.137ZM318.203 33.5242C316.008 36.539 313.795 39.5785 311.716 42.6914L313.38 43.8021C315.432 40.7286 317.621 37.7217 319.82 34.7014L318.203 33.5242ZM334.828 0.647969C333.037 13.1177 325.741 23.171 318.203 33.5242L319.82 34.7014C327.304 24.422 334.934 13.9746 336.808 0.932406L334.828 0.647969ZM334.585 1.28561C334.846 1.41877 335.11 1.55396 335.37 1.68404L336.267 -0.103669C336.015 -0.22986 335.757 -0.361626 335.495 -0.495418L334.585 1.28561ZM333.814 0.893856C334.065 1.02005 334.323 1.15184 334.585 1.28561L335.495 -0.495417C335.234 -0.628603 334.97 -0.763777 334.711 -0.893856L333.814 0.893856ZM321.866 21.2151C326.313 14.2658 330.706 7.4027 335.104 0.539595L333.42 -0.539595C329.021 6.32414 324.628 13.1878 320.181 20.137L321.866 21.2151ZM309.233 40.9459C313.525 34.2478 317.719 27.6941 321.866 21.2151L320.181 20.137C316.034 26.616 311.84 33.1694 307.549 39.8668L309.233 40.9459ZM305.603 32.0725C306.125 34.8972 306.659 37.7915 307.425 40.6637L309.357 40.149C308.615 37.3639 308.094 34.5457 307.569 31.7089L305.603 32.0725ZM297.186 11.04C302.805 17.0642 304.167 24.309 305.603 32.0725L307.569 31.7089C306.147 24.0176 304.722 16.1871 298.648 9.67573L297.186 11.04ZM302.338 40.9331C300.512 30.8379 299.448 20.6299 298.916 10.3064L296.918 10.4094C297.454 20.8016 298.526 31.0957 300.37 41.2891L302.338 40.9331ZM293.183 68.3229C296.928 65.4556 299.649 61.0272 301.217 56.1477C302.788 51.2632 303.229 45.8484 302.338 40.9328L300.37 41.2894C301.198 45.8561 300.791 50.938 299.313 55.5357C297.834 60.1384 295.307 64.1779 291.967 66.7351L293.183 68.3229ZM292.005 57.3341C291.827 60.7161 291.647 64.1158 291.576 67.5079L293.575 67.5501C293.646 64.1948 293.823 60.8267 294.002 57.4394L292.005 57.3341ZM286.398 15.7827C293.473 29.0649 292.757 43.0451 292.005 57.3341L294.002 57.4394C294.75 43.231 295.538 28.6885 288.163 14.8424L286.398 15.7827ZM284.762 58.3448C282.56 43.8705 284.23 29.7311 288.242 15.5855L286.318 15.0396C282.249 29.3835 280.529 43.819 282.785 58.6457L284.762 58.3448ZM286.574 75.501C286.14 70.1124 285.664 64.2098 284.762 58.3433L282.785 58.6472C283.674 64.431 284.145 70.2627 284.581 75.6617L286.574 75.501ZM287.138 82.0835C286.937 80.0059 286.76 77.8013 286.574 75.501L284.581 75.6617C284.766 77.9587 284.945 80.1794 285.147 82.2755L287.138 82.0835ZM291.431 78.5302C289.44 79.4718 287.508 80.3854 285.698 81.2838L286.587 83.0753C288.377 82.1869 290.291 81.2815 292.286 80.3382L291.431 78.5302ZM305.266 71.511C300.725 74.1341 295.923 76.4058 291.431 78.5302L292.286 80.3382C296.766 78.2193 301.642 75.9137 306.267 73.2429L305.266 71.511ZM348.592 45.476C334.37 54.4367 319.867 63.0579 305.266 71.5115L306.268 73.2423C320.882 64.7816 335.408 56.1468 349.659 47.1681L348.592 45.476ZM358.215 37.7297C355.098 40.5478 352.054 43.2967 348.593 45.4758L349.658 47.1683C353.291 44.8812 356.461 42.0116 359.556 39.2132L358.215 37.7297ZM218.462 173.548L218.462 173.544L216.477 173.789L216.477 173.793L218.462 173.548ZM217.841 174.6L217.887 174.579L217.052 172.762L217.005 172.783L217.841 174.6ZM216.984 172.792L216.938 172.817L217.908 174.567L217.954 174.541L216.984 172.792ZM230.106 35.7571C228.381 39.9829 226.508 49.3384 224.708 61.206C222.9 73.1233 221.148 87.702 219.694 102.469C218.24 117.236 217.083 132.203 216.464 144.896C215.847 157.563 215.762 168.042 216.477 173.79L218.461 173.543C217.771 167.99 217.844 157.674 218.462 144.994C219.078 132.34 220.233 117.408 221.685 102.665C223.136 87.9219 224.884 73.3795 226.685 61.5059C228.494 49.5825 230.339 40.4771 231.958 36.5132L230.106 35.7571ZM234.716 101.927C237.825 80.2595 236.325 58.4666 232.014 35.9472L230.05 36.3232C234.332 58.6949 235.805 80.2556 232.736 101.643L234.716 101.927ZM226.398 146.38C229.461 131.774 232.578 116.91 234.716 101.926L232.736 101.644C230.609 116.552 227.505 131.353 224.44 145.97L226.398 146.38ZM222.492 165.406C223.727 159.116 225.057 152.773 226.398 146.38L224.44 145.97C223.1 152.36 221.767 158.716 220.529 165.021L222.492 165.406ZM221.606 163.948C221.46 164.121 221.232 164.288 221.082 164.375C221.048 164.395 221.033 164.401 221.038 164.399C221.039 164.399 221.06 164.389 221.097 164.377C221.114 164.371 221.15 164.36 221.197 164.351C221.232 164.344 221.338 164.324 221.476 164.337C221.58 164.348 221.993 164.406 222.238 164.826C222.482 165.242 222.334 165.628 222.294 165.72C222.24 165.846 222.173 165.928 222.151 165.955C222.121 165.991 222.095 166.016 222.083 166.027C222.044 166.064 222.028 166.071 222.078 166.037L220.943 164.39C220.877 164.436 220.785 164.501 220.705 164.577C220.698 164.585 220.549 164.716 220.457 164.929C220.415 165.026 220.267 165.416 220.512 165.835C220.759 166.258 221.175 166.318 221.284 166.328C221.518 166.351 221.706 166.282 221.715 166.279C221.774 166.259 221.826 166.238 221.862 166.221C221.936 166.188 222.013 166.147 222.084 166.105C222.358 165.947 222.792 165.644 223.133 165.24L221.606 163.948ZM227.404 157.091C225.463 159.369 223.519 161.653 221.602 163.954L223.138 165.234C225.048 162.943 226.985 160.667 228.927 158.387L227.404 157.091ZM242.554 138.337C237.869 144.799 232.651 150.928 227.404 157.091L228.927 158.387C234.165 152.235 239.435 146.047 244.174 139.511L242.554 138.337ZM247.009 125.699C246.987 129.915 245.173 134.735 242.555 138.336L244.173 139.512C246.989 135.638 248.984 130.419 249.009 125.709L247.009 125.699ZM246.862 77.5934C247.007 93.6348 247.151 109.666 247.009 125.695L249.009 125.713C249.151 109.663 249.006 93.6138 248.862 77.5754L246.862 77.5934ZM246.661 46.9646C246.679 57.176 246.77 67.3868 246.862 77.5934L248.862 77.5754C248.77 67.3676 248.679 57.1641 248.661 46.9611L246.661 46.9646ZM248.653 29.473C247.533 35.2208 246.661 41.081 246.661 46.9629H248.661C248.661 41.2695 249.506 35.5546 250.616 29.8553L248.653 29.473ZM254.692 126.033C262.949 93.1931 263.575 61.1222 250.56 29.2858L248.709 30.0426C261.519 61.3784 260.937 92.9924 252.752 125.546L254.692 126.033ZM254.636 122.953C254.069 123.704 253.511 124.444 252.937 125.17L254.507 126.409C255.096 125.663 255.668 124.906 256.232 124.158L254.636 122.953ZM254.625 122.967L254.625 122.968L256.243 124.144L256.243 124.143L254.625 122.967ZM258.998 117.659C257.374 119.324 255.983 121.168 254.636 122.953L256.232 124.158C257.592 122.356 258.908 120.615 260.429 119.056L258.998 117.659ZM268.871 82.0969C270.683 95.8252 269.018 107.407 258.999 117.658L260.429 119.056C271.032 108.208 272.712 95.9129 270.854 81.8352L268.871 82.0969ZM266.421 42.3189C266.782 55.5835 267.145 68.9144 268.871 82.0959L270.854 81.8362C269.143 68.774 268.782 55.5466 268.42 42.2644L266.421 42.3189ZM265.937 27.2715C266.147 32.2769 266.284 37.2932 266.421 42.3189L268.42 42.2644C268.283 37.2412 268.146 32.2102 267.935 27.1876L265.937 27.2715ZM267.482 19.2645C266.54 21.8654 265.812 24.5562 265.937 27.2756L267.935 27.1835C267.828 24.8627 268.448 22.4707 269.363 19.9461L267.482 19.2645ZM276.575 93.2237C282.391 66.9779 277.735 42.9186 269.365 19.2716L267.48 19.9389C275.785 43.4042 280.325 67.0552 274.622 92.791L276.575 93.2237ZM279.64 89.0398C278.261 89.983 276.903 90.9111 275.036 92.1804L276.161 93.8342C278.03 92.5635 279.389 91.6342 280.769 90.6909L279.64 89.0398ZM281.7 87.6324C280.97 88.1312 280.302 88.5873 279.64 89.0398L280.769 90.6909C281.431 90.2383 282.098 89.7826 282.828 89.2843L281.7 87.6324ZM283.254 88.6004L283.254 88.5998L281.274 88.317L281.274 88.3176L283.254 88.6004ZM283.241 88.6714L283.242 88.6671L281.286 88.2509L281.285 88.2552L283.241 88.6714ZM282.103 94.0527C282.592 91.8074 282.871 90.4584 283.242 88.6661L281.284 88.2605C280.913 90.0512 280.635 91.3923 280.149 93.6277L282.103 94.0527ZM354.298 51.1974C329.96 65.0148 305.622 78.8109 280.633 92.9702L281.619 94.7103C306.608 80.5509 330.947 66.7545 355.286 52.9367L354.298 51.1974ZM355.992 51.8558C355.822 51.6883 355.666 51.5345 355.517 51.3778L354.068 52.7563C354.244 52.9413 354.424 53.1185 354.59 53.282L355.992 51.8558ZM355.975 51.8396L355.975 51.8394L354.607 53.2985L354.608 53.2986L355.975 51.8396ZM356.515 52.3815C356.339 52.1965 356.159 52.0194 355.992 51.8559L354.591 53.2823C354.761 53.4497 354.917 53.6035 355.066 53.7601L356.515 52.3815ZM352.348 57.7195C353.718 56.3972 355.078 55.0848 356.468 53.8069L355.114 52.3347C353.703 53.6318 352.326 54.961 350.959 56.2806L352.348 57.7195ZM352.284 57.7763L352.284 57.7762L351.023 56.2239L351.023 56.2241L352.284 57.7763ZM352.371 57.6967L352.372 57.6964L350.936 56.3041L350.935 56.3044L352.371 57.6967ZM352.336 57.731L352.337 57.7301L350.969 56.271L350.968 56.2719L352.336 57.731ZM342.88 66.1675C346.288 63.5714 349.342 60.6219 352.347 57.7209L350.958 56.282C347.939 59.1961 344.967 62.063 341.668 64.5767L342.88 66.1675ZM278.161 102.543C302.564 94.5902 323.269 81.1002 342.88 66.1677L341.669 64.5765C322.125 79.4576 301.63 92.7912 277.542 100.642L278.161 102.543ZM273.199 105.483C274.219 104.203 276.213 103.189 278.166 102.542L277.537 100.643C275.496 101.32 273.031 102.484 271.635 104.237L273.199 105.483ZM262.738 119.472C266.086 114.868 269.547 110.111 273.202 105.48L271.632 104.241C267.949 108.907 264.466 113.697 261.12 118.296L262.738 119.472ZM262.731 119.482L262.731 119.481L261.127 118.287L261.126 118.288L262.731 119.482ZM262.736 119.475L262.739 119.471L261.118 118.299L261.115 118.303L262.736 119.475ZM262.717 119.501L262.734 119.478L261.117 118.3L261.1 118.324L262.717 119.501ZM259.033 124.546C260.247 122.897 261.474 121.209 262.717 119.501L261.1 118.324C259.856 120.034 258.632 121.717 257.422 123.36L259.033 124.546ZM283.252 109.398C274.732 113.968 266.237 118.523 257.755 123.071L258.7 124.834C267.183 120.285 275.677 115.73 284.198 111.161L283.252 109.398ZM283.416 109.311L283.252 109.398L284.198 111.161L284.361 111.073L283.416 109.311ZM360.683 67.8863C334.434 81.9513 308.807 95.694 283.416 109.311L284.361 111.073C309.752 97.4566 335.379 83.714 361.628 69.6492L360.683 67.8863ZM360.509 71.0258C360.909 70.5587 361.354 70.0389 361.897 69.4383L360.414 68.0972C359.851 68.7196 359.39 69.2575 358.99 69.7244L360.509 71.0258ZM358.618 73.0573C359.274 72.4686 359.843 71.8027 360.509 71.0258L358.99 69.7244C358.304 70.5251 357.823 71.0841 357.283 71.5686L358.618 73.0573ZM265.772 128.406C299.904 114.875 331.429 96.8807 358.609 73.065L357.291 71.5608C330.314 95.1991 298.995 113.084 265.035 126.547L265.772 128.406ZM236.524 155.172C244.177 144.315 251.387 134.118 265.773 128.406L265.034 126.547C250.034 132.504 242.525 143.187 234.889 154.019L236.524 155.172ZM233.912 158.855C234.795 157.625 235.662 156.394 236.524 155.172L234.889 154.019C234.027 155.242 233.164 156.467 232.287 157.69L233.912 158.855ZM353.829 94.1995C311.467 111.862 268.973 129.574 232.492 157.478L233.707 159.067C269.947 131.347 312.194 113.726 354.598 96.0455L353.829 94.1995ZM353.834 94.1974L353.832 94.1982L354.595 96.0468L354.597 96.0459L353.834 94.1974ZM353.836 94.1965L353.834 94.1974L354.597 96.0459L354.599 96.045L353.836 94.1965ZM353.838 94.1956L353.836 94.1965L354.599 96.045L354.602 96.0442L353.838 94.1956ZM353.84 94.1948L353.838 94.1956L354.602 96.0442L354.604 96.0433L353.84 94.1948ZM373.886 85.7866C367.22 88.616 360.53 91.4053 353.837 94.196L354.607 96.042C361.299 93.2517 367.995 90.4599 374.668 87.6277L373.886 85.7866ZM271.444 146.664C307.164 128.629 342.711 110.683 374.861 87.5185L373.692 85.8958C341.691 108.953 306.287 126.831 270.543 144.878L271.444 146.664ZM271.44 146.666L271.441 146.666L270.546 144.877L270.546 144.877L271.44 146.666ZM271.44 146.666L271.44 146.666L270.546 144.877L270.546 144.877L271.44 146.666ZM271.44 146.666L271.44 146.666L270.546 144.877L270.545 144.877L271.44 146.666ZM271.44 146.666L271.44 146.666L270.545 144.877L270.545 144.877L271.44 146.666ZM217.954 174.541C235.576 164.774 253.532 155.708 271.443 146.664L270.542 144.879C252.636 153.919 234.646 163.003 216.984 172.792L217.954 174.541ZM26.5778 338.517C31.028 335.275 35.4865 332.044 39.9459 328.811L38.7722 327.192C34.3131 330.424 29.8526 333.657 25.4 336.901L26.5778 338.517ZM26.6497 336.95L26.5568 336.886L25.4211 338.532L25.514 338.596L26.6497 336.95ZM23.7831 337.698L25.6178 338.659L26.5458 336.887L24.7111 335.926L23.7831 337.698ZM65.6825 200.577C54.4197 246.64 42.3597 292.441 23.3294 336.415L25.1649 337.209C44.2681 293.067 56.3609 247.121 67.6252 201.052L65.6825 200.577ZM78.8932 60.4129C81.7201 107.802 76.9706 154.43 65.6825 200.577L67.6252 201.052C78.9571 154.726 83.7294 107.898 80.8897 60.2938L78.8932 60.4129ZM76.9395 67.7602C77.4959 65.4183 78.792 63.1664 80.6498 61.0052L79.1331 59.7015C77.1357 62.0251 75.6449 64.557 74.9937 67.2979L76.9395 67.7602ZM57.1309 152.219C63.6564 124.052 70.2515 95.906 76.9395 67.7603L74.9937 67.2979C68.3048 95.4477 61.7088 123.597 55.1825 151.768L57.1309 152.219ZM49.7744 183.265C52.2523 172.923 54.7312 162.578 57.1309 152.219L55.1825 151.768C52.7847 162.118 50.3077 172.456 47.8295 182.799L49.7744 183.265ZM49.7721 183.275L49.7721 183.275L47.8318 182.789L47.8318 182.79L49.7721 183.275ZM23.7106 322.034C27.7786 275.074 38.7662 229.208 49.7744 183.265L47.8294 182.799C36.8271 228.718 25.801 274.728 21.7181 321.862L23.7106 322.034ZM4.03565 353.752C11.0444 350.37 15.6867 345.893 18.7154 340.491C21.7328 335.11 23.1121 328.877 23.7106 322.035L21.7182 321.861C21.1322 328.56 19.7943 334.478 16.9709 339.513C14.1588 344.528 9.83672 348.732 3.16663 351.95L4.03565 353.752ZM2.36495 361.435C1.13075 359.593 0.816517 358.057 1.09443 356.863C1.36802 355.688 2.27434 354.595 4.03319 353.753L3.16909 351.949C1.04956 352.964 -0.401341 354.467 -0.8535 356.41C-1.30133 358.334 -0.709831 360.439 0.703482 362.548L2.36495 361.435ZM4.5485 358.706C3.37414 359.523 2.19284 360.346 0.977164 361.161L2.09127 362.822C3.32361 361.995 4.51888 361.163 5.6912 360.347L4.5485 358.706ZM4.55678 358.7L4.55425 358.702L5.68545 360.351L5.68798 360.349L4.55678 358.7ZM4.52137 358.725L4.52088 358.726L5.72389 360.324L5.72437 360.323L4.52137 358.725ZM12.4656 353.541C9.72862 355.099 7.15532 356.891 4.55155 358.704L5.69419 360.345C8.31085 358.524 10.8101 356.785 13.4551 355.279L12.4656 353.541ZM18.6453 349.806C16.5764 351.097 14.5331 352.372 12.4681 353.539L13.4526 355.28C15.5616 354.088 17.6417 352.789 19.7041 351.502L18.6453 349.806ZM35.5087 341.441C29.4451 343.057 23.9554 346.492 18.6453 349.806L19.7041 351.502C25.0658 348.157 30.3006 344.899 36.0236 343.374L35.5087 341.441ZM102.398 324.217C80.072 329.853 57.7367 335.491 35.5076 341.442L36.0247 343.374C58.2378 337.427 80.5592 331.793 102.888 326.157L102.398 324.217ZM102.357 324.229L102.356 324.229L102.93 326.145L102.931 326.145L102.357 324.229ZM102.358 324.229L102.357 324.229L102.931 326.145L102.932 326.144L102.358 324.229ZM102.359 324.228L102.358 324.229L102.932 326.144L102.933 326.144L102.359 324.228ZM102.359 324.228L102.359 324.228L102.933 326.144L102.934 326.144L102.359 324.228ZM205.719 296.876C171.558 306.76 136.99 315.485 102.402 324.216L102.892 326.155C137.474 317.426 172.075 308.692 206.275 298.797L205.719 296.876ZM351.885 251.731C303.303 267.21 254.725 282.688 205.719 296.876L206.275 298.797C255.311 284.601 303.914 269.115 352.493 253.636L351.885 251.731ZM406.397 234.437C388.212 240.156 370.049 245.944 351.885 251.731L352.493 253.636C370.656 247.849 388.817 242.063 406.997 236.344L406.397 234.437ZM419.009 229.366C414.821 231.236 410.694 233.077 406.396 234.437L406.999 236.344C411.424 234.943 415.654 233.054 419.824 231.193L419.009 229.366ZM424.938 226.779C422.943 227.611 420.97 228.491 419.009 229.366L419.824 231.193C421.789 230.316 423.74 229.445 425.707 228.625L424.938 226.779ZM424.102 227.409C424.204 227.642 424.306 227.876 424.408 228.107L426.237 227.297C426.137 227.072 426.037 226.843 425.936 226.611L424.102 227.409ZM424.022 227.224L424.102 227.409L425.936 226.611L425.856 226.427L424.022 227.224ZM423.741 226.581C423.834 226.793 423.928 227.008 424.022 227.225L425.856 226.427C425.762 226.211 425.667 225.992 425.572 225.776L423.741 226.581ZM423.688 226.461L423.741 226.581L425.572 225.775L425.519 225.655L423.688 226.461ZM423.642 226.355L423.689 226.462L425.518 225.653L425.471 225.547L423.642 226.355ZM40.7826 336.917C165.61 290.518 292.137 249.666 424.725 226.937L424.387 224.965C291.62 247.725 164.961 288.626 40.0857 335.042L40.7826 336.917ZM70.4866 311.672C59.9921 319.14 49.8249 326.971 39.7994 335.207L41.0689 336.752C51.0623 328.543 61.1928 320.741 71.6462 313.302L70.4866 311.672ZM81.0168 306.96C77.417 308.057 73.5734 309.482 70.4877 311.672L71.6451 313.303C74.4582 311.307 78.0462 309.956 81.5994 308.874L81.0168 306.96ZM191.617 273.717C154.746 284.785 117.875 295.854 81.0196 306.959L81.5966 308.874C118.451 297.769 155.321 286.701 192.192 275.633L191.617 273.717ZM347.698 226.745C295.704 242.47 243.661 258.093 191.617 273.717L192.192 275.633C244.236 260.009 296.28 244.385 348.277 228.659L347.698 226.745ZM402.476 209.206C384.259 215.2 366.051 221.192 347.698 226.745L348.277 228.659C366.657 223.098 384.888 217.099 403.101 211.106L402.476 209.206ZM402.474 209.207L402.472 209.207L403.105 211.104L403.106 211.104L402.474 209.207ZM402.476 209.206L402.474 209.207L403.106 211.104L403.108 211.103L402.476 209.206ZM402.477 209.205L402.476 209.206L403.108 211.103L403.11 211.103L402.477 209.205ZM402.479 209.205L402.477 209.205L403.11 211.103L403.111 211.102L402.479 209.205ZM423.225 202.405C416.306 204.655 409.394 206.93 402.483 209.204L403.108 211.104C410.019 208.829 416.928 206.556 423.844 204.307L423.225 202.405ZM426.536 200.798C425.384 201.449 424.339 202.037 423.221 202.406L423.848 204.306C425.184 203.865 426.4 203.173 427.521 202.538L426.536 200.798ZM426.428 200.868L426.428 200.868L427.628 202.468L427.628 202.468L426.428 200.868ZM428.213 199.881C427.636 200.175 427.074 200.493 426.536 200.798L427.521 202.538C428.065 202.23 428.589 201.934 429.121 201.663L428.213 199.881ZM427.356 200.344C427.489 200.627 427.625 200.914 427.767 201.207L429.567 200.337C429.43 200.053 429.299 199.774 429.165 199.491L427.356 200.344ZM426.954 199.498C427.091 199.782 427.222 200.061 427.356 200.344L429.165 199.491C429.032 199.208 428.896 198.921 428.755 198.628L426.954 199.498ZM422.717 201.216C424.501 200.824 426.285 200.432 428.069 200.04L427.639 198.087C425.856 198.479 424.072 198.871 422.288 199.263L422.717 201.216ZM255.771 243.56C310.303 225.921 366.499 213.571 422.717 201.216L422.288 199.263C366.086 211.614 309.795 223.984 255.156 241.658L255.771 243.56ZM138.493 283.133C177.395 269.734 216.443 256.285 255.771 243.56L255.156 241.658C215.807 254.388 176.741 267.844 137.841 281.242L138.493 283.133ZM138.502 283.129L138.503 283.129L137.831 281.245L137.829 281.246L138.502 283.129ZM87.6453 300.577C104.572 294.816 121.518 288.979 138.491 283.133L137.84 281.242C120.866 287.088 103.924 292.924 87.0008 298.684L87.6453 300.577ZM91.8248 294.375C90.0989 295.91 88.4009 297.421 86.6802 298.865L87.9659 300.397C89.7124 298.931 91.432 297.401 93.1542 295.869L91.8248 294.375ZM91.8309 294.369L91.826 294.374L93.153 295.87L93.1579 295.866L91.8309 294.369ZM91.8197 294.379L91.8186 294.38L93.1701 295.855L93.1712 295.854L91.8197 294.379ZM117.796 277.911C106.759 281.07 99.0723 287.927 91.8308 294.369L93.1601 295.864C100.435 289.391 107.807 282.851 118.347 279.834L117.796 277.911ZM324.667 200.679C259.53 235.223 189.132 257.475 117.796 277.911L118.347 279.834C189.698 259.393 260.269 237.095 325.604 202.445L324.667 200.679ZM367.869 181.748C353.2 187.541 338.47 193.356 324.667 200.679L325.604 202.445C339.292 195.184 353.916 189.408 368.604 183.608L367.869 181.748ZM367.921 181.729L367.92 181.729L368.553 183.626L368.553 183.626L367.921 181.729ZM388.587 173.369C381.753 176.265 374.818 179.004 367.87 181.747L368.605 183.608C375.549 180.865 382.506 178.118 389.368 175.211L388.587 173.369ZM393.807 170.776C392.06 171.713 390.363 172.623 388.59 173.368L389.365 175.212C391.24 174.424 393.02 173.468 394.753 172.539L393.807 170.776ZM393.833 170.763L393.833 170.763L394.727 172.552L394.728 172.552L393.833 170.763ZM393.777 170.793L393.777 170.793L394.784 172.521L394.785 172.521L393.777 170.793ZM396.327 169.448C395.476 169.881 394.637 170.331 393.808 170.776L394.754 172.538C395.585 172.092 396.406 171.652 397.234 171.23L396.327 169.448ZM395.46 169.836C395.592 170.138 395.73 170.451 395.874 170.761L397.687 169.916C397.554 169.631 397.425 169.338 397.291 169.033L395.46 169.836ZM395.456 169.828L395.458 169.832L397.294 169.038L397.292 169.034L395.456 169.828ZM395.304 169.482C395.355 169.598 395.407 169.715 395.459 169.833L397.29 169.029C397.238 168.911 397.186 168.792 397.133 168.672L395.304 169.482ZM395.061 168.946C395.143 169.121 395.223 169.299 395.304 169.482L397.133 168.672C397.049 168.483 396.963 168.292 396.874 168.101L395.061 168.946ZM387.481 171.477C390.385 170.83 393.297 170.181 396.197 169.497L395.738 167.55C392.852 168.231 389.953 168.877 387.046 169.525L387.481 171.477ZM387.46 171.481L387.46 171.481L387.068 169.52L387.067 169.52L387.46 171.481ZM369.091 175.936C375.128 174.23 381.288 172.857 387.481 171.477L387.046 169.525C380.862 170.902 374.648 172.287 368.547 174.011L369.091 175.936ZM269.227 213.857C301.773 199.256 334.535 185.675 369.09 175.936L368.548 174.011C333.85 183.791 300.981 197.419 268.408 212.033L269.227 213.857ZM179.909 251.202C209.86 239.129 239.83 227.049 269.227 213.857L268.408 212.033C239.052 225.206 209.118 237.272 179.161 249.347L179.909 251.202ZM179.851 251.223L179.851 251.223L179.218 249.326L179.218 249.326L179.851 251.223ZM179.851 251.223L179.851 251.223L179.218 249.326L179.218 249.326L179.851 251.223ZM179.919 251.198L179.919 251.198L179.15 249.351L179.149 249.352L179.919 251.198ZM179.918 251.198L179.919 251.198L179.149 249.352L179.149 249.352L179.918 251.198ZM139.679 267.538C153.053 262.027 166.478 256.615 179.907 251.202L179.16 249.347C165.732 254.76 152.299 260.174 138.917 265.689L139.679 267.538ZM125.336 273.65C130.105 271.578 134.87 269.508 139.677 267.539L138.919 265.688C134.089 267.667 129.305 269.745 124.539 271.816L125.336 273.65ZM125.343 273.647L125.346 273.646L124.528 271.821L124.525 271.822L125.343 273.647ZM118.744 276.502C120.943 275.559 123.138 274.605 125.333 273.652L124.536 271.818C122.341 272.771 120.149 273.723 117.956 274.664L118.744 276.502ZM155.127 245.327C139.134 251.466 128.081 262.847 117.595 274.928L119.105 276.239C129.567 264.187 140.345 253.144 155.843 247.195L155.127 245.327ZM179.212 235.308C171.252 238.808 163.257 242.217 155.128 245.327L155.842 247.195C164.016 244.068 172.046 240.644 180.017 237.139L179.212 235.308ZM277.877 191.634C244.992 206.213 212.12 220.786 179.211 235.309L180.018 237.138C212.929 222.615 245.803 208.041 278.688 193.462L277.877 191.634ZM277.914 191.617L277.878 191.634L278.687 193.463L278.724 193.446L277.914 191.617ZM289.917 186.296L277.914 191.618L278.725 193.446L290.728 188.125L289.917 186.296ZM393.67 128.519C361.481 151.386 326.521 170.063 289.917 186.296L290.728 188.125C327.418 171.853 362.502 153.114 394.828 130.15L393.67 128.519ZM398.224 124.909C396.714 126.17 395.236 127.404 393.669 128.52L394.829 130.149C396.469 128.981 398.006 127.697 399.506 126.444L398.224 124.909ZM398.207 124.923L398.207 124.923L399.524 126.429L399.524 126.428L398.207 124.923ZM400.403 123.11C399.667 123.703 398.942 124.309 398.224 124.908L399.507 126.443C400.227 125.842 400.938 125.248 401.658 124.667L400.403 123.11ZM399.741 123.911C399.914 124.118 400.093 124.331 400.272 124.54L401.789 123.237C401.62 123.04 401.45 122.837 401.275 122.628L399.741 123.911ZM399.544 123.676C399.61 123.754 399.675 123.832 399.741 123.911L401.275 122.628C401.209 122.549 401.143 122.47 401.076 122.39L399.544 123.676ZM399.351 123.447C399.415 123.523 399.48 123.599 399.545 123.676L401.076 122.39C401.01 122.311 400.943 122.232 400.876 122.153L399.351 123.447ZM399.318 123.408L399.352 123.448L400.875 122.152L400.841 122.112L399.318 123.408ZM399.227 123.301C399.257 123.337 399.287 123.372 399.318 123.408L400.841 122.112C400.809 122.074 400.777 122.036 400.744 121.999L399.227 123.301ZM316.22 161.974C344.46 149.497 372.716 137.014 400.423 123.549L399.548 121.751C371.88 135.197 343.658 147.666 315.412 160.144L316.22 161.974ZM157.842 240.536C208.052 209.763 262.107 185.881 316.22 161.974L315.412 160.144C261.32 184.042 207.141 207.976 156.797 238.831L157.842 240.536ZM176.168 220.36C167.541 224.721 161.642 231.48 156.49 239.124L158.149 240.242C163.216 232.724 168.882 226.284 177.07 222.145L176.168 220.36ZM180.924 217.954L176.167 220.36L177.07 222.145L181.827 219.739L180.924 217.954ZM228.905 193.602C212.932 201.763 196.939 209.853 180.924 217.954L181.827 219.739C197.841 211.638 213.837 203.546 229.815 195.384L228.905 193.602ZM361.121 114.818C319.917 145.096 274.919 170.054 228.904 193.603L229.816 195.383C275.861 171.819 320.971 146.803 362.305 116.43L361.121 114.818ZM364.116 112.415C363.116 113.257 362.148 114.071 361.125 114.815L362.301 116.433C363.391 115.64 364.413 114.779 365.404 113.945L364.116 112.415ZM364.102 112.427L364.102 112.427L365.419 113.932L365.419 113.932L364.102 112.427ZM364.114 112.417L364.112 112.418L365.409 113.94L365.411 113.939L364.114 112.417ZM365.21 111.5C364.842 111.804 364.478 112.11 364.118 112.413L365.407 113.943C365.767 113.639 366.124 113.339 366.483 113.042L365.21 111.5ZM364.533 112.224C364.713 112.449 364.888 112.667 365.057 112.884L366.636 111.657C366.456 111.426 366.271 111.195 366.092 110.972L364.533 112.224ZM363.988 111.539C364.168 111.77 364.353 112.001 364.533 112.224L366.092 110.972C365.911 110.747 365.736 110.529 365.568 110.312L363.988 111.539ZM189.964 206.867C244.449 168.857 303.257 137.923 365.166 111.847L364.39 110.004C302.377 136.123 243.441 167.122 188.82 205.227L189.964 206.867ZM215.608 175.077L188.645 205.382L190.139 206.712L217.102 176.407L215.608 175.077ZM215.606 176.433L215.762 176.548L216.947 174.936L216.791 174.822L215.606 176.433ZM215.374 176.262L215.607 176.434L216.79 174.821L216.557 174.65L215.374 176.262ZM214.664 175.743C214.902 175.917 215.136 176.088 215.374 176.263L216.557 174.65C216.318 174.475 216.082 174.302 215.845 174.129L214.664 175.743ZM214.302 175.478L214.664 175.742L215.846 174.129L215.485 173.865L214.302 175.478ZM214.044 175.288L214.302 175.477L215.486 173.865L215.228 173.676L214.044 175.288ZM195.301 195.903C201.984 188.995 208.666 182.086 215.355 175.178L213.918 173.786C207.229 180.695 200.546 187.604 193.864 194.513L195.301 195.903ZM175.247 216.63C181.936 209.721 188.619 202.812 195.301 195.903L193.864 194.513C187.181 201.422 180.498 208.331 173.81 215.239L175.247 216.63ZM173.251 216.433C173.544 216.569 173.816 216.695 174.077 216.827L174.98 215.042C174.684 214.893 174.381 214.752 174.093 214.619L173.251 216.433ZM173.266 216.439L173.266 216.439L174.078 214.612L174.078 214.612L173.266 216.439ZM173.224 216.42L173.224 216.42L174.119 214.631L174.119 214.631L173.224 216.42ZM172.655 216.152C172.857 216.25 173.058 216.343 173.25 216.432L174.092 214.618C173.898 214.528 173.71 214.441 173.523 214.351L172.655 216.152ZM172.692 213.161C172.509 213.763 172.328 214.355 172.137 214.944L174.04 215.559C174.237 214.952 174.422 214.344 174.605 213.745L172.692 213.161ZM173.896 209.514C173.433 210.733 173.057 211.965 172.692 213.161L174.605 213.745C174.973 212.539 175.33 211.37 175.765 210.225L173.896 209.514ZM203.543 101.482C198.588 138.573 187.215 174.263 173.895 209.516L175.766 210.223C189.107 174.915 200.54 139.06 205.525 101.746L203.543 101.482ZM208.691 48.6363C207.694 66.2892 205.886 83.9252 203.543 101.482L205.525 101.746C207.873 84.15 209.688 66.4625 210.688 48.7491L208.691 48.6363ZM207.272 32.048C208.141 37.6843 208.987 43.1953 208.691 48.6384L210.688 48.747C210.997 43.0604 210.112 37.3412 209.248 31.7432L207.272 32.048ZM207.274 32.0638L207.274 32.0646L209.246 31.7267L209.245 31.7259L207.274 32.0638ZM206.187 24.2856C206.475 26.8808 206.875 29.4766 207.272 32.0472L209.248 31.7424C208.851 29.1646 208.457 26.6111 208.175 24.0655L206.187 24.2856ZM206.378 25.1488C206.633 25.1582 206.893 25.1679 207.153 25.1752L207.209 23.1759C206.959 23.169 206.709 23.1597 206.453 23.1501L206.378 25.1488ZM206.384 25.149L206.384 25.149L206.447 23.1499L206.446 23.1499L206.384 25.149ZM206.384 25.149L206.384 25.149L206.446 23.1499L206.446 23.1499L206.384 25.149ZM206.384 25.149L206.384 25.149L206.446 23.1499L206.446 23.1499L206.384 25.149ZM204.882 25.1115C205.371 25.1115 205.864 25.1297 206.378 25.1488L206.452 23.1501C205.944 23.1313 205.415 23.1115 204.882 23.1115V25.1115ZM203.912 31.6451C204.573 29.2252 205.237 26.7946 205.852 24.3559L203.912 23.867C203.303 26.2835 202.645 28.6951 201.983 31.1182L203.912 31.6451ZM203.919 31.6176L203.919 31.6172L201.976 31.146L201.976 31.1464L203.919 31.6176ZM200.154 47.2441C201.08 42.0204 202.489 36.8579 203.912 31.6455L201.983 31.1186C200.564 36.3158 199.129 41.5664 198.184 46.8951L200.154 47.2441ZM172.286 206.368C181.506 153.318 190.748 100.27 200.154 47.2443L198.184 46.895C188.778 99.9248 179.535 152.976 170.315 206.025L172.286 206.368ZM155.094 236.078C165.416 228.183 170.256 218.046 172.286 206.368L170.315 206.025C168.351 217.326 163.715 226.965 153.879 234.489L155.094 236.078ZM139.587 249.396C144.649 244.785 149.674 240.207 155.092 236.079L153.88 234.488C148.381 238.678 143.291 243.316 138.24 247.918L139.587 249.396ZM139.468 249.489L139.468 249.489L138.359 247.825L138.358 247.825L139.468 249.489ZM139.468 249.489L139.468 249.489L138.358 247.825L138.358 247.825L139.468 249.489ZM139.468 249.49L139.468 249.489L138.358 247.825L138.358 247.825L139.468 249.49ZM139.467 249.49L139.468 249.49L138.358 247.825L138.358 247.826L139.467 249.49ZM132.503 255.769C134.894 253.672 137.244 251.531 139.586 249.397L138.239 247.918C135.895 250.054 133.558 252.183 131.184 254.265L132.503 255.769ZM111.413 274.18C118.449 268.051 125.487 261.921 132.503 255.769L131.184 254.265C124.172 260.415 117.136 266.543 110.099 272.672L111.413 274.18ZM108.77 273.361C109.26 273.661 109.734 273.952 110.207 274.262L111.305 272.591C110.802 272.26 110.301 271.953 109.815 271.655L108.77 273.361ZM108.706 270.105C108.581 270.856 108.458 271.588 108.312 272.311L110.273 272.705C110.426 271.945 110.554 271.181 110.679 270.436L108.706 270.105ZM109.758 265.302C109.243 266.891 108.969 268.54 108.706 270.105L110.679 270.436C110.945 268.845 111.199 267.343 111.661 265.918L109.758 265.302ZM131.565 151.18C128.993 190.031 121.716 228.007 109.757 265.305L111.662 265.915C123.67 228.465 130.978 190.327 133.561 151.312L131.565 151.18ZM138.14 79.2677C135.652 103.193 133.159 127.16 131.565 151.18L133.561 151.312C135.152 127.336 137.641 103.406 140.129 79.4745L138.14 79.2677ZM138.144 79.2286L138.14 79.2671L140.129 79.4751L140.133 79.4366L138.144 79.2286ZM138.155 79.127L138.144 79.2293L140.133 79.4358L140.144 79.3335L138.155 79.127ZM138.159 79.0853L138.155 79.1273L140.144 79.3332L140.148 79.2911L138.159 79.0853ZM138.163 79.043L138.159 79.0849L140.148 79.2915L140.153 79.2497L138.163 79.043ZM139.163 69.4125C138.831 72.6221 138.497 75.8321 138.163 79.0429L140.153 79.2498C140.487 76.0391 140.82 72.8284 141.152 69.618L139.163 69.4125ZM142.102 50.8719C140.954 57.0005 139.795 63.1832 139.162 69.4143L141.152 69.6162C141.774 63.4829 142.917 57.383 144.068 51.2402L142.102 50.8719ZM142.106 50.8498L142.106 50.85L144.064 51.2621L144.064 51.2618L142.106 50.8498ZM142.099 50.8884L142.099 50.8892L144.071 51.2225L144.071 51.2217L142.099 50.8884ZM142.099 50.8876L142.099 50.8884L144.071 51.2217L144.071 51.2209L142.099 50.8876ZM142.099 50.8868L142.099 50.8876L144.071 51.2209L144.071 51.2201L142.099 50.8868ZM142.1 50.8859L142.099 50.8868L144.071 51.2201L144.072 51.2192L142.1 50.8859ZM143.584 42.7159C143.122 45.4303 142.613 48.144 142.103 50.8684L144.068 51.2368C144.578 48.5151 145.09 45.7851 145.556 43.0517L143.584 42.7159ZM142.188 42.6386C142.816 43.0027 143.433 43.3595 144.047 43.7363L145.092 42.0312C144.453 41.6392 143.815 41.2699 143.19 40.9078L142.188 42.6386ZM141.551 44.002C142.153 43.5387 142.807 43.0372 143.376 42.4999L142.002 41.0466C141.521 41.501 140.952 41.9395 140.332 42.4163L141.551 44.002ZM138.798 46.8338C138.955 46.4014 139.28 45.9566 139.779 45.4694C140.278 44.9818 140.884 44.5141 141.551 44.002L140.332 42.4163C139.687 42.9123 138.981 43.453 138.381 44.0385C137.782 44.6244 137.221 45.3176 136.918 46.1522L138.798 46.8338ZM137.599 50.1913C138 49.0706 138.401 47.9497 138.8 46.8288L136.916 46.1573C136.517 47.2773 136.117 48.3975 135.716 49.5182L137.599 50.1913ZM121.831 109.311C123.749 88.9631 130.657 69.6183 137.599 50.1913L135.716 49.5182C128.788 68.9037 121.785 88.484 119.839 109.123L121.831 109.311ZM107.335 269.634C112.066 216.191 116.799 162.729 121.831 109.311L119.839 109.123C114.808 162.548 110.074 216.015 105.343 269.458L107.335 269.634ZM107.335 269.63L107.335 269.629L105.342 269.463L105.342 269.464L107.335 269.63ZM107.247 270.631L107.335 269.635L105.343 269.459L105.254 270.455L107.247 270.631ZM100.797 282.848C105.076 279.573 106.809 275.599 107.247 270.631L105.254 270.455C104.856 274.969 103.338 278.385 99.5813 281.26L100.797 282.848ZM87.9338 292.934C92.2016 289.544 96.4628 286.16 100.796 282.849L99.5819 281.26C95.2311 284.584 90.9553 287.98 86.69 291.368L87.9338 292.934ZM71.8278 305.472C77.2919 301.385 82.618 297.155 87.9338 292.934L86.69 291.368C81.3704 295.592 76.067 299.804 70.6301 303.87L71.8278 305.472ZM39.9494 328.809C50.6101 321.082 61.276 313.352 71.8273 305.472L70.6306 303.87C60.0926 311.739 49.4383 319.461 38.7757 327.19L39.9494 328.809ZM39.9422 328.814L39.9458 328.812L38.7794 327.187L38.7758 327.189L39.9422 328.814ZM0.202526 366.95L0.193875 366.954L1.1096 368.732L1.11825 368.728L0.202526 366.95ZM2.09332 368.466C1.91662 368.11 1.73674 367.747 1.55077 367.383L-0.22999 368.294C-0.0505787 368.645 0.123847 368.997 0.301443 369.355L2.09332 368.466ZM2.12057 368.526L2.12046 368.526L0.274306 369.295L0.274421 369.295L2.12057 368.526ZM2.63347 369.545C2.45107 369.188 2.27389 368.831 2.09345 368.467L0.301547 369.355C0.481074 369.717 0.66387 370.086 0.853047 370.456L2.63347 369.545ZM439.238 249.892C297.31 302.001 150.704 339.49 1.54905 369.019L1.93747 370.981C151.162 341.438 297.874 303.924 439.927 251.77L439.238 249.892ZM420.397 254.821C426.765 253.474 433.082 252.188 439.637 251.83L439.528 249.833C432.799 250.201 426.342 251.52 419.983 252.864L420.397 254.821ZM154.289 320.712C242.272 296.369 330.78 273.673 420.396 254.821L419.984 252.864C330.313 271.727 241.762 294.435 153.755 318.785L154.289 320.712ZM50.7891 351.87C85.1778 341.097 119.555 330.328 154.289 320.712L153.755 318.785C118.983 328.411 84.5746 339.19 50.1912 349.961L50.7891 351.87ZM50.7837 351.872L50.7843 351.871L50.1961 349.96L50.1955 349.96L50.7837 351.872ZM50.764 351.877L50.7643 351.877L50.2149 349.954L50.2145 349.954L50.764 351.877ZM50.7828 351.872L50.7834 351.872L50.1952 349.96L50.1946 349.96L50.7828 351.872ZM8.05169 365.168C22.3139 360.79 36.5518 356.33 50.7876 351.87L50.1897 349.962C35.953 354.422 21.7206 358.88 7.46478 363.257L8.05169 365.168ZM3.45587 367.419C5.02741 366.502 6.48319 365.658 8.05619 365.167L7.46027 363.258C5.63441 363.828 3.9844 364.795 2.44809 365.692L3.45587 367.419ZM3.49835 367.393L3.49877 367.393L2.40519 365.718L2.40477 365.718L3.49835 367.393ZM1.11783 368.728C1.92071 368.315 2.70155 367.859 3.45542 367.419L2.44771 365.692C1.68602 366.136 0.95083 366.565 0.202953 366.949L1.11783 368.728ZM-0.238482 368.277L-0.22983 368.294L1.55061 367.383L1.54196 367.366L-0.238482 368.277ZM1.65174 367.843V367.822H-0.348261V367.843H1.65174ZM98.9675 54.839C109.935 129.601 94.1735 201.662 78.3571 273.927L80.3109 274.355C96.1145 202.148 111.975 129.73 100.946 54.5487L98.9675 54.839ZM100.098 56.8633C100.365 56.2883 100.651 55.6756 100.89 55.0522L99.0233 54.3355C98.8132 54.883 98.5578 55.4323 98.2846 56.019L100.098 56.8633ZM98.9069 60.2515C99.0269 59.1846 99.5138 58.1167 100.098 56.8633L98.2846 56.019C97.7317 57.206 97.0826 58.5773 96.9195 60.028L98.9069 60.2515ZM97.3009 75.1284C97.8111 70.1627 98.3205 65.2055 98.9062 60.2573L96.9201 60.0222C96.3323 64.9882 95.8214 69.9609 95.3114 74.924L97.3009 75.1284ZM95.0728 95.0162C95.938 88.3944 96.6202 81.7539 97.3009 75.1284L95.3114 74.924C94.6302 81.5541 93.9507 88.1672 93.0897 94.7571L95.0728 95.0162ZM92.4614 116.351C93.305 109.23 94.1478 102.115 95.0729 95.0159L93.0896 94.7574C92.1628 101.87 91.3186 108.996 90.4753 116.116L92.4614 116.351ZM84.2624 172.502C88.0098 153.936 90.2382 135.119 92.4614 116.351L90.4753 116.116C88.2505 134.897 86.0305 153.634 82.3019 172.106L84.2624 172.502ZM72.4837 292.885C70.8856 252.334 76.2117 212.399 84.2624 172.501L82.3019 172.106C74.2353 212.082 68.8784 252.19 70.4852 292.964L72.4837 292.885ZM72.8991 296.968C72.7096 295.568 72.5294 294.23 72.4839 292.891L70.485 292.959C70.5345 294.415 70.73 295.853 70.9172 297.236L72.8991 296.968ZM73.1516 298.941C73.0763 298.277 72.9868 297.616 72.8991 296.968L70.9172 297.236C71.0053 297.888 71.0918 298.527 71.1643 299.167L73.1516 298.941ZM73.923 298.054H72.158V300.054H73.923V298.054ZM78.3571 273.927C76.5399 282.23 74.7222 290.535 72.9451 298.845L74.9008 299.263C76.6768 290.959 78.4935 282.658 80.3109 274.355L78.3571 273.927ZM166.208 71.9359C154.417 126.135 142.594 180.468 142.966 236.486L144.966 236.473C144.596 180.713 156.364 126.597 168.162 72.361L166.208 71.9359ZM166.21 71.9248L166.21 71.9256L168.16 72.3713L168.16 72.3705L166.21 71.9248ZM174.896 31.0882C172.129 44.7175 169.169 58.3221 166.208 71.9351L168.162 72.3602C171.123 58.7495 174.086 45.1313 176.856 31.4861L174.896 31.0882ZM178.917 30.7025L176.014 30.2968L175.737 32.2775L178.64 32.6833L178.917 30.7025ZM144.908 236.814C168.592 170.085 179.011 101.547 179.778 31.7039L177.779 31.6819C177.013 101.339 166.623 169.653 143.024 236.145L144.908 236.814Z" fill="#638899" mask="url(#path-1-inside-1_898_3149)"/>
</svg>
