<svg width="32" height="32" viewBox="0 0 32 32" fill="none" xmlns="http://www.w3.org/2000/svg">
<path d="M24.5714 7.66667C24.5714 11.3486 20.7339 14.3333 16 14.3333C11.2661 14.3333 7.42857 11.3486 7.42857 7.66667C7.42857 3.98477 11.2661 1 16 1C20.7339 1 24.5714 3.98477 24.5714 7.66667Z" fill="white"/>
<path d="M16 19.3333C7.71573 19.3333 1 24.5567 1 31H31C31 24.5567 24.2843 19.3333 16 19.3333Z" fill="white"/>
<path d="M24.5714 7.66667C24.5714 11.3486 20.7339 14.3333 16 14.3333C11.2661 14.3333 7.42857 11.3486 7.42857 7.66667C7.42857 3.98477 11.2661 1 16 1C20.7339 1 24.5714 3.98477 24.5714 7.66667Z" stroke="#415656" stroke-width="2" stroke-linecap="round" stroke-linejoin="round"/>
<path d="M16 19.3333C7.71573 19.3333 1 24.5567 1 31H31C31 24.5567 24.2843 19.3333 16 19.3333Z" stroke="#415656" stroke-width="2" stroke-linecap="round" stroke-linejoin="round"/>
</svg>
