<svg width="51" height="50" viewBox="0 0 51 50" fill="none" xmlns="http://www.w3.org/2000/svg">
<path d="M6.75 6.25H10.9167L11.75 10.4167M15.0833 27.0833H35.9167L44.25 10.4167H11.75M15.0833 27.0833L11.75 10.4167M15.0833 27.0833L10.3065 31.8602C8.99405 33.1726 9.92356 35.4167 11.7796 35.4167H35.9167M35.9167 35.4167C33.6155 35.4167 31.75 37.2821 31.75 39.5833C31.75 41.8845 33.6155 43.75 35.9167 43.75C38.2179 43.75 40.0833 41.8845 40.0833 39.5833C40.0833 37.2821 38.2179 35.4167 35.9167 35.4167ZM19.25 39.5833C19.25 41.8845 17.3845 43.75 15.0833 43.75C12.7821 43.75 10.9167 41.8845 10.9167 39.5833C10.9167 37.2821 12.7821 35.4167 15.0833 35.4167C17.3845 35.4167 19.25 37.2821 19.25 39.5833Z" stroke="#415656" stroke-width="2" stroke-linecap="round" stroke-linejoin="round"/>
</svg>
