<svg width="438" height="413" viewBox="0 0 438 413" fill="none" xmlns="http://www.w3.org/2000/svg">
<g clip-path="url(#clip0_255_3114)">
<path d="M372.72 201.37C372.71 198.29 371.11 194.4 368.93 192.27C321.54 145.55 273.96 99.0201 226.39 52.4701C220 46.2001 217.75 46.1901 211.24 52.5001C164.24 98.0601 117.3 143.68 70.22 189.16C66.28 192.96 64.74 197.02 64.76 202.42C64.92 235.22 64.84 268 64.84 300.8H64.96C64.96 334.46 64.93 368.13 64.99 401.79C65 409.98 66.9 411.83 74.96 411.84C105.05 411.91 135.15 411.74 165.24 412.1C171.66 412.17 332.65 411.92 363.82 411.84C370.55 411.81 372.73 409.65 372.75 402.71C372.84 335.59 372.91 268.49 372.74 201.37H372.72ZM239.03 125.27V155.34C239.03 157.92 236.88 160.03 234.24 160.03H203.52C200.89 160.03 198.73 157.92 198.73 155.34V125.27C198.73 124.7 198.84 124.15 199.03 123.64C198.83 122.71 198.73 121.75 198.73 120.78C198.73 111.61 207.75 104.18 218.88 104.18C230.01 104.18 239.03 111.61 239.03 120.78C239.03 121.76 238.93 122.71 238.73 123.64C238.92 124.15 239.03 124.7 239.03 125.27Z" fill="#638889"/>
<path d="M434.49 224.69C429.19 230.6 420.68 230.2 413.82 223.5C355.57 166.49 297.33 109.46 239.11 52.4299C233.93 47.3599 228.55 42.4799 223.69 37.0999C220.16 33.1899 217.76 33.6199 214.19 37.1499C184.53 66.5199 154.72 95.7499 124.9 124.96C91.1401 158.01 57.3601 191.01 23.5501 223.99C18.0701 229.34 11.8301 230.33 6.44005 227.07C-1.55995 222.23 -2.23995 211.75 5.24005 204.32C18.0401 191.61 30.7701 178.87 43.9601 166.62C49.3501 161.62 51.9101 156.53 51.8001 148.79C51.3501 119.32 51.7501 89.8399 51.5001 60.3699C51.4501 54.5699 52.9701 52.5799 58.7901 52.7199C76.3101 53.0999 93.8501 53.0599 111.39 52.8299C116.28 52.7799 117.83 54.5299 117.69 59.4199C117.46 68.1199 117.68 76.8299 117.77 85.5399C117.78 87.4599 118.04 89.3699 118.37 93.4599C126.91 85.0999 133.91 78.2099 140.94 71.3399C162.76 49.9699 184.57 28.6099 206.43 7.27988C216.47 -2.53012 221.58 -2.44012 231.81 7.56988C298.53 72.8699 365.24 138.2 431.96 203.5C438.99 210.39 439.99 218.58 434.51 224.68L434.49 224.69Z" fill="#638889"/>
<path d="M267.03 333.95C266.17 333.73 265.22 333.39 264.34 333.32C262.84 333.2 261.7 333.07 260.17 333.08C255.84 333.11 254.33 334.44 252.17 338.52C251.7 339.41 249.63 341.1 248.08 340.97C245.04 340.72 241.83 341.27 238.83 340.12C236.47 339.21 236.75 336.66 237.73 334.68C237.18 334.17 236.29 333.82 235.86 333.23C234.08 330.83 234.48 328.72 236.89 327.11C239.3 325.5 240.56 324.37 241.25 321.5C242.25 317.36 243.4 313 244.31 308.91C244.91 306.22 244.91 303.63 244.16 301.18C242.91 297.13 240.48 294.12 238.84 290.33C236.71 285.41 234.35 280.86 233.24 275.47C232.66 272.65 234.04 269.61 234.61 266.71C235.18 263.81 236.27 260.68 236.51 257.68C236.68 255.52 235.57 254.54 233.87 253.5C233.6 253.34 233.16 253.32 232.89 253.18C228.68 250.99 226.76 248.58 225.82 243.8C225.61 242.72 226.65 241.48 227.41 240.58C228.51 239.27 229.83 237.87 231.04 236.59C234.85 232.55 238.97 230.5 244.28 229.2C245.85 228.82 246.44 228.5 246.49 226.74C246.54 224.99 245.99 222.84 245.97 221.01C246.1 220.93 246.25 220.88 246.38 220.81C247.31 221.69 248.24 222.58 249.17 223.46C249.48 222.96 249.7 222.39 250.07 221.94C251.07 222.45 251.99 223.77 252.66 224.53C256.03 228.42 260.05 232.06 263.01 236.04C265.96 240.03 266.49 243.94 267.55 248.55C268.12 251.06 267.77 253.34 268.78 255.88C269.78 258.42 271.57 259.56 274.48 259.98C276.21 260.23 278.46 259.71 280.36 260.2C290.53 262.84 298.16 266.01 304.24 275.38C310.33 284.75 312.9 296.26 314.51 307.34C315.21 312.19 314.29 316.68 314.43 321.42C314.45 322.19 314.31 322.91 314.46 323.61C322.91 316.89 329.91 307.83 331.45 297.38C332.75 288.59 330.7 281.73 332.19 273.6C333.68 265.47 335.02 258.86 339.95 252.13C341.88 249.5 343.75 246.63 346.83 245.09C357.69 239.62 367.3 240.16 376.46 248.59C384.66 256.14 384.23 265.32 378.51 273.95C375.51 278.48 371.18 277.19 366.89 276.19C364.51 275.64 363.53 273.64 364.05 271.37C364.57 269.1 366.26 268.71 368.43 268.78C369.1 268.8 369.84 269.35 370.67 269.28C373.95 269 376.03 269.09 376 264.73C375.96 259.33 372.68 254.67 368.27 251.78C363.87 248.89 357.43 248.23 353.55 251.14C345.57 257.12 342.4 264.82 341.07 274.05C339.74 283.28 342.42 291.29 340.3 300.39C336.5 316.69 327.13 326.46 313.82 336.2C313.18 336.67 312.24 336.96 311.54 337.42C308.43 339.5 305.41 341.69 302.17 343.65C301.51 344.05 300.63 343.97 299.82 343.97C294.55 343.97 289.18 344.04 283.91 344.05C282.02 344.05 280.13 343.68 278.29 343.56C276.45 343.44 274.68 343.41 272.89 343.42C271.1 343.42 269.27 343.8 267.58 343.31C265.89 342.82 264.4 342.12 263.87 340.39C263.34 338.66 264.49 337.44 265.22 335.89C265.54 335.2 266.49 334.5 267.05 333.94L267.03 333.95Z" fill="#F9EFDB"/>
<path d="M174.8 321.96C174.4 319.71 174.01 317.31 173.61 315.08C173.47 314.3 172.74 313.91 172.18 314.18C168.53 315.95 165.11 317.34 161.15 318.2C160.61 318.32 160.29 318.99 160.49 319.63C161.25 322.09 162.07 324.67 162.83 327.14C162.95 327.53 163.25 327.77 163.58 327.87C163.92 327.98 164.22 328.05 164.41 328.31C165.21 329.39 166.04 330.61 166.09 331.92C166.14 333.23 165.17 334.11 164.16 334.46C162.02 335.2 160 335.14 157.87 335.59C157.73 335.88 157.91 336.68 157.96 336.9C158.79 340.67 159.04 342.57 154.55 343.47C151.22 344.13 147.38 343.63 143.64 343.4C135.93 342.93 127.95 342.5 120.08 341.84C115.44 341.45 111.88 340.08 107.89 337.23C106.85 336.49 104.7 336.48 103.12 336.12C98.91 335.15 94.4199 333.71 90.4699 331.77C86.5199 329.83 83.1699 328.08 79.0299 326.23C76.7799 325.23 75.2199 325.12 72.2899 323.71C69.3699 322.3 64.6999 317.49 62.5199 314.74C61.5499 313.51 61.0599 313.08 60.4399 312.14C59.3899 310.53 58.7299 309.09 58.1199 307.41C57.3099 305.17 57.1499 302.95 57.0599 300.65C57.0099 299.48 57.1399 298.27 57.1599 297.2C57.1799 296.13 57.1099 295.21 57.6499 294.39C58.1899 293.57 58.7999 293.11 59.5399 292.58C59.7399 292.44 59.8999 292.46 60.1099 292.44C60.9599 292.39 61.6299 292.14 62.5299 292.22C64.2099 292.37 65.2799 294.38 66.0299 295.55C67.1899 297.35 67.9399 299.06 69.1199 300.65C74.32 307.64 79.3199 314.85 86.0799 320.32C90.41 323.82 94.4799 325.09 100.06 324.28C103.67 323.76 105.56 321.58 107.08 317.96C113.15 303.57 119.57 289.5 129.35 276.9C139.13 264.3 150.43 252.69 160.52 240.16C161.81 238.56 162.6 236.42 163.84 234.51C167.95 228.15 172.31 221.95 176.21 215.26C178.11 212 178.92 207.39 181.01 204.13C185.17 197.67 188.91 190.95 195.03 186.24C199.97 182.44 205.21 183.27 210.93 184.56C216.26 185.77 219.49 188.75 222.68 193.13C225.87 197.52 229.41 200.64 234.62 202.62C236.75 203.43 239.5 203.11 241.5 204.53C243.1 205.66 240.24 210.21 239.23 211.38C236.07 215.01 233.44 213.51 228.98 213.54C228.42 213.54 226.94 213.71 226.26 213.87C227.64 214.75 229.14 215.68 230.43 216.72C231.72 217.77 234.04 219.33 234.48 220.72C235.14 222.79 233.57 223.74 232.26 224.27C228.36 225.82 223.9 223.21 220.82 222.02C214.19 219.45 212.38 220.13 213.32 227.62C213.77 231.21 216.6 236.44 217.33 240.58C217.63 242.27 217.05 244.35 216.36 246.07C214.83 249.88 214.48 253.02 215.85 257.05C216.61 259.28 218.58 261.85 218.57 264.31C218.56 270.09 216.18 274.17 212.76 278.55C209.84 282.28 206.66 285.62 203.72 289.28C203.06 290.1 202.24 290.85 201.49 291.47C198.35 294.07 196.36 296.19 195.83 300.41C195.24 305.17 194.76 310.06 194.97 315.01C195.18 319.96 197.43 323.47 201.65 326.06C202.91 326.83 204.56 327.11 205.74 327.84C206.92 328.57 208.07 329.16 208.31 330.51C208.55 331.86 207.3 332.66 206.22 332.9C203.74 333.44 201.36 333.46 198.89 333.7C198.87 333.7 198.85 333.67 198.84 333.7C198.57 334.59 198.25 335.48 197.95 336.36C198.79 336.97 199.64 337.53 200.44 338.2C201.24 338.87 202.27 339.63 202.12 340.8C201.97 341.97 200.72 342.47 199.7 342.48C194.9 342.56 190.28 342.87 185.49 342.38C183.35 342.16 182.6 340.99 182.14 338.74C181.68 336.5 181.68 334.01 180.84 331.52C180 329.03 178.71 326.07 177.3 323.61C177.11 323.28 176.25 323.07 175.77 322.99C175.29 322.91 174.88 322.47 174.78 321.93L174.8 321.96Z" fill="#F9EFDB"/>
<path d="M72.15 348.13H86.04C90.48 348.13 94.08 348.52 96.85 349.3C99.62 350.08 101.95 351.81 103.84 354.49C105.73 357.17 106.67 360.38 106.67 364.15C106.67 367.61 105.9 370.58 104.37 373.06C102.84 375.54 100.77 377.34 98.19 378.44C95.6 379.54 91.62 380.09 86.25 380.09H81.44V400.56H72.15V348.14V348.13ZM81.44 354.85V373.13H86.04C90.15 373.13 92.99 372.41 94.57 370.98C96.14 369.55 96.93 367.22 96.93 363.99C96.93 361.58 96.41 359.63 95.37 358.13C94.33 356.63 93.19 355.71 91.94 355.36C90.69 355.01 88.73 354.84 86.04 354.84H81.44V354.85Z" fill="#F9EFDB"/>
<path d="M113.73 348.13H145.86V355.08H123.01V370.06H140.93V377.05H123.01V393.45H146.23V400.56H113.73V348.14V348.13Z" fill="#F9EFDB"/>
<path d="M148.47 348.13H182.74V355.5H170.21V400.55H160.92V355.5H148.47V348.13Z" fill="#F9EFDB"/>
<path d="M198.65 348.13H232.3V354.2L207.49 393.26H232.96V400.56H197.13V393.84L221.74 355.24H198.65V348.13Z" fill="#F9EFDB"/>
<path d="M276.76 374.33C276.76 383.29 275.05 390.06 271.62 394.65C268.2 399.23 263.22 401.52 256.7 401.52C250.18 401.52 245.14 399.23 241.66 394.66C238.18 390.09 236.44 383.31 236.44 374.32C236.44 365.33 238.17 358.66 241.62 354.06C245.07 349.47 250.08 347.17 256.66 347.17C263.24 347.17 268.12 349.46 271.58 354.02C275.03 358.59 276.76 365.36 276.76 374.32V374.33ZM267.02 374.35C267.02 368.12 266.25 363.22 264.7 359.65C263.15 356.07 260.45 354.29 256.58 354.29C252.71 354.29 250.02 356.08 248.49 359.67C246.96 363.26 246.19 368.15 246.19 374.35C246.19 380.55 246.94 385.32 248.45 388.96C249.96 392.6 252.71 394.42 256.71 394.42C260.46 394.42 263.12 392.66 264.68 389.13C266.24 385.61 267.02 380.68 267.02 374.35Z" fill="#F9EFDB"/>
<path d="M285.35 348.13H296.29L314.73 385.92V348.13H322.5V400.55H313.83L293.12 358.57V400.55H285.35V348.13Z" fill="#F9EFDB"/>
<path d="M332.94 348.13H365.07V355.08H342.22V370.06H360.14V377.05H342.22V393.45H365.44V400.56H332.94V348.14V348.13Z" fill="#F9EFDB"/>
</g>
<defs>
<clipPath id="clip0_255_3114">
<rect width="438" height="412.12" fill="white"/>
</clipPath>
</defs>
</svg>
