<svg xmlns:xlink="http://www.w3.org/1999/xlink" xmlns="http://www.w3.org/2000/svg" viewBox="0 0 799.99 799.99" width="799.99"  height="799.99" ><defs><style>.a13910{fill:#e8d575;}.a13911{fill:#dcdddd;}.a13912{fill:#231815;}</style></defs><g id="Y_K20"><polygon class="a13911" points="316.7 356.41 267.32 372.22 256.17 407.26 341.05 407.26 352.03 394.98 317.41 392.11 316.7 356.41" fill="#DCDDDD"></polygon><polygon class="a13911" points="498.14 356.41 547.51 372.22 558.66 407.26 473.78 407.26 462.81 394.98 497.43 392.11 498.14 356.41" fill="#DCDDDD"></polygon><path class="a13910" d="m459.97,154.01c-12.85-17.39-34.99-18.79-34.99-18.79,0,0-40.7-8.63-40.7-1.13,0,4.35,12.65,14.49,23.29,22.02-11.16-4.41-27.77-6.67-46.04,4.44-32.93,20.01-18.76,54.61-15.84,54.61s6.34,8.75,6.34,8.75c0,0,11.22-3.1,24.83-7.72,13.61-4.62,40.11-30.21,40.11-30.21,0,0,17.72,21.05,25.01,28.35,7.29,7.29,18,7.09,18,7.09,20.5-14.17,12.85-50.02,0-67.41Z" style="" fill="#E8D575"></path><path class="a13911" d="m175.19,487.94l34.02,35.17,12.39-11.25v-63.8l-13.77-6.18s-7.1,35.46-32.64,46.06Z" fill="#DCDDDD"></path><path class="a13911" d="m624.55,487.94l-34.02,35.17-12.39-11.25v-63.8s13.77-6.18,13.77-6.18c0,0,7.1,35.46,32.64,46.06Z" fill="#DCDDDD"></path><path class="a13911" d="m426.83,423.3l2.15,8.34-3.77,8.05h-35.8l-4.64-10.18,1.65-6.21,8.38-31.61-13.21-11.47c5.45-6.39,10.91-12.78,16.36-19.18h16l16.37,20.74-11.46,9.63-.2.17,8.17,31.72Z" fill="#DCDDDD"></path><path class="a13911" d="m342.79,342.83l20.18,44.43-36.31-5.48-2.13-31.48s.03-.02.05-.02l17.99-7.93.22.48Z" fill="#DCDDDD"></path><polygon class="a13910" points="365.11 387.58 363.95 389.41 362.97 387.26 365.11 387.58" style="" fill="#E8D575"></polygon><polygon class="a13911" points="386.78 439.69 367.25 439.69 351.02 423.3 345.76 417.99 363.95 389.41 379.34 423.3 386.78 439.69" fill="#DCDDDD"></polygon><polygon class="a13910" points="448.82 387.46 450.17 387.26 449.19 389.41 448.46 388.26 448.03 387.58 448.82 387.46" style="" fill="#E8D575"></polygon><polygon class="a13911" points="433.8 423.3 449.19 389.41 467.38 417.99 462.12 423.3 445.89 439.69 426.36 439.69 433.8 423.3" fill="#DCDDDD"></polygon><polygon class="a13911" points="488.61 350.3 488.59 350.55 486.48 381.78 450.17 387.26 470.47 342.56 470.57 342.35 488.61 350.3" fill="#DCDDDD"></polygon><path class="a13910" d="m610.29,676.1l-44.09-41.23h1.58v-202.21c0-2.46-1.14-4.69-3.01-6.35-.03-.03-.06-.06-.09-.08-2.06-1.81-4.98-2.93-8.22-2.93H243.27c-3.21,0-6.11,1.11-8.17,2.88-1.94,1.68-3.14,3.96-3.14,6.48v202.21h1.53l-44.09,41.23c-3.64,2.7-5.72,6.55-5.72,10.59v8.73c0,3.03,2.97,5.48,6.63,5.48h419.07c3.66,0,6.63-2.45,6.63-5.48v-8.73c0-4.04-2.08-7.89-5.72-10.59Zm-355.07-227.62c0-4.86,4.76-8.79,10.63-8.79h268.37c5.87,0,10.63,3.93,10.63,8.79v161.21c0,4.86-4.76,8.8-10.63,8.8h-268.37c-5.87,0-10.63-3.94-10.63-8.8v-161.21Z" style="" fill="#E8D575"></path><path class="a13911" d="m226.36,670.27l27.48-24.53c2.18-1.94,5.24-3.05,8.44-3.05h275.2c3.19,0,6.23,1.09,8.41,3.02l27.75,24.55c2.52,2.23.61,5.87-3.07,5.87H229.44c-3.68,0-5.59-3.63-3.09-5.86Z" fill="#DCDDDD"></path></g><g id="_レイヤー_1"><g><g><g><path class="a13912" d="m352.92,235.73c-12-4.39-24,5.85-25.88,17.53-2.01,12.48,7.05,27.51,20.79,26.95,4.33-.18,4.35-6.93,0-6.75-9.78.4-15.84-11.07-14.03-19.75,1.61-7.76,9.31-14.4,17.33-11.47,4.09,1.49,5.85-5.03,1.79-6.51h0Z" fill="#231815"></path><path class="a13912" d="m459.25,242.23c8.02-2.93,15.72,3.71,17.33,11.47,1.8,8.68-4.26,20.15-14.03,19.75-4.34-.18-4.34,6.57,0,6.75,13.73.56,22.8-14.47,20.79-26.95-1.88-11.68-13.88-21.91-25.88-17.53-4.05,1.48-2.3,8,1.79,6.51h0Z" fill="#231815"></path><path class="a13912" d="m456.59,253.23c.05,15.26-2.06,30.29-11.25,43.06-8.88,12.35-24.53,23.03-40.15,23.03-15.62,0-31.28-10.69-40.15-23.03-9.19-12.77-11.3-27.8-11.25-43.06.01-4.34-6.74-4.35-6.75,0-.05,13.66,1.68,25.44,7.31,38.03,5.68,12.7,16.99,23.16,29.36,29.26,12.23,6.03,25.33,7.22,38.11,2.15,12.87-5.11,24.57-14.58,31.7-26.53,7.91-13.27,9.88-27.8,9.83-42.91-.01-4.34-6.76-4.35-6.75,0h0Z" fill="#231815"></path></g><g><path class="a13912" d="m370.61,241.32v8.92c0,4.34,6.75,4.35,6.75,0v-8.92c0-4.34-6.75-4.35-6.75,0h0Z" fill="#231815"></path><path class="a13912" d="m431.98,241.32v8.92c0,4.34,6.75,4.35,6.75,0v-8.92c0-4.34-6.75-4.35-6.75,0h0Z" fill="#231815"></path></g><path class="a13912" d="m383.8,285.37c6.37,3.53,14.53,3.98,21.66,3.92,6.93-.06,15.24-.52,21.22-4.42,3.63-2.36.25-8.21-3.41-5.83-4.99,3.24-12.06,3.44-17.82,3.49-5.9.05-12.96-.06-18.25-3-3.8-2.11-7.21,3.72-3.41,5.83h0Z" fill="#231815"></path></g><path class="a13912" d="m371.9,312.64v20.94c0,4.34,6.75,4.35,6.75,0v-20.94c0-4.34-6.75-4.35-6.75,0h0Z" fill="#231815"></path><path class="a13912" d="m378.86,388.6c8.67-10.16,17.34-20.33,26.01-30.49,1.46-1.71,1.24-5.21-1.49-5.64-10.06-1.57-19.01-5.94-26.76-12.5-3.3-2.79-8.09,1.96-4.77,4.77,8.62,7.29,18.52,12.48,29.74,14.24-.5-1.88-.99-3.76-1.49-5.64-8.67,10.16-17.34,20.33-26.01,30.49-2.8,3.29,1.95,8.08,4.77,4.77h0Z" fill="#231815"></path><path class="a13912" d="m368.34,327.78c-5.41,4.79-10.82,9.58-16.22,14.38-3.26,2.89,1.53,7.65,4.77,4.77,5.41-4.79,10.82-9.58,16.22-14.38,3.26-2.89-1.53-7.65-4.77-4.77h0Z" fill="#231815"></path><path class="a13912" d="m439.65,383.82c-8.67-10.16-17.34-20.33-26.01-30.49l-1.49,5.64c11.23-1.75,21.12-6.94,29.74-14.24,3.32-2.81-1.47-7.56-4.77-4.77-7.75,6.56-16.71,10.93-26.76,12.5-2.73.43-2.95,3.93-1.49,5.64,8.67,10.16,17.34,20.33,26.01,30.49,2.82,3.31,7.58-1.48,4.77-4.77h0Z" fill="#231815"></path><path class="a13912" d="m440.63,332.55c5.41,4.79,10.82,9.58,16.22,14.38,3.24,2.87,8.03-1.88,4.77-4.77-5.41-4.79-10.82-9.58-16.22-14.38-3.24-2.87-8.03,1.88-4.77,4.77h0Z" fill="#231815"></path><path class="a13912" d="m433.59,311.41v23.03c0,4.34,6.75,4.35,6.75,0v-23.03c0-4.34-6.75-4.35-6.75,0h0Z" fill="#231815"></path><path class="a13912" d="m258.47,411.17c4.18-13.15,8.37-26.3,12.55-39.45l-2.36,2.36c16.99-5,33.98-10.01,50.97-15.01l-4.27-3.25c-.44,12.1-.89,24.2-1.33,36.3-.07,1.91,1.61,3.26,3.38,3.38,11.72.74,23.45,1.47,35.17,2.21l-2.39-5.76c-6.63,7.92-13.27,15.84-19.9,23.76-1.09,1.3-1.49,3.52,0,4.77,2.06,1.74,4.13,3.48,6.19,5.22,3.3,2.78,8.1-1.97,4.77-4.77-2.06-1.74-4.13-3.48-6.19-5.22v4.77c6.63-7.92,13.27-15.84,19.9-23.76,1.91-2.28.65-5.57-2.39-5.76-11.72-.74-23.45-1.47-35.17-2.21l3.38,3.38c.44-12.1.89-24.2,1.33-36.3.08-2.17-2.22-3.86-4.27-3.25-13.58,4-27.17,8-40.75,12-3.63,1.07-10.81,1.69-12.61,5.48-2.72,5.73-4.02,12.64-5.94,18.67-2.19,6.89-4.38,13.78-6.58,20.66-1.32,4.15,5.19,5.93,6.51,1.79h0Z" fill="#231815"></path><path class="a13912" d="m384.06,421.6c-9.83-21.9-19.67-43.79-29.5-65.69-2.34-5.2-4.67-10.41-7.01-15.61-.8-1.78-3.11-1.89-4.62-1.21-6.35,2.87-12.84,5.37-19.3,7.96-3.98,1.59-2.25,8.12,1.79,6.51,7.01-2.8,14.03-5.53,20.92-8.64l-4.62-1.21c9.5,21.15,18.99,42.29,28.49,63.44,2.67,5.95,5.35,11.91,8.02,17.86,1.78,3.96,7.6.53,5.83-3.41h0Z" fill="#231815"></path><path class="a13912" d="m491.75,355.81c.44,12.1.89,24.2,1.33,36.3l3.38-3.38c-11.72.74-23.45,1.47-35.17,2.21-3.05.19-4.29,3.49-2.39,5.76,6.64,7.92,13.27,15.84,19.91,23.76v-4.77c-2.06,1.74-4.13,3.48-6.19,5.22-3.33,2.8,1.47,7.56,4.77,4.77,2.06-1.74,4.13-3.48,6.19-5.22,1.48-1.25,1.09-3.47,0-4.77-6.64-7.92-13.27-15.84-19.91-23.76l-2.39,5.76c11.72-.74,23.45-1.47,35.17-2.21,1.77-.11,3.45-1.46,3.38-3.38-.44-12.1-.89-24.2-1.33-36.3-.16-4.33-6.91-4.35-6.75,0h0Z" fill="#231815"></path><path class="a13912" d="m435.64,425c9.77-21.77,19.55-43.53,29.32-65.3,2.4-5.33,4.79-10.67,7.19-16l-4.62,1.21c6.42,2.92,12.88,5.75,19.35,8.55,3.95,1.71,7.39-4.11,3.41-5.83-6.47-2.8-12.93-5.63-19.35-8.55-1.52-.69-3.81-.58-4.62,1.21-9.41,20.96-18.83,41.91-28.24,62.87-2.76,6.14-5.51,12.28-8.27,18.43-1.76,3.93,4.05,7.37,5.83,3.41h0Z" fill="#231815"></path><path class="a13912" d="m382.38,384.17c3.07,3.38,7.24,5.48,10.32,8.86l-.87-3.28c-3.44,10.89-6.88,21.77-10.32,32.66-1.31,4.15,5.2,5.93,6.51,1.79,2.4-7.59,4.79-15.18,7.19-22.76.98-3.1,2.45-6.37,3.03-9.58.97-5.37-8-9.07-11.08-12.46s-7.69,1.56-4.77,4.77h0Z" fill="#231815"></path><path class="a13912" d="m426.59,379.39c-3.05,3.35-12,7.08-11.11,12.37.54,3.23,2.07,6.55,3.05,9.67,2.4,7.59,4.79,15.18,7.19,22.76,1.3,4.13,7.82,2.36,6.51-1.79-3.44-10.89-6.88-21.77-10.32-32.66l-.87,3.28c3.07-3.38,7.24-5.48,10.32-8.86s-1.84-7.99-4.77-4.77h0Z" fill="#231815"></path><path class="a13912" d="m403.33,397.68h7.47c4.34,0,4.35-6.75,0-6.75h-7.47c-4.34,0-4.35,6.75,0,6.75h0Z" fill="#231815"></path></g><g><g><path class="a13912" d="m567.15,423.92c-6.83-6.09-19.1-4-27.59-4h-54.5c-49.98,0-99.95,0-149.93,0-30.69,0-61.5-.78-92.19,0-8.27.21-14.11,5.89-14.37,14.19-.14,4.36,0,8.75,0,13.11v62.24c0,41.04,0,82.08,0,123.11v2.29c0,1.82,1.55,3.38,3.38,3.38h335.82c1.82,0,3.38-1.55,3.38-3.38v-180.92c0-9,2.42-22.71-4-30.03-2.87-3.27-7.63,1.52-4.77,4.77,2.44,2.79,2.02,6.05,2.02,9.43v196.74l3.38-3.38H231.96l3.38,3.38v-194.2c0-4.77-1.11-11.58,4.63-13.61,2.33-.83,5.51-.38,7.92-.38h218.55c29.98,0,60.16-1.03,90.12,0,2.18.07,4.04.43,5.82,2.02,3.23,2.88,8.02-1.88,4.77-4.77Z" fill="#231815"></path><path class="a13912" d="m541.47,609.69c-.63,7.74-17.23,5.42-22.33,5.42h-250.55c-4.17,0-9.16-.22-10-5.46-.43-2.72,0-5.87,0-8.62v-49.25c0-33.79-.59-67.63,0-101.41.15-8.56,9.36-7.32,15.58-7.32h252.64c2.36,0,4.74-.1,7.09,0,5.61.23,7.57,3.38,7.57,8.1v158.53c0,4.34,6.75,4.35,6.75,0v-148.04c0-4.17.13-8.36,0-12.52-.25-7.93-6.58-12.54-14.18-12.82-24.46-.88-49.11,0-73.58,0h-176.19c-6.75,0-14.05-.8-20.76.2-14.94,2.23-11.67,19.24-11.67,30.1v138.08c0,4.6-.32,9.08,3.2,12.76,5.89,6.15,17.14,4.41,24.91,4.41h172.73c26.83,0,53.69.4,80.52,0,7.57-.11,14.36-4.07,15.02-12.17.35-4.33-6.4-4.31-6.75,0Z" fill="#231815"></path></g><path class="a13912" d="m541.47,464.82v138.31c0,4,.99,8.79-3.24,11.01-2.4,1.26-5.34.97-7.99.97-28.36,0-56.71,0-85.07,0h-164.26c-4.87,0-19.83,2.16-22.07-3.98-.91-2.5-.26-6.14-.26-8.7v-150.36c0-4.98,1.07-8.73,7.48-9.01,14.44-.63,29.05,0,43.51,0h215.54c4.85,0,15.78-1.57,16.35,5.41.35,4.3,7.1,4.34,6.75,0-.78-9.6-9.28-12.16-17.49-12.16h-252.08c-4.25,0-8.55-.18-12.8,0-8.39.35-13.9,5.73-14,13.95-.16,13.28,0,26.58,0,39.87,0,37.51,0,75.02,0,112.52,0,3.1-.42,6.66.36,9.7,1.75,6.85,8.64,9.45,15.04,9.51,9.35.09,18.71,0,28.07,0h223.83c7.11,0,17.63,1.59,23.79-2.67,4.96-3.43,5.3-8.31,5.3-13.64v-140.74c0-4.34-6.75-4.35-6.75,0h0Z" fill="#231815"></path><path class="a13912" d="m566.19,631.5H235.63c-2.21,0-3.59.19-5.38,1.79-6.21,5.57-12.2,11.41-18.29,17.11-7.18,6.71-14.36,13.43-21.54,20.14-1.66,1.56-3.46,3.04-5.08,4.63-4.41,4.35-5.03,9.58-5.03,15.43,0,5.06-.1,9.95,5.16,12.55,1.7.84,3.48,1.08,5.34,1.14,2.01.07,4.03,0,6.04,0,26.28,0,52.55,0,78.83,0,42.72,0,85.44,0,128.17,0,42.36,0,84.71,0,127.07,0,24.69,0,49.37,0,74.06,0,1.44,0,2.91.07,4.35,0,10.77-.52,11.12-11.5,9.86-19.83-1.15-7.62-8.75-12.84-14.09-17.83-7.77-7.27-15.55-14.54-23.32-21.8-4.4-4.11-8.79-8.22-13.19-12.33-3.17-2.96-7.95,1.8-4.77,4.77,11.98,11.2,23.96,22.4,35.94,33.6,4.58,4.28,12.63,9.72,12.88,16.31.14,3.53,1.46,9.81-3.28,10.36-.36.04-.73-.02-1.1,0-19.91,1.05-40.17,0-60.1,0-39.14,0-78.29,0-117.43,0-42.93,0-85.86,0-128.79,0-30.85,0-61.71,0-92.56,0-6.06,0-12.31.44-18.35,0-1.3-.09-2.4.03-3.33-1.29-1.66-2.35-1.12-9.83-.07-12.59,1.14-3.03,4.12-5.1,6.45-7.28,2.77-2.59,5.54-5.18,8.31-7.77,7.64-7.15,15.29-14.29,22.93-21.44,2.83-2.64,5.65-5.29,8.48-7.93.41-.39,1.57-1.13,1.78-1.67.47-1.19-1.65,1.05-1.97.69.49.54,4.68,0,5.37,0h327.23c4.34,0,4.35-6.75,0-6.75Z" fill="#231815"></path><path class="a13912" d="m200.89,687.24c102.68,0,205.36,0,308.03,0h89.91c4.34,0,4.35-6.75,0-6.75-102.68,0-205.36,0-308.03,0h-89.91c-4.34,0-4.35,6.75,0,6.75h0Z" fill="#231815"></path><g><path class="a13912" d="m223.31,674.76c1.03-.79,2.06-1.59,3.1-2.38,1.33-.3,1.81-.94,1.43-1.92.15-.06.39.04.55,0,.96-.28,2.43,0,3.41,0h29.44c4.34,0,4.35-6.75,0-6.75h-30.95c-4.48,0-6.74,2.43-10.38,5.23-3.39,2.61-.04,8.48,3.41,5.83h0Z" fill="#231815"></path><path class="a13912" d="m274.68,674.76l3.1-2.38c1.33-.3,1.81-.94,1.43-1.92.15-.06.39.04.55,0,.96-.28,2.43,0,3.41,0h29.44c4.34,0,4.35-6.75,0-6.75h-30.95c-4.48,0-6.74,2.43-10.38,5.23-3.39,2.61-.04,8.48,3.41,5.83h0Z" fill="#231815"></path><path class="a13912" d="m579.83,668.93c-3.46-2.66-5.79-5.23-10.11-5.23-3.86,0-7.71,0-11.57,0-6.55,0-13.1,0-19.65,0-4.34,0-4.35,6.75,0,6.75,6.06,0,12.13,0,18.19,0,3.75,0,7.5,0,11.25,0,.95,0,2.48-.27,3.41,0,.14.04.4-.06.55,0-.38.98.1,1.62,1.43,1.92l3.1,2.38c3.44,2.65,6.8-3.21,3.41-5.83h0Z" fill="#231815"></path><path class="a13912" d="m528.45,668.93c-3.46-2.66-5.79-5.23-10.11-5.23-3.86,0-7.71,0-11.57,0-6.55,0-13.1,0-19.65,0-4.34,0-4.35,6.75,0,6.75,6.06,0,12.13,0,18.19,0,3.75,0,7.5,0,11.25,0,.95,0,2.48-.27,3.41,0,.14.04.4-.06.55,0-.38.98.1,1.62,1.43,1.92l3.1,2.38c3.44,2.65,6.8-3.21,3.41-5.83h0Z" fill="#231815"></path><path class="a13912" d="m477.08,668.93c-2.79-2.15-5.22-4.93-8.8-5.23-2.27-.19-4.63,0-6.91,0-6.61,0-13.22,0-19.83,0-6.44,0-12.89,0-19.33,0-20.15,0-40.3,0-60.45,0h-20.76c-2.91,0-5.83-.06-8.75,0-4.04.08-6.43,2.78-9.61,5.23-3.39,2.61-.04,8.48,3.41,5.83,2.88-2.22,3.42-3.97,6.45-4.31,2.46-.27,5.12,0,7.59,0h19.2c6.07,0,12.15,0,18.22,0,19.91,0,39.83,0,59.74,0,6.53,0,13.06,0,19.6,0,3.19,0,6.39,0,9.58,0,3.76,0,3.9,1.73,7.24,4.31,3.44,2.65,6.8-3.21,3.41-5.83h0Z" fill="#231815"></path></g><g><path class="a13912" d="m241.81,658.34c1.36-1.16,2.69-2.58,4.18-3.57.64-.43-1.56.1-.63-.2.72-.23,1.89,0,2.64,0h27.09c4.34,0,4.35-6.75,0-6.75h-18.45c-3.33,0-6.67-.06-10,0-4.2.08-6.44,3.05-9.6,5.75s1.49,7.58,4.77,4.77h0Z" fill="#231815"></path><path class="a13912" d="m288.04,658.34c1.36-1.16,2.69-2.58,4.18-3.57.64-.43-1.56.1-.63-.2.72-.23,1.89,0,2.64,0h27.09c4.34,0,4.35-6.75,0-6.75h-18.45c-3.33,0-6.67-.06-10,0-4.2.08-6.44,3.05-9.6,5.75-3.31,2.83,1.49,7.58,4.77,4.77h0Z" fill="#231815"></path><path class="a13912" d="m334.28,658.34c1.36-1.16,2.69-2.58,4.18-3.57.64-.43-1.56.1-.63-.2.72-.23,1.89,0,2.64,0h27.09c4.34,0,4.35-6.75,0-6.75h-18.45c-3.33,0-6.67-.06-10,0-4.2.08-6.44,3.05-9.6,5.75-3.31,2.83,1.49,7.58,4.77,4.77h0Z" fill="#231815"></path><path class="a13912" d="m380.52,658.34c1.36-1.16,2.69-2.58,4.18-3.57.64-.43-1.56.1-.63-.2.72-.23,1.89,0,2.64,0h27.09c4.34,0,4.35-6.75,0-6.75h-18.45c-3.33,0-6.67-.06-10,0-4.2.08-6.44,3.05-9.6,5.75-3.31,2.83,1.49,7.58,4.77,4.77h0Z" fill="#231815"></path><path class="a13912" d="m562.69,653.57c-2.97-2.54-5.35-5.65-9.36-5.75-3.41-.09-6.83,0-10.24,0-6.15,0-12.3,0-18.45,0-4.34,0-4.35,6.75,0,6.75,5.5,0,11.01,0,16.51,0,3.42,0,6.83,0,10.25,0,.8,0,2.04-.22,2.82,0,.67.18.14.19-.01.1-1.04.09-.73.52.92,1.29l2.79,2.38c3.28,2.81,8.08-1.94,4.77-4.77h0Z" fill="#231815"></path><path class="a13912" d="m516.46,653.57c-2.97-2.54-5.35-5.65-9.36-5.75-3.41-.09-6.83,0-10.24,0-6.15,0-12.3,0-18.45,0-4.34,0-4.35,6.75,0,6.75,5.5,0,11.01,0,16.51,0,3.42,0,6.83,0,10.25,0,.8,0,2.04-.22,2.82,0,.67.18.14.19-.01.1-1.04.09-.73.52.92,1.29l2.79,2.38c3.28,2.81,8.08-1.94,4.77-4.77h0Z" fill="#231815"></path><path class="a13912" d="m470.22,653.57c-2.97-2.54-5.35-5.65-9.36-5.75-3.41-.09-6.83,0-10.24,0-6.15,0-12.3,0-18.45,0-4.34,0-4.35,6.75,0,6.75,5.5,0,11.01,0,16.51,0,3.42,0,6.83,0,10.25,0,.8,0,2.04-.22,2.82,0,.67.18.14.19-.01.1-1.04.09-.73.52.92,1.29l2.79,2.38c3.28,2.81,8.08-1.94,4.77-4.77h0Z" fill="#231815"></path><path class="a13912" d="m423.98,653.57c-2.97-2.54-5.35-5.65-9.36-5.75-3.41-.09-6.83,0-10.24,0-6.15,0-12.3,0-18.45,0-4.34,0-4.35,6.75,0,6.75,5.5,0,11.01,0,16.51,0,3.42,0,6.83,0,10.25,0,.8,0,2.04-.22,2.82,0,.67.18.14.19-.01.1-1.04.09-.73.52.92,1.29.93.79,1.86,1.59,2.79,2.38,3.28,2.81,8.08-1.94,4.77-4.77h0Z" fill="#231815"></path></g></g><g><path class="a13912" d="m143.78,433.37c-9.24-6.17-29.5-10.85-37.01.71-3.1,4.76-.89,10.23,3.57,13.14,6.93,4.52,16.47,6.42,24.19,9.15,4.1,1.45,5.87-5.07,1.79-6.51-4.96-1.75-9.91-3.5-14.87-5.25-3.51-1.24-13.35-3.83-7.02-8.57,3.44-2.58,9.76-2.33,13.76-1.74,4.44.66,8.46,2.43,12.17,4.9,3.62,2.42,7.01-3.43,3.41-5.83h0Z" fill="#231815"></path><path class="a13912" d="m134.1,455.06c4.68,11.51,14.49,19.96,26.84,22.14,4.25.75,6.07-5.75,1.79-6.51-9.86-1.74-18.31-8.05-22.13-17.43-1.61-3.97-8.15-2.23-6.51,1.79h0Z" fill="#231815"></path><path class="a13912" d="m134,450.47c-8.78,2.83-16.87,7.1-24.04,12.92-5.52,4.48-12.92,11.46-7.96,19,2.38,3.61,8.23.23,5.83-3.41-3.19-4.84,8.34-12.08,11.57-14.21,5.1-3.36,10.58-5.92,16.39-7.8,4.12-1.33,2.36-7.85-1.79-6.51h0Z" fill="#231815"></path><path class="a13912" d="m129.71,466.8c-10.13,5.02-20.01,12.12-26.97,21.14-2.53,3.28-4.54,7.45-2.8,11.57,1.61,3.8,5.55,5.9,9.51,4.64,4.13-1.31,2.36-7.83-1.79-6.51-2.38.75-.7-3.97-.24-4.76.74-1.29,1.99-2.43,2.99-3.51,2.09-2.24,4.3-4.37,6.64-6.35,4.89-4.16,10.33-7.55,16.08-10.39,3.89-1.93.48-7.75-3.41-5.83h0Z" fill="#231815"></path><path class="a13912" d="m136.73,478.65c-10.32,7.74-17.99,17.6-22.98,29.49-1.68,4,4.85,5.75,6.51,1.79,4.24-10.1,11.12-18.89,19.88-25.46,3.43-2.57.07-8.44-3.41-5.83h0Z" fill="#231815"></path><path class="a13912" d="m146.4,483.22c-6.31,5.82-22.9,24.5-12.3,32.83,3.88,3.05,9.66,2.31,13.53-.37,5.64-3.9,6.77-11.38,10.55-16.7,8.1-11.41,23.1-15.43,33.28-24.56,9.25-8.3,15.35-21.14,8.58-32.93-8.69-15.13-27.58-15.93-42.98-15.01-4.32.26-4.35,7.01,0,6.75,13.19-.78,33.53-.97,38.52,14.73,4.34,13.65-10.69,23.92-20.58,29.75-10.21,6.02-20.36,12.05-25.6,23.17-1.37,2.9-2.48,6.55-4.95,8.73-3.37,2.97-7.57,1.7-6.22-3.32,1.87-6.96,7.82-13.57,12.95-18.3,3.2-2.95-1.58-7.72-4.77-4.77h0Z" fill="#231815"></path><path class="a13912" d="m191.78,436.61c6.05-2.18,11.08,3.21,11.64,8.96.61,6.33-2.59,12.54-5.85,17.74-6.12,9.75-14.99,17.3-25.29,22.31-1.97.96-2.14,3.87-.68,5.3,12.69,12.45,25.38,24.9,38.07,37.36,3.1,3.05,7.88-1.72,4.77-4.77-12.69-12.45-25.38-24.9-38.07-37.36-.23,1.77-.46,3.53-.68,5.3,14.24-6.94,26.79-19.17,32.49-34.15,2.69-7.08,3.27-15.48-1.63-21.74-3.93-5.01-10.4-7.68-16.55-5.46-4.06,1.46-2.31,7.99,1.79,6.51h0Z" fill="#231815"></path><path class="a13912" d="m659.62,439.2c3.71-2.47,7.73-4.25,12.17-4.9,4-.59,10.33-.84,13.76,1.74,6.32,4.74-3.51,7.33-7.02,8.57-4.96,1.75-9.91,3.5-14.87,5.25-4.07,1.44-2.32,7.96,1.79,6.51,7.71-2.72,17.28-4.65,24.19-9.15,4.47-2.91,6.68-8.37,3.57-13.14-7.51-11.55-27.78-6.87-37.01-.71-3.6,2.4-.22,8.25,3.41,5.83h0Z" fill="#231815"></path><path class="a13912" d="m659.39,453.27c-3.82,9.38-12.27,15.69-22.13,17.43-4.27.75-2.46,7.26,1.79,6.51,12.35-2.18,22.16-10.63,26.84-22.14,1.64-4.02-4.89-5.77-6.51-1.79h0Z" fill="#231815"></path><path class="a13912" d="m664.2,456.98c5.81,1.87,11.29,4.43,16.39,7.8,3.25,2.14,14.76,9.37,11.57,14.21-2.4,3.64,3.45,7.02,5.83,3.41,4.96-7.53-2.44-14.52-7.96-19-7.18-5.82-15.26-10.09-24.04-12.92-4.14-1.34-5.92,5.18-1.79,6.51h0Z" fill="#231815"></path><path class="a13912" d="m666.87,472.63c5.75,2.85,11.17,6.24,16.08,10.39,2.13,1.8,4.15,3.72,6.07,5.74,1.17,1.24,2.68,2.67,3.56,4.12.75,1.23,2.52,5.63-.24,4.76-4.15-1.31-5.93,5.2-1.79,6.51s7.9-.84,9.51-4.64c1.75-4.13-.27-8.28-2.8-11.57-6.94-9.02-16.86-16.13-26.97-21.14-3.88-1.92-7.3,3.9-3.41,5.83h0Z" fill="#231815"></path><path class="a13912" d="m659.86,484.48c8.76,6.57,15.64,15.36,19.88,25.46,1.66,3.95,8.19,2.21,6.51-1.79-4.99-11.89-12.66-21.75-22.98-29.49-3.48-2.61-6.85,3.25-3.41,5.83h0Z" fill="#231815"></path><path class="a13912" d="m648.82,488c5.22,4.82,9.78,10.57,12.48,17.2.94,2.3,1.78,5.63-1.62,6.1-1.41.2-3.15-.82-4.13-1.68-2.46-2.16-3.59-5.86-4.95-8.73-5.29-11.12-15.37-17.14-25.6-23.17s-24.86-16.08-20.58-29.75c4.92-15.72,25.4-15.51,38.52-14.73,4.34.26,4.32-6.49,0-6.75-14.21-.84-30.54-.5-40.43,11.42-8.52,10.28-6.05,23.22,2.27,32.74,9.24,10.59,23.29,14.54,33.29,24.11,5.38,5.15,6.77,12.07,11.15,17.79,3.1,4.05,8.5,6.6,13.62,5.09,16.57-4.91-3.1-28.76-9.23-34.42-3.19-2.94-7.97,1.82-4.77,4.77h0Z" fill="#231815"></path><path class="a13912" d="m610,430.1c-6.15-2.22-12.62.45-16.55,5.46-4.91,6.26-4.32,14.66-1.63,21.74,5.7,14.99,18.24,27.21,32.49,34.15-.23-1.77-.46-3.53-.68-5.3-12.69,12.45-25.38,24.9-38.07,37.36-3.11,3.05,1.67,7.82,4.77,4.77,12.69-12.45,25.38-24.9,38.07-37.36,1.46-1.43,1.28-4.34-.68-5.3-10.32-5.03-19.15-12.57-25.29-22.31-3.08-4.89-6.04-10.64-5.95-16.57.09-6.11,5.16-12.5,11.74-10.13,4.09,1.48,5.86-5.04,1.79-6.51h0Z" fill="#231815"></path></g><path class="a13912" d="m401.81,266.58v3.25c0,1.77,1.55,3.46,3.37,3.38s3.37-1.48,3.38-3.38v-3.25c0-1.77-1.55-3.46-3.37-3.38s-3.37,1.48-3.38,3.38h0Z" fill="#231815"></path><path class="a13912" d="m348.88,226.54c28.21-2.41,53.98-17.43,69.92-40.85h-5.83c9.52,21.39,28.63,37.5,51.22,43.53,4.2,1.12,5.99-5.39,1.79-6.51-21.06-5.62-38.33-20.54-47.18-40.43-1.11-2.5-4.55-1.87-5.83,0-14.5,21.3-38.4,35.31-64.09,37.5-4.3.37-4.34,7.12,0,6.75h0Z" fill="#231815"></path><path class="a13912" d="m339.46,226.95c-14.82-31.4-.43-68.49,30.99-82.54,3.96-1.77.53-7.59-3.41-5.83-34.99,15.65-49.67,57.33-33.41,91.78,1.85,3.93,7.67.5,5.83-3.41h0Z" fill="#231815"></path><path class="a13912" d="m375.28,134.94c21.23-2.8,44.51-2.87,64.03,7.17,18.67,9.6,29.67,28.26,35.01,48.12,4.47,16.62,4.59,34.09.46,50.78-1.04,4.22,5.47,6.02,6.51,1.79,7.4-29.91,2.03-63.97-16.96-88.7-10.16-13.24-25.38-21.32-41.48-24.88-15.63-3.46-31.79-3.1-47.57-1.02-4.24.56-4.3,7.32,0,6.75h0Z" fill="#231815"></path><path class="a13912" d="m494.24,359.06c16.99,5,33.98,10.01,50.97,15.01l-2.36-2.36c4.18,13.15,8.37,26.3,12.55,39.45,1.31,4.12,7.83,2.36,6.51-1.79-4.07-12.78-7.63-25.85-12.23-38.45-1.5-4.12-6.07-4.36-9.94-5.5-8.44-2.48-16.87-4.97-25.31-7.45-6.13-1.81-12.27-3.61-18.4-5.42-4.18-1.23-5.96,5.28-1.79,6.51h0Z" fill="#231815"></path><path class="a13912" d="m383.32,285.36c2.56,7.78,4.87,15.64,7.43,23.42,1.35,4.11,7.87,2.35,6.51-1.79-2.56-7.78-4.87-15.64-7.43-23.42-1.35-4.11-7.87-2.35-6.51,1.79h0Z" fill="#231815"></path><path class="a13912" d="m420.65,284.57c-2.48,7.47-4.95,14.95-7.43,22.42-1.37,4.13,5.15,5.9,6.51,1.79,2.48-7.47,4.95-14.95,7.43-22.42,1.37-4.13-5.15-5.9-6.51-1.79h0Z" fill="#231815"></path></g></svg>